<?xml version="1.0" encoding="UTF-8" standalone="no"?>
<!DOCTYPE svg PUBLIC "-//W3C//DTD SVG 1.1//EN" "http://www.w3.org/Graphics/SVG/1.1/DTD/svg11.dtd">
<!-- Generated by Microsoft Visio, SVG Export SAMC21.svg Page-1 -->
<svg class="st42" color-interpolation-filters="sRGB" height="10.2756in" viewBox="0 0 1241.32 739.841" width="17.2405in" xml:space="preserve" xmlns="http://www.w3.org/2000/svg" xmlns:xlink="http://www.w3.org/1999/xlink">
 <style type="text/css">
  .st1 {visibility:visible}
		.st2 {fill:#000000;fill-opacity:0.4;filter:url(#filter_2.6666667461395);stroke:#000000;stroke-opacity:0.4}
		.st3 {fill:#ffffff;stroke:#70ad47;stroke-width:1}
		.st4 {fill:#000000;fill-opacity:0.4;filter:url(#filter_2.6666667461395);stroke:#000000;stroke-dasharray:1,2;stroke-opacity:0.4}
		.st5 {fill:#ffffff;stroke:#70ad47;stroke-dasharray:1,2;stroke-width:1}
		.st6 {stroke:#000000;stroke-linecap:round;stroke-linejoin:round;stroke-width:0.75}
		.st7 {stroke:#000000;stroke-linecap:round;stroke-linejoin:round;stroke-width:1}
		.st8 {fill:#dae8fc;stroke:#6c8ebf;stroke-width:1}
		.st9 {marker-end:url(#mrkr5-57);stroke:#000000;stroke-linecap:round;stroke-linejoin:round;stroke-width:1}
		.st10 {fill:#000000;fill-opacity:1;stroke:#000000;stroke-opacity:1;stroke-width:0.28409090909091}
		.st11 {fill:none;stroke:none;stroke-width:0.25}
		.st12 {fill:#000000;font-family:Calibri;font-size:0.666664em}
		.st13 {fill:#000000;font-family:Calibri;font-size:0.75em;font-weight:bold}
		.st14 {fill:#d5e8d4;stroke:#82b366;stroke-width:1.5}
		.st15 {fill:#5b9bd5;fill-opacity:0.22;filter:url(#filter_2);stroke:#5b9bd5;stroke-opacity:0.22}
		.st16 {fill:#000000;stroke:#c7c8c8;stroke-width:0.25}
		.st17 {marker-start:url(#mrkr5-232);stroke:#000000;stroke-linecap:round;stroke-linejoin:round;stroke-width:0.75}
		.st18 {fill:#000000;fill-opacity:1;stroke:#000000;stroke-opacity:1;stroke-width:0.22935779816514}
		.st19 {fill:#ffffff;stroke:#000000;stroke-width:0.25}
		.st20 {fill:#000000;stroke:#000000;stroke-width:0.25}
		.st21 {fill:#000000;stroke:none;stroke-width:0.25}
		.st22 {fill:none;stroke:none;stroke-width:0.5}
		.st23 {fill:#000000;font-family:Calibri;font-size:1.00001em}
		.st24 {fill:#f8cecc;stroke:#c7c8c8;stroke-width:0.25}
		.st25 {marker-start:url(#mrkr5-432);stroke:#000000;stroke-linecap:round;stroke-linejoin:round;stroke-width:1}
		.st26 {marker-end:url(#mrkr5-444);stroke:#000000;stroke-width:0.75}
		.st27 {fill:#5b9bd5;fill-opacity:0.22;filter:url(#filter_2);stroke:#5b9bd5;stroke-dasharray:1,2;stroke-opacity:0.22}
		.st28 {fill:#ffe6cc;stroke:#d79b00;stroke-dasharray:1,2;stroke-width:1}
		.st29 {fill:#000000;font-family:Calibri;font-size:0.666664em;font-weight:bold}
		.st30 {fill:#000000;font-family:Times New Roman;font-size:1.00001em}
		.st31 {fill:#f8cecc;stroke:none;stroke-width:0.25}
		.st32 {fill:#f8cecc;stroke:#000000;stroke-width:0.25}
		.st33 {marker-end:url(#mrkr5-618);stroke:#82b366;stroke-linecap:round;stroke-linejoin:round;stroke-width:1}
		.st34 {fill:#82b366;fill-opacity:1;stroke:#82b366;stroke-opacity:1;stroke-width:0.28409090909091}
		.st35 {fill:#d5e8d4;stroke:#82b366;stroke-width:1}
		.st36 {fill:#000000;font-family:Calibri;font-size:0.833336em}
		.st37 {font-size:1em}
		.st38 {fill:#000000;fill-opacity:1;stroke:#000000;stroke-opacity:1;stroke-width:0.090252707581227}
		.st39 {fill:#0066cc;font-family:Calibri;font-size:0.666664em;font-weight:bold}
		.st40 {fill:#ffffff;stroke:#000000;stroke-width:0.75}
		.st41 {fill:#000000;font-family:Calibri;font-size:0.75em}
		.st42 {fill:none;fill-rule:evenodd;font-size:12px;overflow:visible;stroke-linecap:square;stroke-miterlimit:3}
 </style>
 <defs id="Markers">
  <g id="lend5">
   <path d="M 2 1 L 0 0 L 1.98117 -0.993387 C 1.67173 -0.364515 1.67301 0.372641 1.98465 1.00043 " style="stroke:none">
   </path>
  </g>
  <marker class="st10" id="mrkr5-57" markerUnits="strokeWidth" orient="auto" overflow="visible" refX="-6.16">
   <use transform="scale(-3.52,-3.52) " xlink:href="#lend5">
   </use>
  </marker>
  <marker class="st18" id="mrkr5-232" markerUnits="strokeWidth" orient="auto" overflow="visible" refX="7.15">
   <use transform="scale(4.36) " xlink:href="#lend5">
   </use>
  </marker>
  <marker class="st10" id="mrkr5-432" markerUnits="strokeWidth" orient="auto" overflow="visible" refX="5.8">
   <use transform="scale(3.52) " xlink:href="#lend5">
   </use>
  </marker>
  <marker class="st18" id="mrkr5-444" markerUnits="strokeWidth" orient="auto" overflow="visible" refX="-7.63">
   <use transform="scale(-4.36,-4.36) " xlink:href="#lend5">
   </use>
  </marker>
  <marker class="st34" id="mrkr5-618" markerUnits="strokeWidth" orient="auto" overflow="visible" refX="-6.16">
   <use transform="scale(-3.52,-3.52) " xlink:href="#lend5">
   </use>
  </marker>
  <marker class="st38" id="mrkr5-643" markerUnits="strokeWidth" orient="auto" overflow="visible" refX="-19.39">
   <use transform="scale(-11.08,-11.08) " xlink:href="#lend5">
   </use>
  </marker>
 </defs>
 <defs id="Filters">
  <filter id="filter_2.6666667461395">
   <feGaussianBlur stdDeviation="2.6666667461395">
   </feGaussianBlur>
  </filter>
  <filter id="filter_2">
   <feGaussianBlur stdDeviation="2">
   </feGaussianBlur>
  </filter>
 </defs>
 <g>
  <g transform="translate(228.466,-540.456)">
   <g class="st1" id="shadow580-2" transform="matrix(1,0,0,1,0,3)">
    <rect class="st2" height="197.885" width="287.32" x="0" y="541.956">
    </rect>
   </g>
   <rect class="st3" height="197.885" width="287.32" x="0" y="541.956">
   </rect>
  </g>
  <g transform="translate(269.205,-7.5)">
   <g class="st1" id="shadow577-7" transform="matrix(1,0,0,1,0,3)">
    <path class="st4" d="M0 739.84 L248.89 739.84 L248.89 420.55 L0 420.55 L0 739.84 Z">
    </path>
   </g>
   <path class="st5" d="M0 739.84 L248.89 739.84 L248.89 420.55 L0 420.55 L0 739.84 Z">
   </path>
  </g>
  <g transform="translate(940.433,-142.841)">
   <g class="st1" id="shadow512-12" transform="matrix(1,0,0,1,0,3)">
    <path class="st4" d="M0 739.84 L138.33 739.84 L138.33 551.74 L0 551.74 L0 739.84 Z">
    </path>
   </g>
   <path class="st5" d="M0 739.84 L138.33 739.84 L138.33 551.74 L0 551.74 L0 739.84 Z">
   </path>
  </g>
  <g transform="translate(142.366,-350.683)">
   <g class="st1" id="shadow381-17" transform="matrix(1,0,0,1,0,3)">
    <path class="st4" d="M0 739.84 L372.86 739.84 L372.86 563.27 L0 563.27 L0 739.84 Z">
    </path>
   </g>
   <path class="st5" d="M0 739.84 L372.86 739.84 L372.86 563.27 L0 563.27 L0 739.84 Z">
   </path>
  </g>
  <g transform="translate(940.433,-11.4441)">
   <g class="st1" id="shadow249-22" transform="matrix(1,0,0,1,0,3)">
    <path class="st4" d="M0 739.84 L137.91 739.84 L137.91 629.98 L0 629.98 L0 739.84 Z">
    </path>
   </g>
   <path class="st5" d="M0 739.84 L137.91 739.84 L137.91 629.98 L0 629.98 L0 739.84 Z">
   </path>
  </g>
  <g transform="translate(1747.05,685.806) rotate(90)">
   <path class="st6" d="M0 739.84 L15.87 739.84">
   </path>
  </g>
  <g transform="translate(942.987,-630.502)">
   <g class="st1" id="shadow131-30" transform="matrix(1,0,0,1,0,3)">
    <path class="st4" d="M0 739.84 L136.63 739.84 L136.63 633.91 L0 633.91 L0 739.84 Z">
    </path>
   </g>
   <path class="st5" d="M0 739.84 L136.63 739.84 L136.63 633.91 L0 633.91 L0 739.84 Z">
   </path>
  </g>
  <g transform="translate(941.546,-371.261)">
   <g class="st1" id="shadow107-35" transform="matrix(1,0,0,1,0,3)">
    <path class="st4" d="M0 739.84 L137.91 739.84 L137.91 522.34 L0 522.34 L0 739.84 Z">
    </path>
   </g>
   <path class="st5" d="M0 739.84 L137.91 739.84 L137.91 522.34 L0 522.34 L0 739.84 Z">
   </path>
  </g>
  <g transform="translate(1024.73,-437.419)">
   <path class="st7" d="M9 739.84 L9 701.7">
   </path>
  </g>
  <g transform="translate(683.895,-9.1875)">
   <g class="st1" id="shadow29-43" transform="matrix(1,0,0,1,0,3)">
    <path class="st4" d="M0 739.84 L133.37 739.84 L133.37 475.42 L0 475.42 L0 739.84 Z">
    </path>
   </g>
   <path class="st5" d="M0 739.84 L133.37 739.84 L133.37 475.42 L0 475.42 L0 739.84 Z">
   </path>
  </g>
  <g transform="translate(1435,496.051) rotate(90)">
   <path class="st8" d="M0 739.84 L216.4 739.84 L180.33 713.3 L36.07 713.3 L0 739.84 Z">
   </path>
  </g>
  <g transform="translate(763.94,-113.962)">
   <path class="st7" d="M9 739.84 L9 768.37">
   </path>
  </g>
  <g transform="translate(718.694,-122.977)">
   <path class="st9" d="M2.37 731.21 L9.48 730.81">
   </path>
  </g>
  <g transform="translate(694.934,1270.12) rotate(180)">
   <path class="st7" d="M0 739.84 L61.98 739.84">
   </path>
  </g>
  <g transform="translate(694.451,1400.57) rotate(180)">
   <path class="st7" d="M0 739.84 L61.5 739.84">
   </path>
  </g>
  <g transform="translate(694.77,1334.44) rotate(180)">
   <path class="st7" d="M0 739.84 L61.82 739.84">
   </path>
  </g>
  <g transform="translate(694.663,1356.09) rotate(180)">
   <path class="st7" d="M0 739.84 L61.71 739.84">
   </path>
  </g>
  <g transform="translate(694.663,1377.74) rotate(180)">
   <path class="st7" d="M0 739.84 L61.71 739.84">
   </path>
  </g>
  <g transform="translate(694.663,1291.96) rotate(180)">
   <path class="st7" d="M0 739.84 L61.71 739.84">
   </path>
  </g>
  <g transform="translate(694.77,1314.02) rotate(180)">
   <path class="st7" d="M0 739.84 L61.82 739.84">
   </path>
  </g>
  <g transform="translate(681.753,-523.197)">
   <g class="st1" id="shadow45-80" transform="matrix(1,0,0,1,0,3)">
    <path class="st4" d="M0 739.84 L134.08 739.84 L134.08 527.13 L0 527.13 L0 739.84 Z">
    </path>
   </g>
   <path class="st5" d="M0 739.84 L134.08 739.84 L134.08 527.13 L0 527.13 L0 739.84 Z">
   </path>
  </g>
  <g transform="translate(1430.2,6.88419) rotate(90)">
   <path class="st8" d="M0 739.84 L204.45 739.84 L170.37 714.57 L34.07 714.57 L0 739.84 Z">
   </path>
  </g>
  <g transform="translate(714.784,-629.747)">
   <path class="st9" d="M0.2 730.89 L11.64 730.83">
   </path>
  </g>
  <g id="clk_sam_c20_c21-gclk8Line" transform="translate(632.955,-57.3957)">
   <path class="st7" d="M0 739.84 L61.82 739.84">
   </path>
  </g>
  <g transform="translate(795.651,-639.172)">
   <path class="st7" d="M0 739.84 L72 739.84">
   </path>
  </g>
  <g transform="translate(800.371,-132.824)">
   <path class="st9" d="M0 739.84 L72.3 739.84">
   </path>
  </g>
  <g transform="translate(809.026,-119.807)">
   <desc>
    GCLKx
   </desc>
   <rect class="st11" height="10.9527" width="46.2989" x="0" y="728.888">
   </rect>
   <text class="st12" x="13" y="736.76">
    GCLKx
   </text>
  </g>
  <g transform="translate(695.788,-720.559)">
   <desc>
    GCLK Generator 0
   </desc>
   <rect class="st11" height="10.9527" width="102.708" x="0" y="728.888">
   </rect>
   <text class="st13" x="18.21" y="737.06">
    GCLK Generator 0
   </text>
  </g>
  <g transform="translate(688.591,-254.028)">
   <desc>
    GCLK Generator x (x=2-8)
   </desc>
   <rect class="st11" height="16.8085" width="117.476" x="0" y="723.032">
   </rect>
   <text class="st13" x="11.74" y="734.14">
    GCLK Generator x (x=2-8)
   </text>
  </g>
  <g transform="translate(976.48,-471.009)">
   <path class="st7" d="M0 730.84 L50.92 730.84">
   </path>
  </g>
  <g transform="translate(955.18,911.911) rotate(180)">
   <path class="st7" d="M0 739.84 L60.57 739.84">
   </path>
  </g>
  <g transform="translate(950.197,1039.34) rotate(-179.614)">
   <path class="st7" d="M0 739.84 L60.65 739.84">
   </path>
  </g>
  <g transform="translate(955.18,975.227) rotate(180)">
   <path class="st7" d="M0 739.84 L60.9 739.84">
   </path>
  </g>
  <g transform="translate(955.18,996.877) rotate(180)">
   <path class="st7" d="M0 739.84 L60.51 739.84">
   </path>
  </g>
  <g transform="translate(955.18,1018.53) rotate(180)">
   <path class="st7" d="M0 739.84 L61.15 739.84">
   </path>
  </g>
  <g transform="translate(955.18,932.744) rotate(180)">
   <path class="st7" d="M0 739.84 L60.57 739.84">
   </path>
  </g>
  <g transform="translate(955.18,954.802) rotate(180)">
   <path class="st7" d="M0 739.84 L60.57 739.84">
   </path>
  </g>
  <g transform="translate(956.323,-574.37)">
   <desc>
    Peripheral Clock Selection
   </desc>
   <rect class="st11" height="10.9527" width="125.137" x="0" y="728.888">
   </rect>
   <text class="st13" x="14.05" y="737.06">
    Peripheral Clock Selection
   </text>
  </g>
  <g transform="translate(1035.82,-471.009)">
   <path class="st9" d="M0 730.94 L118.5 730.75">
   </path>
  </g>
  <g transform="translate(955.95,-722.574)">
   <desc>
    Main Clock
   </desc>
   <rect class="st11" height="10.9527" width="110.702" x="0" y="728.888">
   </rect>
   <text class="st13" x="34.71" y="737.06">
    Main Clock
   </text>
  </g>
  <g transform="translate(819.732,-641.998)">
   <desc>
    GCLK0
   </desc>
   <rect class="st11" height="10.9527" width="33.706" x="0" y="728.888">
   </rect>
   <text class="st12" x="6.41" y="736.76">
    GCLK0
   </text>
  </g>
  <g transform="translate(1038.33,-692.76)">
   <path class="st9" d="M0 739.84 L116.14 739.84">
   </path>
  </g>
  <g transform="translate(1028.13,-471.643)">
   <path class="st14" d="M0 723.11 L0 739.84 L11.7 731.98 L0 723.11 Z">
   </path>
  </g>
  <g transform="translate(1003.65,1419.36) rotate(180)">
   <path class="st6" d="M0 739.84 L114.51 739.84">
   </path>
  </g>
  <g transform="translate(1012.86,-49.7323)">
   <path class="st6" d="M0 731.01 L147.63 730.67">
   </path>
  </g>
  <g transform="translate(1002.33,-50.9033)">
   <path class="st14" d="M0 723.57 L0 739.84 L11.38 732.2 L0 723.57 Z">
   </path>
  </g>
  <g transform="translate(954.035,-108.358)">
   <desc>
    GCLK Input Output (IO)
   </desc>
   <rect class="st11" height="10.9527" width="110.702" x="0" y="728.888">
   </rect>
   <text class="st13" x="12.23" y="737.06">
    GCLK Input Output (IO)
   </text>
  </g>
  <g transform="translate(682.79,-290.241)">
   <g class="st1" id="shadow257-168" transform="matrix(1,0,0,1,0,3)">
    <path class="st4" d="M0 739.84 L134.08 739.84 L134.08 525.47 L0 525.47 L0 739.84 Z">
    </path>
   </g>
   <path class="st5" d="M0 739.84 L134.08 739.84 L134.08 525.47 L0 525.47 L0 739.84 Z">
   </path>
  </g>
  <g transform="translate(1431.43,247.238) rotate(90)">
   <path class="st8" d="M0 739.84 L193.17 739.84 L160.97 714.72 L32.19 714.72 L0 739.84 Z">
   </path>
  </g>
  <g transform="translate(762.575,-380.721)">
   <path class="st7" d="M9 739.84 L9 768.37">
   </path>
  </g>
  <g transform="translate(716.132,-390.767)">
   <path class="st9" d="M1.41 730.88 L10.43 730.83">
   </path>
  </g>
  <g transform="translate(691.833,1022.74) rotate(180)">
   <path class="st7" d="M0 739.84 L61.32 739.84">
   </path>
  </g>
  <g transform="translate(691.975,1149.78) rotate(180)">
   <path class="st7" d="M0 739.84 L61.06 739.84">
   </path>
  </g>
  <g transform="translate(692.117,1086.06) rotate(180)">
   <path class="st7" d="M0 739.84 L61.6 739.84">
   </path>
  </g>
  <g transform="translate(691.975,1107.71) rotate(180)">
   <path class="st7" d="M0 739.84 L61.52 739.84">
   </path>
  </g>
  <g transform="translate(691.833,1129.36) rotate(180)">
   <path class="st7" d="M0 739.84 L61.29 739.84">
   </path>
  </g>
  <g transform="translate(692.117,1043.58) rotate(180)">
   <path class="st7" d="M0 739.84 L61.49 739.84">
   </path>
  </g>
  <g transform="translate(691.809,1065.63) rotate(180)">
   <path class="st7" d="M0 739.84 L61.27 739.84">
   </path>
  </g>
  <g transform="translate(822.634,-403.652)">
   <desc>
    GCLK1
   </desc>
   <rect class="st11" height="10.9527" width="33.706" x="0" y="728.888">
   </rect>
   <text class="st12" x="6.41" y="736.76">
    GCLK1
   </text>
  </g>
  <g transform="translate(705.442,-481.723)">
   <desc>
    GCLK Generator 1
   </desc>
   <rect class="st11" height="10.9527" width="102.708" x="0" y="728.888">
   </rect>
   <text class="st13" x="18.21" y="737.06">
    GCLK Generator 1
   </text>
  </g>
  <g transform="translate(799.668,-399.393)">
   <path class="st9" d="M0 739.84 L51.42 739.84">
   </path>
  </g>
  <g transform="translate(1013.23,1379.54) rotate(180)">
   <path class="st14" d="M0 723.57 L0 739.84 L11.38 732.2 L0 723.57 Z">
   </path>
  </g>
  <g transform="translate(1013.31,-83.146)">
   <path class="st6" d="M0 730.84 L28.9 730.84">
   </path>
  </g>
  <g transform="translate(1782.15,647.746) rotate(90)">
   <path class="st6" d="M0 739.84 L33.48 739.84">
   </path>
  </g>
  <g transform="translate(1040.14,-56.1545)">
   <g class="st1" id="shadow283-223" transform="matrix(1,0,0,1,0.345598,1.97279)">
    <ellipse class="st15" cx="2.44865" cy="737.392" rx="2.44865" ry="2.44865">
    </ellipse>
   </g>
   <ellipse class="st16" cx="2.44865" cy="737.392" rx="2.44865" ry="2.44865">
   </ellipse>
  </g>
  <g transform="translate(887.654,-83.4115)">
   <path class="st17" d="M5.36 730.84 L5.72 730.84 L114.36 730.84">
   </path>
  </g>
  <g transform="translate(882.166,-96.218)">
   <desc>
    GCLK_IN[x]
   </desc>
   <rect class="st11" height="10.9527" width="51.8828" x="0" y="728.888">
   </rect>
   <text class="st12" x="7.76" y="736.76">
    GCLK_IN[x]
   </text>
  </g>
  <g transform="translate(880.116,-72.088)">
   <desc>
    GCLKx
   </desc>
   <rect class="st11" height="10.9527" width="38.4592" x="0" y="728.888">
   </rect>
   <text class="st12" x="9.08" y="736.76">
    GCLKx
   </text>
  </g>
  <g transform="translate(447.841,-684.195)">
   <path class="st9" d="M0 730.85 L120.39 730.83">
   </path>
  </g>
  <g transform="translate(447.972,-596.581)">
   <path class="st9" d="M0 730.84 L119.54 730.84">
   </path>
  </g>
  <g transform="translate(514.128,-696.654)">
   <desc>
    OSC48M
   </desc>
   <rect class="st11" height="10.9527" width="58.9742" x="0" y="728.888">
   </rect>
   <text class="st12" x="15.39" y="736.76">
    OSC48M
   </text>
  </g>
  <g transform="translate(521.61,-608.363)">
   <desc>
    XOSC
   </desc>
   <rect class="st11" height="10.9527" width="58.9742" x="0" y="728.888">
   </rect>
   <text class="st12" x="20.79" y="736.76">
    XOSC
   </text>
  </g>
  <g transform="translate(96.0282,-445.11)">
   <path class="st9" d="M0 730.84 L54.17 730.84">
   </path>
  </g>
  <g transform="translate(52.1236,-388.705)">
   <path class="st7" d="M0 730.84 L172.9 730.84">
   </path>
  </g>
  <g transform="translate(191.807,-435.014)">
   <path class="st7" d="M-8.59 739.84 L-9.41 757.87">
   </path>
  </g>
  <g transform="translate(209.041,-445.089)">
   <path class="st7" d="M1.23 730.91 L16.77 730.77">
   </path>
  </g>
  <g transform="translate(98.2206,-482.897)">
   <path class="st7" d="M0 730.84 L126.08 730.84">
   </path>
  </g>
  <g transform="translate(245.157,-450.379)">
   <path class="st9" d="M0 731.05 L67.22 730.67">
   </path>
  </g>
  <g transform="translate(396.427,-450.59)">
   <path class="st9" d="M0 730.84 L50.02 730.84">
   </path>
  </g>
  <g transform="translate(470.928,-444.795)">
   <path class="st7" d="M8.86 740.77 L9.14 756.91">
   </path>
  </g>
  <g transform="translate(381.042,-443.768)">
   <path class="st7" d="M9 741.79 L9 755.89">
   </path>
  </g>
  <g transform="translate(489.483,-450.396)">
   <path class="st9" d="M0 730.84 L74.63 730.84">
   </path>
  </g>
  <g transform="translate(515.696,-461.611)">
   <desc>
    FDPLL
   </desc>
   <rect class="st11" height="10.9527" width="58.9742" x="0" y="728.888">
   </rect>
   <text class="st12" x="19.76" y="736.76">
    FDPLL
   </text>
  </g>
  <g transform="translate(282.116,-510.791)">
   <desc>
    Fractional Digital Phase Locked Loop
   </desc>
   <rect class="st11" height="10.9527" width="167.984" x="0" y="728.888">
   </rect>
   <text class="st13" x="15.97" y="737.06">
    Fractional Digital Phase Locked Loop
   </text>
  </g>
  <g transform="translate(410.8,-215.197)">
   <path class="st9" d="M0 748.62 L152.32 749.05">
   </path>
  </g>
  <g transform="translate(408.707,-20.2485)">
   <path class="st9" d="M0 730.84 L153.78 730.84">
   </path>
  </g>
  <g transform="translate(252.399,-68.2209)">
   <path class="st7" d="M0 730.84 L50.86 730.84">
   </path>
  </g>
  <g transform="translate(249.725,-22.1371)">
   <path class="st7" d="M0 730.84 L52.1 730.84">
   </path>
  </g>
  <g transform="translate(240.331,-25.4247)">
   <rect class="st19" height="12.1149" width="12.1149" x="0" y="727.726">
   </rect>
  </g>
  <g transform="translate(-276.168,194.983) rotate(-45)">
   <path class="st20" d="M0 732.5 L7.02 732.5 L7.02 739.84 L7.02 732.5 L14.04 732.5 L7.02 732.5 L7.02 725.17 L7.02 732.5 L0 732.5 Z">
   </path>
  </g>
  <g transform="translate(241.101,-71.5085)">
   <rect class="st19" height="12.1149" width="12.1149" x="0" y="727.726">
   </rect>
  </g>
  <g transform="translate(-275.766,149.28) rotate(-45)">
   <path class="st20" d="M0 732.5 L7.02 732.5 L7.02 739.84 L7.02 732.5 L14.04 732.5 L7.02 732.5 L7.02 725.17 L7.02 732.5 L0 732.5 Z">
   </path>
  </g>
  <g transform="translate(1172.33,600.319) rotate(90)">
   <path class="st8" d="M0 739.84 L80.65 739.84 L67.21 719.11 L13.44 719.11 L0 739.84 Z">
   </path>
  </g>
  <g transform="translate(453.222,-106.076)">
   <path class="st9" d="M0 748.21 L109.9 749.4">
   </path>
  </g>
  <g transform="translate(282.826,-78.5976)">
   <path class="st7" d="M0 739.84 L0 698.92 L149.66 698.92">
   </path>
  </g>
  <g transform="translate(280.012,-74.4576)">
   <path class="st21" d="M0 736.81 A3.02874 3.02874 0 0 1 6.06 736.81 A3.02874 3.02874 0 1 1 0 736.81 Z">
   </path>
  </g>
  <g transform="translate(197.154,-64.6176)">
   <desc>
    XIN32
   </desc>
   <rect class="st22" height="23.7193" width="48.906" x="0" y="716.122">
   </rect>
   <text class="st23" x="9.87" y="731.58">
    XIN32
   </text>
  </g>
  <g transform="translate(184.56,-18.7108)">
   <desc>
    XOUT32
   </desc>
   <rect class="st22" height="23.7193" width="56.0738" x="0" y="716.122">
   </rect>
   <text class="st23" x="8.09" y="731.58">
    XOUT32
   </text>
  </g>
  <g transform="translate(514.98,-208.504)">
   <desc>
    OSCULP1K
   </desc>
   <rect class="st11" height="10.9527" width="58.9742" x="0" y="728.888">
   </rect>
   <text class="st12" x="12.45" y="736.76">
    OSCULP1K
   </text>
  </g>
  <g transform="translate(520.817,-99.7678)">
   <desc>
    XOSC32K
   </desc>
   <rect class="st11" height="10.9527" width="43.3861" x="0" y="728.888">
   </rect>
   <text class="st12" x="6.87" y="736.76">
    XOSC32K
   </text>
  </g>
  <g transform="translate(410.516,-151.173)">
   <path class="st9" d="M0 730.84 L153.24 730.84">
   </path>
  </g>
  <g transform="translate(517.412,-164.251)">
   <desc>
    OSCULP32K
   </desc>
   <rect class="st11" height="10.9527" width="58.9742" x="0" y="728.888">
   </rect>
   <text class="st12" x="10.42" y="736.76">
    OSCULP32K
   </text>
  </g>
  <g transform="translate(1160.89,-351.649)">
   <desc>
    EIC
   </desc>
   <g class="st1" id="shadow412-356" transform="matrix(1,0,0,1,0.345598,1.97279)">
    <rect class="st15" height="24.5605" width="74.3702" x="0" y="715.28">
    </rect>
   </g>
   <rect class="st24" height="24.5605" width="74.3702" x="0" y="715.28">
   </rect>
   <text class="st23" x="29.54" y="731.16">
    EIC
   </text>
  </g>
  <g transform="translate(411.289,-302.1)">
   <path class="st9" d="M0 748.67 L150.55 749">
   </path>
  </g>
  <g transform="translate(519.358,-295.24)">
   <desc>
    OSC32K
   </desc>
   <rect class="st11" height="10.9527" width="40.9907" x="0" y="728.888">
   </rect>
   <text class="st12" x="7.74" y="736.76">
    OSC32K
   </text>
  </g>
  <g transform="translate(410.304,-254.172)">
   <path class="st9" d="M0 748.54 L153.2 749.12">
   </path>
  </g>
  <g transform="translate(517.169,-247.953)">
   <desc>
    OSC1K
   </desc>
   <rect class="st11" height="10.9527" width="40.9907" x="0" y="728.888">
   </rect>
   <text class="st12" x="9.77" y="736.76">
    OSC1K
   </text>
  </g>
  <g transform="translate(408.282,-71.3994)">
   <path class="st7" d="M0 730.84 L23.61 730.84">
   </path>
  </g>
  <g transform="translate(1160.89,-322.152)">
   <desc>
    WDT
   </desc>
   <g class="st1" id="shadow468-381" transform="matrix(1,0,0,1,0.345598,1.97279)">
    <rect class="st15" height="24.5605" width="74.3702" x="0" y="715.28">
    </rect>
   </g>
   <rect class="st24" height="24.5605" width="74.3702" x="0" y="715.28">
   </rect>
   <text class="st23" x="25.23" y="731.16">
    WDT
   </text>
  </g>
  <g transform="translate(1161.09,-467.729)">
   <desc>
    Peripherals
   </desc>
   <g class="st1" id="shadow473-387" transform="matrix(1,0,0,1,0.345598,1.97279)">
    <rect class="st15" height="24.5605" width="73.1724" x="0" y="715.28">
    </rect>
   </g>
   <rect class="st24" height="24.5605" width="73.1724" x="0" y="715.28">
   </rect>
   <text class="st23" x="9.05" y="731.16">
    Peripherals
   </text>
  </g>
  <g transform="translate(518.385,-31.2387)">
   <desc>
    XOSC1K
   </desc>
   <rect class="st11" height="10.9527" width="43.3861" x="0" y="728.888">
   </rect>
   <text class="st12" x="8.89" y="736.76">
    XOSC1K
   </text>
  </g>
  <g transform="translate(1160.98,-231.964)">
   <desc>
    RTC
   </desc>
   <g class="st1" id="shadow475-396" transform="matrix(1,0,0,1,0.345598,1.97279)">
    <rect class="st15" height="24.5605" width="73.7511" x="0" y="715.28">
    </rect>
   </g>
   <rect class="st24" height="24.5605" width="73.7511" x="0" y="715.28">
   </rect>
   <text class="st23" x="27.49" y="731.16">
    RTC
   </text>
  </g>
  <g transform="translate(1759.18,412.278) rotate(90)">
   <path class="st8" d="M0 739.84 L177.75 739.84 L148.12 710.59 L29.62 710.59 L0 739.84 Z">
   </path>
  </g>
  <g transform="translate(886.86,-238.01)">
   <path class="st7" d="M0 730.84 L131.36 730.84">
   </path>
  </g>
  <g transform="translate(886.86,-216.308)">
   <path class="st7" d="M0 730.84 L131.36 730.84">
   </path>
  </g>
  <g transform="translate(886.86,-193.344)">
   <path class="st7" d="M0 730.84 L131.36 730.84">
   </path>
  </g>
  <g transform="translate(887.042,-260.301)">
   <path class="st7" d="M0 730.85 L131.17 730.83">
   </path>
  </g>
  <g transform="translate(887.124,-282.953)">
   <path class="st7" d="M0 730.84 L131.09 730.84">
   </path>
  </g>
  <g transform="translate(1048.59,-253.209)">
   <path class="st9" d="M0 748.74 L105.74 748.93">
   </path>
  </g>
  <g transform="translate(984.69,-289.387)">
   <path class="st21" d="M0 737.25 A2.59064 2.59064 0 1 1 5.18 737.25 A2.59064 2.59064 0 0 1 0 737.25 Z">
   </path>
  </g>
  <g transform="translate(958.531,-266.858)">
   <path class="st21" d="M0 737.25 A2.59064 2.59064 0 1 1 5.18 737.25 A2.59064 2.59064 0 0 1 0 737.25 Z">
   </path>
  </g>
  <g transform="translate(984.274,786.922) rotate(180)">
   <path class="st25" d="M5.8 739.84 L6.16 739.84 L116.41 739.84">
   </path>
  </g>
  <g transform="translate(1607.49,47.0808) rotate(90)">
   <path class="st7" d="M0 739.84 L53.61 739.84">
   </path>
  </g>
  <g transform="translate(323.278,-443.339)">
   <path class="st7" d="M9 741.79 L9 755.89">
   </path>
  </g>
  <g transform="translate(987.278,-292.688)">
   <path class="st26" d="M0 739.84 L0 697.78 L167.49 697.78">
   </path>
  </g>
  <g transform="translate(960.278,-270.29)">
   <path class="st26" d="M0 739.84 L0 645.4 L194.49 645.4">
   </path>
  </g>
  <g transform="translate(889.155,-568.199)">
   <desc>
    GCLK0
   </desc>
   <rect class="st11" height="10.9527" width="37.4336" x="0" y="728.888">
   </rect>
   <text class="st12" x="8.27" y="736.76">
    GCLK0
   </text>
  </g>
  <g transform="translate(889.155,-548.355)">
   <desc>
    GCLK1
   </desc>
   <rect class="st11" height="10.9527" width="37.4336" x="0" y="728.888">
   </rect>
   <text class="st12" x="8.27" y="736.76">
    GCLK1
   </text>
  </g>
  <g transform="translate(889.155,-525.996)">
   <desc>
    GCLK2
   </desc>
   <rect class="st11" height="10.9527" width="37.4336" x="0" y="728.888">
   </rect>
   <text class="st12" x="8.27" y="736.76">
    GCLK2
   </text>
  </g>
  <g transform="translate(889.155,-505.593)">
   <desc>
    GCLK3
   </desc>
   <rect class="st11" height="10.9527" width="37.4336" x="0" y="728.888">
   </rect>
   <text class="st12" x="8.27" y="736.76">
    GCLK3
   </text>
  </g>
  <g transform="translate(889.155,-482.395)">
   <desc>
    GCLK4
   </desc>
   <rect class="st11" height="10.9527" width="37.4336" x="0" y="728.888">
   </rect>
   <text class="st12" x="8.27" y="736.76">
    GCLK4
   </text>
  </g>
  <g transform="translate(889.155,-461.433)">
   <desc>
    GCLK5
   </desc>
   <rect class="st11" height="10.9527" width="37.4336" x="0" y="728.888">
   </rect>
   <text class="st12" x="8.27" y="736.76">
    GCLK5
   </text>
  </g>
  <g transform="translate(889.155,-440.75)">
   <desc>
    GCLK6
   </desc>
   <rect class="st11" height="10.9527" width="37.4336" x="0" y="728.888">
   </rect>
   <text class="st12" x="8.27" y="736.76">
    GCLK6
   </text>
  </g>
  <g transform="translate(889.155,-420.906)">
   <desc>
    GCLK7
   </desc>
   <rect class="st11" height="10.9527" width="37.4336" x="0" y="728.888">
   </rect>
   <text class="st12" x="8.27" y="736.76">
    GCLK7
   </text>
  </g>
  <g transform="translate(923.999,-147.222)">
   <desc>
    RTC Clock Selection
   </desc>
   <rect class="st11" height="10.9527" width="110.702" x="0" y="728.888">
   </rect>
   <text class="st13" x="19.08" y="737.06">
    RTC Clock Selection
   </text>
  </g>
  <g transform="translate(458.871,-637.352)">
   <g class="st1" id="shadow553-478" transform="matrix(1,0,0,1,0.345598,1.97279)">
    <path class="st27" d="M0 739.84 L48.97 739.84 L48.97 705.92 L0 705.92 L0 739.84 Z">
    </path>
   </g>
   <path class="st28" d="M0 739.84 L48.97 739.84 L48.97 705.92 L0 705.92 L0 739.84 Z">
   </path>
  </g>
  <g transform="translate(-265.214,134.098) rotate(-90)">
   <path class="st25" d="M5.8 739.84 L6.16 739.84 L45.52 739.84">
   </path>
  </g>
  <g transform="translate(-65.5997,-425.552) rotate(-46.1149)">
   <path class="st7" d="M0 739.84 L10.03 739.84">
   </path>
  </g>
  <g transform="translate(-265.08,79.8281) rotate(-90)">
   <path class="st7" d="M0 739.84 L33.82 739.84">
   </path>
  </g>
  <g transform="translate(472.293,-649.796)">
   <g class="st1" id="shadow558-494" transform="matrix(1,0,0,1,0.345598,1.97279)">
    <ellipse class="st15" cx="2.44865" cy="737.392" rx="2.44865" ry="2.44865">
    </ellipse>
   </g>
   <ellipse class="st16" cx="2.44865" cy="737.392" rx="2.44865" ry="2.44865">
   </ellipse>
  </g>
  <g transform="translate(470.85,-645.077)">
   <desc>
    CFD
   </desc>
   <rect class="st11" height="10.9527" width="32.1051" x="0" y="728.888">
   </rect>
   <text class="st12" x="9.62" y="736.76">
    CFD
   </text>
  </g>
  <g transform="translate(472.467,-690.699)">
   <g class="st1" id="shadow564-502" transform="matrix(1,0,0,1,0.345598,1.97279)">
    <ellipse class="st15" cx="2.44865" cy="737.392" rx="2.44865" ry="2.44865">
    </ellipse>
   </g>
   <ellipse class="st16" cx="2.44865" cy="737.392" rx="2.44865" ry="2.44865">
   </ellipse>
  </g>
  <g transform="translate(456.312,-117.419)">
   <g class="st1" id="shadow566-507" transform="matrix(1,0,0,1,0.345598,1.97279)">
    <path class="st27" d="M0 739.84 L48.97 739.84 L48.97 705.92 L0 705.92 L0 739.84 Z">
    </path>
   </g>
   <path class="st28" d="M0 739.84 L48.97 739.84 L48.97 705.92 L0 705.92 L0 739.84 Z">
   </path>
  </g>
  <g transform="translate(-266.894,642.551) rotate(-90)">
   <path class="st25" d="M5.8 739.84 L6.16 739.84 L34.49 739.84">
   </path>
  </g>
  <g transform="translate(470.498,-157.537)">
   <g class="st1" id="shadow568-517" transform="matrix(1,0,0,1,0.345598,1.97279)">
    <ellipse class="st15" cx="2.44865" cy="737.392" rx="2.44865" ry="2.44865">
    </ellipse>
   </g>
   <ellipse class="st16" cx="2.44865" cy="737.392" rx="2.44865" ry="2.44865">
   </ellipse>
  </g>
  <g transform="translate(-67.4295,94.2078) rotate(-46.1149)">
   <path class="st7" d="M0 739.84 L10.03 739.84">
   </path>
  </g>
  <g transform="translate(-266.894,600.068) rotate(-90)">
   <path class="st7" d="M0 739.84 L20.47 739.84">
   </path>
  </g>
  <g transform="translate(470.498,-137.241)">
   <g class="st1" id="shadow571-528" transform="matrix(1,0,0,1,0.345598,1.97279)">
    <ellipse class="st15" cx="2.44865" cy="737.392" rx="2.44865" ry="2.44865">
    </ellipse>
   </g>
   <ellipse class="st16" cx="2.44865" cy="737.392" rx="2.44865" ry="2.44865">
   </ellipse>
  </g>
  <g transform="translate(472.106,-123.333)">
   <desc>
    CFD
   </desc>
   <rect class="st11" height="10.9527" width="29.5942" x="0" y="728.888">
   </rect>
   <text class="st12" x="8.37" y="736.76">
    CFD
   </text>
  </g>
  <g transform="translate(886.86,-169.022)">
   <path class="st7" d="M0 730.84 L131.36 730.84">
   </path>
  </g>
  <g transform="translate(310.35,-311.593)">
   <desc>
    32 KHz Oscillators Controller
   </desc>
   <rect class="st11" height="10.9527" width="150.791" x="0" y="728.888">
   </rect>
   <text class="st13" x="22.19" y="737.06">
    32 KHz Oscillators Controller
   </text>
  </g>
  <g transform="translate(316.249,-723.344)">
   <desc>
    Oscillators Controller
   </desc>
   <rect class="st11" height="10.9527" width="150.791" x="0" y="728.888">
   </rect>
   <text class="st29" x="40.27" y="736.76">
    Oscillators Controller
   </text>
  </g>
  <g transform="translate(1160.91,-680.48)">
   <desc>
    CPU
   </desc>
   <g class="st1" id="shadow591-545" transform="matrix(1,0,0,1,0.345598,1.97279)">
    <rect class="st15" height="24.5605" width="76.9359" x="0" y="715.28">
    </rect>
   </g>
   <rect class="st24" height="24.5605" width="76.9359" x="0" y="715.28">
   </rect>
   <text class="st23" x="28.32" y="731.16">
    CPU
   </text>
  </g>
  <g transform="translate(470.498,-128.55)">
   <g class="st1" id="shadow596-551" transform="matrix(1,0,0,1,0.345598,1.97279)">
    <ellipse class="st15" cx="2.44865" cy="737.392" rx="2.44865" ry="2.44865">
    </ellipse>
   </g>
   <ellipse class="st16" cx="2.44865" cy="737.392" rx="2.44865" ry="2.44865">
   </ellipse>
  </g>
  <g transform="translate(472.491,-657.627)">
   <g class="st1" id="shadow597-556" transform="matrix(1,0,0,1,0.345598,1.97279)">
    <ellipse class="st15" cx="2.44865" cy="737.392" rx="2.44865" ry="2.44865">
    </ellipse>
   </g>
   <ellipse class="st16" cx="2.44865" cy="737.392" rx="2.44865" ry="2.44865">
   </ellipse>
  </g>
  <g transform="translate(759.139,-619.903)">
   <path class="st7" d="M9 739.84 L9 768.37">
   </path>
  </g>
  <g transform="translate(731.446,-619.7)">
   <desc>
    ÷
   </desc>
   <path class="st14" d="M4.99 739.84 L64.84 739.84 A4.74904 4.74904 -180 0 0 69.59 735.09 L69.59 706.84 A4.74904 4.74904 -180 0 0 64.84
						 702.09 L4.38 702.09 A4.37776 4.37776 -180 0 0 0 706.47 L0 734.85 A4.99264 4.99264 -180 0 0 4.99 739.84 Z">
   </path>
   <text class="st30" x="7" y="724.61">
    ÷
   </text>
  </g>
  <g transform="translate(691.03,772.958) rotate(180)">
   <path class="st7" d="M0 739.84 L61.08 739.84">
   </path>
  </g>
  <g transform="translate(690.84,900.407) rotate(180)">
   <path class="st7" d="M0 739.84 L60.89 739.84">
   </path>
  </g>
  <g transform="translate(690.817,836.274) rotate(180)">
   <path class="st7" d="M0 739.84 L60.87 739.84">
   </path>
  </g>
  <g transform="translate(691.137,857.924) rotate(180)">
   <path class="st7" d="M0 739.84 L61.19 739.84">
   </path>
  </g>
  <g transform="translate(691.243,879.574) rotate(180)">
   <path class="st7" d="M0 739.84 L61.3 739.84">
   </path>
  </g>
  <g transform="translate(691.03,793.791) rotate(180)">
   <path class="st7" d="M0 739.84 L61.08 739.84">
   </path>
  </g>
  <g transform="translate(691.137,815.85) rotate(180)">
   <path class="st7" d="M0 739.84 L61.19 739.84">
   </path>
  </g>
  <g transform="translate(1160.27,-48.9486)">
   <g transform="translate(3.67706E-13,2.37861)">
    <g class="st1" id="shadow593-589" transform="matrix(1,0,0,1,0.345598,1.97279)">
     <rect class="st15" height="24.5605" width="73.1724" x="0" y="715.28">
     </rect>
    </g>
    <rect class="st24" height="24.5605" width="73.1724" x="0" y="715.28">
    </rect>
   </g>
   <g transform="translate(17.0254,-4.42532)">
    <desc>
     GCLK_IO[x]
    </desc>
    <rect class="st31" height="10.9527" width="56.1839" x="0" y="728.888">
    </rect>
    <text class="st12" x="9.84" y="736.76">
     GCLK_IO[x]
    </text>
   </g>
   <g transform="translate(9.82832,-5.069)">
    <rect class="st32" height="10.6737" width="10.2662" x="0" y="729.167">
    </rect>
   </g>
   <g transform="translate(-507.945,216.336) rotate(-45)">
    <path class="st32" d="M0 732.65 L6.96 732.65 L6.96 739.84 L6.96 732.65 L13.92 732.65 L6.96 732.65 L6.96 725.45 L6.96 732.65 L0
							 732.65 Z">
    </path>
   </g>
  </g>
  <g transform="translate(950.197,1060.42) rotate(-179.614)">
   <path class="st7" d="M0 739.84 L60.65 739.84">
   </path>
  </g>
  <g transform="translate(690.907,922.499) rotate(180)">
   <path class="st7" d="M0 739.84 L60.96 739.84">
   </path>
  </g>
  <g transform="translate(950.197,1082.52) rotate(-179.614)">
   <path class="st7" d="M0 739.84 L60.65 739.84">
   </path>
  </g>
  <g transform="translate(889.155,-397.68)">
   <desc>
    GCLK8
   </desc>
   <rect class="st11" height="10.9527" width="37.4336" x="0" y="728.888">
   </rect>
   <text class="st12" x="8.27" y="736.76">
    GCLK8
   </text>
  </g>
  <g transform="translate(370.847,-645.675)">
   <g transform="translate(-19.7562,-40.7627)">
    <path class="st33" d="M0 730.84 L23.09 730.84">
    </path>
   </g>
   <g transform="translate(7.99379,-30.2627)">
    <desc>
     ÷
    </desc>
    <path class="st35" d="M6.86 739.84 L61.76 739.84 A6.86239 6.86239 -180 0 0 68.63 732.98 L68.62 707.33 A6.86239 6.86239 -180 0
							 0 61.76 700.47 L6.86 700.47 A6.86239 6.86239 -180 0 0 0 707.33 L0 732.98 A6.86239 6.86239 -180 0 0 6.86
							 739.84 Z">
    </path>
    <text class="st30" x="13" y="723.8">
     ÷
    </text>
   </g>
  </g>
  <g transform="translate(243.091,-669.188)">
   <desc>
    48 MHz Internal Oscillator
   </desc>
   <path class="st35" d="M5.16 739.84 L106.14 739.84 A5.60985 5.60985 -180 0 0 111.75 734.23 L111.75 693.5 A4.93667 4.93667 -180 0 0
						 106.81 688.57 L5.83 688.57 A5.83424 5.83424 -180 0 0 -0 694.4 L0 734.68 A5.16106 5.16106 -180 0 0 5.16 739.84
						 Z">
   </path>
   <text class="st36" x="23.22" y="711.2">
    48 MHz Internal
    <tspan class="st37" dy="1.2em" x="36.6">
     Oscillator
    </tspan>
   </text>
  </g>
  <g transform="translate(403.966,-660)">
   <path class="st7" d="M9 738.15 L9 723.53">
   </path>
  </g>
  <g transform="translate(411.87,-568.504)">
   <path class="st7" d="M0 730.84 L20.78 730.84">
   </path>
  </g>
  <g transform="translate(216.091,-610.794)">
   <path class="st7" d="M0 748.57 L87.31 749.11">
   </path>
  </g>
  <g transform="translate(218.341,-569.173)">
   <path class="st7" d="M0 748.58 L85.06 749.11">
   </path>
  </g>
  <g transform="translate(209.09,-553.958)">
   <rect class="st19" height="12.1149" width="12.1149" x="0" y="727.726">
   </rect>
  </g>
  <g transform="translate(-307.776,-333.169) rotate(-45)">
   <path class="st20" d="M0 732.5 L7.02 732.5 L7.02 739.84 L7.02 732.5 L14.04 732.5 L7.02 732.5 L7.02 725.17 L7.02 732.5 L0 732.5 Z">
   </path>
  </g>
  <g transform="translate(210.245,-597.103)">
   <rect class="st19" height="12.1149" width="12.1149" x="0" y="727.726">
   </rect>
  </g>
  <g transform="translate(-306.621,-376.314) rotate(-45)">
   <path class="st20" d="M0 732.5 L7.02 732.5 L7.02 739.84 L7.02 732.5 L14.04 732.5 L7.02 732.5 L7.02 725.17 L7.02 732.5 L0 732.5 Z">
   </path>
  </g>
  <g transform="translate(282.116,-601.818)">
   <path class="st7" d="M0 738.81 L0 722.88 L151.06 722.88">
   </path>
  </g>
  <g transform="translate(278.76,-598.952)">
   <path class="st21" d="M0 736.81 A3.02874 3.02874 0 0 1 6.06 736.81 A3.02874 3.02874 0 1 1 0 736.81 Z">
   </path>
  </g>
  <g transform="translate(182.567,-589.858)">
   <desc>
    XIN
   </desc>
   <rect class="st22" height="23.7193" width="32.4108" x="0" y="716.122">
   </rect>
   <text class="st23" x="7.71" y="731.58">
    XIN
   </text>
  </g>
  <g transform="translate(171.841,-548.438)">
   <desc>
    XOUT
   </desc>
   <rect class="st22" height="23.7193" width="41.4229" x="0" y="716.122">
   </rect>
   <text class="st23" x="6.85" y="731.58">
    XOUT
   </text>
  </g>
  <g transform="translate(303.057,-550.28)">
   <desc>
    Crystal Oscillator
   </desc>
   <path class="st35" d="M4.74 739.84 L104.34 739.84 A4.19555 4.19555 -180 0 0 108.54 735.65 L108.54 683.74 A5.47244 5.47244 -180 0 0
						 103.06 678.27 L4.74 678.27 A4.74266 4.74266 -180 0 0 -0 683.01 L0 735.1 A4.74266 4.74266 -180 0 0 4.74 739.84
						 Z">
   </path>
   <text class="st36" x="20.02" y="712.06">
    Crystal Oscillator
   </text>
  </g>
  <g transform="translate(1172.98,98.4882) rotate(90)">
   <path class="st8" d="M0 739.84 L91.04 739.84 L75.87 714.65 L15.17 714.65 L0 739.84 Z">
   </path>
  </g>
  <g transform="translate(317.854,-440.792)">
   <desc>
    ×
   </desc>
   <path class="st35" d="M4.26 739.84 L75.76 739.84 A5.46607 5.46607 -180 0 0 81.23 734.37 L81.23 707.56 A5.46607 5.46607 -180 0 0 75.76
						 702.09 L5.53 702.09 A5.53313 5.53313 -180 0 0 0 707.62 L0 735.58 A4.25624 4.25624 -180 0 0 4.26 739.84 Z">
   </path>
   <text class="st30" x="10" y="724.61">
    ×
   </text>
  </g>
  <g transform="translate(452.696,-441.181)">
   <desc>
    ÷
   </desc>
   <path class="st35" d="M5.42 739.84 L48.77 739.84 A5.41926 5.41926 -180 0 0 54.19 734.42 L54.19 708.09 A5.41926 5.41926 -180 0 0 48.77
						 702.67 L5.42 702.67 A5.41926 5.41926 -180 0 0 -0 708.09 L0 734.42 A5.41926 5.41926 -180 0 0 5.42 739.84
						 Z">
   </path>
   <text class="st36" x="10.78" y="724.25">
    ÷
   </text>
  </g>
  <g transform="translate(301.894,-21.4397)">
   <desc>
    32K Crystal Oscillator
   </desc>
   <path class="st14" d="M6.17 739.84 L100.98 739.84 A6.27803 6.27803 -180 0 0 107.26 733.56 L107.26 672.76 A6.59725 6.59725 -180 0 0
						 100.66 666.16 L7.13 666.16 A7.12928 7.12928 -180 0 0 0 673.29 L0 733.67 A6.17162 6.17162 -180 0 0 6.17 739.84
						 Z">
   </path>
   <text class="st36" x="10.59" y="706">
    32K Crystal Oscillator
   </text>
  </g>
  <g transform="translate(358.731,-76.5181)">
   <desc>
    32 KHz
   </desc>
   <rect class="st22" height="9.62506" width="36.6172" x="0" y="730.216">
   </rect>
   <text class="st39" x="7.05" y="737.43">
    32 KHz
   </text>
  </g>
  <g transform="translate(362.744,-27.2074)">
   <desc>
    1 KHz
   </desc>
   <rect class="st22" height="9.62506" width="31.9774" x="0" y="730.216">
   </rect>
   <text class="st39" x="6.76" y="737.43">
    1 KHz
   </text>
  </g>
  <g transform="translate(301.894,-233.824)">
   <desc>
    32K High Accuracy Internal Oscillator
   </desc>
   <path class="st14" d="M4.47 739.84 L104.39 739.84 A4.99441 4.99441 -180 0 0 109.38 734.85 L109.38 673.75 A5.63285 5.63285 -180 0 0
						 103.75 668.12 L4.79 668.12 A4.7912 4.7912 -180 0 0 -0 672.91 L0 735.37 A4.47198 4.47198 -180 0 0 4.47 739.84
						 Z">
   </path>
   <text class="st36" x="17.26" y="700.98">
    32K High Accuracy
    <tspan class="st37" dy="1.2em" x="18.33">
     Internal Oscillator
    </tspan>
   </text>
  </g>
  <g transform="translate(359.752,-289.009)">
   <desc>
    32 KHz
   </desc>
   <rect class="st22" height="9.62506" width="37.1215" x="0" y="730.216">
   </rect>
   <text class="st39" x="7.3" y="737.43">
    32 KHz
   </text>
  </g>
  <g transform="translate(364.349,-242.809)">
   <desc>
    1 KHz
   </desc>
   <rect class="st22" height="9.62506" width="33.5827" x="0" y="730.216">
   </rect>
   <text class="st39" x="7.56" y="737.43">
    1 KHz
   </text>
  </g>
  <g transform="translate(301.894,-147.401)">
   <desc>
    32K Ultra Low Power Internal Oscillator
   </desc>
   <path class="st14" d="M5.62 739.84 L103.3 739.84 A5.93485 5.93485 -180 0 0 109.24 733.91 L109.24 673.03 A6.25408 6.25408 -180 0 0
						 102.98 666.78 L5.62 666.78 A5.61881 5.61881 -180 0 0 -0 672.4 L0 734.22 A5.61881 5.61881 -180 0 0 5.62 739.84
						 Z">
   </path>
   <text class="st36" x="12.06" y="700.31">
    32K Ultra Low Power
    <tspan class="st37" dy="1.2em" x="18.25">
     Internal Oscillator
    </tspan>
   </text>
  </g>
  <g transform="translate(360.82,-200.591)">
   <desc>
    1 KHz
   </desc>
   <rect class="st22" height="9.62506" width="40.3746" x="0" y="730.216">
   </rect>
   <text class="st39" x="10.05" y="737.43">
    1  KHz
   </text>
  </g>
  <g transform="translate(358.731,-154.125)">
   <desc>
    32 KHz
   </desc>
   <rect class="st22" height="9.62506" width="39.5032" x="0" y="730.216">
   </rect>
   <text class="st39" x="8.49" y="737.43">
    32 KHz
   </text>
  </g>
  <g transform="translate(1695.5,156.239) rotate(90)">
   <path class="st8" d="M0 739.84 L202.81 739.84 L169.01 711.72 L33.8 711.72 L0 739.84 Z">
   </path>
  </g>
  <g transform="translate(733.688,-113.759)">
   <desc>
    ÷
   </desc>
   <path class="st14" d="M4.8 739.84 L66.29 739.84 A5.21381 5.21381 -180 0 0 71.51 734.63 L71.51 706.88 A4.7926 4.7926 -180 0 0 66.71
						 702.09 L4.8 702.09 A4.796 4.796 -180 0 0 -0 706.89 L0 735.04 A4.796 4.796 -180 0 0 4.8 739.84 Z">
   </path>
   <text class="st30" x="7" y="724.61">
    ÷
   </text>
  </g>
  <g transform="translate(1751.17,66.0061) rotate(90)">
   <path class="st7" d="M0 739.84 L12.71 739.84">
   </path>
  </g>
  <g transform="translate(984.205,-673.885)">
   <desc>
    ÷
   </desc>
   <path class="st14" d="M4.22 739.84 L50.19 739.84 A4.00592 4.00592 -180 0 0 54.19 735.83 L54.19 706.1 A4.00592 4.00592 -180 0 0 50.19
						 702.09 L3.58 702.09 A3.58029 3.58029 -180 0 0 -0 705.67 L0 735.62 A4.21873 4.21873 -180 0 0 4.22 739.84
						 Z">
   </path>
   <text class="st30" x="13" y="724.61">
    ÷
   </text>
  </g>
  <g transform="translate(78.0265,-389.845)">
   <path class="st40" d="M0 723.11 L0 739.84 L11.7 731.98 L0 723.11 Z">
   </path>
  </g>
  <g transform="translate(74.499,-377.801)">
   <path class="st7" d="M9 737.34 L9 724.34">
   </path>
  </g>
  <g transform="translate(0.5,-406.851)">
   <desc>
    Clock Source
   </desc>
   <rect class="st22" height="19.0727" width="72.1453" x="0" y="720.768">
   </rect>
   <text class="st36" x="10.2" y="733.3">
    Clock Source
   </text>
  </g>
  <g transform="translate(732.723,-380.518)">
   <desc>
    ÷
   </desc>
   <path class="st14" d="M5.28 739.84 L65.81 739.84 A5.06182 5.06182 -180 0 0 70.87 734.78 L70.87 707.57 A5.47927 5.47927 -180 0 0 65.39
						 702.09 L5.28 702.09 A5.27605 5.27605 -180 0 0 0 707.37 L0 734.56 A5.27605 5.27605 -180 0 0 5.28 739.84 Z">
   </path>
   <text class="st30" x="7" y="724.61">
    ÷
   </text>
  </g>
  <g transform="translate(156.124,-434.811)">
   <desc>
    ÷
   </desc>
   <path class="st35" d="M5.42 739.84 L48.77 739.84 A5.41926 5.41926 -180 0 0 54.19 734.42 L54.19 707.51 A5.41926 5.41926 -180 0 0 48.77
						 702.09 L5.42 702.09 A5.41926 5.41926 -180 0 0 -0 707.51 L0 734.42 A5.41926 5.41926 -180 0 0 5.42 739.84
						 Z">
   </path>
   <text class="st30" x="13" y="724.61">
    ÷
   </text>
  </g>
  <g transform="translate(964.419,217.984) rotate(90)">
   <path class="st8" d="M0 739.84 L152.66 739.84 L127.22 712.95 L25.44 712.95 L0 739.84 Z">
   </path>
  </g>
  <g transform="translate(286.966,-653.25)">
   <path class="st7" d="M9 738.15 L9 723.53">
   </path>
  </g>
  <g transform="translate(249.841,-624.938)">
   <desc>
    Voltage Calibration
   </desc>
   <rect class="st11" height="10.9527" width="102.153" x="0" y="728.888">
   </rect>
   <text class="st41" x="16.09" y="737.06">
    Voltage Calibration
   </text>
  </g>
 </g>
</svg>
