<?xml version="1.0" encoding="UTF-8" standalone="no"?>
<!DOCTYPE svg PUBLIC "-//W3C//DTD SVG 1.1//EN" "http://www.w3.org/Graphics/SVG/1.1/DTD/svg11.dtd">
<!-- Generated by Microsoft Visio, SVG Export SAMD20.svg Page-1 -->
<svg xmlns="http://www.w3.org/2000/svg" xmlns:xlink="http://www.w3.org/1999/xlink" 
		width="13.5021in" height="8.875in" viewBox="0 0 972.15 639"  
		style="fill:none;fill-rule:evenodd;font-size:12px;overflow:visible;stroke-linecap:square;stroke-miterlimit:3">
	

	<defs id="Markers">
		<g id="lend5">
			<path d="M 2 1 L 0 0 L 1.98117 -0.993387 C 1.67173 -0.364515 1.67301 0.372641 1.98465 1.00043 " style="stroke:none"/>
		</g>
		<marker id="mrkr5-50" style="fill:#000000;fill-opacity:1;stroke:#000000;stroke-opacity:1;stroke-width:0.28409090909091" refX="-6.16" orient="auto" markerUnits="strokeWidth" overflow="visible">
			<use xlink:href="#lend5" transform="scale(-3.52,-3.52) "/>
		</marker>
		<marker id="mrkr5-201" style="fill:#000000;fill-opacity:1;stroke:#000000;stroke-opacity:1;stroke-width:0.22935779816514" refX="7.15" orient="auto" markerUnits="strokeWidth" overflow="visible">
			<use xlink:href="#lend5" transform="scale(4.36) "/>
		</marker>
		<marker id="mrkr5-289" style="fill:#000000;fill-opacity:1;stroke:#000000;stroke-opacity:1;stroke-width:0.28409090909091" refX="5.8" orient="auto" markerUnits="strokeWidth" overflow="visible">
			<use xlink:href="#lend5" transform="scale(3.52) "/>
		</marker>
		<marker id="mrkr5-408" style="fill:#000000;fill-opacity:1;stroke:#000000;stroke-opacity:1;stroke-width:0.090252707581227" refX="-19.39" orient="auto" markerUnits="strokeWidth" overflow="visible">
			<use xlink:href="#lend5" transform="scale(-11.08,-11.08) "/>
		</marker>
	</defs>
	<defs id="Filters">
		<filter id="filter_2.6666667461395">
			<feGaussianBlur stdDeviation="2.6666667461395"/>
		</filter>
		<filter id="filter_2">
			<feGaussianBlur stdDeviation="2"/>
		</filter>
	</defs>
	<g>
		
		<g id="shape756-1" transform="translate(124.623,-258.861)">
			
			<g id="shadow756-2" transform="matrix(1,0,0,1,0,3)" style="visibility:visible">
				<rect x="0" y="488.174" width="207.938" height="150.826" style="fill:#000000;fill-opacity:0.4;filter:url(#filter_2.6666667461395);stroke:#000000;stroke-opacity:0.4"/>
			</g>
			<rect x="0" y="488.174" width="207.938" height="150.826" style="fill:#ffffff;stroke:#70ad47;stroke-width:1"/>
		</g>
		<g id="shape580-6" transform="translate(113.771,-458.625)">
			
			<g id="shadow580-7" transform="matrix(1,0,0,1,0,3)" style="visibility:visible">
				<rect x="0" y="460.125" width="218.746" height="178.875" style="fill:#000000;fill-opacity:0.4;filter:url(#filter_2.6666667461395);stroke:#000000;stroke-opacity:0.4"/>
			</g>
			<rect x="0" y="460.125" width="218.746" height="178.875" style="fill:#ffffff;stroke:#70ad47;stroke-width:1"/>
		</g>
		<g id="shape577-11" transform="translate(115.271,-7.5)">
			
			<g id="shadow577-12" transform="matrix(1,0,0,1,0,3)" style="visibility:visible">
				<rect x="0" y="425.25" width="219.284" height="213.75" style="fill:#000000;fill-opacity:0.4;filter:url(#filter_2.6666667461395);stroke:#000000;stroke-opacity:0.4"/>
			</g>
			<rect x="0" y="425.25" width="219.284" height="213.75" style="fill:#ffffff;stroke:#70ad47;stroke-width:1"/>
		</g>
		<g id="shape249-16" transform="translate(706.646,-98.625)">
			
			<g id="shadow249-17" transform="matrix(1,0,0,1,0,3)" style="visibility:visible">
				<rect x="0" y="524.655" width="121.5" height="114.345" style="fill:#000000;fill-opacity:0.4;filter:url(#filter_2.6666667461395);stroke:#000000;stroke-opacity:0.4"/>
			</g>
			<rect x="0" y="524.655" width="121.5" height="114.345" style="fill:#ffffff;stroke:#70ad47;stroke-width:1"/>
		</g>
		<g id="shape247-21" transform="translate(1404.47,483.032) rotate(90)">
			
			<path d="M0 639 L13.45 639" style="stroke:#000000;stroke-linecap:round;stroke-linejoin:round;stroke-width:0.75"/>
		</g>
		<g id="shape131-24" transform="translate(708.896,-500.758)">
			
			<g id="shadow131-25" transform="matrix(1,0,0,1,0,3)" style="visibility:visible">
				<rect x="0" y="549.236" width="120.375" height="89.7641" style="fill:#000000;fill-opacity:0.4;filter:url(#filter_2.6666667461395);stroke:#000000;stroke-opacity:0.4"/>
			</g>
			<rect x="0" y="549.236" width="120.375" height="89.7641" style="fill:#ffffff;stroke:#70ad47;stroke-width:1"/>
		</g>
		<g id="shape107-29" transform="translate(707.627,-256.598)">
			
			<g id="shadow107-30" transform="matrix(1,0,0,1,0,3)" style="visibility:visible">
				<rect x="0" y="454.694" width="121.5" height="184.306" style="fill:#000000;fill-opacity:0.4;filter:url(#filter_2.6666667461395);stroke:#000000;stroke-opacity:0.4"/>
			</g>
			<rect x="0" y="454.694" width="121.5" height="184.306" style="fill:#ffffff;stroke:#70ad47;stroke-width:1"/>
		</g>
		<g id="shape10-34" transform="translate(779.841,-312.66)">
			
			<path d="M9 639 L9 606.68" style="stroke:#000000;stroke-linecap:round;stroke-linejoin:round;stroke-width:1"/>
		</g>
		<g id="shape29-37" transform="translate(480.627,-30)">
			
			<g id="shadow29-38" transform="matrix(1,0,0,1,0,3)" style="visibility:visible">
				<rect x="0" y="438.032" width="117.504" height="200.968" style="fill:#000000;fill-opacity:0.4;filter:url(#filter_2.6666667461395);stroke:#000000;stroke-opacity:0.4"/>
			</g>
			<rect x="0" y="438.032" width="117.504" height="200.968" style="fill:#ffffff;stroke:#70ad47;stroke-width:1"/>
		</g>
		<g id="shape33-42" transform="translate(549.305,-94.4469)">
			
			<path d="M9 639 L9 663.17" style="stroke:#000000;stroke-linecap:round;stroke-linejoin:round;stroke-width:1"/>
		</g>
		<g id="shape34-45" transform="translate(510.371,-102.281)">
			
			<path d="M0 630.06 L19.4 629.97" style="marker-end:url(#mrkr5-50);stroke:#000000;stroke-linecap:round;stroke-linejoin:round;stroke-width:1"/>
		</g>
		<g id="shape45-51" transform="translate(478.74,-460.5)">
			
			<g id="shadow45-52" transform="matrix(1,0,0,1,0,3)" style="visibility:visible">
				<rect x="0" y="464.063" width="118.125" height="174.938" style="fill:#000000;fill-opacity:0.4;filter:url(#filter_2.6666667461395);stroke:#000000;stroke-opacity:0.4"/>
			</g>
			<rect x="0" y="464.063" width="118.125" height="174.938" style="fill:#ffffff;stroke:#70ad47;stroke-width:1"/>
		</g>
		<g id="shape46-56" transform="translate(1125.32,6.36) rotate(90)">
			
			<path d="M0 639 L162.77 639 L135.64 611.8 L27.13 611.8 L0 639 Z" style="fill:#dae8fc;stroke:#6c8ebf;stroke-width:1"/>
		</g>
		<g id="shape50-58" transform="translate(511.271,-545.261)">
			
			<path d="M0 630.01 L14.37 630" style="marker-end:url(#mrkr5-50);stroke:#000000;stroke-linecap:round;stroke-linejoin:round;stroke-width:1"/>
		</g>
		<g id="shape70-63" transform="translate(579.088,-553.464)">
			
			<path d="M0 639 L63.43 639" style="stroke:#000000;stroke-linecap:round;stroke-linejoin:round;stroke-width:1"/>
		</g>
		<g id="shape71-66" transform="translate(582.473,-110.43)">
			
			<path d="M0 639 L62.96 639" style="marker-end:url(#mrkr5-50);stroke:#000000;stroke-linecap:round;stroke-linejoin:round;stroke-width:1"/>
		</g>
		<g id="shape103-71" transform="translate(590.098,-99.4)">
			
			<desc>GCLKx</desc>
			<rect x="0" y="629.719" width="40.7909" height="9.28125" style="fill:none;stroke:none;stroke-width:0.25"/>
			<text x="10.25" y="636.76" style="fill:#000000;font-family:Calibri;font-size:0.666664em">GCLKx</text>		</g>
		<g id="shape104-74" transform="translate(491.105,-622.432)">
			
			<desc>GCLK Generator 0</desc>
			<rect x="0" y="629.719" width="90.4891" height="9.28125" style="fill:none;stroke:none;stroke-width:0.25"/>
			<text x="16.23" y="636.76" style="fill:#002060;font-family:Calibri;font-size:0.666664em">GCLK Generator 0</text>		</g>
		<g id="shape106-77" transform="translate(495.105,-216.025)">
			
			<desc>GCLK Generator x</desc>
			<rect x="0" y="629.719" width="90.4891" height="9.28125" style="fill:none;stroke:none;stroke-width:0.25"/>
			<text x="16.53" y="636.76" style="fill:#002060;font-family:Calibri;font-size:0.666664em">GCLK Generator x </text>		</g>
		<g id="shape112-80" transform="translate(738.405,-339.75)">
			
			<path d="M0 630 L44.87 630" style="stroke:#000000;stroke-linecap:round;stroke-linejoin:round;stroke-width:1"/>
		</g>
		<g id="shape114-83" transform="translate(719.639,854.88) rotate(180)">
			
			<path d="M0 639 L53.36 639" style="stroke:#000000;stroke-linecap:round;stroke-linejoin:round;stroke-width:1"/>
		</g>
		<g id="shape115-86" transform="translate(715.499,962.867) rotate(-179.629)">
			
			<path d="M0 639 L53.44 639" style="stroke:#000000;stroke-linecap:round;stroke-linejoin:round;stroke-width:1"/>
		</g>
		<g id="shape117-89" transform="translate(719.639,908.534) rotate(180)">
			
			<path d="M0 639 L53.65 639" style="stroke:#000000;stroke-linecap:round;stroke-linejoin:round;stroke-width:1"/>
		</g>
		<g id="shape118-92" transform="translate(719.639,926.88) rotate(180)">
			
			<path d="M0 639 L53.31 639" style="stroke:#000000;stroke-linecap:round;stroke-linejoin:round;stroke-width:1"/>
		</g>
		<g id="shape119-95" transform="translate(719.639,945.227) rotate(180)">
			
			<path d="M0 639 L53.87 639" style="stroke:#000000;stroke-linecap:round;stroke-linejoin:round;stroke-width:1"/>
		</g>
		<g id="shape120-98" transform="translate(719.639,872.534) rotate(180)">
			
			<path d="M0 639 L53.36 639" style="stroke:#000000;stroke-linecap:round;stroke-linejoin:round;stroke-width:1"/>
		</g>
		<g id="shape121-101" transform="translate(719.639,891.227) rotate(180)">
			
			<path d="M0 639 L53.36 639" style="stroke:#000000;stroke-linecap:round;stroke-linejoin:round;stroke-width:1"/>
		</g>
		<g id="shape126-104" transform="translate(719.611,-427.933)">
			
			<desc>Peripheral Clock Selection</desc>
			<rect x="0" y="629.719" width="97.5326" height="9.28125" style="fill:none;stroke:none;stroke-width:0.25"/>
			<text x="6.6" y="636.76" style="fill:#002060;font-family:Calibri;font-size:0.666664em">Peripheral Clock Selection</text>		</g>
		<g id="shape128-107" transform="translate(790.689,-339.75)">
			
			<path d="M0 630.08 L103.67 629.92" style="marker-end:url(#mrkr5-50);stroke:#000000;stroke-linecap:round;stroke-linejoin:round;stroke-width:1"/>
		</g>
		<g id="shape146-112" transform="translate(720.317,-578.779)">
			
			<desc>Main Clock</desc>
			<rect x="0" y="629.719" width="97.5326" height="9.28125" style="fill:none;stroke:none;stroke-width:0.25"/>
			<text x="30.84" y="636.76" style="fill:#002060;font-family:Calibri;font-size:0.666664em">Main Clock</text>		</g>
		<g id="shape150-115" transform="translate(600.304,-555.859)">
			
			<desc>GCLK0</desc>
			<rect x="0" y="629.719" width="29.6961" height="9.28125" style="fill:none;stroke:none;stroke-width:0.25"/>
			<text x="4.4" y="636.76" style="fill:#000000;font-family:Calibri;font-size:0.666664em">GCLK0</text>		</g>
		<g id="shape154-118" transform="translate(792.896,-553.515)">
			
			<path d="M0 639 L101.59 639" style="marker-end:url(#mrkr5-50);stroke:#000000;stroke-linecap:round;stroke-linejoin:round;stroke-width:1"/>
		</g>
		<g id="shape156-123" transform="translate(783.913,-341.661)">
			
			<path d="M0 624.82 L0 639 L10.31 632.34 L0 624.82 Z" style="fill:#d5e8d4;stroke:#82b366;stroke-width:1"/>
		</g>
		<g id="shape162-125" transform="translate(762.345,1116.7) rotate(180)">
			
			<path d="M0 639 L100.89 639" style="stroke:#000000;stroke-linecap:round;stroke-linejoin:round;stroke-width:0.75"/>
		</g>
		<g id="shape180-128" transform="translate(770.455,-150.948)">
			
			<path d="M0 630.15 L130.07 629.85" style="stroke:#000000;stroke-linecap:round;stroke-linejoin:round;stroke-width:0.75"/>
		</g>
		<g id="shape181-131" transform="translate(761.18,-153.314)">
			
			<path d="M0 625.21 L0 639 L10.03 632.52 L0 625.21 Z" style="fill:#d5e8d4;stroke:#82b366;stroke-width:1"/>
		</g>
		<g id="shape256-133" transform="translate(718.63,-202.001)">
			
			<desc>GCLK Input Output (IO)</desc>
			<rect x="0" y="629.719" width="97.5326" height="9.28125" style="fill:none;stroke:none;stroke-width:0.25"/>
			<text x="11.27" y="636.76" style="fill:#002060;font-family:Calibri;font-size:0.666664em">GCLK Input Output (IO)</text>		</g>
		<g id="shape257-136" transform="translate(479.654,-257.782)">
			
			<g id="shadow257-137" transform="matrix(1,0,0,1,0,3)" style="visibility:visible">
				<rect x="0" y="464.063" width="118.125" height="174.938" style="fill:#000000;fill-opacity:0.4;filter:url(#filter_2.6666667461395);stroke:#000000;stroke-opacity:0.4"/>
			</g>
			<rect x="0" y="464.063" width="118.125" height="174.938" style="fill:#ffffff;stroke:#70ad47;stroke-width:1"/>
		</g>
		<g id="shape258-141" transform="translate(1128.35,213) rotate(90)">
			
			<path d="M0 639 L159.19 639 L132.66 615.95 L26.53 615.95 L0 639 Z" style="fill:#dae8fc;stroke:#6c8ebf;stroke-width:1"/>
		</g>
		<g id="shape261-143" transform="translate(548.876,-334.454)">
			
			<path d="M9 639 L9 663.17" style="stroke:#000000;stroke-linecap:round;stroke-linejoin:round;stroke-width:1"/>
		</g>
		<g id="shape262-146" transform="translate(513.521,-360.67)">
			
			<path d="M0 647.92 L15.15 648.03" style="marker-end:url(#mrkr5-50);stroke:#000000;stroke-linecap:round;stroke-linejoin:round;stroke-width:1"/>
		</g>
		<g id="shape263-151" transform="translate(534.779,-334.282)">
			
			<desc>÷</desc>
			<path d="M3.55 639 L44.34 639 A3.41031 3.41031 -180 0 0 47.75 635.59 L47.75 610.7 A3.69156 3.69156 -180 0 0 44.05 607.01
						 L3.55 607.01 A3.55465 3.55465 -180 0 0 0 610.57 L0 635.45 A3.55465 3.55465 -180 0 0 3.55 639 Z"
					style="fill:#d5e8d4;stroke:#82b366;stroke-width:1"/>
			<text x="11.5" y="626.04" style="fill:#000000;font-family:Times New Roman;font-size:0.833336em">÷ </text>		</g>
		<g id="shape264-154" transform="translate(489.296,878.671) rotate(180)">
			
			<path d="M0 639 L54.02 639" style="stroke:#000000;stroke-linecap:round;stroke-linejoin:round;stroke-width:1"/>
		</g>
		<g id="shape265-157" transform="translate(489.421,986.325) rotate(180)">
			
			<path d="M0 639 L53.8 639" style="stroke:#000000;stroke-linecap:round;stroke-linejoin:round;stroke-width:1"/>
		</g>
		<g id="shape267-160" transform="translate(489.546,932.325) rotate(180)">
			
			<path d="M0 639 L54.27 639" style="stroke:#000000;stroke-linecap:round;stroke-linejoin:round;stroke-width:1"/>
		</g>
		<g id="shape268-163" transform="translate(489.421,950.671) rotate(180)">
			
			<path d="M0 639 L54.2 639" style="stroke:#000000;stroke-linecap:round;stroke-linejoin:round;stroke-width:1"/>
		</g>
		<g id="shape269-166" transform="translate(489.296,969.017) rotate(180)">
			
			<path d="M0 639 L54 639" style="stroke:#000000;stroke-linecap:round;stroke-linejoin:round;stroke-width:1"/>
		</g>
		<g id="shape270-169" transform="translate(489.546,896.325) rotate(180)">
			
			<path d="M0 639 L54.17 639" style="stroke:#000000;stroke-linecap:round;stroke-linejoin:round;stroke-width:1"/>
		</g>
		<g id="shape275-172" transform="translate(602.861,-353.885)">
			
			<desc>GCLK1</desc>
			<rect x="0" y="629.719" width="29.6961" height="9.28125" style="fill:none;stroke:none;stroke-width:0.25"/>
			<text x="4.4" y="636.76" style="fill:#000000;font-family:Calibri;font-size:0.666664em">GCLK1</text>		</g>
		<g id="shape276-175" transform="translate(499.61,-420.043)">
			
			<desc>GCLK Generator 1</desc>
			<rect x="0" y="629.719" width="90.4891" height="9.28125" style="fill:none;stroke:none;stroke-width:0.25"/>
			<text x="16.23" y="636.76" style="fill:#002060;font-family:Calibri;font-size:0.666664em">GCLK Generator 1</text>		</g>
		<g id="shape277-178" transform="translate(582.627,-350.277)">
			
			<path d="M0 639 L44.57 639" style="marker-end:url(#mrkr5-50);stroke:#000000;stroke-linecap:round;stroke-linejoin:round;stroke-width:1"/>
		</g>
		<g id="shape279-183" transform="translate(770.787,1082.96) rotate(180)">
			
			<path d="M0 625.21 L0 639 L10.03 632.52 L0 625.21 Z" style="fill:#d5e8d4;stroke:#82b366;stroke-width:1"/>
		</g>
		<g id="shape281-185" transform="translate(770.85,-179.263)">
			
			<path d="M0 630 L25.46 630" style="stroke:#000000;stroke-linecap:round;stroke-linejoin:round;stroke-width:0.75"/>
		</g>
		<g id="shape282-188" transform="translate(1435.41,450.78) rotate(90)">
			
			<path d="M0 639 L28.37 639" style="stroke:#000000;stroke-linecap:round;stroke-linejoin:round;stroke-width:0.75"/>
		</g>
		<g id="shape283-191" transform="translate(794.82,-158.011)">
			
			<g id="shadow283-192" transform="matrix(1,0,0,1,0.345598,1.97279)" style="visibility:visible">
				<ellipse cx="1.82812" cy="637.172" rx="1.82812" ry="1.82812" style="fill:#5b9bd5;fill-opacity:0.22;filter:url(#filter_2);stroke:#5b9bd5;stroke-opacity:0.22"/>
			</g>
			<ellipse cx="1.82812" cy="637.172" rx="1.82812" ry="1.82812" style="fill:#000000;stroke:#c7c8c8;stroke-width:0.25"/>
		</g>
		<g id="shape284-196" transform="translate(660.146,-179.488)">
			
			<path d="M5.36 630 L5.72 630 L100.76 630" style="marker-start:url(#mrkr5-201);stroke:#000000;stroke-linecap:round;stroke-linejoin:round;stroke-width:0.75"/>
		</g>
		<g id="shape285-202" transform="translate(655.311,-191.713)">
			
			<desc>GCLK_IN[x]</desc>
			<rect x="0" y="629.719" width="45.7105" height="9.28125" style="fill:none;stroke:none;stroke-width:0.25"/>
			<text x="4.67" y="636.76" style="fill:#000000;font-family:Calibri;font-size:0.666664em">GCLK_IN[x]</text>		</g>
		<g id="shape286-205" transform="translate(653.505,-163.639)">
			
			<desc>GCLKx</desc>
			<rect x="0" y="629.719" width="33.8839" height="9.28125" style="fill:none;stroke:none;stroke-width:0.25"/>
			<text x="6.79" y="636.76" style="fill:#000000;font-family:Calibri;font-size:0.666664em">GCLKx</text>		</g>
		<g id="shape331-208" transform="translate(278.646,-590.25)">
			
			<path d="M0 630 L99.34 630" style="marker-end:url(#mrkr5-50);stroke:#000000;stroke-linecap:round;stroke-linejoin:round;stroke-width:1"/>
		</g>
		<g id="shape343-213" transform="translate(272.771,-507)">
			
			<path d="M0 630 L104.59 630" style="marker-end:url(#mrkr5-50);stroke:#000000;stroke-linecap:round;stroke-linejoin:round;stroke-width:1"/>
		</g>
		<g id="shape351-218" transform="translate(331.057,-602.175)">
			
			<desc>OSC8M</desc>
			<rect x="0" y="629.719" width="51.9583" height="9.28125" style="fill:none;stroke:none;stroke-width:0.25"/>
			<text x="13.91" y="636.76" style="fill:#000000;font-family:Calibri;font-size:0.666664em">OSC8M</text>		</g>
		<g id="shape353-221" transform="translate(337.648,-518.357)">
			
			<desc>XOSC</desc>
			<rect x="0" y="629.719" width="51.9583" height="9.28125" style="fill:none;stroke:none;stroke-width:0.25"/>
			<text x="17.28" y="636.76" style="fill:#000000;font-family:Calibri;font-size:0.666664em">XOSC</text>		</g>
		<g id="shape391-224" transform="translate(100.464,-62.2259)">
			
			<path d="M0 630 L44.81 630" style="stroke:#000000;stroke-linecap:round;stroke-linejoin:round;stroke-width:1"/>
		</g>
		<g id="shape392-227" transform="translate(99.6926,-39.1216)">
			
			<path d="M0 630 L45.9 630" style="stroke:#000000;stroke-linecap:round;stroke-linejoin:round;stroke-width:1"/>
		</g>
		<g id="shape393-230" transform="translate(90.5745,-44.4016)">
			
			<rect x="0" y="629.955" width="9.04485" height="9.04485" style="fill:#ffffff;stroke:#000000;stroke-width:0.25"/>
		</g>
		<g id="shape394-232" transform="translate(-356.723,147.005) rotate(-45)">
			
			<path d="M0 632.78 L6.19 632.78 L6.19 639 L6.19 632.78 L12.37 632.78 L6.19 632.78 L6.19 626.57 L6.19 632.78 L0 632.78
						 Z" style="fill:#000000;stroke:#000000;stroke-width:0.25"/>
		</g>
		<g id="shape395-234" transform="translate(91.3245,-66.9959)">
			
			<rect x="0" y="629.955" width="9.04485" height="9.04485" style="fill:#ffffff;stroke:#000000;stroke-width:0.25"/>
		</g>
		<g id="shape396-236" transform="translate(-355.973,124.41) rotate(-45)">
			
			<path d="M0 632.78 L6.19 632.78 L6.19 639 L6.19 632.78 L12.37 632.78 L6.19 632.78 L6.19 626.57 L6.19 632.78 L0 632.78
						 Z" style="fill:#000000;stroke:#000000;stroke-width:0.25"/>
		</g>
		<g id="shape397-238" transform="translate(898.132,534.75) rotate(90)">
			
			<path d="M0 639 L73.69 639 L61.41 618.61 L12.28 618.61 L0 639 Z" style="fill:#dae8fc;stroke:#6c8ebf;stroke-width:1"/>
		</g>
		<g id="shape398-240" transform="translate(278.396,-57.6603)">
			
			<path d="M0 630.66 L97.1 629.42" style="marker-end:url(#mrkr5-50);stroke:#000000;stroke-linecap:round;stroke-linejoin:round;stroke-width:1"/>
		</g>
		<g id="shape400-245" transform="translate(121.459,-70.2188)">
			
			<path d="M0 638.16 L0 621.84 L137.67 621.84" style="stroke:#000000;stroke-linecap:round;stroke-linejoin:round;stroke-width:1"/>
		</g>
		<g id="shape401-248" transform="translate(118.871,-68.475)">
			
			<path d="M0 636.74 A2.26121 2.26121 0 0 1 4.52 636.74 A2.26121 2.26121 0 1 1 0 636.74 Z" style="fill:#000000;stroke:none;stroke-width:0.25"/>
		</g>
		<g id="shape402-250" transform="translate(51.7916,-60.5459)">
			
			<desc>XIN32</desc>
			<rect x="0" y="618.9" width="43.0879" height="20.0997" style="fill:none;stroke:none;stroke-width:0.5"/>
			<text x="6.96" y="632.55" style="fill:#000000;font-family:Calibri;font-size:1.00001em">XIN32</text>		</g>
		<g id="shape403-253" transform="translate(42.2802,-37.5916)">
			
			<desc>XOUT32</desc>
			<rect x="0" y="618.9" width="49.4029" height="20.0997" style="fill:none;stroke:none;stroke-width:0.5"/>
			<text x="4.76" y="632.55" style="fill:#000000;font-family:Calibri;font-size:1.00001em">XOUT32</text>		</g>
		<g id="shape405-256" transform="translate(336.95,-67.9904)">
			
			<desc>XOSC32K</desc>
			<rect x="0" y="629.719" width="38.2246" height="9.28125" style="fill:none;stroke:none;stroke-width:0.25"/>
			<text x="4.28" y="636.76" style="fill:#000000;font-family:Calibri;font-size:0.666664em">XOSC32K</text>		</g>
		<g id="shape410-259" transform="translate(239.771,-117.915)">
			
			<path d="M0 630 L134.28 630" style="marker-end:url(#mrkr5-50);stroke:#000000;stroke-linecap:round;stroke-linejoin:round;stroke-width:1"/>
		</g>
		<g id="shape411-264" transform="translate(333.95,-130.371)">
			
			<desc>OSCULP32K</desc>
			<rect x="0" y="629.719" width="51.9583" height="9.28125" style="fill:none;stroke:none;stroke-width:0.25"/>
			<text x="6.91" y="636.76" style="fill:#000000;font-family:Calibri;font-size:0.666664em">OSCULP32K</text>		</g>
		<g id="shape439-267" transform="translate(240.08,-173.669)">
			
			<path d="M0 630 L133.15 630" style="marker-end:url(#mrkr5-50);stroke:#000000;stroke-linecap:round;stroke-linejoin:round;stroke-width:1"/>
		</g>
		<g id="shape440-272" transform="translate(334.695,-183.947)">
			
			<desc>OSC32K</desc>
			<rect x="0" y="629.719" width="36.1142" height="9.28125" style="fill:none;stroke:none;stroke-width:0.25"/>
			<text x="5.31" y="636.76" style="fill:#000000;font-family:Calibri;font-size:0.666664em">OSC32K</text>		</g>
		<g id="shape455-275" transform="translate(237.652,-37.875)">
			
			<path d="M0 630 L20.8 630" style="stroke:#000000;stroke-linecap:round;stroke-linejoin:round;stroke-width:1"/>
		</g>
		<g id="shape473-278" transform="translate(901.054,-338.344)">
			
			<desc>Peripherals</desc>
			<g id="shadow473-279" transform="matrix(1,0,0,1,0.345598,1.97279)" style="visibility:visible">
				<rect x="0" y="618.188" width="64.4674" height="20.8125" style="fill:#5b9bd5;fill-opacity:0.22;filter:url(#filter_2);stroke:#5b9bd5;stroke-opacity:0.22"/>
			</g>
			<rect x="0" y="618.188" width="64.4674" height="20.8125" style="fill:#f8cecc;stroke:#c7c8c8;stroke-width:0.25"/>
			<text x="4.7" y="632.19" style="fill:#000000;font-family:Calibri;font-size:1.00001em">Peripherals</text>		</g>
		<g id="shape517-284" transform="translate(745.271,724.831) rotate(180)">
			
			<path d="M5.8 639 L6.16 639 L102.56 639" style="marker-start:url(#mrkr5-289);stroke:#000000;stroke-linecap:round;stroke-linejoin:round;stroke-width:1"/>
		</g>
		<g id="shape531-290" transform="translate(661.469,-423.482)">
			
			<desc>GCLK0</desc>
			<rect x="0" y="629.719" width="32.9803" height="9.28125" style="fill:none;stroke:none;stroke-width:0.25"/>
			<text x="6.05" y="636.76" style="fill:#000000;font-family:Calibri;font-size:0.666664em">GCLK0</text>		</g>
		<g id="shape532-293" transform="translate(661.469,-406.667)">
			
			<desc>GCLK1</desc>
			<rect x="0" y="629.719" width="32.9803" height="9.28125" style="fill:none;stroke:none;stroke-width:0.25"/>
			<text x="6.05" y="636.76" style="fill:#000000;font-family:Calibri;font-size:0.666664em">GCLK1</text>		</g>
		<g id="shape533-296" transform="translate(661.469,-387.719)">
			
			<desc>GCLK2</desc>
			<rect x="0" y="629.719" width="32.9803" height="9.28125" style="fill:none;stroke:none;stroke-width:0.25"/>
			<text x="6.05" y="636.76" style="fill:#000000;font-family:Calibri;font-size:0.666664em">GCLK2</text>		</g>
		<g id="shape534-299" transform="translate(661.469,-370.43)">
			
			<desc>GCLK3</desc>
			<rect x="0" y="629.719" width="32.9803" height="9.28125" style="fill:none;stroke:none;stroke-width:0.25"/>
			<text x="6.05" y="636.76" style="fill:#000000;font-family:Calibri;font-size:0.666664em">GCLK3</text>		</g>
		<g id="shape535-302" transform="translate(661.469,-350.772)">
			
			<desc>GCLK4</desc>
			<rect x="0" y="629.719" width="32.9803" height="9.28125" style="fill:none;stroke:none;stroke-width:0.25"/>
			<text x="6.05" y="636.76" style="fill:#000000;font-family:Calibri;font-size:0.666664em">GCLK4</text>		</g>
		<g id="shape536-305" transform="translate(661.469,-333.009)">
			
			<desc>GCLK5</desc>
			<rect x="0" y="629.719" width="32.9803" height="9.28125" style="fill:none;stroke:none;stroke-width:0.25"/>
			<text x="6.05" y="636.76" style="fill:#000000;font-family:Calibri;font-size:0.666664em">GCLK5</text>		</g>
		<g id="shape537-308" transform="translate(661.469,-315.482)">
			
			<desc>GCLK6</desc>
			<rect x="0" y="629.719" width="32.9803" height="9.28125" style="fill:none;stroke:none;stroke-width:0.25"/>
			<text x="6.05" y="636.76" style="fill:#000000;font-family:Calibri;font-size:0.666664em">GCLK6</text>		</g>
		<g id="shape538-311" transform="translate(661.469,-298.667)">
			
			<desc>GCLK7</desc>
			<rect x="0" y="629.719" width="32.9803" height="9.28125" style="fill:none;stroke:none;stroke-width:0.25"/>
			<text x="6.05" y="636.76" style="fill:#000000;font-family:Calibri;font-size:0.666664em">GCLK7</text>		</g>
		<g id="shape579-314" transform="translate(151.521,-208.375)">
			
			<desc>32 KHz Oscillators Controller</desc>
			<rect x="0" y="629.719" width="132.852" height="9.28125" style="fill:none;stroke:none;stroke-width:0.25"/>
			<text x="20.12" y="636.76" style="fill:#002060;font-family:Calibri;font-size:0.666664em">32 KHz Oscillators Controller</text>		</g>
		<g id="shape586-317" transform="translate(156.718,-624.792)">
			
			<desc>Oscillators Controller</desc>
			<rect x="0" y="629.719" width="132.852" height="9.28125" style="fill:none;stroke:none;stroke-width:0.25"/>
			<text x="32.13" y="636.76" style="fill:#002060;font-family:Calibri;font-size:0.666664em">Oscillators Controller</text>		</g>
		<g id="shape591-320" transform="translate(900.896,-543.109)">
			
			<desc>CPU</desc>
			<g id="shadow591-321" transform="matrix(1,0,0,1,0.345598,1.97279)" style="visibility:visible">
				<rect x="0" y="618.188" width="67.7832" height="20.8125" style="fill:#5b9bd5;fill-opacity:0.22;filter:url(#filter_2);stroke:#5b9bd5;stroke-opacity:0.22"/>
			</g>
			<rect x="0" y="618.188" width="67.7832" height="20.8125" style="fill:#f8cecc;stroke:#c7c8c8;stroke-width:0.25"/>
			<text x="23.74" y="632.19" style="fill:#000000;font-family:Calibri;font-size:1.00001em">CPU</text>		</g>
		<g id="shape49-326" transform="translate(545.849,-537.136)">
			
			<path d="M9 639 L9 663.17" style="stroke:#000000;stroke-linecap:round;stroke-linejoin:round;stroke-width:1"/>
		</g>
		<g id="shape51-329" transform="translate(531.752,-536.964)">
			
			<desc>÷</desc>
			<path d="M3.43 639 L44.49 639 A3.25829 3.25829 -180 0 0 47.75 635.74 L47.75 610.27 A3.25829 3.25829 -180 0 0 44.49 607.01
						 L3 607.01 A3.00356 3.00356 -180 0 0 -0 610.01 L0 635.57 A3.42542 3.42542 -180 0 0 3.43 639 Z" style="fill:#d5e8d4;stroke:#82b366;stroke-width:1"/>
			<text x="11.5" y="626.04" style="fill:#000000;font-family:Times New Roman;font-size:0.833336em">÷ </text>		</g>
		<g id="shape52-332" transform="translate(485.889,663.61) rotate(180)">
			
			<path d="M0 639 L53.82 639" style="stroke:#000000;stroke-linecap:round;stroke-linejoin:round;stroke-width:1"/>
		</g>
		<g id="shape53-335" transform="translate(485.721,771.405) rotate(180)">
			
			<path d="M0 639 L53.65 639" style="stroke:#000000;stroke-linecap:round;stroke-linejoin:round;stroke-width:1"/>
		</g>
		<g id="shape55-338" transform="translate(485.701,717.059) rotate(180)">
			
			<path d="M0 639 L53.63 639" style="stroke:#000000;stroke-linecap:round;stroke-linejoin:round;stroke-width:1"/>
		</g>
		<g id="shape56-341" transform="translate(485.982,735.405) rotate(180)">
			
			<path d="M0 639 L53.91 639" style="stroke:#000000;stroke-linecap:round;stroke-linejoin:round;stroke-width:1"/>
		</g>
		<g id="shape57-344" transform="translate(486.076,753.751) rotate(180)">
			
			<path d="M0 639 L54 639" style="stroke:#000000;stroke-linecap:round;stroke-linejoin:round;stroke-width:1"/>
		</g>
		<g id="shape58-347" transform="translate(485.889,681.263) rotate(180)">
			
			<path d="M0 639 L53.82 639" style="stroke:#000000;stroke-linecap:round;stroke-linejoin:round;stroke-width:1"/>
		</g>
		<g id="shape59-350" transform="translate(485.982,699.751) rotate(180)">
			
			<path d="M0 639 L53.91 639" style="stroke:#000000;stroke-linecap:round;stroke-linejoin:round;stroke-width:1"/>
		</g>
		<g id="group619-353" transform="translate(900.334,-151.658)">
			
			<g id="shape593-354" transform="translate(0,2.01563)">
				
				<g id="shadow593-355" transform="matrix(1,0,0,1,0.345598,1.97279)" style="visibility:visible">
					<rect x="0" y="618.188" width="64.4674" height="20.8125" style="fill:#5b9bd5;fill-opacity:0.22;filter:url(#filter_2);stroke:#5b9bd5;stroke-opacity:0.22"/>
				</g>
				<rect x="0" y="618.188" width="64.4674" height="20.8125" style="fill:#f8cecc;stroke:#c7c8c8;stroke-width:0.25"/>
			</g>
			<g id="shape251-359" transform="translate(15,-3.75)">
				
				<desc>GCLK_IO[x]</desc>
				<rect x="0" y="629.719" width="49.5" height="9.28125" style="fill:#f8cecc;stroke:none;stroke-width:0.25"/>
				<text x="6.5" y="636.76" style="fill:#000000;font-family:Calibri;font-size:0.666664em">GCLK_IO[x]</text>			</g>
			<g id="shape587-362" transform="translate(8.65909,-4.29545)">
				
				<rect x="0" y="629.955" width="9.04485" height="9.04485" style="fill:#f8cecc;stroke:#000000;stroke-width:0.25"/>
			</g>
			<g id="shape588-364" transform="translate(-438.619,187.021) rotate(-45)">
				
				<path d="M0 632.9 L6.13 632.9 L6.13 639 L6.13 632.9 L12.26 632.9 L6.13 632.9 L6.13 626.81 L6.13 632.9 L0 632.9 Z"
						style="fill:#f8cecc;stroke:#000000;stroke-width:0.25"/>
			</g>
		</g>
		<g id="shape620-366" transform="translate(715.499,980.732) rotate(-179.629)">
			
			<path d="M0 639 L53.44 639" style="stroke:#000000;stroke-linecap:round;stroke-linejoin:round;stroke-width:1"/>
		</g>
		<g id="shape621-369" transform="translate(485.78,790.125) rotate(180)">
			
			<path d="M0 639 L53.71 639" style="stroke:#000000;stroke-linecap:round;stroke-linejoin:round;stroke-width:1"/>
		</g>
		<g id="shape624-372" transform="translate(715.499,999.452) rotate(-179.629)">
			
			<path d="M0 639 L53.44 639" style="stroke:#000000;stroke-linecap:round;stroke-linejoin:round;stroke-width:1"/>
		</g>
		<g id="shape625-375" transform="translate(661.469,-278.985)">
			
			<desc>GCLK8</desc>
			<rect x="0" y="629.719" width="32.9803" height="9.28125" style="fill:none;stroke:none;stroke-width:0.25"/>
			<text x="6.05" y="636.76" style="fill:#000000;font-family:Calibri;font-size:0.666664em">GCLK8</text>		</g>
		<g id="group631-378" transform="translate(204.821,-558.975)">
			
			<g id="shape628-379" transform="translate(2.81775E-13,-32.3077)">
				
				<path d="M0 630 L20.98 630" style="marker-end:url(#mrkr5-50);stroke:#000000;stroke-linecap:round;stroke-linejoin:round;stroke-width:1"/>
			</g>
			<g id="shape630-384" transform="translate(27.0865,-24)">
				
				<desc>÷</desc>
				<path d="M4.77 639 L42.97 639 A4.77455 4.77455 -180 0 0 47.75 634.23 L47.75 611.79 A4.77455 4.77455 -180 0 0 42.97
							 607.01 L4.77 607.01 A4.77455 4.77455 -180 0 0 0 611.79 L0 634.23 A4.77455 4.77455 -180 0 0 4.77 639
							 Z" style="fill:#d5e8d4;stroke:#82b366;stroke-width:1"/>
				<text x="11.5" y="626.04" style="fill:#000000;font-family:Times New Roman;font-size:0.833336em">÷ </text>			</g>
		</g>
		<g id="shape328-387" transform="translate(122.021,-580.575)">
			
			<desc>8 MHz Internal Oscillator</desc>
			<path d="M4.31 639 L88.69 639 A4.68742 4.68742 -180 0 0 93.37 634.31 L93.37 602.28 A4.12493 4.12493 -180 0 0 89.25 598.15
						 L4.87 598.15 A4.87492 4.87492 -180 0 0 0 603.03 L0 634.69 A4.31243 4.31243 -180 0 0 4.31 639 Z"
					style="fill:#d5e8d4;stroke:#82b366;stroke-width:1"/>
			<text x="16.57" y="615.58" style="fill:#000000;font-family:Calibri;font-size:0.833336em">8 MHz Internal <tspan x="27.41" dy="1.2em" style="font-size:1em">Oscillator</tspan></text>		</g>
		<g id="shape635-391" transform="translate(246.781,-568.08)">
			
			<path d="M9 635.59 L9 624.41" style="stroke:#000000;stroke-linecap:round;stroke-linejoin:round;stroke-width:1"/>
		</g>
		<g id="shape650-394" transform="translate(240.506,-483.602)">
			
			<path d="M0 630 L18.31 630" style="stroke:#000000;stroke-linecap:round;stroke-linejoin:round;stroke-width:1"/>
		</g>
		<g id="shape651-397" transform="translate(99.7892,-504.219)">
			
			<path d="M0 630 L45.15 630" style="stroke:#000000;stroke-linecap:round;stroke-linejoin:round;stroke-width:1"/>
		</g>
		<g id="shape652-400" transform="translate(99.264,-467.004)">
			
			<path d="M0 630 L45.68 630" style="stroke:#000000;stroke-linecap:round;stroke-linejoin:round;stroke-width:1"/>
		</g>
		<g id="shape653-403" transform="translate(90.0712,-471.333)">
			
			<rect x="0" y="629.955" width="9.04485" height="9.04485" style="fill:#ffffff;stroke:#000000;stroke-width:0.25"/>
		</g>
		<g id="shape654-405" transform="translate(-357.226,-279.927) rotate(-45)">
			
			<path d="M0 632.78 L6.19 632.78 L6.19 639 L6.19 632.78 L12.37 632.78 L6.19 632.78 L6.19 626.57 L6.19 632.78 L0 632.78
						 Z" style="fill:#000000;stroke:#000000;stroke-width:0.25"/>
		</g>
		<g id="shape655-409" transform="translate(90.564,-508.295)">
			
			<rect x="0" y="629.955" width="9.04485" height="9.04485" style="fill:#ffffff;stroke:#000000;stroke-width:0.25"/>
		</g>
		<g id="shape656-411" transform="translate(-356.733,-316.889) rotate(-45)">
			
			<path d="M0 632.78 L6.19 632.78 L6.19 639 L6.19 632.78 L12.37 632.78 L6.19 632.78 L6.19 626.57 L6.19 632.78 L0 632.78
						 Z" style="fill:#000000;stroke:#000000;stroke-width:0.25"/>
		</g>
		<g id="shape660-413" transform="translate(126.521,-511.677)">
			
			<path d="M0 638.05 L0 621.95 L131.95 621.95" style="stroke:#000000;stroke-linecap:round;stroke-linejoin:round;stroke-width:1"/>
		</g>
		<g id="shape661-416" transform="translate(124.308,-510.938)">
			
			<path d="M0 636.74 A2.26121 2.26121 0 0 1 4.52 636.74 A2.26121 2.26121 0 1 1 0 636.74 Z" style="fill:#000000;stroke:none;stroke-width:0.25"/>
		</g>
		<g id="shape662-418" transform="translate(65.564,-501.845)">
			
			<desc>XIN</desc>
			<rect x="0" y="618.9" width="28.555" height="20.0997" style="fill:none;stroke:none;stroke-width:0.5"/>
			<text x="5.78" y="632.55" style="fill:#000000;font-family:Calibri;font-size:1.00001em">XIN</text>		</g>
		<g id="shape663-421" transform="translate(56.3212,-465.038)">
			
			<desc>XOUT</desc>
			<rect x="0" y="618.9" width="36.495" height="20.0997" style="fill:none;stroke:none;stroke-width:0.5"/>
			<text x="4.39" y="632.55" style="fill:#000000;font-family:Calibri;font-size:1.00001em">XOUT</text>		</g>
		<g id="shape649-424" transform="translate(144.843,-472.125)">
			
			<desc>Crystal Oscialltor</desc>
			<path d="M4.18 639 L91.93 639 A3.69642 3.69642 -180 0 0 95.63 635.3 L95.62 599.95 A4.82141 4.82141 -180 0 0 90.8 595.13
						 L4.18 595.13 A4.17845 4.17845 -180 0 0 0 599.3 L0 634.82 A4.17845 4.17845 -180 0 0 4.18 639 Z"
					style="fill:#d5e8d4;stroke:#82b366;stroke-width:1"/>
			<text x="13.56" y="620.06" style="fill:#000000;font-family:Calibri;font-size:0.833336em">Crystal Oscialltor</text>		</g>
		<g id="shape657-427" transform="translate(898.121,92.625) rotate(90)">
			
			<path d="M0 639 L75.6 639 L63 618.61 L12.6 618.61 L0 639 Z" style="fill:#dae8fc;stroke:#6c8ebf;stroke-width:1"/>
		</g>
		<g id="shape388-429" transform="translate(128.771,-34.5)">
			
			<desc>32K Crystal Oscillator</desc>
			<path d="M6.8 639 L111.21 639 A6.91395 6.91395 -180 0 0 118.12 632.09 L118.12 601.83 A7.26551 7.26551 -180 0 0 110.86
						 594.56 L7.85 594.56 A7.85143 7.85143 -180 0 0 0 602.41 L0 632.2 A6.79676 6.79676 -180 0 0 6.8 639 Z"
					style="fill:#d5e8d4;stroke:#82b366;stroke-width:1"/>
			<text x="16.02" y="619.78" style="fill:#000000;font-family:Calibri;font-size:0.833336em">32K Crystal Oscillator</text>		</g>
		<g id="shape407-432" transform="translate(129.896,-157.125)">
			
			<desc>32K High Accuracy Internal Oscillator</desc>
			<path d="M4.74 639 L110.58 639 A5.29076 5.29076 -180 0 0 115.87 633.71 L115.87 598.84 A5.96708 5.96708 -180 0 0 109.91
						 592.87 L5.08 592.87 A5.07549 5.07549 -180 0 0 -0 597.95 L0 634.26 A4.73733 4.73733 -180 0 0 4.74 639 Z"
					style="fill:#d5e8d4;stroke:#82b366;stroke-width:1"/>
			<text x="20.5" y="612.94" style="fill:#000000;font-family:Calibri;font-size:0.833336em">32K High Accuracy <tspan x="21.57" dy="1.2em" style="font-size:1em">Internal Oscillator</tspan></text>		</g>
		<g id="shape387-436" transform="translate(129.896,-100.312)">
			
			<desc>32K Ultra Low Power Internal Oscillator</desc>
			<path d="M5.93 639 L109.05 639 A6.26492 6.26492 -180 0 0 115.31 632.73 L115.31 598.95 A6.60189 6.60189 -180 0 0 108.71
						 592.35 L5.93 592.35 A5.9313 5.9313 -180 0 0 -0 598.28 L0 633.07 A5.9313 5.9313 -180 0 0 5.93 639 Z"
					style="fill:#d5e8d4;stroke:#82b366;stroke-width:1"/>
			<text x="15.09" y="612.67" style="fill:#000000;font-family:Calibri;font-size:0.833336em">32K Ultra Low Power <tspan x="21.29" dy="1.2em" style="font-size:1em">Internal Oscillator</tspan></text>		</g>
		<g id="shape108-440" transform="translate(1359.06,206.174) rotate(90)">
			
			<path d="M0 639 L168.15 639 L140.13 621 L28.03 621 L0 639 Z" style="fill:#dae8fc;stroke:#6c8ebf;stroke-width:1"/>
		</g>
		<g id="shape35-442" transform="translate(535.208,-94.275)">
			
			<desc>÷</desc>
			<path d="M3.2 639 L44.26 639 A3.48135 3.48135 -180 0 0 47.75 635.52 L47.75 610.21 A3.2001 3.2001 -180 0 0 44.55 607.01
						 L3.2 607.01 A3.20237 3.20237 -180 0 0 0 610.21 L0 635.8 A3.20237 3.20237 -180 0 0 3.2 639 Z" style="fill:#d5e8d4;stroke:#82b366;stroke-width:1"/>
			<text x="11.5" y="626.04" style="fill:#000000;font-family:Times New Roman;font-size:0.833336em">÷ </text>		</g>
		<g id="shape673-445" transform="translate(1408.11,101.522) rotate(90)">
			
			<path d="M0 639 L10.77 639" style="stroke:#000000;stroke-linecap:round;stroke-linejoin:round;stroke-width:1"/>
		</g>
		<g id="shape152-448" transform="translate(745.21,-537.52)">
			
			<desc>÷</desc>
			<path d="M3.72 639 L44.22 639 A3.52935 3.52935 -180 0 0 47.75 635.47 L47.75 610.54 A3.52935 3.52935 -180 0 0 44.22 607.01
						 L3.15 607.01 A3.15436 3.15436 -180 0 0 -0 610.16 L0 635.28 A3.71685 3.71685 -180 0 0 3.72 639 Z"
					style="fill:#d5e8d4;stroke:#82b366;stroke-width:1"/>
			<text x="11.5" y="626.04" style="fill:#000000;font-family:Times New Roman;font-size:0.833336em">÷ </text>		</g>
		<g id="shape679-451" transform="translate(489.279,914.617) rotate(180)">
			
			<path d="M0 639 L53.98 639" style="stroke:#000000;stroke-linecap:round;stroke-linejoin:round;stroke-width:1"/>
		</g>
		<g id="shape692-454" transform="translate(1127.39,417.75) rotate(90)">
			
			<path d="M0 639 L180 639 L150 615 L30 615 L0 639 Z" style="fill:#dae8fc;stroke:#6c8ebf;stroke-width:1"/>
		</g>
		<g id="shape731-456" transform="translate(140.85,-304.61)">
			
			<path d="M0 630 L73.73 630" style="stroke:#000000;stroke-linecap:round;stroke-linejoin:round;stroke-width:1"/>
		</g>
		<g id="shape732-459" transform="translate(45.9286,-374.691)">
			
			<path d="M0 630 L107.59 630" style="stroke:#000000;stroke-linecap:round;stroke-linejoin:round;stroke-width:1"/>
		</g>
		<g id="shape734-462" transform="translate(229.591,-300.567)">
			
			<path d="M9 642.14 L9 653.86" style="stroke:#000000;stroke-linecap:round;stroke-linejoin:round;stroke-width:1"/>
		</g>
		<g id="shape735-465" transform="translate(214.718,-297.256)">
			
			<desc>÷</desc>
			<path d="M4.77 639 L42.97 639 A4.77455 4.77455 -180 0 0 47.75 634.23 L47.75 611.79 A4.77455 4.77455 -180 0 0 42.97 607.01
						 L4.77 607.01 A4.77455 4.77455 -180 0 0 0 611.79 L0 634.23 A4.77455 4.77455 -180 0 0 4.77 639 Z"
					style="fill:#d5e8d4;stroke:#82b366;stroke-width:1"/>
			<text x="11.5" y="626.04" style="fill:#000000;font-family:Times New Roman;font-size:0.833336em">÷ </text>		</g>
		<g id="shape736-468" transform="translate(262.425,-304.531)">
			
			<path d="M0 630 L44.72 630" style="stroke:#000000;stroke-linecap:round;stroke-linejoin:round;stroke-width:1"/>
		</g>
		<g id="shape737-471" transform="translate(79.1894,-384.424)">
			
			<desc>GCLK_DFLL</desc>
			<rect x="0" y="629.719" width="48.1974" height="9.28125" style="fill:none;stroke:none;stroke-width:0.25"/>
			<text x="6.03" y="636.76" style="fill:#000000;font-family:Calibri;font-size:0.666664em">GCLK_DFLL</text>		</g>
		<g id="shape740-474" transform="translate(199.786,-355.58)">
			
			<path d="M0 630 L13.43 630" style="marker-end:url(#mrkr5-50);stroke:#000000;stroke-linecap:round;stroke-linejoin:round;stroke-width:1"/>
		</g>
		<g id="shape741-479" transform="translate(290.414,-355.766)">
			
			<path d="M0 630 L83.91 630" style="marker-end:url(#mrkr5-50);stroke:#000000;stroke-linecap:round;stroke-linejoin:round;stroke-width:1"/>
		</g>
		<g id="shape745-484" transform="translate(334.246,-367.249)">
			
			<desc>DFLL</desc>
			<rect x="0" y="629.719" width="51.9583" height="9.28125" style="fill:none;stroke:none;stroke-width:0.25"/>
			<text x="18.32" y="636.76" style="fill:#000000;font-family:Calibri;font-size:0.666664em">DFLL</text>		</g>
		<g id="shape746-487" transform="translate(161.959,-390.563)">
			
			<desc>Digital Frequency Locked Loop (DFLL 48Mhz)</desc>
			<rect x="0" y="629.719" width="158.062" height="9.28125" style="fill:none;stroke:none;stroke-width:0.25"/>
			<text x="6.5" y="636.76" style="fill:#002060;font-family:Calibri;font-size:0.666664em">Digital Frequency Locked Loop (DFLL 48Mhz)</text>		</g>
		<g id="shape748-490" transform="translate(219.231,-348.757)">
			
			<desc>DCO</desc>
			<path d="M3.75 639 L66.75 639 A4.8158 4.8158 -180 0 0 71.57 634.18 L71.57 611.83 A4.8158 4.8158 -180 0 0 66.75 607.01
						 L4.87 607.01 A4.87488 4.87488 -180 0 0 -0 611.89 L0 635.25 A3.7499 3.7499 -180 0 0 3.75 639 Z"
					style="fill:#d5e8d4;stroke:#82b366;stroke-width:1"/>
			<text x="25.23" y="626.04" style="fill:#000000;font-family:Times New Roman;font-size:0.833336em">DCO</text>		</g>
		<g id="shape750-493" transform="translate(68.75,-377.031)">
			
			<path d="M0 624.82 L0 639 L10.31 632.34 L0 624.82 Z" style="fill:#ffffff;stroke:#000000;stroke-width:0.75"/>
		</g>
		<g id="shape751-495" transform="translate(64.5714,-363.719)">
			
			<path d="M9 637.24 L9 622.76" style="stroke:#000000;stroke-linecap:round;stroke-linejoin:round;stroke-width:1"/>
		</g>
		<g id="shape752-498" transform="translate(0.5,-393.638)">
			
			<desc>Clock Source</desc>
			<rect x="0" y="618.9" width="47.8929" height="20.0997" style="fill:none;stroke:none;stroke-width:0.5"/>
			<text x="10.94" y="625.35" style="fill:#000000;font-family:Calibri;font-size:1.00001em">Clock <tspan x="7.26" dy="1.2em" style="font-size:1em">Source</tspan></text>		</g>
		<g id="shape754-502" transform="translate(154.278,-354.431)">
			
			<path d="M0 603 L0 639 L27.56 621 L0 603 Z" style="fill:#ffffff;stroke:#000000;stroke-width:0.75"/>
		</g>
		<g id="shape755-504" transform="translate(140.748,-313.986)">
			
			<path d="M13.5 592.88 L0 592.88 L0 639" style="stroke:#000000;stroke-width:0.75"/>
		</g>
		<g id="shape759-507" transform="translate(316.025,-366.647)">
			
			<path d="M-8.88 639 L-9.12 692.22" style="stroke:#000000;stroke-linecap:round;stroke-linejoin:round;stroke-width:1"/>
		</g>
		<g id="shape760-510" transform="translate(304.768,-362.643)">
			
			<path d="M0 636.74 A2.26121 2.26121 0 0 1 4.52 636.74 A2.26121 2.26121 0 1 1 0 636.74 Z" style="fill:#000000;stroke:none;stroke-width:0.25"/>
		</g>
		<g id="shape767-512" transform="translate(178.955,-363.293)">
			
			<path d="M3.22 630 L14.78 630" style="stroke:#000000;stroke-linecap:round;stroke-linejoin:round;stroke-width:1"/>
		</g>
		<g id="shape771-515" transform="translate(831.896,252.375) rotate(90)">
			
			<path d="M0 639 L48.94 639 L38.92 623.25 L10.01 623.25 L0 639 Z" style="fill:#dae8fc;stroke:#6c8ebf;stroke-width:1"/>
		</g>
		<g id="shape772-517" transform="translate(193.481,927.465) rotate(180)">
			
			<path d="M0 639 L6.75 639" style="stroke:#000000;stroke-linecap:round;stroke-linejoin:round;stroke-width:1"/>
		</g>
		<g id="shape774-520" transform="translate(158.201,-345.495)">
			
			<desc>Calib</desc>
			<rect x="0" y="629.719" width="34.0585" height="9.28125" style="fill:none;stroke:none;stroke-width:0.25"/>
			<text x="9.04" y="636.76" style="fill:#000000;font-family:Calibri;font-size:0.666664em">Calib</text>		</g>
		<g id="shape776-523" transform="translate(487.689,1084.46) rotate(180)">
			
			<path d="M0 639 L53.82 639" style="stroke:#000000;stroke-linecap:round;stroke-linejoin:round;stroke-width:1"/>
		</g>
		<g id="shape777-526" transform="translate(487.521,1192.26) rotate(180)">
			
			<path d="M0 639 L53.65 639" style="stroke:#000000;stroke-linecap:round;stroke-linejoin:round;stroke-width:1"/>
		</g>
		<g id="shape778-529" transform="translate(487.501,1137.91) rotate(180)">
			
			<path d="M0 639 L53.63 639" style="stroke:#000000;stroke-linecap:round;stroke-linejoin:round;stroke-width:1"/>
		</g>
		<g id="shape779-532" transform="translate(487.782,1156.26) rotate(180)">
			
			<path d="M0 639 L53.91 639" style="stroke:#000000;stroke-linecap:round;stroke-linejoin:round;stroke-width:1"/>
		</g>
		<g id="shape780-535" transform="translate(487.876,1174.6) rotate(180)">
			
			<path d="M0 639 L54 639" style="stroke:#000000;stroke-linecap:round;stroke-linejoin:round;stroke-width:1"/>
		</g>
		<g id="shape781-538" transform="translate(487.689,1102.11) rotate(180)">
			
			<path d="M0 639 L53.82 639" style="stroke:#000000;stroke-linecap:round;stroke-linejoin:round;stroke-width:1"/>
		</g>
		<g id="shape782-541" transform="translate(487.782,1120.6) rotate(180)">
			
			<path d="M0 639 L53.91 639" style="stroke:#000000;stroke-linecap:round;stroke-linejoin:round;stroke-width:1"/>
		</g>
		<g id="shape783-544" transform="translate(487.58,1210.98) rotate(180)">
			
			<path d="M0 639 L53.71 639" style="stroke:#000000;stroke-linecap:round;stroke-linejoin:round;stroke-width:1"/>
		</g>
	</g>
</svg>
