<?xml version="1.0" encoding="UTF-8" standalone="no"?>
<!DOCTYPE svg PUBLIC "-//W3C//DTD SVG 1.1//EN" "http://www.w3.org/Graphics/SVG/1.1/DTD/svg11.dtd">
<!-- Generated by Microsoft Visio, SVG Export clk_04449.svg Page-1 -->
<svg class="st26" color-interpolation-filters="sRGB" height="16.8763in" viewBox="0 0 1394.63 1215.1" width="19.3698in" xml:space="preserve" xmlns="http://www.w3.org/2000/svg" xmlns:xlink="http://www.w3.org/1999/xlink">
 <style type="text/css">
  .st1 {marker-end:url(#mrkr10-6);stroke:#5b9bd5;stroke-dasharray:7,5;stroke-linecap:round;stroke-linejoin:round;stroke-width:1}
		.st2 {fill:#5b9bd5;fill-opacity:1;stroke:#5b9bd5;stroke-opacity:1;stroke-width:0.28409090909091}
		.st3 {marker-end:url(#mrkr4-17);stroke:#000000;stroke-linecap:round;stroke-linejoin:round;stroke-width:1}
		.st4 {fill:#000000;fill-opacity:1;stroke:#000000;stroke-opacity:1;stroke-width:0.28409090909091}
		.st5 {visibility:visible}
		.st6 {fill:none;filter:url(#filter_2.6666667461395);stroke:#000000;stroke-dasharray:15,9;stroke-opacity:0.4}
		.st7 {fill:none;stroke:#70ad47;stroke-dasharray:15,9;stroke-width:1}
		.st8 {fill:#dae8fc;stroke:#6c8ebf;stroke-width:1}
		.st9 {fill:#d5e8d4;stroke:#82b366;stroke-width:1}
		.st10 {fill:#000000;font-family:Times New Roman;font-size:1.5em}
		.st11 {marker-end:url(#mrkr5-45);stroke:#000000;stroke-linecap:round;stroke-linejoin:round;stroke-width:1}
		.st12 {fill:none;stroke:none;stroke-width:0.5}
		.st13 {fill:#000000;font-family:Calibri;font-size:1.16666em}
		.st14 {stroke:#000000;stroke-linecap:round;stroke-linejoin:round;stroke-width:1}
		.st15 {fill:#000000;font-family:Times New Roman;font-size:1.16666em}
		.st16 {fill:#000000;stroke:none;stroke-width:0.25}
		.st17 {fill:#000000;font-family:Calibri;font-size:1.5em;font-weight:bold}
		.st18 {fill:#000000;font-family:Calibri;font-size:1.33333em}
		.st19 {fill:#e2efd9;stroke:#000000;stroke-width:0.25}
		.st20 {font-size:1em;font-weight:bold}
		.st21 {fill:#000000;font-family:Calibri;font-size:1.99999em}
		.st22 {fill:#000000;font-family:Calibri;font-size:1.16666em;font-weight:bold}
		.st23 {fill:#000000;font-family:Calibri;font-size:1.00001em}
		.st24 {font-size:1.16665em}
		.st25 {font-size:1.16665em;font-weight:bold}
		.st26 {fill:none;fill-rule:evenodd;font-size:12px;overflow:visible;stroke-linecap:square;stroke-miterlimit:3}
 </style>
 <defs id="Markers">
  <g id="lend10">
   <path d="M 0 0.75 C -0.414214 0.75 -0.75 0.414214 -0.75 0 -0.75 -0.414214 -0.414214 -0.75 0 -0.75 0.414214 -0.75 0.75 -0.414214 0.75 0 0.75 0.414214 0.414214 0.75 0 0.75 Z " style="stroke:none">
   </path>
  </g>
  <marker class="st2" id="mrkr10-6" markerUnits="strokeWidth" orient="auto" overflow="visible" refX="-2.64">
   <use transform="scale(-3.52,-3.52) " xlink:href="#lend10">
   </use>
  </marker>
  <g id="lend4">
   <path d="M 2 1 L 0 0 L 2 -1 L 2 1 " style="stroke:none">
   </path>
  </g>
  <marker class="st4" id="mrkr4-17" markerUnits="strokeWidth" orient="auto" overflow="visible" refX="-7.04">
   <use transform="scale(-3.52,-3.52) " xlink:href="#lend4">
   </use>
  </marker>
  <g id="lend5">
   <path d="M 2 1 L 0 0 L 1.98117 -0.993387 C 1.67173 -0.364515 1.67301 0.372641 1.98465 1.00043 " style="stroke:none">
   </path>
  </g>
  <marker class="st4" id="mrkr5-45" markerUnits="strokeWidth" orient="auto" overflow="visible" refX="-6.16">
   <use transform="scale(-3.52,-3.52) " xlink:href="#lend5">
   </use>
  </marker>
 </defs>
 <defs id="Filters">
  <filter id="filter_2.6666667461395">
   <feGaussianBlur stdDeviation="2.6666667461395">
   </feGaussianBlur>
  </filter>
 </defs>
 <g>
  <g transform="translate(378.56,-679.221)">
   <path class="st1" d="M0 1215.1 L32.37 1215.1 L32.37 1236.41">
   </path>
  </g>
  <g transform="translate(378.168,-312.227)">
   <path class="st1" d="M0 1215.1 L32.37 1215.1 L32.37 1236.41">
   </path>
  </g>
  <g transform="translate(991.685,-252.002)">
   <path class="st3" d="M0 1206.94 L381.93 1205.28">
   </path>
  </g>
  <g transform="translate(18.25,-950)">
   <g class="st5" id="shadow2529-19" transform="matrix(1,0,0,1,0,3)">
    <path class="st6" d="M0 1215.1 L526.25 1215.1 L526.25 952.06 L0 952.06 L0 1215.1 Z">
    </path>
   </g>
   <path class="st7" d="M0 1215.1 L526.25 1215.1 L526.25 952.06 L0 952.06 L0 1215.1 Z">
   </path>
  </g>
  <g transform="translate(18.2785,-472.22)">
   <g class="st5" id="shadow2544-24" transform="matrix(1,0,0,1,0,3)">
    <path class="st6" d="M0 1215.1 L525.94 1215.1 L525.94 871.97 L0 871.97 L0 1215.1 Z">
    </path>
   </g>
   <path class="st7" d="M0 1215.1 L525.94 1215.1 L525.94 871.97 L0 871.97 L0 1215.1 Z">
   </path>
  </g>
  <g transform="translate(1380.03,433.646) rotate(90)">
   <path class="st8" d="M0 1215.1 L264.07 1215.1 L240.67 1189.77 L23.4 1189.77 L0 1215.1 Z">
   </path>
  </g>
  <g transform="translate(33.466,-736.595)">
   <path class="st3" d="M0 1206.1 L124.04 1206.1">
   </path>
  </g>
  <g transform="translate(208.185,-660.435)">
   <desc>
    ÷
   </desc>
   <path class="st9" d="M4.02 1215.1 L36.14 1215.1 A4.01519 4.01519 -180 0 0 40.15 1211.08 L40.15 1179.67 A4.01519 4.01519 -180 0 0
						 36.14 1175.65 L4.02 1175.65 A4.01519 4.01519 -180 0 0 0 1179.67 L0 1211.08 A4.01519 4.01519 -180 0 0 4.02
						 1215.1 Z">
   </path>
   <text class="st10" x="14.5" y="1200.77">
    ÷
   </text>
  </g>
  <g transform="translate(310.709,-653.428)">
   <path class="st9" d="M4.13 1215.1 L37.16 1215.1 A4.12933 4.12933 -180 0 0 41.29 1210.97 L41.29 1179.78 A4.12933 4.12933 -180 0 0
						 37.16 1175.65 L4.13 1175.65 A4.12933 4.12933 -180 0 0 0 1179.78 L0 1210.97 A4.12933 4.12933 -180 0 0 4.13
						 1215.1 Z">
   </path>
  </g>
  <g transform="translate(248.38,-671.849)">
   <path class="st11" d="M0 1206.16 L55.68 1206.05">
   </path>
  </g>
  <g transform="translate(197.375,-581.675)">
   <desc>
    PLLPRE
   </desc>
   <rect class="st12" height="24.7832" width="67.0767" x="0" y="1190.31">
   </rect>
   <text class="st13" x="13.2" y="1206.9">
    PLLPRE
   </text>
  </g>
  <g transform="translate(1443.19,554.719) rotate(90)">
   <path class="st14" d="M0 1215.1 L18.28 1215.1">
   </path>
  </g>
  <g transform="translate(308.93,-664.938)">
   <desc>
    PFD
   </desc>
   <rect class="st12" height="24.7832" width="43.1301" x="0" y="1190.31">
   </rect>
   <text class="st13" x="10.43" y="1206.9">
    PFD
   </text>
  </g>
  <g transform="translate(313.25,-592.023)">
   <desc>
    X
   </desc>
   <path class="st9" d="M4.02 1215.1 L36.14 1215.1 A4.01519 4.01519 -180 0 0 40.15 1211.08 L40.15 1179.67 A4.01519 4.01519 -180 0 0
						 36.14 1175.65 L4.02 1175.65 A4.01519 4.01519 -180 0 0 0 1179.67 L0 1211.08 A4.01519 4.01519 -180 0 0 4.02
						 1215.1 Z">
   </path>
   <text class="st15" x="15.02" y="1199.57">
    X
   </text>
  </g>
  <g transform="translate(368.619,-678.11)">
   <path class="st3" d="M-3 1215.1 L-3 1281.49 L-7.96 1281.49">
   </path>
  </g>
  <g transform="translate(362.453,-675.86)">
   <path class="st16" d="M0 1212.31 A2.78811 2.78811 0 0 1 5.58 1212.31 A2.78811 2.78811 0 1 1 0 1212.31 Z">
   </path>
  </g>
  <g transform="translate(299.3,-513.05)">
   <desc>
    FBDIV
   </desc>
   <rect class="st12" height="24.7832" width="67.0767" x="0" y="1190.31">
   </rect>
   <text class="st13" x="16.47" y="1206.9">
    FBDIV
   </text>
  </g>
  <g transform="translate(1548.58,618.273) rotate(89.7255)">
   <path class="st14" d="M0 1215.1 L12.47 1215.1">
   </path>
  </g>
  <g transform="translate(189.841,-689.854)">
   <path class="st14" d="M0 1224.04 L18.85 1224.15">
   </path>
  </g>
  <g transform="translate(352.403,-688.502)">
   <path class="st14" d="M0 1223.81 L25.03 1224.38">
   </path>
  </g>
  <g transform="translate(387.253,-610.595)">
   <path class="st14" d="M-8.97 1215.1 L-9.03 1109.85">
   </path>
  </g>
  <g transform="translate(378.278,-724.221)">
   <path class="st11" d="M0 1222.97 L242.47 1225.16">
   </path>
  </g>
  <g transform="translate(378.701,-618.47)">
   <path class="st11" d="M0 1222.97 L241.48 1225.16">
   </path>
  </g>
  <g transform="translate(375.53,-779.54)">
   <desc>
    POSTDIV1
   </desc>
   <rect class="st12" height="24.7832" width="67.0767" x="0" y="1190.31">
   </rect>
   <text class="st13" x="5.07" y="1206.9">
    POSTDIV1
   </text>
  </g>
  <g transform="translate(457.61,-779.9)">
   <desc>
    POSTDIV2
   </desc>
   <rect class="st12" height="24.7832" width="67.0767" x="0" y="1190.31">
   </rect>
   <text class="st13" x="5.07" y="1206.9">
    POSTDIV2
   </text>
  </g>
  <g transform="translate(436.775,-513.5)">
   <desc>
    VCODIV(N)
   </desc>
   <rect class="st12" height="24.7832" width="75.7099" x="0" y="1190.31">
   </rect>
   <text class="st13" x="6.71" y="1206.9">
    VCODIV(N)
   </text>
  </g>
  <g transform="translate(320.568,-612.845)">
   <path class="st3" d="M-7.45 1215.1 L-21.04 1215.1 L-21.04 1168.35 L-17.59 1168.35">
   </path>
  </g>
  <g transform="translate(20.1071,-1193.32)">
   <desc>
    External Clock Configuration
   </desc>
   <rect class="st12" height="10.2785" width="261.795" x="0" y="1204.82">
   </rect>
   <text class="st17" x="4" y="1215.36">
    External Clock Configuration
   </text>
  </g>
  <g transform="translate(19.75,-792)">
   <desc>
    Phase Lock Loop 1 Configuration
   </desc>
   <rect class="st12" height="10.2785" width="286.204" x="0" y="1204.82">
   </rect>
   <text class="st17" x="4" y="1215.36">
    Phase Lock Loop 1 Configuration
   </text>
  </g>
  <g transform="translate(33.9386,-710.312)">
   <path class="st3" d="M0 1223.69 L123.57 1224.46">
   </path>
  </g>
  <g transform="translate(34.8286,-645.752)">
   <path class="st3" d="M0 1206.38 L123.5 1205.84">
   </path>
  </g>
  <g transform="translate(36.4193,-614.252)">
   <path class="st3" d="M0 1223.81 L121.07 1224.35">
   </path>
  </g>
  <g transform="translate(35.1252,-547.596)">
   <path class="st3" d="M0 1206.1 L123.49 1206.1">
   </path>
  </g>
  <g transform="translate(1706.9,498.737) rotate(91.4318)">
   <path class="st14" d="M0 1215.1 L11.25 1215.1">
   </path>
  </g>
  <g transform="translate(427.55,-589.775)">
   <desc>
    ÷(2N)
   </desc>
   <path class="st9" d="M8.94 1215.1 L80.49 1215.1 A8.9436 8.9436 -180 0 0 89.44 1206.15 L89.44 1184.6 A8.9436 8.9436 -180 0 0 80.49
						 1175.65 L8.94 1175.65 A8.9436 8.9436 -180 0 0 0 1184.6 L0 1206.15 A8.9436 8.9436 -180 0 0 8.94 1215.1 Z">
   </path>
   <text class="st18" x="26.66" y="1200.17">
    ÷(2N)
   </text>
  </g>
  <g transform="translate(1687.31,625.312) rotate(90)">
   <path class="st14" d="M0 1215.1 L11.53 1215.1">
   </path>
  </g>
  <g transform="translate(305.079,-858.157)">
  </g>
  <g transform="translate(691.591,-773.702)">
   <g class="st5" id="shadow3158-141" transform="matrix(1,0,0,1,0,3)">
    <path class="st6" d="M0 1215.1 L486.76 1215.1 L486.76 775.2 L0 775.2 L0 1215.1 Z">
    </path>
   </g>
   <path class="st7" d="M0 1215.1 L486.76 1215.1 L486.76 775.2 L0 775.2 L0 1215.1 Z">
   </path>
  </g>
  <g transform="translate(992.107,-995.213)">
   <path class="st3" d="M0 1223.67 L382.35 1224.51">
   </path>
  </g>
  <g transform="translate(708.747,-1146.66)">
   <path class="st3" d="M0 1224.1 L248.89 1224.1">
   </path>
  </g>
  <g transform="translate(708.466,-1117.41)">
   <path class="st3" d="M0 1223.53 L249.18 1224.63">
   </path>
  </g>
  <g transform="translate(709.029,-1087.31)">
   <path class="st3" d="M0 1223.81 L248.33 1224.36">
   </path>
  </g>
  <g transform="translate(708.185,-1038.23)">
   <path class="st3" d="M0 1206.23 L250.03 1205.97">
   </path>
  </g>
  <g transform="translate(707.904,-1025.44)">
   <path class="st3" d="M0 1222.69 L250.02 1225.42">
   </path>
  </g>
  <g transform="translate(2179.51,29.3877) rotate(90)">
   <path class="st8" d="M0 1215.1 L365.88 1215.1 L333.46 1187.54 L32.42 1187.54 L0 1215.1 Z">
   </path>
  </g>
  <g transform="translate(707.622,-997.033)">
   <path class="st3" d="M0 1223.53 L250.02 1224.63">
   </path>
  </g>
  <g transform="translate(708.185,-964.689)">
   <path class="st3" d="M0 1223.25 L248.6 1224.89">
   </path>
  </g>
  <g transform="translate(707.904,-929.814)">
   <path class="st3" d="M0 1223.81 L249.17 1224.36">
   </path>
  </g>
  <g transform="translate(707.904,-901.689)">
   <path class="st3" d="M0 1223.81 L249.31 1224.36">
   </path>
  </g>
  <g transform="translate(709.591,-850.502)">
   <path class="st3" d="M0 1206.38 L247.91 1205.83">
   </path>
  </g>
  <g transform="translate(1221.61,-988.25)">
   <desc>
    System Clock Frequency
   </desc>
   <rect class="st12" height="14.8531" width="167.942" x="0" y="1200.24">
   </rect>
   <text class="st13" x="15.31" y="1211.87">
    System Clock Frequency
   </text>
  </g>
  <g transform="translate(1189.97,-985.22)">
   <path class="st3" d="M0 1215.1 L0 1303.97 L183.65 1303.97">
   </path>
  </g>
  <g transform="translate(1189.97,-896.345)">
   <path class="st3" d="M0 1215.1 L0 1284.85 L183.65 1284.85">
   </path>
  </g>
  <g transform="translate(1185.05,-891.5)">
   <desc>
    Standard Speed Peripheral Clock
   </desc>
   <rect class="st12" height="14.8531" width="203.697" x="0" y="1200.24">
   </rect>
   <text class="st13" x="9.27" y="1203.47">
    Standard Speed Peripheral Clock
   </text>
  </g>
  <g transform="translate(1190.43,-818.536)">
   <desc>
    Slow Speed Peripheral Clock
   </desc>
   <rect class="st12" height="14.8531" width="203.697" x="0" y="1200.24">
   </rect>
   <text class="st13" x="21.49" y="1203.47">
    Slow Speed Peripheral Clock
   </text>
  </g>
  <g transform="translate(691.872,-683.356)">
   <g class="st5" id="shadow3197-222" transform="matrix(1,0,0,1,0,3)">
    <path class="st6" d="M0 1215.1 L486.62 1215.1 L486.62 1142.59 L0 1142.59 L0 1215.1 Z">
    </path>
   </g>
   <path class="st7" d="M0 1215.1 L486.62 1215.1 L486.62 1142.59 L0 1142.59 L0 1215.1 Z">
   </path>
  </g>
  <g transform="translate(678.071,-735.607)">
   <desc>
    Clock Generator 2 (FRC)
   </desc>
   <rect class="st12" height="15.6336" width="216.261" x="0" y="1199.46">
   </rect>
   <text class="st17" x="19.57" y="1212.68">
    Clock Generator 2 (FRC)
   </text>
  </g>
  <g transform="translate(890.435,-723.939)">
   <path class="st3" d="M0 1223.81 L482.62 1224.37">
   </path>
  </g>
  <g transform="translate(680.964,-645.929)">
   <desc>
    Clock Generator 3 (BFRC)
   </desc>
   <rect class="st12" height="15.6336" width="217.308" x="0" y="1199.46">
   </rect>
   <text class="st17" x="15.05" y="1212.68">
    Clock Generator 3 (BFRC)
   </text>
  </g>
  <g transform="translate(889.029,-637.314)">
   <path class="st3" d="M0 1223.81 L484.59 1224.37">
   </path>
  </g>
  <g transform="translate(543.25,-720.5)">
   <desc>
    PLL1 Fout
   </desc>
   <rect class="st12" height="14.8531" width="68.625" x="0" y="1200.24">
   </rect>
   <text class="st13" x="6.75" y="1211.87">
    PLL1 Fout
   </text>
  </g>
  <g transform="translate(544.25,-614.5)">
   <desc>
    PLL1 VCO Div
   </desc>
   <rect class="st12" height="14.8531" width="110.25" x="0" y="1200.24">
   </rect>
   <text class="st13" x="4" y="1211.87">
    PLL1 VCO Div
   </text>
  </g>
  <g transform="translate(1191.71,-719.536)">
   <desc>
    Clock Generator 2 Frequency
   </desc>
   <rect class="st12" height="14.8531" width="202.279" x="0" y="1200.24">
   </rect>
   <text class="st13" x="18.56" y="1211.87">
    Clock Generator 2 Frequency
   </text>
  </g>
  <g transform="translate(1189.79,-629.536)">
   <desc>
    Clock Generator 3 Frequency
   </desc>
   <rect class="st12" height="14.8531" width="202.279" x="0" y="1200.24">
   </rect>
   <text class="st13" x="18.56" y="1211.87">
    Clock Generator 3 Frequency
   </text>
  </g>
  <g transform="translate(1622.39,467.432) rotate(89.9997)">
   <path class="st14" d="M0 1215.1 L14.06 1215.1">
   </path>
  </g>
  <g transform="translate(691.591,-595.044)">
   <g class="st5" id="shadow3291-258" transform="matrix(1,0,0,1,0,3)">
    <path class="st6" d="M0 1215.1 L485.88 1215.1 L485.88 1143.74 L0 1143.74 L0 1215.1 Z">
    </path>
   </g>
   <path class="st7" d="M0 1215.1 L485.88 1215.1 L485.88 1143.74 L0 1143.74 L0 1215.1 Z">
   </path>
  </g>
  <g transform="translate(691.591,-100.952)">
   <g class="st5" id="shadow3294-263" transform="matrix(1,0,0,1,0,3)">
    <path class="st6" d="M0 1215.1 L486 1215.1 L486 749.35 L0 749.35 L0 1215.1 Z">
    </path>
   </g>
   <path class="st7" d="M0 1215.1 L486 1215.1 L486 749.35 L0 749.35 L0 1215.1 Z">
   </path>
  </g>
  <g transform="translate(387.05,-696.65)">
   <desc>
    ÷
   </desc>
   <path class="st9" d="M4.02 1215.1 L36.14 1215.1 A4.01519 4.01519 -180 0 0 40.15 1211.08 L40.15 1179.67 A4.01519 4.01519 -180 0 0
						 36.14 1175.65 L4.02 1175.65 A4.01519 4.01519 -180 0 0 0 1179.67 L0 1211.08 A4.01519 4.01519 -180 0 0 4.02
						 1215.1 Z">
   </path>
   <text class="st10" x="15.14" y="1200.77">
    ÷
   </text>
  </g>
  <g id="data-clk-divider-block" transform="translate(951.65,-880.1)">
   <g transform="translate(74.6572,-189.6)">
    <desc>
     INTDIV(N)
    </desc>
    <rect class="st12" height="14.8531" width="97.3133" x="0" y="1200.24">
    </rect>
    <text class="st13" x="20.16" y="1211.87">
     INTDIV(N)
    </text>
   </g>
   <g transform="translate(74.2363,-3.62725)">
    <desc>
     FRACDIV(M)
    </desc>
    <rect class="st12" height="13.7538" width="101.889" x="0" y="1201.34">
    </rect>
    <text class="st13" x="15.87" y="1212.42">
     FRACDIV(M)
    </text>
   </g>
   <g transform="translate(75.0807,-80.1566)">
    <rect class="st19" height="50.6249" width="97.4229" x="0" y="1164.47">
    </rect>
   </g>
   <g transform="translate(115.269,-130.714)">
    <path class="st14" d="M8.86 1215.1 L9.14 1195.69">
    </path>
   </g>
   <g transform="translate(70.9048,-98.349)">
    <desc>
     ÷ 2 x (N +
    </desc>
    <rect class="st12" height="14.1484" width="103.034" x="0" y="1200.95">
    </rect>
    <text class="st13" x="7.17" y="1212.22">
     ÷  2 x (
     <tspan class="st20">
      N
     </tspan>
     +
    </text>
   </g>
   <g transform="translate(127.418,-105.261)">
    <rect class="st12" height="14.1484" width="30.6229" x="0" y="1200.95">
    </rect>
   </g>
   <g transform="translate(152.968,-114.513)">
    <path class="st14" d="M-0.52 1223.84 L-17.48 1224.35">
    </path>
   </g>
   <g transform="translate(127.696,-90.5111)">
    <desc>
     512
    </desc>
    <rect class="st12" height="14.1484" width="30.6229" x="0" y="1200.95">
    </rect>
    <text class="st15" x="4.81" y="1212.27">
     512
    </text>
   </g>
   <g transform="translate(80.0348,-98.6609)">
    <desc>
     [
    </desc>
    <rect class="st12" height="16.0312" width="13.5752" x="0" y="1199.06">
    </rect>
    <text class="st21" x="4" y="1214.28">
     [
    </text>
   </g>
   <g transform="translate(153.535,-98.2611)">
    <desc>
     ]
    </desc>
    <rect class="st12" height="16.0312" width="11.6228" x="0" y="1199.06">
    </rect>
    <text class="st21" x="4" y="1214.28">
     ]
    </text>
   </g>
   <g transform="translate(126.644,-105.405)">
    <desc>
     M
    </desc>
    <rect class="st12" height="12.5751" width="30.062" x="0" y="1202.52">
    </rect>
    <text class="st22" x="8.91" y="1213.01">
     M
    </text>
   </g>
   <g transform="translate(150.494,-98.5047)">
    <desc>
     )
    </desc>
    <rect class="st12" height="14.1484" width="11.6764" x="0" y="1200.95">
    </rect>
    <text class="st23" x="4" y="1211.62">
     )
    </text>
   </g>
   <g transform="translate(114.707,-58.4331)">
    <path class="st14" d="M9 1215.1 L9 1194">
    </path>
   </g>
  </g>
  <g id="data-common-clk-divider-block" transform="translate(932.205,-147.773)">
   <g transform="translate(148.495,-108.761)">
    <rect class="st12" height="14.1484" width="30.6229" x="0" y="1200.95">
    </rect>
   </g>
   <g transform="translate(95.8999,-191.631)">
    <desc>
     INTDIV(N)
    </desc>
    <rect class="st12" height="14.8531" width="97.3133" x="0" y="1200.24">
    </rect>
    <text class="st13" x="20.16" y="1211.87">
     INTDIV(N)
    </text>
   </g>
   <g transform="translate(96,-12.5)">
    <desc>
     FRACDIV(M)
    </desc>
    <rect class="st12" height="13.7538" width="101.889" x="0" y="1201.34">
    </rect>
    <text class="st13" x="15.87" y="1212.42">
     FRACDIV(M)
    </text>
   </g>
   <g transform="translate(96.1473,-86.8455)">
    <rect class="st19" height="50.6249" width="110.745" x="0" y="1164.47">
    </rect>
   </g>
   <g transform="translate(139.573,-136.995)">
    <path class="st14" d="M8.96 1214.38 L9.04 1197.81">
    </path>
   </g>
   <g transform="translate(91.9714,-105.038)">
    <desc>
     ÷ 2 x (N +
    </desc>
    <rect class="st12" height="14.1484" width="103.034" x="0" y="1200.95">
    </rect>
    <text class="st23" x="7.17" y="1212.22">
     ÷
     <tspan class="st24">
     </tspan>
     <tspan class="st24">
      2 x (
     </tspan>
     <tspan class="st25">
      N
     </tspan>
     <tspan class="st24">
     </tspan>
     <tspan class="st24">
      +
     </tspan>
    </text>
   </g>
   <g transform="translate(156.031,-105.261)">
    <rect class="st12" height="14.1484" width="30.6229" x="0" y="1200.95">
    </rect>
   </g>
   <g transform="translate(176.835,-102.914)">
    <path class="st14" d="M0 1206.1 L-20.53 1206.1">
    </path>
   </g>
   <g transform="translate(148.763,-97.2)">
    <desc>
     512
    </desc>
    <rect class="st12" height="14.1484" width="30.6229" x="0" y="1200.95">
    </rect>
    <text class="st15" x="4.81" y="1212.27">
     512
    </text>
   </g>
   <g transform="translate(99.4696,-105.075)">
    <desc>
     [
    </desc>
    <rect class="st12" height="16.0312" width="13.5752" x="0" y="1199.06">
    </rect>
    <text class="st21" x="4" y="1214.28">
     [
    </text>
   </g>
   <g transform="translate(182.163,-104.315)">
    <desc>
     ]
    </desc>
    <rect class="st12" height="16.0312" width="11.6228" x="0" y="1199.06">
    </rect>
    <text class="st21" x="4" y="1214.28">
     ]
    </text>
   </g>
   <g transform="translate(147.711,-112.094)">
    <desc>
     M
    </desc>
    <rect class="st12" height="12.5751" width="30.062" x="0" y="1202.52">
    </rect>
    <text class="st22" x="8.91" y="1213.01">
     M
    </text>
   </g>
   <g transform="translate(176.716,-105.026)">
    <desc>
     )
    </desc>
    <rect class="st12" height="14.1484" width="11.6764" x="0" y="1200.95">
    </rect>
    <text class="st23" x="4" y="1211.62">
     )
    </text>
   </g>
   <g transform="translate(138.044,-68.5522)">
    <path class="st14" d="M8.83 1215.1 L9.17 1197.07">
    </path>
   </g>
  </g>
  <g transform="translate(17.9973,-831.5)">
   <g class="st5" id="shadow3361-355" transform="matrix(1,0,0,1,0,3)">
    <path class="st6" d="M0 1215.1 L526.5 1215.1 L526.5 1116.14 L0 1116.14 L0 1215.1 Z">
    </path>
   </g>
   <path class="st7" d="M0 1215.1 L526.5 1215.1 L526.5 1116.14 L0 1116.14 L0 1215.1 Z">
   </path>
  </g>
  <g transform="translate(0.5,-907.571)">
   <desc>
    Clock Fail Interrupt Configuration
   </desc>
   <rect class="st12" height="14.8531" width="292.6" x="0" y="1200.24">
   </rect>
   <text class="st17" x="22.02" y="1213.07">
    Clock Fail Interrupt Configuration
   </text>
  </g>
  <g transform="translate(17.1536,-7.49999)">
   <g class="st5" id="shadow3365-363" transform="matrix(1,0,0,1,0,3)">
    <path class="st6" d="M0 1215.1 L1161 1215.1 L1161 1142 L0 1142 L0 1215.1 Z">
    </path>
   </g>
   <path class="st7" d="M0 1215.1 L1161 1215.1 L1161 1142 L0 1142 L0 1215.1 Z">
   </path>
  </g>
  <g transform="translate(26.9973,-32)">
   <desc>
    Note : Clock Monitor settings can be configured using the Tre...
   </desc>
   <rect class="st12" height="14.8531" width="1130.91" x="0" y="1200.24">
   </rect>
   <text class="st17" x="54.58" y="1202.27">
    Note : Clock Monitor settings can be configured using the Tree view.  Navigate to the section System/Clock/Clock Monitor Configuration.
   </text>
  </g>
  <g transform="translate(472.25,-695.5)">
   <desc>
    ÷
   </desc>
   <path class="st9" d="M4.02 1215.1 L36.14 1215.1 A4.01519 4.01519 -180 0 0 40.15 1211.08 L40.15 1179.67 A4.01519 4.01519 -180 0 0
						 36.14 1175.65 L4.02 1175.65 A4.01519 4.01519 -180 0 0 0 1179.67 L0 1211.08 A4.01519 4.01519 -180 0 0 4.02
						 1215.1 Z">
   </path>
   <text class="st10" x="15.14" y="1200.77">
    ÷
   </text>
  </g>
  <g transform="translate(17.8864,-102.095)">
   <g class="st5" id="shadow3539-374" transform="matrix(1,0,0,1,0,3)">
    <path class="st6" d="M0 1215.1 L525.94 1215.1 L525.94 868.84 L0 868.84 L0 1215.1 Z">
    </path>
   </g>
   <path class="st7" d="M0 1215.1 L525.94 1215.1 L525.94 868.84 L0 868.84 L0 1215.1 Z">
   </path>
  </g>
  <g transform="translate(1379.64,800.639) rotate(90)">
   <path class="st8" d="M0 1215.1 L264.07 1215.1 L240.67 1189.77 L23.4 1189.77 L0 1215.1 Z">
   </path>
  </g>
  <g transform="translate(33.0739,-369.602)">
   <path class="st3" d="M0 1206.1 L124.04 1206.1">
   </path>
  </g>
  <g transform="translate(207.793,-293.196)">
   <desc>
    ÷
   </desc>
   <path class="st9" d="M4.02 1215.1 L36.14 1215.1 A4.01519 4.01519 -180 0 0 40.15 1211.08 L40.15 1179.67 A4.01519 4.01519 -180 0 0
						 36.14 1175.65 L4.02 1175.65 A4.01519 4.01519 -180 0 0 0 1179.67 L0 1211.08 A4.01519 4.01519 -180 0 0 4.02
						 1215.1 Z">
   </path>
   <text class="st10" x="14.5" y="1200.77">
    ÷
   </text>
  </g>
  <g transform="translate(310.317,-286.435)">
   <path class="st9" d="M4.13 1215.1 L37.16 1215.1 A4.12933 4.12933 -180 0 0 41.29 1210.97 L41.29 1179.78 A4.12933 4.12933 -180 0 0
						 37.16 1175.65 L4.13 1175.65 A4.12933 4.12933 -180 0 0 0 1179.78 L0 1210.97 A4.12933 4.12933 -180 0 0 4.13
						 1215.1 Z">
   </path>
  </g>
  <g transform="translate(247.988,-304.855)">
   <path class="st11" d="M0 1206.16 L55.68 1206.05">
   </path>
  </g>
  <g transform="translate(196.983,-214.682)">
   <desc>
    PLLPRE
   </desc>
   <rect class="st12" height="24.7832" width="67.0767" x="0" y="1190.31">
   </rect>
   <text class="st13" x="13.2" y="1206.9">
    PLLPRE
   </text>
  </g>
  <g transform="translate(1443.03,901.807) rotate(89.0728)">
   <path class="st14" d="M0 1215.1 L17.39 1215.1">
   </path>
  </g>
  <g transform="translate(308.538,-297.945)">
   <desc>
    PFD
   </desc>
   <rect class="st12" height="24.7832" width="43.1301" x="0" y="1190.31">
   </rect>
   <text class="st13" x="10.43" y="1206.9">
    PFD
   </text>
  </g>
  <g transform="translate(312.858,-225.03)">
   <desc>
    X
   </desc>
   <path class="st9" d="M4.02 1215.1 L36.14 1215.1 A4.01519 4.01519 -180 0 0 40.15 1211.08 L40.15 1179.67 A4.01519 4.01519 -180 0 0
						 36.14 1175.65 L4.02 1175.65 A4.01519 4.01519 -180 0 0 0 1179.67 L0 1211.08 A4.01519 4.01519 -180 0 0 4.02
						 1215.1 Z">
   </path>
   <text class="st15" x="15.02" y="1199.57">
    X
   </text>
  </g>
  <g transform="translate(368.226,-311.117)">
   <path class="st3" d="M-3 1215.1 L-3 1281.49 L-7.96 1281.49">
   </path>
  </g>
  <g transform="translate(362.061,-308.867)">
   <path class="st16" d="M0 1212.31 A2.78811 2.78811 0 0 1 5.58 1212.31 A2.78811 2.78811 0 1 1 0 1212.31 Z">
   </path>
  </g>
  <g transform="translate(298.908,-146.057)">
   <desc>
    FBDIV
   </desc>
   <rect class="st12" height="24.7832" width="67.0767" x="0" y="1190.31">
   </rect>
   <text class="st13" x="16.47" y="1206.9">
    FBDIV
   </text>
  </g>
  <g transform="translate(1548.17,1000.56) rotate(90.4464)">
   <path class="st14" d="M0 1215.1 L14.19 1215.1">
   </path>
  </g>
  <g transform="translate(189.449,-322.861)">
   <path class="st14" d="M0 1224.04 L18.85 1224.15">
   </path>
  </g>
  <g transform="translate(352.011,-321.509)">
   <path class="st14" d="M0 1223.81 L25.03 1224.38">
   </path>
  </g>
  <g transform="translate(386.861,-243.602)">
   <path class="st14" d="M-8.97 1215.1 L-9.03 1109.85">
   </path>
  </g>
  <g transform="translate(377.886,-357.349)">
   <path class="st11" d="M0 1223.09 L242.29 1225.05">
   </path>
  </g>
  <g transform="translate(378.308,-251.88)">
   <path class="st11" d="M0 1223.37 L242.15 1224.78">
   </path>
  </g>
  <g transform="translate(375.138,-412.547)">
   <desc>
    POSTDIV1
   </desc>
   <rect class="st12" height="24.7832" width="67.0767" x="0" y="1190.31">
   </rect>
   <text class="st13" x="5.07" y="1206.9">
    POSTDIV1
   </text>
  </g>
  <g transform="translate(457.218,-412.907)">
   <desc>
    POSTDIV2
   </desc>
   <rect class="st12" height="24.7832" width="67.0767" x="0" y="1190.31">
   </rect>
   <text class="st13" x="5.07" y="1206.9">
    POSTDIV2
   </text>
  </g>
  <g transform="translate(436.383,-146.507)">
   <desc>
    VCODIV(N)
   </desc>
   <rect class="st12" height="24.7832" width="75.7099" x="0" y="1190.31">
   </rect>
   <text class="st13" x="6.71" y="1206.9">
    VCODIV(N)
   </text>
  </g>
  <g transform="translate(320.176,-245.852)">
   <path class="st3" d="M-7.45 1215.1 L-21.04 1215.1 L-21.04 1168.35 L-17.59 1168.35">
   </path>
  </g>
  <g transform="translate(19.3578,-425.007)">
   <desc>
    Phase Lock Loop 2 Configuration
   </desc>
   <rect class="st12" height="10.2785" width="286.204" x="0" y="1204.82">
   </rect>
   <text class="st17" x="4" y="1215.36">
    Phase Lock Loop 2 Configuration
   </text>
  </g>
  <g transform="translate(33.5464,-343.318)">
   <path class="st3" d="M0 1223.69 L123.57 1224.46">
   </path>
  </g>
  <g transform="translate(34.4364,-278.759)">
   <path class="st3" d="M0 1206.38 L123.5 1205.84">
   </path>
  </g>
  <g transform="translate(36.0271,-229.661)">
   <path class="st3" d="M0 1206.22 L121.74 1205.99">
   </path>
  </g>
  <g transform="translate(34.7331,-198.161)">
   <path class="st3" d="M0 1223.65 L122.76 1224.49">
   </path>
  </g>
  <g transform="translate(1706.66,847.422) rotate(90.5666)">
   <path class="st14" d="M0 1215.1 L11.21 1215.1">
   </path>
  </g>
  <g transform="translate(427.158,-222.782)">
   <desc>
    ÷(2N)
   </desc>
   <path class="st9" d="M8.94 1215.1 L80.49 1215.1 A8.9436 8.9436 -180 0 0 89.44 1206.15 L89.44 1184.6 A8.9436 8.9436 -180 0 0 80.49
						 1175.65 L8.94 1175.65 A8.9436 8.9436 -180 0 0 0 1184.6 L0 1206.15 A8.9436 8.9436 -180 0 0 8.94 1215.1 Z">
   </path>
   <text class="st18" x="26.66" y="1200.17">
    ÷(2N)
   </text>
  </g>
  <g transform="translate(1686.8,1008.98) rotate(90.7861)">
   <path class="st14" d="M0 1215.1 L12.41 1215.1">
   </path>
  </g>
  <g transform="translate(542.858,-353.507)">
   <desc>
    PLL2 Fout
   </desc>
   <rect class="st12" height="14.8531" width="68.625" x="0" y="1200.24">
   </rect>
   <text class="st13" x="6.75" y="1211.87">
    PLL2 Fout
   </text>
  </g>
  <g transform="translate(1622,834.425) rotate(89.9997)">
   <path class="st14" d="M0 1215.1 L14.06 1215.1">
   </path>
  </g>
  <g transform="translate(386.658,-329.657)">
   <desc>
    ÷
   </desc>
   <path class="st9" d="M4.02 1215.1 L36.14 1215.1 A4.01519 4.01519 -180 0 0 40.15 1211.08 L40.15 1179.67 A4.01519 4.01519 -180 0 0
						 36.14 1175.65 L4.02 1175.65 A4.01519 4.01519 -180 0 0 0 1179.67 L0 1211.08 A4.01519 4.01519 -180 0 0 4.02
						 1215.1 Z">
   </path>
   <text class="st10" x="15.14" y="1200.77">
    ÷
   </text>
  </g>
  <g transform="translate(471.858,-328.507)">
   <desc>
    ÷
   </desc>
   <path class="st9" d="M4.02 1215.1 L36.14 1215.1 A4.01519 4.01519 -180 0 0 40.15 1211.08 L40.15 1179.67 A4.01519 4.01519 -180 0 0
						 36.14 1175.65 L4.02 1175.65 A4.01519 4.01519 -180 0 0 0 1179.67 L0 1211.08 A4.01519 4.01519 -180 0 0 4.02
						 1215.1 Z">
   </path>
   <text class="st10" x="15.14" y="1200.77">
    ÷
   </text>
  </g>
  <g transform="translate(543.705,-247.591)">
   <desc>
    PLL2 VCO Div
   </desc>
   <rect class="st12" height="14.8531" width="110.25" x="0" y="1200.24">
   </rect>
   <text class="st13" x="4" y="1211.87">
    PLL2 VCO Div
   </text>
  </g>
  <g transform="translate(706.779,-479.613)">
   <path class="st3" d="M0 1223.61 L250.56 1224.55">
   </path>
  </g>
  <g transform="translate(706.779,-449.52)">
   <path class="st3" d="M0 1223.89 L250.56 1224.29">
   </path>
  </g>
  <g transform="translate(707.904,-419.988)">
   <path class="st3" d="M0 1223.61 L249.16 1224.55">
   </path>
  </g>
  <g transform="translate(706.779,-370.075)">
   <path class="st3" d="M0 1206.32 L250.34 1205.88">
   </path>
  </g>
  <g transform="translate(709.029,-357.551)">
   <path class="st3" d="M0 1223.05 L248.59 1225.08">
   </path>
  </g>
  <g transform="translate(2179.2,712.5) rotate(90)">
   <path class="st8" d="M0 1215.1 L350.3 1215.1 L319.26 1187.54 L31.04 1187.54 L0 1215.1 Z">
   </path>
  </g>
  <g transform="translate(707.341,-329.145)">
   <path class="st3" d="M0 1223.89 L250 1224.29">
   </path>
  </g>
  <g transform="translate(707.341,-296.52)">
   <path class="st3" d="M0 1223.89 L249.16 1224.29">
   </path>
  </g>
  <g transform="translate(708.466,-263.051)">
   <path class="st3" d="M0 1223.05 L248.31 1225.08">
   </path>
  </g>
  <g transform="translate(711.279,-215.801)">
   <path class="st3" d="M0 1206.18 L245.64 1206.02">
   </path>
  </g>
  <g transform="translate(708.05,-184.18)">
   <path class="st3" d="M0 1206.18 L247.05 1206.02">
   </path>
  </g>
 </g>
</svg>
