<?xml version="1.0" encoding="UTF-8" standalone="no"?>
<!DOCTYPE svg PUBLIC "-//W3C//DTD SVG 1.1//EN" "http://www.w3.org/Graphics/SVG/1.1/DTD/svg11.dtd">
<!-- Generated by Microsoft Visio, SVG Export adchs_02508.svg Page-1 -->
<svg class="st23" color-interpolation-filters="sRGB" height="6.51695in" viewBox="0 0 624.375 469.221" width="8.67188in" xml:space="preserve" xmlns="http://www.w3.org/2000/svg" xmlns:xlink="http://www.w3.org/1999/xlink">
 <style type="text/css">
  .st1 {marker-end:url(#mrkr5-6);stroke:#000000;stroke-linecap:round;stroke-linejoin:round;stroke-width:1}
		.st2 {fill:#000000;fill-opacity:1;stroke:#000000;stroke-opacity:1;stroke-width:0.28409090909091}
		.st3 {stroke:#000000;stroke-linecap:round;stroke-linejoin:round;stroke-width:1}
		.st4 {fill:#fff0e1;stroke:#d79b00;stroke-width:0.75}
		.st5 {fill:none;stroke:#c9c9c9;stroke-width:2.25}
		.st6 {fill:none;stroke:none;stroke-width:0.25}
		.st7 {fill:#0070c0;font-family:Tahoma;font-size:0.833336em}
		.st8 {fill:#000000;font-family:Tahoma;font-size:0.833336em}
		.st9 {marker-end:url(#mrkr5-6);stroke:#000000;stroke-width:1}
		.st10 {visibility:visible}
		.st11 {fill:#000000;fill-opacity:0.4;filter:url(#filter_2.6666667461395);stroke:#000000;stroke-opacity:0.4}
		.st12 {fill:#feffff;stroke:#d79b00;stroke-width:0.25}
		.st13 {fill:#000000;fill-opacity:0.12;filter:url(#filter_4);stroke:none}
		.st14 {fill:#ffffff;stroke:none;stroke-width:0.25}
		.st15 {fill:#0070c0;font-family:Tahoma;font-size:0.833336em;font-weight:bold}
		.st16 {fill:#dae8fc;stroke:#6c8ebf;stroke-width:0.5}
		.st17 {fill:#000000;font-family:Tahoma;font-size:1.00001em;font-weight:bold}
		.st18 {fill:#ffffff;stroke:#000000;stroke-width:0.25}
		.st19 {fill:#000000;stroke:#000000;stroke-width:0.25}
		.st20 {fill:#feffff;stroke:#000000;stroke-width:0.25}
		.st21 {fill:#5b9bd5;fill-opacity:0.22;filter:url(#filter_2);stroke:#5b9bd5;stroke-opacity:0.22}
		.st22 {fill:#000000;stroke:#c7c8c8;stroke-width:0.25}
		.st23 {fill:none;fill-rule:evenodd;font-size:12px;overflow:visible;stroke-linecap:square;stroke-miterlimit:3}
 </style>
 <defs id="Markers">
  <g id="lend5">
   <path d="M 2 1 L 0 0 L 1.98117 -0.993387 C 1.67173 -0.364515 1.67301 0.372641 1.98465 1.00043 " style="stroke:none">
   </path>
  </g>
  <marker class="st2" id="mrkr5-6" markerUnits="strokeWidth" orient="auto" overflow="visible" refX="-6.16">
   <use transform="scale(-3.52,-3.52) " xlink:href="#lend5">
   </use>
  </marker>
 </defs>
 <defs id="Filters">
  <filter id="filter_2.6666667461395">
   <feGaussianBlur stdDeviation="2.6666667461395">
   </feGaussianBlur>
  </filter>
  <filter id="filter_4">
   <feGaussianBlur stdDeviation="4">
   </feGaussianBlur>
  </filter>
  <filter id="filter_2">
   <feGaussianBlur stdDeviation="2">
   </feGaussianBlur>
  </filter>
 </defs>
 <g>
  <g transform="translate(471.875,-199.5)">
   <path class="st1" d="M0 469.22 L21.96 469.22">
   </path>
  </g>
  <g transform="translate(99.5625,-132.531)">
   <path class="st3" d="M0 469.22 L49.22 469.22">
   </path>
  </g>
  <g transform="translate(99.5625,-248.781)">
   <path class="st3" d="M0 469.22 L49.22 469.22">
   </path>
  </g>
  <g transform="translate(148.5,-121.562)">
   <path class="st4" d="M0 469.22 L253.69 469.22 L324 392.72 L253.69 316.22 L0 316.22 L0 469.22 Z">
   </path>
  </g>
  <g transform="translate(79.875,-435.697)">
   <path class="st1" d="M0 469.22 L36.42 469.22">
   </path>
  </g>
  <g transform="translate(79.875,-408.383)">
   <path class="st1" d="M0 469.22 L36.42 469.22">
   </path>
  </g>
  <g transform="translate(79.875,-381.068)">
   <path class="st1" d="M0 469.22 L36.42 469.22">
   </path>
  </g>
  <g transform="translate(79.875,-358.254)">
   <path class="st1" d="M0 469.22 L36.42 469.22">
   </path>
  </g>
  <g transform="translate(2.25,-59.125)">
   <rect class="st5" height="258.188" width="619.875" x="0" y="211.033">
   </rect>
  </g>
  <g transform="translate(65.8125,-454.375)">
   <desc>
    Clock Source
   </desc>
   <rect class="st6" height="14.5955" width="68.7938" x="0" y="454.625">
   </rect>
   <text class="st7" x="6.15" y="464.92">
    Clock Source
   </text>
  </g>
  <g transform="translate(343.688,-455.875)">
   <desc>
    Reference Voltage
   </desc>
   <rect class="st6" height="11.5955" width="95.0625" x="0" y="457.625">
   </rect>
   <text class="st7" x="7.32" y="466.42">
    Reference Voltage
   </text>
  </g>
  <g transform="translate(177.75,-373)">
   <desc>
    Control Clock Divider
   </desc>
   <rect class="st6" height="16.658" width="105.75" x="0" y="452.563">
   </rect>
   <text class="st7" x="6.89" y="463.89">
    Control Clock Divider
   </text>
  </g>
  <g transform="translate(358.5,-296.275)">
   <desc>
    Resolution
   </desc>
   <rect class="st6" height="22.8455" width="56.25" x="0" y="446.375">
   </rect>
   <text class="st7" x="5.2" y="460.8">
    Resolution
   </text>
  </g>
  <g transform="translate(481.538,-289.188)">
   <desc>
    Channel Enable
   </desc>
   <rect class="st6" height="11.033" width="100.463" x="0" y="458.188">
   </rect>
   <text class="st7" x="28.29" y="466.7">
    Channel Enable
   </text>
  </g>
  <g transform="translate(420.75,-299.312)">
   <desc>
    VREFL
   </desc>
   <rect class="st6" height="13.8455" width="36.5625" x="0" y="455.375">
   </rect>
   <text class="st8" x="4.29" y="465.3">
    VREFL
   </text>
  </g>
  <g transform="translate(354.75,-199.75)">
   <path class="st1" d="M0 469.22 L21.96 469.22">
   </path>
  </g>
  <g transform="translate(177.75,-368.781) scale(-1,1)">
   <path class="st9" d="M43.31 422.53 L0 422.53 L0 463.06">
   </path>
  </g>
  <g transform="translate(452.25,-299.031)">
   <desc>
    VREFH
   </desc>
   <rect class="st6" height="14.408" width="45" x="0" y="454.813">
   </rect>
   <text class="st8" x="7.62" y="465.02">
    VREFH
   </text>
  </g>
  <g transform="translate(225.75,-345.25)">
   <desc>
    CONCLKDIV
   </desc>
   <rect class="st6" height="16.658" width="88.3125" x="0" y="452.563">
   </rect>
   <text class="st8" x="17.61" y="463.89">
    CONCLKDIV
   </text>
  </g>
  <g transform="translate(437.063,-317.383) scale(-1,1)">
   <path class="st9" d="M48.81 431.88 L0 431.88 L0 463.06">
   </path>
  </g>
  <g transform="translate(475.334,-317.49) scale(-1,1)">
   <path class="st9" d="M76.46 353.24 L0 353.24 L0 463.06">
   </path>
  </g>
  <g transform="translate(165.938,-141.596)">
   <g class="st10" id="shadow91-82" transform="matrix(1,0,0,1,0,3)">
    <rect class="st11" height="116.654" width="189.563" x="0" y="352.567">
    </rect>
   </g>
   <rect class="st12" height="116.654" width="189.563" x="0" y="352.567">
   </rect>
  </g>
  <g transform="translate(172.688,-214.937)">
   <desc>
    Clock Divider
   </desc>
   <rect class="st6" height="16.658" width="93.9375" x="0" y="452.563">
   </rect>
   <text class="st7" x="4" y="463.89">
    Clock Divider
   </text>
  </g>
  <g transform="translate(172.688,-179.927)">
   <desc>
    Sample Count
   </desc>
   <rect class="st6" height="16.658" width="84.9375" x="0" y="452.563">
   </rect>
   <text class="st7" x="4" y="463.89">
    Sample Count
   </text>
  </g>
  <g transform="translate(172.688,-204.437)">
   <desc>
    ADCDIV
   </desc>
   <rect class="st6" height="14.4605" width="56.8125" x="0" y="454.76">
   </rect>
   <text class="st8" x="4" y="464.99">
    ADCDIV
   </text>
  </g>
  <g transform="translate(172.688,-169)">
   <desc>
    SAMC
   </desc>
   <rect class="st6" height="14.4605" width="44.25" x="0" y="454.76">
   </rect>
   <text class="st8" x="4" y="464.99">
    SAMC
   </text>
  </g>
  <g transform="translate(199.5,-245.5)">
   <desc>
    Sampling Rate
   </desc>
   <g class="st10" id="shadow92-99" transform="matrix(1,0,0,1,0,3)">
    <rect class="st13" height="22.5" width="111.375" x="0" y="446.72">
    </rect>
   </g>
   <rect class="st14" height="22.5" width="111.375" x="0" y="446.72">
   </rect>
   <text class="st15" x="19.11" y="460.97">
    Sampling Rate
   </text>
  </g>
  <g transform="translate(864.088,192.246) rotate(90.3237)">
   <path class="st1" d="M0 469.22 L60.22 469.22">
   </path>
  </g>
  <g transform="translate(373.5,-175)">
   <desc>
    Actual Rate
   </desc>
   <rect class="st6" height="18.773" width="68.625" x="0" y="450.448">
   </rect>
   <text class="st8" x="9.19" y="462.83">
    Actual Rate
   </text>
  </g>
  <g transform="translate(430.5,-191.5)">
   <desc>
    ksps
   </desc>
   <rect class="st6" height="14.8355" width="30.9375" x="0" y="454.385">
   </rect>
   <text class="st8" x="4" y="464.8">
    ksps
   </text>
  </g>
  <g transform="translate(599.721,82.555) rotate(90)">
   <path class="st3" d="M0 469.22 L35.85 469.22">
   </path>
  </g>
  <g transform="translate(591.929,14.0955) rotate(90)">
   <path class="st16" d="M0 469.22 L121.5 469.22 L101.25 447.93 L20.25 447.93 L0 469.22 Z">
   </path>
  </g>
  <g transform="translate(713.346,441.757) rotate(90) scale(-1,1)">
   <path class="st1" d="M0 469.22 L83.44 469.22">
   </path>
  </g>
  <g transform="translate(147.625,-241.5)">
   <desc>
    +
   </desc>
   <rect class="st6" height="14.4605" width="17.75" x="0" y="454.76">
   </rect>
   <text class="st17" x="4" y="465.59">
    +
   </text>
  </g>
  <g transform="translate(147.625,-124.875)">
   <desc>
    -
   </desc>
   <rect class="st6" height="14.4605" width="17.75" x="0" y="454.76">
   </rect>
   <text class="st17" x="4" y="465.59">
    -
   </text>
  </g>
  <g transform="translate(51.375,-197.875)">
   <g transform="translate(8.03009,-80.6658)">
    <path class="st3" d="M0 460.3 L24.35 460.15">
    </path>
   </g>
   <g transform="translate(4.4964E-14,-84.2356)">
    <g>
     <rect class="st18" height="10.8604" width="8.19924" x="0" y="458.36">
     </rect>
    </g>
    <g transform="translate(-327.682,140.96) rotate(-45)">
     <path class="st19" d="M0 462.85 L6.35 462.85 L6.35 469.22 L6.35 462.85 L12.69 462.85 L6.35 462.85 L6.35 456.48 L6.35 462.85
								 L0 462.85 Z">
     </path>
    </g>
   </g>
   <g transform="translate(8.03009,-5.45532)">
    <path class="st3" d="M0 460.3 L24.35 460.15">
    </path>
   </g>
   <g transform="translate(-1.33893E-13,-9.02513)">
    <g>
     <rect class="st18" height="10.8604" width="8.19924" x="0" y="458.36">
     </rect>
    </g>
    <g transform="translate(-327.682,140.96) rotate(-45)">
     <path class="st19" d="M0 462.85 L6.35 462.85 L6.35 469.22 L6.35 462.85 L12.69 462.85 L6.35 462.85 L6.35 456.48 L6.35 462.85
								 L0 462.85 Z">
     </path>
    </g>
   </g>
   <g transform="translate(501.843,352.783) rotate(90)">
    <path class="st16" d="M0 469.22 L116.44 469.22 L97.03 450.2 L19.41 450.2 L0 469.22 Z">
    </path>
   </g>
  </g>
  <g transform="translate(59.5116,-139.979)">
   <path class="st3" d="M0 460.29 L23.86 460.15">
   </path>
  </g>
  <g transform="translate(51.6444,-143.642)">
   <g>
    <rect class="st18" height="10.6743" width="8.03295" x="0" y="458.546">
    </rect>
   </g>
   <g transform="translate(-327.766,140.888) rotate(-45)">
    <path class="st19" d="M0 462.97 L6.23 462.97 L6.23 469.22 L6.23 462.97 L12.46 462.97 L6.23 462.97 L6.23 456.72 L6.23 462.97 L0
							 462.97 Z">
    </path>
   </g>
  </g>
  <g transform="translate(59.5116,-108.589)">
   <path class="st3" d="M0 460.29 L23.86 460.15">
   </path>
  </g>
  <g transform="translate(51.6444,-112.252)">
   <g>
    <rect class="st18" height="10.6743" width="8.03295" x="0" y="458.546">
    </rect>
   </g>
   <g transform="translate(-327.766,140.888) rotate(-45)">
    <path class="st19" d="M0 462.97 L6.23 462.97 L6.23 469.22 L6.23 462.97 L12.46 462.97 L6.23 462.97 L6.23 456.72 L6.23 462.97 L0
							 462.97 Z">
    </path>
   </g>
  </g>
  <g transform="translate(552.826,303.783) rotate(90)">
   <path class="st16" d="M0 469.22 L69.75 469.22 L58.12 451.58 L11.63 451.58 L0 469.22 Z">
   </path>
  </g>
  <g transform="translate(66,-15.4228)">
   <desc>
    SCAN Trigger Source
   </desc>
   <rect class="st6" height="17.625" width="101.25" x="0" y="451.596">
   </rect>
   <text class="st7" x="5.04" y="463.41">
    SCAN Trigger Source
   </text>
  </g>
  <g transform="translate(646.933,125.471) rotate(90)">
   <path class="st1" d="M0 469.22 L53.09 469.22">
   </path>
  </g>
  <g transform="translate(351,-391.562)">
   <g transform="translate(8.65329,-40.4219)">
    <path class="st3" d="M0 460.32 L26.24 460.12">
    </path>
   </g>
   <g transform="translate(-4.79616E-14,-42.0832)">
    <g>
     <rect class="st18" height="14.6774" width="8.83558" x="0" y="454.543">
     </rect>
    </g>
    <g transform="translate(-327.361,141.141) rotate(-45)">
     <path class="st18" d="M0 461.36 L7.83 461.36 L7.83 469.22 L7.83 461.36 L15.66 461.36 L7.83 461.36 L7.83 453.5 L7.83 461.36
								 L0 461.36 Z">
     </path>
    </g>
   </g>
   <g transform="translate(8.65329,-6.54039)">
    <path class="st3" d="M0 460.32 L26.24 460.12">
    </path>
   </g>
   <g transform="translate(-4.79616E-14,-8.20167)">
    <g>
     <rect class="st18" height="14.6774" width="8.83558" x="0" y="454.543">
     </rect>
    </g>
    <g transform="translate(-327.361,141.141) rotate(-45)">
     <path class="st18" d="M0 461.36 L7.83 461.36 L7.83 469.22 L7.83 461.36 L15.66 461.36 L7.83 461.36 L7.83 453.5 L7.83 461.36
								 L0 461.36 Z">
     </path>
    </g>
   </g>
   <g transform="translate(504.375,402.845) rotate(90)">
    <path class="st16" d="M0 469.22 L66.38 469.22 L55.31 452.06 L11.06 452.06 L0 469.22 Z">
    </path>
   </g>
  </g>
  <g transform="translate(351,-320.687)">
   <g transform="translate(8.49678,-35.3767)">
    <path class="st3" d="M0 460.32 L25.77 460.12">
    </path>
   </g>
   <g transform="translate(-1.10412E-13,-36.5807)">
    <g>
     <rect class="st20" height="13.8442" width="8.67576" x="0" y="455.376">
     </rect>
    </g>
    <g transform="translate(-327.442,141.092) rotate(-45)">
     <path class="st20" d="M0 461.69 L7.5 461.69 L7.5 469.22 L7.5 461.69 L15 461.69 L7.5 461.69 L7.5 454.17 L7.5 461.69 L0 461.69
								 Z">
     </path>
    </g>
   </g>
   <g transform="translate(8.49678,-5.6582)">
    <path class="st3" d="M0 460.32 L25.77 460.12">
    </path>
   </g>
   <g transform="translate(-9.54237E-14,-7.73608)">
    <g>
     <rect class="st20" height="13.8442" width="8.67576" x="0" y="455.376">
     </rect>
    </g>
    <g transform="translate(-327.442,141.092) rotate(-45)">
     <path class="st20" d="M0 461.69 L7.5 461.69 L7.5 469.22 L7.5 461.69 L15 461.69 L7.5 461.69 L7.5 454.17 L7.5 461.69 L0 461.69
								 Z">
     </path>
    </g>
   </g>
   <g transform="translate(505.071,403.497) rotate(90)">
    <path class="st16" d="M0 469.22 L64.26 469.22 L53.55 452.86 L10.71 452.86 L0 469.22 Z">
    </path>
   </g>
  </g>
  <g transform="translate(303,-286.75)">
   <desc>
    SELRES
   </desc>
   <rect class="st6" height="16.658" width="52.875" x="0" y="452.563">
   </rect>
   <text class="st8" x="9.66" y="463.89">
    SELRES
   </text>
  </g>
  <g transform="translate(78.9376,-0.25)">
   <desc>
    STRGSRC
   </desc>
   <rect class="st6" height="16.658" width="88.3125" x="0" y="452.563">
   </rect>
   <text class="st8" x="42.24" y="463.89">
    STRGSRC
   </text>
  </g>
  <g transform="translate(984.471,442.721) rotate(90) scale(-1,1)">
   <path class="st1" d="M0 469.22 L27.97 469.22">
   </path>
  </g>
  <g transform="translate(59.4051,-253.471)">
   <path class="st3" d="M0 460.3 L24.35 460.15">
   </path>
  </g>
  <g transform="translate(59.4051,-228.4)">
   <path class="st3" d="M0 460.3 L24.35 460.15">
   </path>
  </g>
  <g id="adchs_02508-shared-input-pins" transform="translate(53.7443,-224.04)">
   <g transform="translate(0,-48.2216)">
    <g class="st10" id="shadow186-233" transform="matrix(1,0,0,1,0.345598,1.97279)">
     <path class="st21" d="M0 468.03 A1.18594 1.18594 0 0 1 2.37 468.03 A1.18594 1.18594 0 1 1 0 468.03 Z">
     </path>
    </g>
    <path class="st22" d="M0 468.03 A1.18594 1.18594 0 0 1 2.37 468.03 A1.18594 1.18594 0 1 1 0 468.03 Z">
    </path>
   </g>
   <g transform="translate(0.409091,0)">
    <g class="st10" id="shadow189-238" transform="matrix(1,0,0,1,0.345598,1.97279)">
     <path class="st21" d="M0 468.03 A1.18594 1.18594 0 0 1 2.37 468.03 A1.18594 1.18594 0 1 1 0 468.03 Z">
     </path>
    </g>
    <path class="st22" d="M0 468.03 A1.18594 1.18594 0 0 1 2.37 468.03 A1.18594 1.18594 0 1 1 0 468.03 Z">
    </path>
   </g>
   <g transform="translate(0.204545,-12.5284)">
    <g class="st10" id="shadow190-243" transform="matrix(1,0,0,1,0.345598,1.97279)">
     <path class="st21" d="M0 468.03 A1.18594 1.18594 0 0 1 2.37 468.03 A1.18594 1.18594 0 1 1 0 468.03 Z">
     </path>
    </g>
    <path class="st22" d="M0 468.03 A1.18594 1.18594 0 0 1 2.37 468.03 A1.18594 1.18594 0 1 1 0 468.03 Z">
    </path>
   </g>
   <g transform="translate(0.357955,-25.0568)">
    <g class="st10" id="shadow191-248" transform="matrix(1,0,0,1,0.345598,1.97279)">
     <path class="st21" d="M0 468.03 A1.18594 1.18594 0 0 1 2.37 468.03 A1.18594 1.18594 0 1 1 0 468.03 Z">
     </path>
    </g>
    <path class="st22" d="M0 468.03 A1.18594 1.18594 0 0 1 2.37 468.03 A1.18594 1.18594 0 1 1 0 468.03 Z">
    </path>
   </g>
   <g transform="translate(0.306818,-36.5114)">
    <g class="st10" id="shadow194-253" transform="matrix(1,0,0,1,0.345598,1.97279)">
     <path class="st21" d="M0 468.03 A1.18594 1.18594 0 0 1 2.37 468.03 A1.18594 1.18594 0 1 1 0 468.03 Z">
     </path>
    </g>
    <path class="st22" d="M0 468.03 A1.18594 1.18594 0 0 1 2.37 468.03 A1.18594 1.18594 0 1 1 0 468.03 Z">
    </path>
   </g>
  </g>
  <g id="adchs_02508-dedicated-input-pins" transform="translate(51.375,-231.97)">
   <g transform="translate(-0.499997,-25.0297)">
    <g>
     <rect class="st18" height="10.8604" width="8.19924" x="0" y="458.36">
     </rect>
    </g>
    <g transform="translate(-327.682,140.96) rotate(-45)">
     <path class="st19" d="M0 462.85 L6.35 462.85 L6.35 469.22 L6.35 462.85 L12.69 462.85 L6.35 462.85 L6.35 456.48 L6.35 462.85
								 L0 462.85 Z">
     </path>
    </g>
   </g>
   <g transform="translate(-0.124997,-0.0297303)">
    <g>
     <rect class="st18" height="10.8604" width="8.19924" x="0" y="458.36">
     </rect>
    </g>
    <g transform="translate(-327.682,140.96) rotate(-45)">
     <path class="st19" d="M0 462.85 L6.35 462.85 L6.35 469.22 L6.35 462.85 L12.69 462.85 L6.35 462.85 L6.35 456.48 L6.35 462.85
								 L0 462.85 Z">
     </path>
    </g>
   </g>
  </g>
  <g id="adchs_02508-TriggerSource" transform="translate(62.7917,-62.9375)">
   <desc>
    Trigger Source
   </desc>
   <rect class="st6" height="17.625" width="101.25" x="0" y="451.596">
   </rect>
   <text class="st7" x="32.42" y="463.41">
    Trigger Source
   </text>
  </g>
 </g>
</svg>
