<?xml version="1.0" encoding="UTF-8" standalone="no"?>
<!DOCTYPE svg PUBLIC "-//W3C//DTD SVG 1.1//EN" "http://www.w3.org/Graphics/SVG/1.1/DTD/svg11.dtd">
<!-- Generated by Microsoft Visio, SVG Export SAMRH707.svg Page-1 -->
<svg xmlns="http://www.w3.org/2000/svg" xmlns:xlink="http://www.w3.org/1999/xlink" 
		width="13.9913in" height="12.8064in" viewBox="0 0 1007.37 922.063"  
		style="fill:none;fill-rule:evenodd;font-size:12px;overflow:visible;stroke-linecap:square;stroke-miterlimit:3">
	

	<defs id="Patterns_And_Gradients">
		<linearGradient id="grad0-20" x1="0" y1="0" x2="1" y2="0" gradientTransform="rotate(90 0.5 0.5)">
			<stop offset="0.01" stop-color="#ffffff" stop-opacity="1"/>
			<stop offset="0.5" stop-color="#fefefe" stop-opacity="1"/>
			<stop offset="1" stop-color="#ffffff" stop-opacity="1"/>
		</linearGradient>
		<linearGradient id="grad0-24" x1="0" y1="0" x2="1" y2="0" gradientTransform="rotate(270 0.5 0.5)">
			<stop offset="0" stop-color="#fefefe" stop-opacity="1"/>
			<stop offset="1" stop-color="#ffffff" stop-opacity="1"/>
		</linearGradient>
	</defs>
	<defs id="Markers">
		<g id="lend4">
			<path d="M 2 1 L 0 0 L 2 -1 L 2 1 " style="stroke:none"/>
		</g>
		<marker id="mrkr4-131" style="fill:#000000;fill-opacity:1;stroke:#000000;stroke-opacity:1;stroke-width:0.28409090909091" refX="-7.04" orient="auto" markerUnits="strokeWidth" overflow="visible">
			<use xlink:href="#lend4" transform="scale(-3.52,-3.52) "/>
		</marker>
	</defs>
	<defs id="Filters">
		<filter id="filter_2">
			<feGaussianBlur stdDeviation="2"/>
		</filter>
		<filter id="filter_2.6666667461395">
			<feGaussianBlur stdDeviation="2.6666667461395"/>
		</filter>
	</defs>
	<g>
		
		<g id="group201-1" transform="translate(520.25,-713.878)">
			
			<g id="group202-2">
				
				<g id="shape203-3" transform="translate(2.88,2.88)">
					
					<g id="shadow203-4" transform="matrix(1,0,0,1,0,3)" style="visibility:visible"/>
				</g>
				<g id="shape202-8">
					<g id="shadow202-9" transform="matrix(1,0,0,1,0,3)" style="visibility:visible">
						<path d="M0 922.06 L160.16 922.06 L320.31 922.06 L320.31 715.38 L160.16 715.38 L0 715.38 L0 922.06 Z"
								style="fill:#000000;fill-opacity:0.4;filter:url(#filter_2.6666667461395);stroke:#000000;stroke-opacity:0.4"/>
					</g>
					<path d="M0 922.06 L160.16 922.06 L320.31 922.06 L320.31 715.38 L160.16 715.38 L0 715.38 L0 922.06 Z"
							style="fill:#ffffff;stroke:#70ad47;stroke-width:1"/>
				</g>
			</g>
			<g id="group204-13" transform="translate(0,-184.185)">
				
				<desc>Master Clock Controller</desc>
				<g id="shape205-14">
					
					<g id="shadow205-15" transform="matrix(1,0,0,1,0.345598,1.97279)" style="visibility:visible"/>
				</g>
				<g id="shape204-21">
					<text x="6" y="914.41" style="fill:#000000;font-family:Calibri;font-size:1.00001em;font-stretch:semi-expanded;font-weight:bold">Master Clock Controller</text>				</g>
			</g>
		</g>
		<g id="group221-26" transform="translate(522.5,-485.188)">
			
			<g id="group222-27">
				
				<g id="shape223-28" transform="translate(2.88,2.88)">
					
					<g id="shadow223-29" transform="matrix(1,0,0,1,0,3)" style="visibility:visible"/>
				</g>
				<g id="shape222-33">
					<g id="shadow222-34" transform="matrix(1,0,0,1,0,3)" style="visibility:visible">
						<path d="M0 922.06 L138 922.06 L276 922.06 L276 699.69 L138 699.69 L0 699.69 L0 922.06 Z" style="fill:#000000;fill-opacity:0.4;filter:url(#filter_2.6666667461395);stroke:#000000;stroke-opacity:0.4"/>
					</g>
					<path d="M0 922.06 L138 922.06 L276 922.06 L276 699.69 L138 699.69 L0 699.69 L0 922.06 Z" style="fill:#ffffff;stroke:#70ad47;stroke-width:1"/>
				</g>
			</g>
			<g id="group224-38" transform="translate(0,-199.875)">
				
				<desc>Programmable Clock Controller (PMC_PCK )</desc>
				<g id="shape225-39">
					
					<g id="shadow225-40" transform="matrix(1,0,0,1,0.345598,1.97279)" style="visibility:visible"/>
				</g>
				<g id="shape224-45">
					<text x="6" y="914.41" style="fill:#000000;font-family:Calibri;font-size:1.00001em;font-stretch:semi-expanded;font-weight:bold">Programmable Clock Controller (PMC_PCK  )</text>				</g>
			</g>
		</g>
		<g id="group226-49" transform="translate(521.375,-148.813)">
			
			<g id="group227-50">
				
				<g id="shape228-51" transform="translate(2.88,2.88)">
					
					<g id="shadow228-52" transform="matrix(1,0,0,1,0,3)" style="visibility:visible"/>
				</g>
				<g id="shape227-56">
					<g id="shadow227-57" transform="matrix(1,0,0,1,0,3)" style="visibility:visible">
						<path d="M0 922.06 L139.5 922.06 L279 922.06 L279 625.44 L139.5 625.44 L0 625.44 L0 922.06 Z" style="fill:#000000;fill-opacity:0.4;filter:url(#filter_2.6666667461395);stroke:#000000;stroke-opacity:0.4"/>
					</g>
					<path d="M0 922.06 L139.5 922.06 L279 922.06 L279 625.44 L139.5 625.44 L0 625.44 L0 922.06 Z" style="fill:#ffffff;stroke:#70ad47;stroke-width:1"/>
				</g>
			</g>
			<g id="group229-61" transform="translate(0,-274.125)">
				
				<desc>Peripheral Clock Controller</desc>
				<g id="shape230-62">
					
					<g id="shadow230-63" transform="matrix(1,0,0,1,0.345598,1.97279)" style="visibility:visible"/>
				</g>
				<g id="shape229-68">
					<text x="6" y="914.41" style="fill:#000000;font-family:Calibri;font-size:1.00001em;font-stretch:semi-expanded;font-weight:bold">Peripheral Clock Controller</text>				</g>
			</g>
		</g>
		<g id="group496-72" transform="translate(79.625,-197.729)">
			
			<g id="group497-73">
				
				<g id="shape498-74" transform="translate(2.88,2.88)">
					
					<g id="shadow498-75" transform="matrix(1,0,0,1,0,3)" style="visibility:visible"/>
				</g>
				<g id="shape497-79">
					<g id="shadow497-80" transform="matrix(1,0,0,1,0,3)" style="visibility:visible">
						<path d="M0 922.06 L177.19 922.06 L354.37 922.06 L354.37 794.73 L177.19 794.73 L0 794.73 L0 922.06 Z"
								style="fill:#000000;fill-opacity:0.4;filter:url(#filter_2.6666667461395);stroke:#000000;stroke-opacity:0.4"/>
					</g>
					<path d="M0 922.06 L177.19 922.06 L354.37 922.06 L354.37 794.73 L177.19 794.73 L0 794.73 L0 922.06 Z"
							style="fill:#ffffff;stroke:#70ad47;stroke-width:1"/>
				</g>
			</g>
			<g id="group499-84" transform="translate(0,-104.833)">
				
				<desc>PLLA Clock</desc>
				<g id="shape500-85">
					
					<g id="shadow500-86" transform="matrix(1,0,0,1,0.345598,1.97279)" style="visibility:visible"/>
				</g>
				<g id="shape499-91">
					<text x="17.94" y="914.41" style="fill:#000000;font-family:Calibri;font-size:1.00001em;font-stretch:semi-expanded;font-weight:bold">PLLA Clock </text>				</g>
			</g>
		</g>
		<g id="group525-95" transform="translate(77.75,-35.375)">
			
			<g id="group526-96">
				
				<g id="shape527-97" transform="translate(2.88,2.88)">
					
					<g id="shadow527-98" transform="matrix(1,0,0,1,1.42109E-14,3)" style="visibility:visible"/>
				</g>
				<g id="shape526-102">
					<g id="shadow526-103" transform="matrix(1,0,0,1,0,3)" style="visibility:visible">
						<path d="M0 922.06 L178.13 922.06 L356.25 922.06 L356.25 780.85 L178.13 780.85 L0 780.85 L0 922.06 Z"
								style="fill:#000000;fill-opacity:0.4;filter:url(#filter_2.6666667461395);stroke:#000000;stroke-opacity:0.4"/>
					</g>
					<path d="M0 922.06 L178.13 922.06 L356.25 922.06 L356.25 780.85 L178.13 780.85 L0 780.85 L0 922.06 Z"
							style="fill:#ffffff;stroke:#70ad47;stroke-width:1"/>
				</g>
			</g>
			<g id="group528-107" transform="translate(0,-118.71)">
				
				<desc>PLLB Clock</desc>
				<g id="shape529-108">
					
					<g id="shadow529-109" transform="matrix(1,0,0,1,0.345598,1.97279)" style="visibility:visible"/>
				</g>
				<g id="shape528-114">
					<text x="17.94" y="914.41" style="fill:#000000;font-family:Calibri;font-size:1.00001em;font-stretch:semi-expanded;font-weight:bold">PLLB Clock </text>				</g>
			</g>
		</g>
		<g id="shape503-118" transform="translate(546.946,-222.928)">
			
		</g>
		<g id="shape23-120" transform="translate(96,-639.618)">
			
			<desc>Main RC Oscillator</desc>
			<path d="M7.55 922.06 L67.95 922.06 A7.54988 7.54988 -180 0 0 75.5 914.51 L75.5 863.92 A7.54988 7.54988 -180 0 0 67.95
						 856.37 L7.55 856.37 A7.54988 7.54988 -180 0 0 -0 863.92 L0 914.51 A7.54988 7.54988 -180 0 0 7.55 922.06
						 Z" style="fill:#d5e8d4;stroke:#82b366;stroke-width:1"/>
			<text x="20.79" y="886.22" style="fill:#000000;font-family:Calibri;font-size:0.833336em">Main RC <tspan x="18.48" dy="1.2em" style="font-size:1em">Oscillator</tspan></text>		</g>
		<g id="shape26-124" transform="translate(1186.75,231.31) rotate(90)">
			
			<path d="M0 922.06 L122.62 922.06 L102.19 901.63 L20.44 901.63 L0 922.06 Z" style="fill:#dae8fc;stroke:#6c8ebf;stroke-width:2.25"/>
		</g>
		<g id="shape169-126" transform="translate(172.625,-660.402)">
			
			<path d="M0 913.15 L83.65 912.99" style="marker-end:url(#mrkr4-131);stroke:#000000;stroke-linecap:round;stroke-linejoin:round;stroke-width:1"/>
		</g>
		<g id="shape193-132" transform="translate(48.15,-602.028)">
			
			<rect x="0" y="913.018" width="9.04485" height="9.04485" style="fill:#ffffff;stroke:#000000;stroke-width:0.25"/>
		</g>
		<g id="shape194-134" transform="translate(-599.302,-327.714) rotate(-45)">
			
			<path d="M0 915.85 L6.19 915.85 L6.19 922.06 L6.19 915.85 L12.37 915.85 L6.19 915.85 L6.19 909.63 L6.19 915.85 L0 915.85
						 Z" style="fill:#000000;stroke:#000000;stroke-width:0.25"/>
		</g>
		<g id="shape231-136" transform="translate(1526.34,28.875) rotate(90)">
			
			<path d="M0 922.06 L141.75 922.06 L118.12 899.22 L23.63 899.22 L0 922.06 Z" style="fill:#dae8fc;stroke:#6c8ebf;stroke-width:2.25"/>
		</g>
		<g id="shape238-138" transform="translate(1545.99,237) rotate(90)">
			
			<path d="M0 922.06 L181.12 922.06 L150.94 899.74 L30.19 899.74 L0 922.06 Z" style="fill:#dae8fc;stroke:#6c8ebf;stroke-width:2.25"/>
		</g>
		<g id="shape251-140" transform="translate(203.6,-728.788)">
			
			<path d="M0 913.06 L194.1 913.06" style="stroke:#000000;stroke-linecap:round;stroke-linejoin:round;stroke-width:1"/>
		</g>
		<g id="shape267-143" transform="translate(429.946,-615.406)">
			
			<desc>`</desc>
			<path d="M0 919.8 A2.26121 2.26121 0 0 1 4.52 919.8 A2.26121 2.26121 0 1 1 0 919.8 Z" style="fill:#000000;stroke:none;stroke-width:0.25"/>
			<text x="4.28" y="922.8" style="fill:#feffff;font-family:Calibri;font-size:0.833336em">`</text>		</g>
		<g id="shape271-146" transform="translate(506.75,-529.438)">
			
			<path d="M0 919.8 A2.26121 2.26121 0 0 1 4.52 919.8 A2.26121 2.26121 0 1 1 0 919.8 Z" style="fill:#000000;stroke:none;stroke-width:0.25"/>
		</g>
		<g id="shape272-148" transform="translate(543.875,-861.474)">
			
			<desc>MD_SLCK</desc>
			<rect x="0" y="901.963" width="55.03" height="20.0997" style="fill:none;stroke:none;stroke-width:0.5"/>
			<text x="4.22" y="915.61" style="fill:#000000;font-family:Calibri;font-size:1.00001em">MD_SLCK</text>		</g>
		<g id="shape273-151" transform="translate(549.5,-818.563)">
			
			<desc>MAINCK</desc>
			<rect x="0" y="901.963" width="49.125" height="20.0997" style="fill:none;stroke:none;stroke-width:0.5"/>
			<text x="4.52" y="915.61" style="fill:#000000;font-family:Calibri;font-size:1.00001em">MAINCK</text>		</g>
		<g id="shape275-154" transform="translate(549.125,-782.563)">
			
			<desc>PLLACK</desc>
			<rect x="0" y="901.963" width="49.125" height="20.0997" style="fill:none;stroke:none;stroke-width:0.5"/>
			<text x="9.26" y="915.61" style="fill:#000000;font-family:Calibri;font-size:1.00001em">PLLACK</text>		</g>
		<g id="shape276-157" transform="translate(558.5,-648.088)">
			
			<desc>MD_SLCK</desc>
			<rect x="0" y="901.963" width="61.71" height="20.0997" style="fill:none;stroke:none;stroke-width:0.5"/>
			<text x="10.9" y="915.61" style="fill:#000000;font-family:Calibri;font-size:1.00001em">MD_SLCK</text>		</g>
		<g id="shape277-160" transform="translate(571.76,-616.29)">
			
			<desc>MAINCK</desc>
			<rect x="0" y="901.963" width="49.125" height="20.0997" style="fill:none;stroke:none;stroke-width:0.5"/>
			<text x="4.52" y="915.61" style="fill:#000000;font-family:Calibri;font-size:1.00001em">MAINCK</text>		</g>
		<g id="shape278-163" transform="translate(554.51,-586.565)">
			
			<desc>PLLACK</desc>
			<rect x="0" y="901.963" width="65.01" height="20.0997" style="fill:none;stroke:none;stroke-width:0.5"/>
			<text x="25.14" y="915.61" style="fill:#000000;font-family:Calibri;font-size:1.00001em">PLLACK</text>		</g>
		<g id="shape279-166" transform="translate(570.822,-558.328)">
			
			<desc>PLLBCK</desc>
			<rect x="0" y="901.963" width="49.125" height="20.0997" style="fill:none;stroke:none;stroke-width:0.5"/>
			<text x="9.68" y="915.61" style="fill:#000000;font-family:Calibri;font-size:1.00001em">PLLBCK</text>		</g>
		<g id="shape280-169" transform="translate(583.46,-529.078)">
			
			<desc>MCK</desc>
			<rect x="0" y="901.963" width="37.125" height="20.0997" style="fill:none;stroke:none;stroke-width:0.5"/>
			<text x="10.23" y="915.61" style="fill:#000000;font-family:Calibri;font-size:1.00001em">MCK</text>		</g>
		<g id="shape290-172" transform="translate(677.307,-813.496)">
			
			<path d="M-8.88 922.06 L-9.12 978.5" style="stroke:#000000;stroke-linecap:round;stroke-linejoin:round;stroke-width:1"/>
		</g>
		<g id="shape291-175" transform="translate(692.5,-820.003)">
			
			<path d="M0 913.06 L46.46 913.06" style="marker-end:url(#mrkr4-131);stroke:#000000;stroke-linecap:round;stroke-linejoin:round;stroke-width:1"/>
		</g>
		<g id="shape295-180" transform="translate(794,-819.313)">
			
			<path d="M0 913.06 L198.09 913.06" style="marker-end:url(#mrkr4-131);stroke:#000000;stroke-linecap:round;stroke-linejoin:round;stroke-width:1"/>
		</g>
		<g id="shape296-185" transform="translate(698.289,-826.471)">
			
			<path d="M0 919.8 A2.26121 2.26121 0 0 1 4.52 919.8 A2.26121 2.26121 0 1 1 0 919.8 Z" style="fill:#000000;stroke:none;stroke-width:0.25"/>
		</g>
		<g id="shape297-187" transform="translate(700.625,-829.438)">
			
			<path d="M0 922.06 L0 875.94 L290.71 875.94" style="marker-end:url(#mrkr4-131);stroke:#000000;stroke-linecap:round;stroke-linejoin:round;stroke-width:1"/>
		</g>
		<g id="shape301-192" transform="translate(796.625,-767.563)">
			
			<path d="M0 913.06 L195.84 913.06" style="marker-end:url(#mrkr4-131);stroke:#000000;stroke-linecap:round;stroke-linejoin:round;stroke-width:1"/>
		</g>
		<g id="shape302-197" transform="translate(746.375,-813.313)">
			
			<desc>÷ 2</desc>
			<path d="M4.77 922.06 L42.97 922.06 A4.77455 4.77455 -180 0 0 47.75 917.29 L47.75 894.85 A4.77455 4.77455 -180 0 0 42.97
						 890.07 L4.77 890.07 A4.77455 4.77455 -180 0 0 0 894.85 L0 917.29 A4.77455 4.77455 -180 0 0 4.77 922.06 Z"
					style="fill:#d5e8d4;stroke:#82b366;stroke-width:1"/>
			<text x="11.5" y="909.11" style="fill:#000000;font-family:Times New Roman;font-size:0.833336em">÷  2   </text>		</g>
		<g id="shape313-200" transform="translate(627.125,-819.59)">
			
			<path d="M0 913.72 L12.1 912.89" style="marker-end:url(#mrkr4-131);stroke:#000000;stroke-linecap:round;stroke-linejoin:round;stroke-width:1"/>
		</g>
		<g id="shape326-205" transform="translate(697.847,-582.859)">
			
			<path d="M9 922.06 L9 946.23" style="stroke:#000000;stroke-linecap:round;stroke-linejoin:round;stroke-width:1"/>
		</g>
		<g id="shape327-208" transform="translate(775.25,-589.888)">
			
			<path d="M0 913.06 L217.21 913.06" style="marker-end:url(#mrkr4-131);stroke:#000000;stroke-linecap:round;stroke-linejoin:round;stroke-width:1"/>
		</g>
		<g id="shape328-213" transform="translate(647.375,-608.459)">
			
			<path d="M0 930.96 L28.78 931.13" style="marker-end:url(#mrkr4-131);stroke:#000000;stroke-linecap:round;stroke-linejoin:round;stroke-width:1"/>
		</g>
		<g id="shape339-218" transform="translate(868.25,-874.563)">
			
			<desc>Processor Clock (HCLK)</desc>
			<rect x="0" y="901.438" width="127.5" height="20.625" style="fill:none;stroke:none;stroke-width:0.5"/>
			<text x="4" y="915.35" style="fill:#000000;font-family:Calibri;font-size:1.00001em">Processor Clock (HCLK)</text>		</g>
		<g id="shape340-221" transform="translate(865.125,-777.563)">
			
			<desc>Master Clock (MCK)</desc>
			<rect x="0" y="901.963" width="109.875" height="20.0997" style="fill:none;stroke:none;stroke-width:0.5"/>
			<text x="9.39" y="915.61" style="fill:#000000;font-family:Calibri;font-size:1.00001em">Master Clock (MCK)</text>		</g>
		<g id="shape342-224" transform="translate(870.25,-827.938)">
			
			<desc>SysTick External Clock</desc>
			<rect x="0" y="903.973" width="123.75" height="18.0897" style="fill:none;stroke:none;stroke-width:0.5"/>
			<text x="4" y="916.62" style="fill:#000000;font-family:Calibri;font-size:1.00001em">SysTick External Clock</text>		</g>
		<g id="shape351-227" transform="translate(56.75,-614.501)">
			
			<path d="M0 930.25 L199.27 931.82" style="marker-end:url(#mrkr4-131);stroke:#000000;stroke-linecap:round;stroke-linejoin:round;stroke-width:1"/>
		</g>
		<g id="shape356-232" transform="translate(284,-608.938)">
			
			<path d="M0 913.06 L146.25 913.06" style="stroke:#000000;stroke-linecap:round;stroke-linejoin:round;stroke-width:1"/>
		</g>
		<g id="shape368-235" transform="translate(162.5,-258.728)">
			
			<desc>x</desc>
			<path d="M4.77 922.06 L42.97 922.06 A4.77455 4.77455 -180 0 0 47.75 917.29 L47.75 895.01 A4.77455 4.77455 -180 0 0 42.97
						 890.23 L4.77 890.23 A4.77455 4.77455 -180 0 0 0 895.01 L0 917.29 A4.77455 4.77455 -180 0 0 4.77 922.06 Z"
					style="fill:#d5e8d4;stroke:#82b366;stroke-width:1"/>
			<text x="10.78" y="909.15" style="fill:#000000;font-family:Calibri;font-size:0.833336em">x</text>		</g>
		<g id="shape369-238" transform="translate(252.65,-258.088)">
			
			<desc>÷</desc>
			<path d="M4.77 922.06 L42.97 922.06 A4.77455 4.77455 -180 0 0 47.75 917.29 L47.75 894.85 A4.77455 4.77455 -180 0 0 42.97
						 890.07 L4.77 890.07 A4.77455 4.77455 -180 0 0 0 894.85 L0 917.29 A4.77455 4.77455 -180 0 0 4.77 922.06 Z"
					style="fill:#d5e8d4;stroke:#82b366;stroke-width:1"/>
			<text x="11.5" y="909.11" style="fill:#000000;font-family:Times New Roman;font-size:0.833336em">÷ </text>		</g>
		<g id="shape375-241" transform="translate(210.2,-283.55)">
			
			<path d="M0 930.88 L34.96 931.19" style="marker-end:url(#mrkr4-131);stroke:#000000;stroke-linecap:round;stroke-linejoin:round;stroke-width:1"/>
		</g>
		<g id="shape377-246" transform="translate(281.9,-618.238)">
			
			<desc>Main Clock (MAINCK)</desc>
			<rect x="0" y="905.563" width="116.775" height="16.5" style="fill:none;stroke:none;stroke-width:0.5"/>
			<text x="6.19" y="917.41" style="fill:#000000;font-family:Calibri;font-size:1.00001em">Main Clock (MAINCK)</text>		</g>
		<g id="shape380-249" transform="translate(300.312,-276.974)">
			
			<desc>PLLA Clock (PLLACK)</desc>
			<rect x="0" y="901.963" width="121.53" height="20.0997" style="fill:none;stroke:none;stroke-width:0.5"/>
			<text x="11.86" y="915.61" style="fill:#000000;font-family:Calibri;font-size:1.00001em">PLLA Clock (PLLACK)</text>		</g>
		<g id="shape402-252" transform="translate(397.4,-642.926)">
			
			<path d="M0 913.57 L219.87 912.58" style="marker-end:url(#mrkr4-131);stroke:#000000;stroke-linecap:round;stroke-linejoin:round;stroke-width:1"/>
		</g>
		<g id="shape403-257" transform="translate(432.5,-329.938)">
			
			<path d="M0 922.06 L0 431.56 L163.47 431.56" style="marker-end:url(#mrkr4-131);stroke:#000000;stroke-linecap:round;stroke-linejoin:round;stroke-width:1"/>
		</g>
		<g id="shape405-262" transform="translate(431.469,-609.313)">
			
			<path d="M0 913.44 L185.24 912.71" style="marker-end:url(#mrkr4-131);stroke:#000000;stroke-linecap:round;stroke-linejoin:round;stroke-width:1"/>
		</g>
		<g id="shape410-267" transform="translate(485.375,-125.375)">
			
			<path d="M0 922.06 L0 487.25 L131.9 487.25" style="marker-end:url(#mrkr4-131);stroke:#000000;stroke-linecap:round;stroke-linejoin:round;stroke-width:1"/>
		</g>
		<g id="shape412-272" transform="translate(863.563,-776.188)">
			
			<path d="M0 922.06 L0 989.91 L-354.94 989.91 L-354.94 1517.38" style="stroke:#000000;stroke-linecap:round;stroke-linejoin:round;stroke-width:1"/>
		</g>
		<g id="shape415-275" transform="translate(510.219,-540.688)">
			
			<path d="M0 930.88 L105.37 931.23" style="marker-end:url(#mrkr4-131);stroke:#000000;stroke-linecap:round;stroke-linejoin:round;stroke-width:1"/>
		</g>
		<g id="shape416-280" transform="translate(464.125,-277.344)">
			
			<path d="M0 922.06 L0 415.53 L130.77 415.53" style="marker-end:url(#mrkr4-131);stroke:#000000;stroke-linecap:round;stroke-linejoin:round;stroke-width:1"/>
		</g>
		<g id="shape417-285" transform="translate(461.958,-586.542)">
			
			<path d="M0 919.8 A2.26121 2.26121 0 0 1 4.52 919.8 A2.26121 2.26121 0 1 1 0 919.8 Z" style="fill:#000000;stroke:none;stroke-width:0.25"/>
		</g>
		<g id="shape418-287" transform="translate(464,-597.5)">
			
			<path d="M0 930.88 L151.59 931.23" style="marker-end:url(#mrkr4-131);stroke:#000000;stroke-linecap:round;stroke-linejoin:round;stroke-width:1"/>
		</g>
		<g id="shape424-292" transform="translate(645.856,-812.8)">
			
			<desc>÷</desc>
			<path d="M4.77 922.06 L42.97 922.06 A4.77455 4.77455 -180 0 0 47.75 917.29 L47.75 894.85 A4.77455 4.77455 -180 0 0 42.97
						 890.07 L4.77 890.07 A4.77455 4.77455 -180 0 0 0 894.85 L0 917.29 A4.77455 4.77455 -180 0 0 4.77 922.06 Z"
					style="fill:#d5e8d4;stroke:#82b366;stroke-width:1"/>
			<text x="11.5" y="909.11" style="fill:#000000;font-family:Times New Roman;font-size:0.833336em">÷ </text>		</g>
		<g id="shape425-295" transform="translate(861.312,-774.313)">
			
			<path d="M0 919.8 A2.26121 2.26121 0 0 1 4.52 919.8 A2.26121 2.26121 0 1 1 0 919.8 Z" style="fill:#000000;stroke:none;stroke-width:0.25"/>
		</g>
		<g id="shape426-297" transform="translate(683.75,-582.688)">
			
			<desc>÷</desc>
			<path d="M4.77 922.06 L42.97 922.06 A4.77455 4.77455 -180 0 0 47.75 917.29 L47.75 894.85 A4.77455 4.77455 -180 0 0 42.97
						 890.07 L4.77 890.07 A4.77455 4.77455 -180 0 0 0 894.85 L0 917.29 A4.77455 4.77455 -180 0 0 4.77 922.06 Z"
					style="fill:#d5e8d4;stroke:#82b366;stroke-width:1"/>
			<text x="11.5" y="909.11" style="fill:#000000;font-family:Times New Roman;font-size:0.833336em">÷ </text>		</g>
		<g id="shape427-300" transform="translate(1680.27,313.294) rotate(90)">
			
			<path d="M19.95 922.06 L9.98 904.77 L0 922.06 L19.95 922.06 Z" style="fill:#d5e8d4;stroke:#82b366;stroke-width:1"/>
		</g>
		<g id="shape428-302" transform="translate(755.552,-605.794)">
			
			<path d="M9 922.06 L9 902.42" style="stroke:#000000;stroke-linecap:round;stroke-linejoin:round;stroke-width:1"/>
		</g>
		<g id="shape429-305" transform="translate(750.502,-627.069)">
			
			<desc>ON</desc>
			<rect x="0" y="909.487" width="26.9963" height="12.5751" style="fill:none;stroke:none;stroke-width:0.5"/>
			<text x="5.65" y="919.38" style="fill:#000000;font-family:Calibri;font-size:1.00001em">ON</text>		</g>
		<g id="shape430-308" transform="translate(731,-598.813)">
			
			<path d="M0 922.06 L27 922.06" style="stroke:#000000;stroke-linecap:round;stroke-linejoin:round;stroke-width:1"/>
		</g>
		<g id="shape458-311" transform="translate(22.25,-595.878)">
			
			<desc>XIN</desc>
			<rect x="0" y="901.963" width="28.555" height="20.0997" style="fill:none;stroke:none;stroke-width:0.5"/>
			<text x="5.78" y="915.61" style="fill:#000000;font-family:Calibri;font-size:1.00001em">XIN</text>		</g>
		<g id="shape474-314" transform="translate(268.25,-260.6)">
			
			<path d="M9 924.73 L9 937.4" style="stroke:#000000;stroke-linecap:round;stroke-linejoin:round;stroke-width:1"/>
		</g>
		<g id="shape475-317" transform="translate(176.679,-260.886)">
			
			<path d="M9 924.21 L9 937.91" style="stroke:#000000;stroke-linecap:round;stroke-linejoin:round;stroke-width:1"/>
		</g>
		<g id="shape476-320" transform="translate(27,-660.551)">
			
			<path d="M0 913.06 L61.96 913.06" style="marker-end:url(#mrkr4-131);stroke:#000000;stroke-linecap:round;stroke-linejoin:round;stroke-width:1"/>
		</g>
		<g id="shape495-325" transform="translate(806.375,-598.812)">
			
			<desc>Programmable Clock (PCKx)</desc>
			<rect x="0" y="901.963" width="177.375" height="20.0997" style="fill:none;stroke:none;stroke-width:0.5"/>
			<text x="38.39" y="915.61" style="fill:#000000;font-family:Calibri;font-size:1.00001em">Programmable Clock (PCKx)</text>		</g>
		<g id="shape521-328" transform="translate(809.825,-192.613)">
			
			<desc>Peripheral Clocks</desc>
			<rect x="0" y="901.963" width="102.188" height="20.0997" style="fill:none;stroke:none;stroke-width:0.5"/>
			<text x="14.4" y="915.61" style="fill:#000000;font-family:Calibri;font-size:1.00001em">Peripheral Clocks</text>		</g>
		<g id="shape523-331" transform="translate(144.22,181.629) rotate(-51.6667)">
			
			<path d="M0 922.06 L30.84 922.06" style="stroke:#000000;stroke-linecap:round;stroke-linejoin:round;stroke-width:1"/>
		</g>
		<g id="shape530-334" transform="translate(172.25,-110.938)">
			
			<desc>x</desc>
			<path d="M4.77 922.06 L42.97 922.06 A4.77455 4.77455 -180 0 0 47.75 917.29 L47.75 895.01 A4.77455 4.77455 -180 0 0 42.97
						 890.23 L4.77 890.23 A4.77455 4.77455 -180 0 0 0 895.01 L0 917.29 A4.77455 4.77455 -180 0 0 4.77 922.06 Z"
					style="fill:#d5e8d4;stroke:#82b366;stroke-width:1"/>
			<text x="10.78" y="909.15" style="fill:#000000;font-family:Calibri;font-size:0.833336em">x</text>		</g>
		<g id="shape531-337" transform="translate(254,-110.563)">
			
			<desc>÷</desc>
			<path d="M4.77 922.06 L42.97 922.06 A4.77455 4.77455 -180 0 0 47.75 917.29 L47.75 894.85 A4.77455 4.77455 -180 0 0 42.97
						 890.07 L4.77 890.07 A4.77455 4.77455 -180 0 0 0 894.85 L0 917.29 A4.77455 4.77455 -180 0 0 4.77 922.06 Z"
					style="fill:#d5e8d4;stroke:#82b366;stroke-width:1"/>
			<text x="11.5" y="909.11" style="fill:#000000;font-family:Times New Roman;font-size:0.833336em">÷ </text>		</g>
		<g id="shape532-340" transform="translate(219.5,-116.938)">
			
			<path d="M0 913.06 L27.84 913.06" style="marker-end:url(#mrkr4-131);stroke:#000000;stroke-linecap:round;stroke-linejoin:round;stroke-width:1"/>
		</g>
		<g id="shape533-345" transform="translate(301.7,-126.538)">
			
			<desc>PLLB Clock (PLLBCK)</desc>
			<rect x="0" y="901.963" width="116.82" height="20.0997" style="fill:none;stroke:none;stroke-width:0.5"/>
			<text x="9.92" y="915.61" style="fill:#000000;font-family:Calibri;font-size:1.00001em">PLLB Clock (PLLBCK)</text>		</g>
		<g id="shape534-348" transform="translate(269.938,-113)">
			
			<path d="M9 924.21 L9 937.91" style="stroke:#000000;stroke-linecap:round;stroke-linejoin:round;stroke-width:1"/>
		</g>
		<g id="shape535-351" transform="translate(204.055,-112.648)">
			
			<path d="M-8.93 924.52 L-9.07 937.6" style="stroke:#000000;stroke-linecap:round;stroke-linejoin:round;stroke-width:1"/>
		</g>
		<g id="shape537-354" transform="translate(45.2188,-279.631)">
			
			<path d="M0 922.06 L0 1063.53 L60.74 1063.53" style="marker-end:url(#mrkr4-131);stroke:#000000;stroke-linecap:round;stroke-linejoin:round;stroke-width:1"/>
		</g>
		<g id="shape538-359" transform="translate(300.312,-267.5)">
			
			<path d="M0 913.06 L163.69 913.06" style="stroke:#000000;stroke-linecap:round;stroke-linejoin:round;stroke-width:1"/>
		</g>
		<g id="shape539-362" transform="translate(484.438,-262.8)">
			
			<path d="M0 919.8 A2.26121 2.26121 0 0 1 4.52 919.8 A2.26121 2.26121 0 1 1 0 919.8 Z" style="fill:#000000;stroke:none;stroke-width:0.25"/>
		</g>
		<g id="shape540-364" transform="translate(302,-117.031)">
			
			<path d="M0 913.06 L184.5 913.06" style="stroke:#000000;stroke-linecap:round;stroke-linejoin:round;stroke-width:1"/>
		</g>
		<g id="shape548-367" transform="translate(43.0455,-272.579)">
			
			<path d="M0 919.8 A2.26121 2.26121 0 0 1 4.52 919.8 A2.26121 2.26121 0 1 1 0 919.8 Z" style="fill:#000000;stroke:none;stroke-width:0.25"/>
		</g>
		<g id="shape549-369" transform="translate(286.25,-0.5)">
			
			<path d="M0 922.06 L82.12 922.06" style="stroke:#ffffff;stroke-linecap:round;stroke-linejoin:round;stroke-width:1"/>
		</g>
		<g id="group801-372" transform="translate(0.5,-710.188)">
			
			<g id="shape167-373" transform="translate(151.355,-131.441)">
				
				<path d="M0 913.06 L92.73 913.06" style="marker-end:url(#mrkr4-131);stroke:#000000;stroke-linecap:round;stroke-linejoin:round;stroke-width:1"/>
			</g>
			<g id="shape21-378" transform="translate(77.625,-117.088)">
				
				<desc>Slow RC Oscillator</desc>
				<path d="M7.41 922.06 L66.66 922.06 A7.40613 7.40613 -180 0 0 74.06 914.66 L74.06 879.85 A7.40613 7.40613 -180 0
							 0 66.66 872.44 L7.41 872.44 A7.40613 7.40613 -180 0 0 0 879.85 L0 914.66 A7.40613 7.40613 -180 0 0 7.41
							 922.06 Z" style="fill:#d5e8d4;stroke:#82b366;stroke-width:1"/>
				<text x="20.86" y="894.25" style="fill:#000000;font-family:Calibri;font-size:0.833336em">Slow RC <tspan x="17.76" dy="1.2em" style="font-size:1em">Oscillator</tspan></text>			</g>
			<g id="shape25-382" transform="translate(1174.73,762.427) rotate(90)">
				
				<path d="M0 922.06 L104.61 922.06 L87.18 897.98 L17.44 897.98 L0 922.06 Z" style="fill:#dae8fc;stroke:#6c8ebf;stroke-width:2.25"/>
			</g>
			<g id="shape189-384" transform="translate(36.2376,-85.1541)">
				
				<rect x="0" y="914.346" width="9.04485" height="7.71614" style="fill:#ffffff;stroke:#000000;stroke-width:0.25"/>
			</g>
			<g id="shape190-386" transform="translate(-611.216,189.179) rotate(-45)">
				
				<path d="M0 916.3 L5.73 916.3 L5.73 922.06 L5.73 916.3 L11.46 916.3 L5.73 916.3 L5.73 910.54 L5.73 916.3 L0 916.3
							 Z" style="fill:#000000;stroke:#000000;stroke-width:0.25"/>
			</g>
			<g id="shape253-388" transform="translate(393.906,-25.5748)">
				
				<path d="M0 920.13 A2.26121 1.92903 0 0 1 4.52 920.13 A2.26121 1.92903 0 1 1 0 920.13 Z" style="fill:#000000;stroke:none;stroke-width:0.25"/>
			</g>
			<g id="shape346-390" transform="translate(45,-81.6081)">
				
				<path d="M0 914.05 L200.16 912.15" style="marker-end:url(#mrkr4-131);stroke:#000000;stroke-linecap:round;stroke-linejoin:round;stroke-width:1"/>
			</g>
			<g id="shape381-395" transform="translate(189.562,-12.9375)">
				
				<desc>Monitoring Domain Slow Clock (MD_SLCK)</desc>
				<rect x="0" y="907.438" width="205.875" height="14.625" style="fill:none;stroke:none;stroke-width:0.5"/>
				<text x="6.52" y="917.83" style="fill:#231f20;font-family:Arial;font-size:0.833336em">Monitoring Domain Slow Clock (MD_SLCK)</text>			</g>
			<g id="shape461-398" transform="translate(0,-79.9779)">
				
				<desc>XIN32</desc>
				<rect x="0" y="904.916" width="37.555" height="17.147" style="fill:none;stroke:none;stroke-width:0.5"/>
				<text x="4.2" y="917.09" style="fill:#000000;font-family:Calibri;font-size:1.00001em">XIN32</text>			</g>
			<g id="shape796-401" transform="translate(193.775,-141.15)">
				
				<path d="M9 922.06 L9 1035.7" style="stroke:#000000;stroke-linecap:round;stroke-linejoin:round;stroke-width:1"/>
			</g>
			<g id="shape798-404" transform="translate(277.875,-100.962)">
				
				<path d="M0 913.15 L69.69 912.99" style="marker-end:url(#mrkr4-131);stroke:#000000;stroke-linecap:round;stroke-linejoin:round;stroke-width:1"/>
			</g>
			<g id="shape799-409" transform="translate(271.125,-93.9375)">
				
				<desc>RTT , RTC</desc>
				<rect x="0" y="905.225" width="75.375" height="16.8376" style="fill:none;stroke:none;stroke-width:0.5"/>
				<text x="13.52" y="916.72" style="fill:#231f20;font-family:Arial;font-size:0.833336em">RTT , RTC</text>			</g>
			<g id="shape800-412" transform="translate(200.75,-138.842)">
				
				<path d="M0 920.13 A2.26121 1.92903 0 0 1 4.52 920.13 A2.26121 1.92903 0 1 1 0 920.13 Z" style="fill:#000000;stroke:none;stroke-width:0.25"/>
			</g>
		</g>
		<g id="shape802-414" transform="translate(397.4,-854.188)">
			
			<path d="M0 913.06 L199.06 913.06" style="marker-end:url(#mrkr4-131);stroke:#000000;stroke-linecap:round;stroke-linejoin:round;stroke-width:1"/>
		</g>
		<g id="shape803-419" transform="translate(406.437,-356.563)">
			
			<path d="M-8.81 922.06 L-9.19 415.59" style="stroke:#000000;stroke-linecap:round;stroke-linejoin:round;stroke-width:1"/>
		</g>
		<g id="shape823-422" transform="translate(543.29,-354.875)">
			
			<desc>MD_SLCK</desc>
			<rect x="0" y="901.963" width="61.71" height="20.0997" style="fill:none;stroke:none;stroke-width:0.5"/>
			<text x="10.9" y="915.61" style="fill:#000000;font-family:Calibri;font-size:1.00001em">MD_SLCK</text>		</g>
		<g id="shape824-425" transform="translate(555.688,-324.54)">
			
			<desc>MAINCK</desc>
			<rect x="0" y="901.963" width="49.125" height="20.0997" style="fill:none;stroke:none;stroke-width:0.5"/>
			<text x="4.52" y="915.61" style="fill:#000000;font-family:Calibri;font-size:1.00001em">MAINCK</text>		</g>
		<g id="shape825-428" transform="translate(538.25,-292.04)">
			
			<desc>PLLACK</desc>
			<rect x="0" y="901.963" width="65.01" height="20.0997" style="fill:none;stroke:none;stroke-width:0.5"/>
			<text x="25.14" y="915.61" style="fill:#000000;font-family:Calibri;font-size:1.00001em">PLLACK</text>		</g>
		<g id="shape826-431" transform="translate(555.312,-259.602)">
			
			<desc>PLLBCK</desc>
			<rect x="0" y="901.963" width="49.125" height="20.0997" style="fill:none;stroke:none;stroke-width:0.5"/>
			<text x="9.68" y="915.61" style="fill:#000000;font-family:Calibri;font-size:1.00001em">PLLBCK</text>		</g>
		<g id="shape827-434" transform="translate(567.312,-225.477)">
			
			<desc>MCK</desc>
			<rect x="0" y="901.963" width="37.125" height="20.0997" style="fill:none;stroke:none;stroke-width:0.5"/>
			<text x="10.23" y="915.61" style="fill:#000000;font-family:Calibri;font-size:1.00001em">MCK</text>		</g>
		<g id="shape828-437" transform="translate(688.25,-303.688)">
			
			<desc>÷</desc>
			<path d="M4.77 922.06 L42.97 922.06 A4.77455 4.77455 -180 0 0 47.75 917.29 L47.75 894.85 A4.77455 4.77455 -180 0 0 42.97
						 890.07 L4.77 890.07 A4.77455 4.77455 -180 0 0 0 894.85 L0 917.29 A4.77455 4.77455 -180 0 0 4.77 922.06 Z"
					style="fill:#d5e8d4;stroke:#82b366;stroke-width:1"/>
			<text x="11.5" y="909.11" style="fill:#000000;font-family:Times New Roman;font-size:0.833336em">÷ </text>		</g>
		<g id="shape829-440" transform="translate(1687.56,592.275) rotate(90)">
			
			<path d="M19.95 922.06 L9.98 904.77 L0 922.06 L19.95 922.06 Z" style="fill:#d5e8d4;stroke:#82b366;stroke-width:1"/>
		</g>
		<g id="shape830-442" transform="translate(509.75,-221.937)">
			
			<path d="M0 913.06 L91.96 913.06" style="marker-end:url(#mrkr4-131);stroke:#000000;stroke-linecap:round;stroke-linejoin:round;stroke-width:1"/>
		</g>
		<g id="shape831-447" transform="translate(486.8,-256.062)">
			
			<path d="M0 913.06 L114.16 913.06" style="marker-end:url(#mrkr4-131);stroke:#000000;stroke-linecap:round;stroke-linejoin:round;stroke-width:1"/>
		</g>
		<g id="shape832-452" transform="translate(463.7,-288.312)">
			
			<path d="M0 913.06 L136.66 913.06" style="marker-end:url(#mrkr4-131);stroke:#000000;stroke-linecap:round;stroke-linejoin:round;stroke-width:1"/>
		</g>
		<g id="shape833-457" transform="translate(431.375,-320.862)">
			
			<path d="M0 913.06 L169.29 913.06" style="marker-end:url(#mrkr4-131);stroke:#000000;stroke-linecap:round;stroke-linejoin:round;stroke-width:1"/>
		</g>
		<g id="shape834-462" transform="translate(397.1,-348.912)">
			
			<path d="M0 913.06 L204.61 913.06" style="marker-end:url(#mrkr4-131);stroke:#000000;stroke-linecap:round;stroke-linejoin:round;stroke-width:1"/>
		</g>
		<g id="shape837-467" transform="translate(1531.56,499.125) rotate(90)">
			
			<path d="M0 922.06 L230.62 922.06 L192.19 894.31 L38.44 894.31 L0 922.06 Z" style="fill:#dae8fc;stroke:#6c8ebf;stroke-width:2.25"/>
		</g>
		<g id="shape839-469" transform="translate(119.75,-436.438)">
			
			<desc>2nd Fast RC Oscillator</desc>
			<path d="M13.95 922.06 L125.55 922.06 A13.9498 13.9498 -180 0 0 139.5 908.11 L139.5 883.84 A13.9498 13.9498 -180 0 0
						 125.55 869.89 L13.95 869.89 A13.9498 13.9498 -180 0 0 -0 883.84 L0 908.11 A13.9498 13.9498 -180 0 0 13.95
						 922.06 Z" style="fill:#d5e8d4;stroke:#82b366;stroke-width:1"/>
			<text x="23.1" y="892.68" style="fill:#000000;font-family:Calibri;font-size:0.916672em">2<tspan dy="0.049em" style="baseline-shift:33.3496%;font-size:0.666991em">nd</tspan><tspan dy="-0.033em" style="font-size:1em"> </tspan>Fast RC Oscillator</text>		</g>
		<g id="shape840-474" transform="translate(172.524,-418.438)">
			
			<path d="M9 922.06 L9 904.06" style="stroke:#000000;stroke-linecap:round;stroke-linejoin:round;stroke-width:1"/>
		</g>
		<g id="shape842-477" transform="translate(152,-371.188)">
			
			<desc>FREQSEL</desc>
			<rect x="0" y="901.963" width="56" height="20.0997" style="fill:none;stroke:none;stroke-width:0.5"/>
			<text x="6.81" y="908.41" style="fill:#000000;font-family:Calibri;font-size:1.00001em">FREQSEL</text>		</g>
		<g id="shape844-480" transform="translate(372.875,-462.125)">
			
			<path d="M0 922.06 L0 1032.35 L-345.38 1032.35" style="stroke:#000000;stroke-linecap:round;stroke-linejoin:round;stroke-width:1"/>
		</g>
		<g id="shape845-483" transform="translate(27.5,-351.838)">
			
			<path d="M0 922.06 L0 1163.34 L78.46 1163.34" style="marker-end:url(#mrkr4-131);stroke:#000000;stroke-linecap:round;stroke-linejoin:round;stroke-width:1"/>
		</g>
		<g id="shape846-488" transform="translate(45.2375,-275.937)">
			
			<path d="M0 922.06 L0 868.06 L389.29 868.06" style="stroke:#000000;stroke-linecap:round;stroke-linejoin:round;stroke-width:1"/>
		</g>
		<g id="shape847-491" transform="translate(372.2,-385.25)">
			
			<path d="M0 913.06 L229.51 913.06" style="marker-end:url(#mrkr4-131);stroke:#000000;stroke-linecap:round;stroke-linejoin:round;stroke-width:1"/>
		</g>
		<g id="shape848-496" transform="translate(543.2,-389.075)">
			
			<desc>RC2CK</desc>
			<rect x="0" y="901.963" width="61.71" height="20.0997" style="fill:none;stroke:none;stroke-width:0.5"/>
			<text x="26.08" y="915.61" style="fill:#000000;font-family:Calibri;font-size:1.00001em">RC2CK</text>		</g>
		<g id="shape849-499" transform="translate(268.85,-461.188)">
			
			<desc>RC2CK</desc>
			<rect x="0" y="901.963" width="41.355" height="20.0997" style="fill:none;stroke:none;stroke-width:0.5"/>
			<text x="5.73" y="915.61" style="fill:#000000;font-family:Calibri;font-size:1.00001em">RC2CK</text>		</g>
		<g id="shape850-502" transform="translate(1037.31,771.75) rotate(90)">
			
			<path d="M0 922.06 L50.62 922.06 L42.19 908.67 L8.44 908.67 L0 922.06 Z" style="fill:#dae8fc;stroke:#6c8ebf;stroke-width:2.25"/>
		</g>
		<g id="shape851-504" transform="translate(113,-72.3125)">
			
			<path d="M9 922.06 L9 890.34" style="stroke:#000000;stroke-linecap:round;stroke-linejoin:round;stroke-width:1"/>
		</g>
		<g id="shape853-507" transform="translate(129.875,-117.313)">
			
			<path d="M0 913.06 L35.48 913.06" style="marker-end:url(#mrkr4-131);stroke:#000000;stroke-linecap:round;stroke-linejoin:round;stroke-width:1"/>
		</g>
		<g id="shape855-512" transform="translate(636.125,-328.906)">
			
			<path d="M0 930.97 L45.84 931.13" style="marker-end:url(#mrkr4-131);stroke:#000000;stroke-linecap:round;stroke-linejoin:round;stroke-width:1"/>
		</g>
		<g id="shape856-517" transform="translate(736.25,-310.963)">
			
			<path d="M0 913.06 L22.21 913.06" style="marker-end:url(#mrkr4-131);stroke:#000000;stroke-linecap:round;stroke-linejoin:round;stroke-width:1"/>
		</g>
		<g id="shape857-522" transform="translate(783.5,-310.738)">
			
			<path d="M0 913.06 L152.56 913.06" style="marker-end:url(#mrkr4-131);stroke:#000000;stroke-linecap:round;stroke-linejoin:round;stroke-width:1"/>
		</g>
		<g id="shape858-527" transform="translate(764.9,-294.838)">
			
			<path d="M9 922.06 L9 902.42" style="stroke:#000000;stroke-linecap:round;stroke-linejoin:round;stroke-width:1"/>
		</g>
		<g id="shape859-530" transform="translate(508.625,-171.5)">
			
			<path d="M0 913.06 L162.46 913.06" style="marker-end:url(#mrkr4-131);stroke:#000000;stroke-linecap:round;stroke-linejoin:round;stroke-width:1"/>
		</g>
		<g id="shape860-535" transform="translate(1600.77,731.325) rotate(90)">
			
			<path d="M19.95 922.06 L9.98 904.77 L0 922.06 L19.95 922.06 Z" style="fill:#d5e8d4;stroke:#82b366;stroke-width:1"/>
		</g>
		<g id="shape861-537" transform="translate(676.05,-187.763)">
			
			<path d="M9 922.06 L9 902.42" style="stroke:#000000;stroke-linecap:round;stroke-linejoin:round;stroke-width:1"/>
		</g>
		<g id="shape862-540" transform="translate(671,-209.038)">
			
			<desc>ON</desc>
			<rect x="0" y="909.487" width="26.9963" height="12.5751" style="fill:none;stroke:none;stroke-width:0.5"/>
			<text x="5.65" y="919.38" style="fill:#000000;font-family:Calibri;font-size:1.00001em">ON</text>		</g>
		<g id="shape863-543" transform="translate(696.5,-172.138)">
			
			<path d="M0 913.06 L238.36 913.06" style="marker-end:url(#mrkr4-131);stroke:#000000;stroke-linecap:round;stroke-linejoin:round;stroke-width:1"/>
		</g>
		<g id="shape864-548" transform="translate(44.9,-265.663)">
			
			<path d="M0 913.06 L117.79 913.06" style="stroke:#000000;stroke-linecap:round;stroke-linejoin:round;stroke-width:1"/>
		</g>
		<g id="shape865-551" transform="translate(395.6,-651.088)">
			
			<desc>`</desc>
			<path d="M0 919.8 A2.26121 2.26121 0 0 1 4.52 919.8 A2.26121 2.26121 0 1 1 0 919.8 Z" style="fill:#000000;stroke:none;stroke-width:0.25"/>
			<text x="4.28" y="922.8" style="fill:#feffff;font-family:Calibri;font-size:0.833336em">`</text>		</g>
		<g id="shape866-554" transform="translate(259.4,-462.5)">
			
			<path d="M0 922.06 L113.51 922.06" style="stroke:#000000;stroke-linecap:round;stroke-linejoin:round;stroke-width:1"/>
		</g>
		<g id="shape868-557" transform="translate(370.7,-391.738)">
			
			<path d="M0 919.8 A2.26121 2.26121 0 0 1 4.52 919.8 A2.26121 2.26121 0 1 1 0 919.8 Z" style="fill:#000000;stroke:none;stroke-width:0.25"/>
		</g>
		<g id="shape869-559" transform="translate(430.7,-327.837)">
			
			<path d="M0 919.8 A2.26121 2.26121 0 0 1 4.52 919.8 A2.26121 2.26121 0 1 1 0 919.8 Z" style="fill:#000000;stroke:none;stroke-width:0.25"/>
		</g>
		<g id="shape870-561" transform="translate(461.78,-294.957)">
			
			<path d="M0 919.8 A2.26121 2.26121 0 0 1 4.52 919.8 A2.26121 2.26121 0 1 1 0 919.8 Z" style="fill:#000000;stroke:none;stroke-width:0.25"/>
		</g>
		<g id="shape871-563" transform="translate(507.039,-228.226)">
			
			<path d="M0 919.8 A2.26121 2.26121 0 0 1 4.52 919.8 A2.26121 2.26121 0 1 1 0 919.8 Z" style="fill:#000000;stroke:none;stroke-width:0.25"/>
		</g>
		<g id="shape872-565" transform="translate(747.875,-760.438)">
			
			<desc>÷</desc>
			<path d="M4.77 922.06 L42.97 922.06 A4.77455 4.77455 -180 0 0 47.75 917.29 L47.75 894.85 A4.77455 4.77455 -180 0 0 42.97
						 890.07 L4.77 890.07 A4.77455 4.77455 -180 0 0 0 894.85 L0 917.29 A4.77455 4.77455 -180 0 0 4.77 922.06 Z"
					style="fill:#d5e8d4;stroke:#82b366;stroke-width:1"/>
			<text x="11.5" y="909.11" style="fill:#000000;font-family:Times New Roman;font-size:0.833336em">÷  </text>		</g>
		<g id="shape873-568" transform="translate(700.438,-828.5)">
			
			<path d="M0 922.06 L0 974.38 L39.46 974.38" style="marker-end:url(#mrkr4-131);stroke:#000000;stroke-linecap:round;stroke-linejoin:round;stroke-width:1"/>
		</g>
		<g id="shape874-573" transform="translate(762.5,-760.438)">
			
			<path d="M9 922.06 L9 944.94" style="stroke:#000000;stroke-linecap:round;stroke-linejoin:round;stroke-width:1"/>
		</g>
	</g>
</svg>
