<?xml version="1.0" encoding="UTF-8" standalone="no"?>
<!DOCTYPE svg PUBLIC "-//W3C//DTD SVG 1.1//EN" "http://www.w3.org/Graphics/SVG/1.1/DTD/svg11.dtd">
<!-- Generated by Microsoft Visio, SVG Export SAML10_L11.svg Page-1 -->
<svg class="st35" color-interpolation-filters="sRGB" height="11.7543in" viewBox="0 0 1164.95 846.313" width="16.1799in" xml:space="preserve" xmlns="http://www.w3.org/2000/svg" xmlns:xlink="http://www.w3.org/1999/xlink">
 <style type="text/css">
  .st1 {visibility:visible}
		.st2 {fill:#000000;fill-opacity:0.4;filter:url(#filter_2.6666667461395);stroke:#000000;stroke-opacity:0.4}
		.st3 {fill:#ffffff;stroke:#70ad47;stroke-width:1}
		.st4 {stroke:#000000;stroke-linecap:round;stroke-linejoin:round;stroke-width:0.75}
		.st5 {fill:none;stroke:none;stroke-width:0.25}
		.st6 {fill:#002060;font-family:Calibri;font-size:0.666664em}
		.st7 {fill:#000000;font-family:Calibri;font-size:0.666664em}
		.st8 {marker-end:url(#mrkr5-30);stroke:#000000;stroke-linecap:round;stroke-linejoin:round;stroke-width:1}
		.st9 {fill:#000000;fill-opacity:1;stroke:#000000;stroke-opacity:1;stroke-width:0.28409090909091}
		.st10 {fill:#d5e8d4;stroke:#82b366;stroke-width:1}
		.st11 {marker-start:url(#mrkr5-55);stroke:#000000;stroke-linecap:round;stroke-linejoin:round;stroke-width:0.75}
		.st12 {fill:#000000;fill-opacity:1;stroke:#000000;stroke-opacity:1;stroke-width:0.22935779816514}
		.st13 {fill:#5b9bd5;fill-opacity:0.22;filter:url(#filter_2);stroke:#5b9bd5;stroke-opacity:0.22}
		.st14 {fill:#f8cecc;stroke:#c7c8c8;stroke-width:0.25}
		.st15 {fill:#000000;font-family:Calibri;font-size:1.00001em}
		.st16 {fill:#dae8fc;stroke:#6c8ebf;stroke-width:1}
		.st17 {stroke:#000000;stroke-linecap:round;stroke-linejoin:round;stroke-width:1}
		.st18 {fill:#000000;stroke:none;stroke-width:0.25}
		.st19 {marker-start:url(#mrkr5-108);stroke:#000000;stroke-linecap:round;stroke-linejoin:round;stroke-width:1}
		.st20 {marker-end:url(#mrkr5-114);stroke:#000000;stroke-width:0.75}
		.st21 {fill:#f8cecc;stroke:none;stroke-width:0.25}
		.st22 {fill:#f8cecc;stroke:#000000;stroke-width:0.25}
		.st23 {stroke:#82b366;stroke-linecap:round;stroke-linejoin:round;stroke-width:1}
		.st24 {fill:#000000;font-family:Times New Roman;font-size:0.833336em}
		.st25 {fill:#ffffff;stroke:#000000;stroke-width:0.25}
		.st26 {fill:#000000;stroke:#000000;stroke-width:0.25}
		.st27 {fill:none;stroke:none;stroke-width:0.5}
		.st28 {fill:#000000;font-family:Calibri;font-size:0.833336em}
		.st29 {font-size:1em}
		.st30 {fill:#000000;fill-opacity:1;stroke:#000000;stroke-opacity:1;stroke-width:0.090252707581227}
		.st31 {fill:#0066cc;font-family:Calibri;font-size:0.666664em;font-weight:bold}
		.st32 {fill:#ffffff;stroke:#000000;stroke-width:0.75}
		.st33 {stroke:#000000;stroke-width:0.75}
		.st34 {marker-end:url(#mrkr4-610);stroke:#000000;stroke-linecap:round;stroke-linejoin:round;stroke-width:1}
		.st35 {fill:none;fill-rule:evenodd;font-size:12px;overflow:visible;stroke-linecap:square;stroke-miterlimit:3}
 </style>
 <defs id="Markers">
  <g id="lend5">
   <path d="M 2 1 L 0 0 L 1.98117 -0.993387 C 1.67173 -0.364515 1.67301 0.372641 1.98465 1.00043 " style="stroke:none">
   </path>
  </g>
  <marker class="st9" id="mrkr5-30" markerUnits="strokeWidth" orient="auto" overflow="visible" refX="-6.16">
   <use transform="scale(-3.52,-3.52) " xlink:href="#lend5">
   </use>
  </marker>
  <marker class="st12" id="mrkr5-55" markerUnits="strokeWidth" orient="auto" overflow="visible" refX="7.15">
   <use transform="scale(4.36) " xlink:href="#lend5">
   </use>
  </marker>
  <marker class="st9" id="mrkr5-108" markerUnits="strokeWidth" orient="auto" overflow="visible" refX="5.8">
   <use transform="scale(3.52) " xlink:href="#lend5">
   </use>
  </marker>
  <marker class="st12" id="mrkr5-114" markerUnits="strokeWidth" orient="auto" overflow="visible" refX="-7.63">
   <use transform="scale(-4.36,-4.36) " xlink:href="#lend5">
   </use>
  </marker>
  <marker class="st30" id="mrkr5-393" markerUnits="strokeWidth" orient="auto" overflow="visible" refX="-19.39">
   <use transform="scale(-11.08,-11.08) " xlink:href="#lend5">
   </use>
  </marker>
  <g id="lend4">
   <path d="M 2 1 L 0 0 L 2 -1 L 2 1 " style="stroke:none">
   </path>
  </g>
  <marker class="st9" id="mrkr4-610" markerUnits="strokeWidth" orient="auto" overflow="visible" refX="-7.04">
   <use transform="scale(-3.52,-3.52) " xlink:href="#lend4">
   </use>
  </marker>
 </defs>
 <defs id="Filters">
  <filter id="filter_2.6666667461395">
   <feGaussianBlur stdDeviation="2.6666667461395">
   </feGaussianBlur>
  </filter>
  <filter id="filter_2">
   <feGaussianBlur stdDeviation="2">
   </feGaussianBlur>
  </filter>
 </defs>
 <g>
  <g transform="translate(839.071,-279.656)">
   <g class="st1" id="shadow512-2" transform="matrix(1,0,0,1,0,3)">
    <rect class="st2" height="162.168" width="147.586" x="0" y="684.144">
    </rect>
   </g>
   <rect class="st3" height="162.168" width="147.586" x="0" y="684.144">
   </rect>
  </g>
  <g transform="translate(843.699,-74.9063)">
   <g class="st1" id="shadow249-7" transform="matrix(1,0,0,1,0,3)">
    <rect class="st2" height="159.75" width="148.875" x="0" y="686.563">
    </rect>
   </g>
   <rect class="st3" height="159.75" width="148.875" x="0" y="686.563">
   </rect>
  </g>
  <g transform="translate(1748.84,709.472) rotate(90)">
   <path class="st4" d="M0 846.31 L23.07 846.31">
   </path>
  </g>
  <g transform="translate(843.624,-684.656)">
   <g class="st1" id="shadow131-15" transform="matrix(1,0,0,1,0,3)">
    <rect class="st2" height="137.464" width="151.2" x="0" y="708.848">
    </rect>
   </g>
   <rect class="st3" height="137.464" width="151.2" x="0" y="708.848">
   </rect>
  </g>
  <g transform="translate(868.374,-808.856)">
   <desc>
    Main Clock
   </desc>
   <rect class="st5" height="9.28125" width="97.5326" x="0" y="837.031">
   </rect>
   <text class="st6" x="30.84" y="844.07">
    Main Clock
   </text>
  </g>
  <g transform="translate(803.574,-787.256)">
   <desc>
    GCLK0
   </desc>
   <rect class="st5" height="9.28125" width="29.6961" x="0" y="837.031">
   </rect>
   <text class="st7" x="4.4" y="844.07">
    GCLK0
   </text>
  </g>
  <g transform="translate(973.834,-777.346) rotate(0.28506)">
   <path class="st8" d="M0 846.31 L84.29 846.31">
   </path>
  </g>
  <g transform="translate(899.397,1546.64) rotate(180)">
   <path class="st4" d="M0 846.31 L100.89 846.31">
   </path>
  </g>
  <g transform="translate(907.507,-134.418)">
   <path class="st4" d="M0 837.31 L130.82 837.31">
   </path>
  </g>
  <g transform="translate(898.233,-132.286)">
   <path class="st10" d="M0 822.65 L0 846.31 L10.03 835.2 L0 822.65 Z">
   </path>
  </g>
  <g transform="translate(855.682,-215.834)">
   <desc>
    GCLK Input Output (IO)
   </desc>
   <rect class="st5" height="15.9267" width="97.5326" x="0" y="830.386">
   </rect>
   <text class="st6" x="11.27" y="840.75">
    GCLK Input Output (IO)
   </text>
  </g>
  <g transform="translate(907.839,1488.74) rotate(180)">
   <path class="st10" d="M0 822.65 L0 846.31 L10.03 835.2 L0 822.65 Z">
   </path>
  </g>
  <g transform="translate(907.903,-183.259)">
   <path class="st4" d="M0 837.31 L25.46 837.31">
   </path>
  </g>
  <g transform="translate(1779.77,654.128) rotate(90)">
   <path class="st4" d="M0 846.31 L48.68 846.31">
   </path>
  </g>
  <g transform="translate(797.199,-183.645)">
   <path class="st11" d="M5.36 837.31 L5.72 837.31 L100.76 837.31">
   </path>
  </g>
  <g transform="translate(792.363,-198.18)">
   <desc>
    GCLK_IN[x]
   </desc>
   <rect class="st5" height="15.9267" width="45.7105" x="0" y="830.386">
   </rect>
   <text class="st7" x="4.67" y="840.75">
    GCLK_IN[x]
   </text>
  </g>
  <g transform="translate(790.557,-150.004)">
   <desc>
    GCLKx
   </desc>
   <rect class="st5" height="15.9267" width="33.8839" x="0" y="830.386">
   </rect>
   <text class="st7" x="6.79" y="840.75">
    GCLKx
   </text>
  </g>
  <g transform="translate(1074.28,-472.484)">
   <desc>
    EIC
   </desc>
   <g class="st1" id="shadow412-63" transform="matrix(1,0,0,1,0.345598,1.97279)">
    <rect class="st13" height="23.9053" width="79.3453" x="0" y="822.407">
    </rect>
   </g>
   <rect class="st14" height="23.9053" width="79.3453" x="0" y="822.407">
   </rect>
   <text class="st15" x="32.03" y="837.96">
    EIC
   </text>
  </g>
  <g transform="translate(1074.28,-443.774)">
   <desc>
    WDT
   </desc>
   <g class="st1" id="shadow468-69" transform="matrix(1,0,0,1,0.345598,1.97279)">
    <rect class="st13" height="23.9053" width="79.3453" x="0" y="822.407">
    </rect>
   </g>
   <rect class="st14" height="23.9053" width="79.3453" x="0" y="822.407">
   </rect>
   <text class="st15" x="27.72" y="837.96">
    WDT
   </text>
  </g>
  <g transform="translate(1075.89,-375.923)">
   <desc>
    RTC
   </desc>
   <g class="st1" id="shadow475-75" transform="matrix(1,0,0,1,0.345598,1.97279)">
    <rect class="st13" height="23.9053" width="78.6848" x="0" y="822.407">
    </rect>
   </g>
   <rect class="st14" height="23.9053" width="78.6848" x="0" y="822.407">
   </rect>
   <text class="st15" x="29.96" y="837.96">
    RTC
   </text>
  </g>
  <g transform="translate(1770.44,410.303) rotate(90)">
   <path class="st16" d="M0 846.31 L152.38 846.31 L126.99 818.37 L25.4 818.37 L0 846.31 Z">
   </path>
  </g>
  <g transform="translate(782.761,-342.054)">
   <path class="st17" d="M0 837.35 L140.91 837.27">
   </path>
  </g>
  <g transform="translate(782.761,-328.227)">
   <path class="st17" d="M0 855.26 L141.33 855.37">
   </path>
  </g>
  <g transform="translate(782.982,-392.447)">
   <path class="st17" d="M0 855.16 L140.69 855.46">
   </path>
  </g>
  <g transform="translate(783.082,-425.607)">
   <path class="st17" d="M0 855.19 L140.59 855.43">
   </path>
  </g>
  <g transform="translate(985.824,-396.886)">
   <path class="st8" d="M0 854.98 L84 855.6">
   </path>
  </g>
  <g transform="translate(899.955,-412.17)">
   <path class="st18" d="M0 841.72 A4.59394 4.59394 0 0 1 9.19 841.72 A4.59394 4.59394 0 1 1 0 841.72 Z">
   </path>
  </g>
  <g transform="translate(868.229,-379.229)">
   <path class="st18" d="M0 841.72 A4.59394 4.59394 0 0 1 9.19 841.72 A4.59394 4.59394 0 1 1 0 841.72 Z">
   </path>
  </g>
  <g transform="translate(865.882,905.967) rotate(179.894)">
   <path class="st19" d="M5.8 846.31 L6.16 846.31 L101.81 846.31">
   </path>
  </g>
  <g transform="translate(903.699,-419.719)">
   <path class="st20" d="M0 846.31 L0 809.99 L164.42 809.99">
   </path>
  </g>
  <g transform="translate(873.324,-387.094)">
   <path class="st20" d="M0 846.31 L0 748.19 L194.8 748.19">
   </path>
  </g>
  <g transform="translate(820.596,-282.397)">
   <desc>
    RTC Clock Selection
   </desc>
   <rect class="st5" height="10.6605" width="118.108" x="0" y="835.652">
   </rect>
   <text class="st6" x="27.43" y="843.38">
    RTC Clock Selection
   </text>
  </g>
  <g transform="translate(1037.39,-129.443)">
   <g transform="translate(3.15747E-13,3.45884)">
    <g class="st1" id="shadow593-125" transform="matrix(1,0,0,1,0.345598,1.97279)">
     <rect class="st13" height="35.7145" width="64.4674" x="0" y="810.598">
     </rect>
    </g>
    <rect class="st14" height="35.7145" width="64.4674" x="0" y="810.598">
    </rect>
   </g>
   <g transform="translate(15,-6.43505)">
    <desc>
     GCLK_IO[x]
    </desc>
    <rect class="st21" height="15.9267" width="49.5" x="0" y="830.386">
    </rect>
    <text class="st7" x="6.5" y="840.75">
     GCLK_IO[x]
    </text>
   </g>
   <g transform="translate(8.65909,-7.37105)">
    <rect class="st22" height="15.5211" width="9.04485" x="0" y="830.791">
    </rect>
   </g>
   <g transform="translate(-582.124,244.538) rotate(-45)">
    <path class="st22" d="M0 835.85 L6.13 835.85 L6.13 846.31 L6.13 835.85 L12.26 835.85 L6.13 835.85 L6.13 825.39 L6.13 835.85 L0
							 835.85 Z">
    </path>
   </g>
  </g>
  <g transform="translate(1074.28,-502.126)">
   <desc>
    OPAMP
   </desc>
   <g class="st1" id="shadow678-137" transform="matrix(1,0,0,1,0.345598,1.97279)">
    <rect class="st13" height="23.9053" width="79.3453" x="0" y="822.407">
    </rect>
   </g>
   <rect class="st14" height="23.9053" width="79.3453" x="0" y="822.407">
   </rect>
   <text class="st15" x="20.9" y="837.96">
    OPAMP
   </text>
  </g>
  <g transform="translate(1023.44,-485.597)">
   <path class="st20" d="M0 846.31 L0 816.54 L44.68 816.54">
   </path>
  </g>
  <g transform="translate(1020.45,-482.15)">
   <path class="st18" d="M0 843.17 A3.14514 3.14514 0 0 1 6.29 843.17 A3.14514 3.14514 0 1 1 0 843.17 Z">
   </path>
  </g>
  <g transform="translate(921.474,-749.906)">
   <g transform="translate(870.214,835.541) rotate(90)">
    <path class="st23" d="M0 846.31 L10.77 846.31">
    </path>
   </g>
   <g transform="translate(0,-10.8138)">
    <desc>
     ÷
    </desc>
    <path class="st10" d="M3.72 846.31 L44.22 846.31 A3.52935 3.52935 -180 0 0 47.75 842.78 L47.75 817.85 A3.52935 3.52935 -180 0
							 0 44.22 814.32 L3.15 814.32 A3.15436 3.15436 -180 0 0 0 817.48 L0 842.6 A3.71685 3.71685 -180 0 0 3.72
							 846.31 Z">
    </path>
    <text class="st24" x="11.5" y="833.36">
     ÷
    </text>
   </g>
  </g>
  <g transform="translate(1712.44,41.6459) rotate(90)">
   <path class="st16" d="M0 846.31 L58.14 846.31 L48.45 828.31 L9.69 828.31 L0 846.31 Z">
   </path>
  </g>
  <g transform="translate(804.699,-754.406)">
   <path class="st8" d="M0 837.31 L55.6 837.31">
   </path>
  </g>
  <g transform="translate(799.974,-765.206)">
   <desc>
    DFLLULP
   </desc>
   <rect class="st5" height="9.28125" width="41.8677" x="0" y="837.031">
   </rect>
   <text class="st7" x="6.96" y="844.07">
    DFLLULP
   </text>
  </g>
  <g transform="translate(884.124,-768.356)">
   <path class="st8" d="M0 837.31 L30.29 837.31">
   </path>
  </g>
  <g transform="translate(1060.52,-768.806)">
   <g>
    <desc>
     CPU
    </desc>
    <g class="st1" id="shadow591-173" transform="matrix(1,0,0,1,0.345598,1.97279)">
     <rect class="st13" height="20.8125" width="67.7832" x="0" y="825.5">
     </rect>
    </g>
    <rect class="st14" height="20.8125" width="67.7832" x="0" y="825.5">
    </rect>
    <text class="st15" x="23.74" y="839.51">
     CPU
    </text>
   </g>
  </g>
  <g transform="translate(930.205,-140.061)">
   <path class="st18" d="M0 842.43 A3.88027 3.88027 0 0 1 7.76 842.43 A3.88027 3.88027 0 1 1 0 842.43 Z">
   </path>
  </g>
  <g transform="translate(191.752,-641)">
   <g class="st1" id="shadow942-181" transform="matrix(1,0,0,1,0,3)">
    <rect class="st2" height="200.25" width="224.25" x="0" y="646.063">
    </rect>
   </g>
   <rect class="st3" height="200.25" width="224.25" x="0" y="646.063">
   </rect>
  </g>
  <g transform="translate(193.252,-14)">
   <g class="st1" id="shadow943-186" transform="matrix(1,0,0,1,0,3)">
    <rect class="st2" height="270.562" width="219.284" x="0" y="575.75">
    </rect>
   </g>
   <rect class="st3" height="270.562" width="219.284" x="0" y="575.75">
   </rect>
  </g>
  <g transform="translate(137.574,-298.063)">
   <g class="st1" id="shadow944-191" transform="matrix(1,0,0,1,0,3)">
    <rect class="st2" height="149.625" width="308.25" x="0" y="696.688">
    </rect>
   </g>
   <rect class="st3" height="149.625" width="308.25" x="0" y="696.688">
   </rect>
  </g>
  <g transform="translate(556.721,-623)">
   <g class="st1" id="shadow945-196" transform="matrix(1,0,0,1,0,3)">
    <rect class="st2" height="221.812" width="118.125" x="0" y="624.5">
    </rect>
   </g>
   <rect class="st3" height="221.812" width="118.125" x="0" y="624.5">
   </rect>
  </g>
  <g transform="translate(1410.61,1.68752) rotate(90)">
   <path class="st16" d="M0 846.31 L219.38 846.31 L182.81 818.55 L36.56 818.55 L0 846.31 Z">
   </path>
  </g>
  <g transform="translate(592.755,-748.852)">
   <path class="st8" d="M0 855.3 L19.9 855.32">
   </path>
  </g>
  <g transform="translate(569.086,-831.807)">
   <desc>
    GCLK Generator 0
   </desc>
   <rect class="st5" height="9.28125" width="90.4891" x="0" y="837.031">
   </rect>
   <text class="st6" x="16.23" y="844.07">
    GCLK Generator 0
   </text>
  </g>
  <g transform="translate(678.285,-743.859)">
   <desc>
    GCLK0
   </desc>
   <rect class="st5" height="9.28125" width="29.6961" x="0" y="837.031">
   </rect>
   <text class="st7" x="4.4" y="844.07">
    GCLK0
   </text>
  </g>
  <g transform="translate(333.324,-817.797)">
   <path class="st8" d="M0 855.14 L122.64 855.47">
   </path>
  </g>
  <g transform="translate(350.752,-707.375)">
   <path class="st8" d="M0 837.31 L104.59 837.31">
   </path>
  </g>
  <g transform="translate(409.038,-811.55)">
   <desc>
    OSC16M
   </desc>
   <rect class="st5" height="9.28125" width="51.9583" x="0" y="837.031">
   </rect>
   <text class="st7" x="11.89" y="844.07">
    OSC16M
   </text>
  </g>
  <g transform="translate(415.629,-718.732)">
   <desc>
    XOSC
   </desc>
   <rect class="st5" height="9.28125" width="51.9583" x="0" y="837.031">
   </rect>
   <text class="st7" x="17.28" y="844.07">
    XOSC
   </text>
  </g>
  <g transform="translate(106.355,-366.557)">
   <path class="st8" d="M0 855.31 L36.58 855.32">
   </path>
  </g>
  <g transform="translate(52.0736,-380.984)">
   <path class="st17" d="M0 837.39 L146.62 837.23">
   </path>
  </g>
  <g transform="translate(154.759,-343.058)">
   <path class="st17" d="M9 846.31 L9 870.48">
   </path>
  </g>
  <g transform="translate(192.814,-350.16)">
   <path class="st17" d="M3.78 837.31 L14.22 837.31">
   </path>
  </g>
  <g transform="translate(104.125,-405.816)">
   <path class="st17" d="M0 837.97 L103.56 836.65">
   </path>
  </g>
  <g transform="translate(190.065,-398.981)">
   <path class="st8" d="M0 855.3 L89.03 855.32">
   </path>
  </g>
  <g transform="translate(330.587,-399.057)">
   <path class="st8" d="M0 855.22 L38.5 855.38">
   </path>
  </g>
  <g transform="translate(391.06,-376.833)">
   <path class="st17" d="M9 848.46 L9 862.16">
   </path>
  </g>
  <g transform="translate(322.239,-376.915)">
   <path class="st17" d="M9 848.46 L9 862.16">
   </path>
  </g>
  <g transform="translate(400.825,-381.186)">
   <path class="st8" d="M0 837.31 L65.02 837.31">
   </path>
  </g>
  <g transform="translate(432.919,-392.063)">
   <desc>
    FDPLL
   </desc>
   <rect class="st5" height="9.28125" width="51.9583" x="0" y="837.031">
   </rect>
   <text class="st7" x="16.25" y="844.07">
    FDPLL
   </text>
  </g>
  <g transform="translate(233.275,-433.738)">
   <desc>
    Fractional Digital Phase Locked Loop
   </desc>
   <rect class="st5" height="9.28125" width="132.852" x="0" y="837.031">
   </rect>
   <text class="st6" x="7.28" y="844.07">
    Fractional Digital Phase Locked Loop
   </text>
  </g>
  <g transform="translate(318.002,-234.973)">
   <path class="st8" d="M0 855.08 L133.47 855.52">
   </path>
  </g>
  <g transform="translate(316.158,-27.2993)">
   <path class="st8" d="M0 837.31 L134.75 837.31">
   </path>
  </g>
  <g transform="translate(178.445,-81.8661)">
   <path class="st17" d="M0 837.31 L44.81 837.31">
   </path>
  </g>
  <g transform="translate(177.673,-27.382)">
   <path class="st17" d="M0 837.31 L45.9 837.31">
   </path>
  </g>
  <g transform="translate(167.007,-31.3886)">
   <rect class="st25" height="12.1409" width="12.1409" x="0" y="834.172">
   </rect>
  </g>
  <g transform="translate(-423.829,220.695) rotate(-45)">
   <path class="st26" d="M0 837.97 L6.19 837.97 L6.19 846.31 L6.19 837.97 L12.37 837.97 L6.19 837.97 L6.19 829.62 L6.19 837.97 L0 837.97
						 Z">
   </path>
  </g>
  <g transform="translate(167.757,-85.1881)">
   <rect class="st25" height="12.1409" width="12.1409" x="0" y="834.172">
   </rect>
  </g>
  <g transform="translate(-423.079,166.895) rotate(-45)">
   <path class="st26" d="M0 837.97 L6.19 837.97 L6.19 846.31 L6.19 837.97 L12.37 837.97 L6.19 837.97 L6.19 829.62 L6.19 837.97 L0 837.97
						 Z">
   </path>
  </g>
  <g transform="translate(1183.43,680.219) rotate(90)">
   <path class="st16" d="M0 846.31 L105.71 846.31 L88.09 828.17 L17.62 828.17 L0 846.31 Z">
   </path>
  </g>
  <g transform="translate(355.815,-121.895)">
   <path class="st8" d="M0 855.16 L95.65 855.45">
   </path>
  </g>
  <g transform="translate(205.252,-92.4321)">
   <path class="st17" d="M0 846.31 L0 799.77 L131.86 799.77">
   </path>
  </g>
  <g transform="translate(202.406,-88.1328)">
   <path class="st18" d="M0 843.28 A3.03523 3.03523 0 1 1 6.07 843.28 A3.03523 3.03523 0 0 1 0 843.28 Z">
   </path>
  </g>
  <g transform="translate(129.772,-76.5303)">
   <desc>
    XIN32
   </desc>
   <rect class="st27" height="26.9798" width="43.0879" x="0" y="819.333">
   </rect>
   <text class="st15" x="6.96" y="836.42">
    XIN32
   </text>
  </g>
  <g transform="translate(409.788,-226.994)">
   <desc>
    OSCULP1K
   </desc>
   <rect class="st5" height="11.4205" width="51.9583" x="0" y="834.892">
   </rect>
   <text class="st7" x="8.94" y="843">
    OSCULP1K
   </text>
  </g>
  <g transform="translate(414.931,-116.512)">
   <desc>
    XOSC32K
   </desc>
   <rect class="st5" height="12.4583" width="38.2246" x="0" y="833.854">
   </rect>
   <text class="st7" x="4.28" y="842.48">
    XOSC32K
   </text>
  </g>
  <g transform="translate(317.752,-166.215)">
   <path class="st8" d="M0 837.31 L134.28 837.31">
   </path>
  </g>
  <g transform="translate(411.931,-179.467)">
   <desc>
    OSCULP32K
   </desc>
   <rect class="st5" height="11.4205" width="51.9583" x="0" y="834.892">
   </rect>
   <text class="st7" x="6.91" y="843">
    OSCULP32K
   </text>
  </g>
  <g transform="translate(315.783,-85.4815)">
   <path class="st17" d="M0 837.31 L20.8 837.31">
   </path>
  </g>
  <g transform="translate(412.788,-38.563)">
   <desc>
    XOSC1K
   </desc>
   <rect class="st5" height="12.4583" width="38.2246" x="0" y="833.854">
   </rect>
   <text class="st7" x="6.31" y="842.48">
    XOSC1K
   </text>
  </g>
  <g transform="translate(280.5,-375.433)">
   <path class="st17" d="M9 848.46 L9 862.16">
   </path>
  </g>
  <g transform="translate(229.502,-271.688)">
   <desc>
    32 KHz Oscillators Controller
   </desc>
   <rect class="st5" height="9.28125" width="132.852" x="0" y="837.031">
   </rect>
   <text class="st6" x="20.12" y="844.07">
    32 KHz Oscillators Controller
   </text>
  </g>
  <g transform="translate(234.699,-831.917)">
   <desc>
    Oscillators Controller
   </desc>
   <rect class="st5" height="9.28125" width="132.852" x="0" y="837.031">
   </rect>
   <text class="st6" x="32.13" y="844.07">
    Oscillators Controller
   </text>
  </g>
  <g transform="translate(623.83,-724.011)">
   <path class="st17" d="M9 846.31 L9 870.48">
   </path>
  </g>
  <g transform="translate(618.25,-723.839)">
   <desc>
    ÷
   </desc>
   <path class="st10" d="M3.13 846.31 L40.59 846.31 A2.97292 2.97292 -180 0 0 43.56 843.34 L43.56 817.3 A2.97292 2.97292 -180 0 0 40.59
						 814.32 L2.74 814.32 A2.74049 2.74049 -180 0 0 0 817.06 L0 843.19 A3.12541 3.12541 -180 0 0 3.13 846.31 Z">
   </path>
   <text class="st24" x="6.5" y="833.36">
    ÷
   </text>
  </g>
  <g transform="translate(563.846,878.473) rotate(180)">
   <path class="st17" d="M0 846.31 L53.82 846.31">
   </path>
  </g>
  <g transform="translate(563.678,1008.46) rotate(180)">
   <path class="st17" d="M0 846.31 L53.65 846.31">
   </path>
  </g>
  <g transform="translate(563.658,943.049) rotate(180)">
   <path class="st17" d="M0 846.31 L53.63 846.31">
   </path>
  </g>
  <g transform="translate(563.94,965.13) rotate(180)">
   <path class="st17" d="M0 846.31 L53.91 846.31">
   </path>
  </g>
  <g transform="translate(564.033,987.21) rotate(180)">
   <path class="st17" d="M0 846.31 L54 846.31">
   </path>
  </g>
  <g transform="translate(563.846,899.721) rotate(180)">
   <path class="st17" d="M0 846.31 L53.82 846.31">
   </path>
  </g>
  <g transform="translate(563.94,922.218) rotate(180)">
   <path class="st17" d="M0 846.31 L53.91 846.31">
   </path>
  </g>
  <g transform="translate(563.738,1030.99) rotate(180)">
   <path class="st17" d="M0 846.31 L53.71 846.31">
   </path>
  </g>
  <g transform="translate(282.802,-768.35)">
  </g>
  <g transform="translate(237.127,-781.625)">
   <desc>
    16 MHz Internal Oscillator
   </desc>
   <path class="st10" d="M4.47 846.31 L91.89 846.31 A4.85685 4.85685 -180 0 0 96.75 841.46 L96.75 801.41 A4.27403 4.27403 -180 0 0 92.48
						 797.14 L5.05 797.14 A5.05112 5.05112 -180 0 0 0 802.19 L0 841.84 A4.4683 4.4683 -180 0 0 4.47 846.31 Z">
   </path>
   <text class="st28" x="4" y="824.73">
    16 MHz Internal
    <tspan class="st29" dy="1.2em" x="4">
     Oscillator
    </tspan>
   </text>
  </g>
  <g transform="translate(275.367,-766.963)">
   <path class="st17" d="M8.98 843.32 L9.02 831.31">
   </path>
  </g>
  <g transform="translate(318.487,-692.977)">
   <path class="st17" d="M0 837.31 L18.31 837.31">
   </path>
  </g>
  <g transform="translate(177.77,-714.157)">
   <path class="st17" d="M0 837.31 L45.15 837.31">
   </path>
  </g>
  <g transform="translate(177.245,-671.317)">
   <path class="st17" d="M0 837.31 L45.68 837.31">
   </path>
  </g>
  <g transform="translate(168.052,-675.646)">
   <rect class="st25" height="9.04485" width="9.04485" x="0" y="837.268">
   </rect>
  </g>
  <g transform="translate(-425.837,-423.519) rotate(-45)">
   <path class="st26" d="M0 840.1 L6.19 840.1 L6.19 846.31 L6.19 840.1 L12.37 840.1 L6.19 840.1 L6.19 833.88 L6.19 840.1 L0 840.1 Z">
   </path>
  </g>
  <g transform="translate(168.545,-718.233)">
   <rect class="st25" height="9.04485" width="9.04485" x="0" y="837.268">
   </rect>
  </g>
  <g transform="translate(-425.344,-466.106) rotate(-45)">
   <path class="st26" d="M0 840.1 L6.19 840.1 L6.19 846.31 L6.19 840.1 L12.37 840.1 L6.19 840.1 L6.19 833.88 L6.19 840.1 L0 840.1 Z">
   </path>
  </g>
  <g transform="translate(203.949,-718.692)">
   <path class="st17" d="M0 843.22 L0 831.4 L132.5 831.4">
   </path>
  </g>
  <g transform="translate(202.289,-720.875)">
   <path class="st18" d="M0 844.05 A2.26121 2.26121 0 0 1 4.52 844.05 A2.26121 2.26121 0 1 1 0 844.05 Z">
   </path>
  </g>
  <g transform="translate(139.835,-714.25)">
   <desc>
    XIN
   </desc>
   <rect class="st27" height="20.0997" width="28.555" x="0" y="826.213">
   </rect>
   <text class="st15" x="5.78" y="839.86">
    XIN
   </text>
  </g>
  <g transform="translate(129.002,-666.5)">
   <desc>
    XOUT
   </desc>
   <rect class="st27" height="20.0997" width="36.495" x="0" y="826.213">
   </rect>
   <text class="st15" x="4.39" y="839.86">
    XOUT
   </text>
  </g>
  <g transform="translate(216.877,-676.207)">
   <desc>
    Crystal Oscillator
   </desc>
   <path class="st10" d="M4.44 846.31 L97.65 846.31 A3.92629 3.92629 -180 0 0 101.57 842.39 L101.57 799.26 A5.12122 5.12122 -180 0 0
						 96.45 794.14 L4.44 794.14 A4.43829 4.43829 -180 0 0 0 798.58 L0 841.87 A4.43829 4.43829 -180 0 0 4.44 846.31
						 Z">
   </path>
   <text class="st28" x="16.54" y="823.23">
    Crystal Oscillator
   </text>
  </g>
  <g transform="translate(1183.42,88.5313) rotate(90)">
   <path class="st16" d="M0 846.31 L77.63 846.31 L64.69 829.85 L12.94 829.85 L0 846.31 Z">
   </path>
  </g>
  <g transform="translate(283.824,-373.755)">
   <desc>
    ×
   </desc>
   <path class="st10" d="M3.77 846.31 L67.15 846.31 A4.84502 4.84502 -180 0 0 72 841.47 L72 819.17 A4.84502 4.84502 -180 0 0 67.15 814.32
						 L4.9 814.32 A4.90445 4.90445 -180 0 0 -0 819.23 L0 842.54 A3.77265 3.77265 -180 0 0 3.77 846.31 Z">
   </path>
   <text class="st24" x="9" y="833.36">
    ×
   </text>
  </g>
  <g transform="translate(376.187,-374)">
   <desc>
    ÷
   </desc>
   <path class="st10" d="M4.77 846.31 L42.97 846.31 A4.77455 4.77455 -180 0 0 47.75 841.54 L47.75 819.59 A4.77455 4.77455 -180 0 0 42.97
						 814.81 L4.77 814.81 A4.77455 4.77455 -180 0 0 0 819.59 L0 841.54 A4.77455 4.77455 -180 0 0 4.77 846.31 Z">
   </path>
   <text class="st28" x="10.78" y="833.56">
    ÷
   </text>
  </g>
  <g transform="translate(213.502,-21.125)">
   <desc>
    32K Crystal Oscillator
   </desc>
   <path class="st10" d="M6.47 846.31 L105.92 846.31 A6.58471 6.58471 -180 0 0 112.5 839.73 L112.5 763.13 A6.91953 6.91953 -180 0 0 105.58
						 756.21 L7.48 756.21 A7.47756 7.47756 -180 0 0 0 763.69 L0 839.84 A6.47311 6.47311 -180 0 0 6.47 846.31 Z">
   </path>
   <text class="st28" x="13.21" y="804.26">
    32K Crystal Oscillator
   </text>
  </g>
  <g transform="translate(271.145,-88.4411)">
   <desc>
    32 KHz
   </desc>
   <rect class="st27" height="10.9482" width="32.261" x="0" y="835.364">
   </rect>
   <text class="st31" x="4.87" y="843.24">
    32 KHz
   </text>
  </g>
  <g transform="translate(274.681,-32.352)">
   <desc>
    1 KHz
   </desc>
   <rect class="st27" height="10.9482" width="28.1732" x="0" y="835.364">
   </rect>
   <text class="st31" x="4.85" y="843.24">
    1 KHz
   </text>
  </g>
  <g transform="translate(213.502,-163.281)">
   <desc>
    32K Ultra Low Power Internal Oscillator
   </desc>
   <path class="st10" d="M5.39 846.31 L99.1 846.31 A5.69331 5.69331 -180 0 0 104.79 840.62 L104.79 776.13 A5.99954 5.99954 -180 0 0 98.79
						 770.13 L5.39 770.13 A5.39013 5.39013 -180 0 0 0 775.52 L0 840.92 A5.39013 5.39013 -180 0 0 5.39 846.31 Z">
   </path>
   <text class="st28" x="9.83" y="805.22">
    32K Ultra Low Power
    <tspan class="st29" dy="1.2em" x="16.03">
     Internal Oscillator
    </tspan>
   </text>
  </g>
  <g transform="translate(275.718,-220.905)">
   <desc>
    1 KHz
   </desc>
   <rect class="st27" height="10.0362" width="35.5714" x="0" y="836.276">
   </rect>
   <text class="st31" x="7.65" y="843.69">
    1  KHz
   </text>
  </g>
  <g transform="translate(276.127,-172.454)">
   <desc>
    32 KHz
   </desc>
   <rect class="st27" height="10.0362" width="34.8037" x="0" y="836.276">
   </rect>
   <text class="st31" x="6.14" y="843.69">
    32 KHz
   </text>
  </g>
  <g transform="translate(79.375,-383.219)">
   <path class="st32" d="M0 832.13 L0 846.31 L10.31 839.65 L0 832.13 Z">
   </path>
  </g>
  <g transform="translate(91.6784,-369.134)">
   <path class="st17" d="M-8.95 844.1 L-9.05 830.52">
   </path>
  </g>
  <g transform="translate(0.5,-397.156)">
   <desc>
    Clock Source
   </desc>
   <rect class="st27" height="16.1622" width="63.5625" x="0" y="830.15">
   </rect>
   <text class="st28" x="5.91" y="841.23">
    Clock Source
   </text>
  </g>
  <g transform="translate(148.886,-342.886)">
   <desc>
    ÷
   </desc>
   <path class="st10" d="M4.77 846.31 L42.97 846.31 A4.77455 4.77455 -180 0 0 47.75 841.54 L47.75 819.1 A4.77455 4.77455 -180 0 0 42.97
						 814.32 L4.77 814.32 A4.77455 4.77455 -180 0 0 0 819.1 L0 841.54 A4.77455 4.77455 -180 0 0 4.77 846.31 Z">
   </path>
   <text class="st24" x="11.5" y="833.36">
    ÷
   </text>
  </g>
  <g transform="translate(1054.25,403.198) rotate(90)">
   <path class="st16" d="M0 846.31 L108.54 846.31 L90.45 828.31 L18.09 828.31 L0 846.31 Z">
   </path>
  </g>
  <g transform="translate(173.002,-466.625)">
   <g class="st1" id="shadow1030-453" transform="matrix(1,0,0,1,0,3)">
    <rect class="st2" height="164.625" width="245.25" x="0" y="681.688">
    </rect>
   </g>
   <rect class="st3" height="164.625" width="245.25" x="0" y="681.688">
   </rect>
  </g>
  <g transform="translate(185.446,-525.335)">
   <path class="st17" d="M0 837.31 L98.67 837.31">
   </path>
  </g>
  <g transform="translate(96.5973,-594.413)">
   <path class="st17" d="M0 837.31 L107.59 837.31">
   </path>
  </g>
  <g transform="translate(308.26,-521.622)">
   <path class="st17" d="M9 849.45 L9 861.17">
   </path>
  </g>
  <g transform="translate(284.054,-518.978)">
   <desc>
    ×
   </desc>
   <path class="st10" d="M6.79 846.31 L61.07 846.31 A6.78495 6.78495 -180 0 0 67.85 839.53 L67.85 822.89 A6.78495 6.78495 -180 0 0 61.07
						 816.1 L6.79 816.1 A6.78495 6.78495 -180 0 0 -0 822.89 L0 839.53 A6.78495 6.78495 -180 0 0 6.79 846.31 Z">
   </path>
   <text class="st24" x="9" y="834.51">
    ×
   </text>
  </g>
  <g transform="translate(351.904,-525.679)">
   <path class="st17" d="M0 837.43 L35.91 837.2">
   </path>
  </g>
  <g transform="translate(129.858,-604.146)">
   <desc>
    GCLK_DFLL
   </desc>
   <rect class="st5" height="9.28125" width="48.1974" x="0" y="837.031">
   </rect>
   <text class="st7" x="6.03" y="844.07">
    GCLK_DFLL
   </text>
  </g>
  <g transform="translate(220.824,-583.854)">
   <path class="st8" d="M0 837.76 L72.39 836.94">
   </path>
  </g>
  <g transform="translate(370.416,-584.488)">
   <path class="st8" d="M0 837.31 L83.91 837.31">
   </path>
  </g>
  <g transform="translate(299.233,-577.479)">
   <desc>
    DCO
   </desc>
   <path class="st10" d="M3.75 846.31 L66.75 846.31 A4.8158 4.8158 -180 0 0 71.57 841.5 L71.57 819.14 A4.8158 4.8158 -180 0 0 66.75 814.32
						 L4.87 814.32 A4.87488 4.87488 -180 0 0 -0 819.2 L0 842.56 A3.7499 3.7499 -180 0 0 3.75 846.31 Z">
   </path>
   <text class="st24" x="25.23" y="833.36">
    DCO
   </text>
  </g>
  <g transform="translate(119.419,-596.753)">
   <path class="st32" d="M0 832.13 L0 846.31 L10.31 839.65 L0 832.13 Z">
   </path>
  </g>
  <g transform="translate(115.24,-583.441)">
   <path class="st17" d="M9 844.55 L9 830.07">
   </path>
  </g>
  <g transform="translate(69.5,-614.156)">
   <desc>
    Clock Source
   </desc>
   <rect class="st27" height="20.0997" width="47.8929" x="0" y="826.213">
   </rect>
   <text class="st15" x="10.94" y="832.66">
    Clock
    <tspan class="st29" dy="1.2em" x="7.26">
     Source
    </tspan>
   </text>
  </g>
  <g transform="translate(198.28,-574.153)">
   <path class="st10" d="M0 810.31 L0 846.31 L27.56 828.31 L0 810.31 Z">
   </path>
  </g>
  <g transform="translate(185.083,-534.564)">
   <path class="st33" d="M13.5 792.04 L0 792.04 L0 846.31">
   </path>
  </g>
  <g transform="translate(396.675,-595.369)">
   <path class="st17" d="M-9 846.31 L-9 907.05">
   </path>
  </g>
  <g transform="translate(385.436,-591.365)">
   <path class="st18" d="M0 844.05 A2.26121 2.26121 0 0 1 4.52 844.05 A2.26121 2.26121 0 1 1 0 844.05 Z">
   </path>
  </g>
  <g transform="translate(559.538,-310.25)">
   <g class="st1" id="shadow1053-508" transform="matrix(1,0,0,1,0,3)">
    <rect class="st2" height="290.25" width="120.07" x="0" y="556.063">
    </rect>
   </g>
   <rect class="st3" height="290.25" width="120.07" x="0" y="556.063">
   </rect>
  </g>
  <g transform="translate(1415.24,246.375) rotate(90)">
   <path class="st16" d="M0 846.31 L288 846.31 L240 819.18 L48 819.18 L0 846.31 Z">
   </path>
  </g>
  <g transform="translate(629.833,-436.745)">
   <path class="st17" d="M9 846.31 L9 882.78">
   </path>
  </g>
  <g transform="translate(596.213,-451.57)">
   <path class="st8" d="M0 837.59 L15.88 837.19">
   </path>
  </g>
  <g transform="translate(569.789,1140.96) rotate(180)">
   <path class="st17" d="M0 846.31 L57.04 846.31">
   </path>
  </g>
  <g transform="translate(569.344,1325.24) rotate(180)">
   <path class="st17" d="M0 846.31 L56.59 846.31">
   </path>
  </g>
  <g transform="translate(569.638,1231.83) rotate(180)">
   <path class="st17" d="M0 846.31 L56.89 846.31">
   </path>
  </g>
  <g transform="translate(569.54,1262.42) rotate(180)">
   <path class="st17" d="M0 846.31 L56.79 846.31">
   </path>
  </g>
  <g transform="translate(569.54,1293) rotate(180)">
   <path class="st17" d="M0 846.31 L56.79 846.31">
   </path>
  </g>
  <g transform="translate(569.54,1171.82) rotate(180)">
   <path class="st17" d="M0 846.31 L56.79 846.31">
   </path>
  </g>
  <g transform="translate(569.638,1202.98) rotate(180)">
   <path class="st17" d="M0 846.31 L56.89 846.31">
   </path>
  </g>
  <g transform="translate(660.307,-452.124)">
   <path class="st8" d="M0 846.31 L62.96 846.31">
   </path>
  </g>
  <g transform="translate(671.32,-461.189)">
   <desc>
    GCLK1
   </desc>
   <rect class="st5" height="14.0019" width="41.6816" x="0" y="832.311">
   </rect>
   <text class="st7" x="10.4" y="841.71">
    GCLK1
   </text>
  </g>
  <g transform="translate(574.332,-577.957)">
   <desc>
    GCLK Generator 1
   </desc>
   <rect class="st5" height="14.0019" width="92.4649" x="0" y="832.311">
   </rect>
   <text class="st6" x="17.22" y="841.71">
    GCLK Generator 1
   </text>
  </g>
  <g transform="translate(617.688,-436.486)">
   <desc>
    ÷
   </desc>
   <path class="st10" d="M3.37 846.31 L46.53 846.31 A3.6591 3.6591 -180 0 0 50.18 842.65 L50.18 801.42 A3.3635 3.3635 -180 0 0 46.82
						 798.05 L3.37 798.05 A3.36588 3.36588 -180 0 0 0 801.42 L0 842.95 A3.36588 3.36588 -180 0 0 3.37 846.31 Z">
   </path>
   <text class="st24" x="6.5" y="825.22">
    ÷
   </text>
  </g>
  <g transform="translate(562.252,-7.50001)">
   <g class="st1" id="shadow1068-558" transform="matrix(1,0,0,1,0,3)">
    <rect class="st2" height="268.875" width="118.125" x="0" y="577.438">
    </rect>
   </g>
   <rect class="st3" height="268.875" width="118.125" x="0" y="577.438">
   </rect>
  </g>
  <g transform="translate(1415.77,576.563) rotate(90)">
   <path class="st16" d="M0 846.31 L257.62 846.31 L214.69 819.76 L42.94 819.76 L0 846.31 Z">
   </path>
  </g>
  <g transform="translate(568.06,-265.369)">
   <desc>
    GCLK Generator x (x=2-8)
   </desc>
   <rect class="st5" height="9.28125" width="90.4891" x="0" y="837.031">
   </rect>
   <text class="st6" x="4.19" y="844.07">
    GCLK Generator x (x=2-8)
   </text>
  </g>
  <g transform="translate(678.151,-155.255)">
   <desc>
    GCLKx
   </desc>
   <rect class="st5" height="9.28125" width="29.6961" x="0" y="837.031">
   </rect>
   <text class="st7" x="4.7" y="844.07">
    GCLKx
   </text>
  </g>
  <g transform="translate(638.578,-138.328)">
   <path class="st17" d="M9 846.31 L9 870.48">
   </path>
  </g>
  <g transform="translate(615.25,-138.156)">
   <desc>
    ÷
   </desc>
   <path class="st10" d="M4.4 846.31 L57.13 846.31 A4.18407 4.18407 -180 0 0 61.31 842.13 L61.31 818.51 A4.18407 4.18407 -180 0 0 57.13
						 814.32 L3.86 814.32 A3.85696 3.85696 -180 0 0 0 818.18 L0 841.91 A4.39869 4.39869 -180 0 0 4.4 846.31 Z">
   </path>
   <text class="st24" x="6.5" y="833.36">
    ÷
   </text>
  </g>
  <g transform="translate(569.005,1461.12) rotate(180)">
   <path class="st17" d="M0 846.31 L53.25 846.31">
   </path>
  </g>
  <g transform="translate(568.839,1601.95) rotate(180)">
   <path class="st17" d="M0 846.31 L53.09 846.31">
   </path>
  </g>
  <g transform="translate(568.819,1531.1) rotate(180)">
   <path class="st17" d="M0 846.31 L53.07 846.31">
   </path>
  </g>
  <g transform="translate(569.097,1553.13) rotate(180)">
   <path class="st17" d="M0 846.31 L53.35 846.31">
   </path>
  </g>
  <g transform="translate(569.19,1577.42) rotate(180)">
   <path class="st17" d="M0 846.31 L53.44 846.31">
   </path>
  </g>
  <g transform="translate(569.005,1484.53) rotate(180)">
   <path class="st17" d="M0 846.31 L53.25 846.31">
   </path>
  </g>
  <g transform="translate(569.097,1509.25) rotate(180)">
   <path class="st17" d="M0 846.31 L53.35 846.31">
   </path>
  </g>
  <g id="clk_sam_l10_l11-gclk-input-pin" transform="translate(568.898,1630.08) rotate(180)">
   <path class="st17" d="M0 846.31 L53.15 846.31">
   </path>
  </g>
  <g transform="translate(676.651,-155.255)">
   <path class="st8" d="M0 846.31 L62.96 846.31">
   </path>
  </g>
  <g transform="translate(596.5,-146.875)">
   <path class="st34" d="M0 837.41 L11.34 837.29">
   </path>
  </g>
  <g transform="translate(593.268,1536.65) rotate(-179.459)">
   <path class="st17" d="M0 846.31 L4.97 846.31">
   </path>
  </g>
  <g transform="translate(118.5,-27.1563)">
   <desc>
    XOUT32
   </desc>
   <rect class="st27" height="20.0997" width="49.4029" x="0" y="826.213">
   </rect>
   <text class="st15" x="4.76" y="839.86">
    XOUT32
   </text>
  </g>
  <g transform="translate(851.946,-512.469)">
   <g class="st1" id="shadow1086-618" transform="matrix(1,0,0,1,0,3)">
    <rect class="st2" height="143.125" width="145.83" x="0" y="703.188">
    </rect>
   </g>
   <rect class="st3" height="143.125" width="145.83" x="0" y="703.188">
   </rect>
  </g>
  <g transform="translate(958.607,-550.167)">
   <path class="st17" d="M-8.82 846.31 L-9.18 814.85">
   </path>
  </g>
  <g transform="translate(888.887,-577.219)">
   <path class="st17" d="M0 837.31 L53.85 837.31">
   </path>
  </g>
  <g transform="translate(860.052,1106.03) rotate(-179.584)">
   <path class="st17" d="M0 846.31 L64.14 846.31">
   </path>
  </g>
  <g transform="translate(866.036,1057.66) rotate(180)">
   <path class="st17" d="M0 846.31 L63.98 846.31">
   </path>
  </g>
  <g transform="translate(866.036,1082.32) rotate(180)">
   <path class="st17" d="M0 846.31 L64.66 846.31">
   </path>
  </g>
  <g transform="translate(872.818,-640.594)">
   <desc>
    Peripheral Clock Selection
   </desc>
   <rect class="st5" height="10.5427" width="117.063" x="0" y="835.77">
   </rect>
   <text class="st6" x="16.37" y="843.44">
    Peripheral Clock Selection
   </text>
  </g>
  <g transform="translate(951.642,-576.852)">
   <path class="st8" d="M0 837.41 L125.67 837.23">
   </path>
  </g>
  <g transform="translate(943.508,-578.301)">
   <path class="st10" d="M0 830.21 L0 846.31 L12.38 838.75 L0 830.21 Z">
   </path>
  </g>
  <g transform="translate(1084.11,-573.707)">
   <desc>
    Peripherals
   </desc>
   <g class="st1" id="shadow1095-648" transform="matrix(1,0,0,1,0.345598,1.97279)">
    <rect class="st13" height="23.6412" width="77.3767" x="0" y="822.671">
    </rect>
   </g>
   <rect class="st14" height="23.6412" width="77.3767" x="0" y="822.671">
   </rect>
   <text class="st15" x="11.15" y="838.09">
    Peripherals
   </text>
  </g>
  <g transform="translate(794.443,-637.219)">
   <desc>
    GCLK0
   </desc>
   <rect class="st5" height="10.5427" width="39.5844" x="0" y="835.77">
   </rect>
   <text class="st7" x="9.35" y="843.44">
    GCLK0
   </text>
  </g>
  <g transform="translate(796.545,-610.621)">
   <desc>
    GCLK1
   </desc>
   <rect class="st5" height="12.4775" width="39.5844" x="0" y="833.835">
   </rect>
   <text class="st7" x="9.35" y="842.47">
    GCLK1
   </text>
  </g>
  <g transform="translate(796.545,-587.059)">
   <desc>
    GCLK2
   </desc>
   <rect class="st5" height="12.4775" width="39.5844" x="0" y="833.835">
   </rect>
   <text class="st7" x="9.35" y="842.47">
    GCLK2
   </text>
  </g>
  <g transform="translate(796.545,-564.452)">
   <desc>
    GCLK3
   </desc>
   <rect class="st5" height="12.4775" width="39.5844" x="0" y="833.835">
   </rect>
   <text class="st7" x="9.35" y="842.47">
    GCLK3
   </text>
  </g>
  <g transform="translate(860.418,1130.05) rotate(-179.584)">
   <path class="st17" d="M0 846.31 L64.14 846.31">
   </path>
  </g>
  <g transform="translate(861.282,1155.21) rotate(-179.584)">
   <path class="st17" d="M0 846.31 L64.14 846.31">
   </path>
  </g>
  <g transform="translate(796.545,-537.993)">
   <desc>
    GCLK4
   </desc>
   <rect class="st5" height="12.4775" width="39.5844" x="0" y="833.835">
   </rect>
   <text class="st7" x="9.35" y="842.47">
    GCLK4
   </text>
  </g>
  <g transform="translate(1710.13,189.969) rotate(90)">
   <path class="st16" d="M0 846.31 L142.87 846.31 L119.06 818.19 L23.81 818.19 L0 846.31 Z">
   </path>
  </g>
  <g transform="translate(674.424,-751.214)">
   <path class="st17" d="M0 855.27 L88.51 855.35">
   </path>
  </g>
  <g transform="translate(754.074,-741.891)">
   <path class="st17" d="M9 846.31 L9 801.73">
   </path>
  </g>
  <g transform="translate(230.574,-620.156)">
   <desc>
    Digital Frequency Locked Loop (DFLLULP)
   </desc>
   <rect class="st5" height="9.28125" width="153.436" x="0" y="837.031">
   </rect>
   <text class="st6" x="9.93" y="844.07">
    Digital Frequency Locked Loop (DFLLULP)
   </text>
  </g>
  <g transform="translate(419.094,-596.766)">
   <desc>
    DFLLULP
   </desc>
   <rect class="st5" height="9.28125" width="51.9583" x="0" y="837.031">
   </rect>
   <text class="st7" x="12" y="844.07">
    DFLLULP
   </text>
  </g>
 </g>
</svg>
