<?xml version="1.0" encoding="UTF-8" standalone="no"?>
<!DOCTYPE svg PUBLIC "-//W3C//DTD SVG 1.1//EN" "http://www.w3.org/Graphics/SVG/1.1/DTD/svg11.dtd">
<!-- Generated by Microsoft Visio, SVG Export adc_u2247.svg Page-1 -->
<svg class="st35" color-interpolation-filters="sRGB" height="4.83304in" viewBox="0 0 782.965 347.979" width="10.8745in" xml:space="preserve" xmlns="http://www.w3.org/2000/svg" xmlns:xlink="http://www.w3.org/1999/xlink">
 <style type="text/css">
  .st1 {visibility:visible}
		.st2 {fill:#5b9bd5;fill-opacity:0.22;filter:url(#filter_2);stroke:#5b9bd5;stroke-opacity:0.22}
		.st3 {fill:#ffffff;stroke:#70ad47;stroke-width:0.75}
		.st4 {fill:#f2f2f2;stroke:#c8c8c8;stroke-width:0.25}
		.st5 {marker-start:url(#mrkr5-13);stroke:#000000;stroke-linecap:round;stroke-linejoin:round;stroke-width:1}
		.st6 {fill:#000000;fill-opacity:1;stroke:#000000;stroke-opacity:1;stroke-width:0.28409090909091}
		.st7 {stroke:#000000;stroke-linecap:round;stroke-linejoin:round;stroke-width:1}
		.st8 {fill:none;stroke:none;stroke-width:0.25}
		.st9 {fill:#000000;font-family:Calibri;font-size:0.666664em}
		.st10 {marker-end:url(#mrkr5-28);stroke:#000000;stroke-linecap:round;stroke-linejoin:round;stroke-width:1}
		.st11 {fill:#d5e8d4;stroke:#82b366;stroke-width:0.5}
		.st12 {fill:#000000;font-family:Calibri;font-size:0.833336em}
		.st13 {font-size:1em}
		.st14 {fill:#000000;font-family:Times New Roman;font-size:1.00001em;font-weight:bold}
		.st15 {fill:#0070c0;font-family:Calibri;font-size:0.666664em}
		.st16 {fill:#0070c0;font-family:Calibri;font-size:0.708344em}
		.st17 {marker-end:url(#mrkr5-28);stroke:#000000;stroke-width:1}
		.st18 {fill:#f8cecc;stroke:#c8c8c8;stroke-width:0.25}
		.st19 {fill:#000000;font-family:Calibri;font-size:0.916672em}
		.st20 {fill:#ededed;stroke:#c7c8c8;stroke-width:0.25}
		.st21 {fill:#000000;font-family:Calibri;font-size:0.708344em}
		.st22 {fill:#ffffff;stroke:#000000;stroke-width:0.25}
		.st23 {fill:#000000;stroke:#000000;stroke-width:0.25}
		.st24 {fill:#000000;stroke:#c7c8c8;stroke-width:0.25}
		.st25 {stroke:#000000;stroke-width:1}
		.st26 {fill:#dae8fc;stroke:#6c8ebf;stroke-width:0.5}
		.st27 {fill:#0070c0;font-family:Calibri;font-size:0.583328em}
		.st28 {stroke:#000000;stroke-dasharray:1,2;stroke-linecap:round;stroke-linejoin:round;stroke-width:1}
		.st29 {fill:none;stroke:none;stroke-width:1}
		.st30 {fill:#0070c0;font-family:Calibri;font-size:0.75em}
		.st31 {fill:#000000;stroke:#000000;stroke-width:0.5}
		.st32 {fill:#fff0e1;stroke:#d79b00;stroke-width:0.5}
		.st33 {fill:#000000;font-family:Calibri;font-size:1.16666em;font-weight:bold}
		.st34 {fill:#ffffff;stroke:#82b366;stroke-width:0.5}
		.st35 {fill:none;fill-rule:evenodd;font-size:12px;overflow:visible;stroke-linecap:square;stroke-miterlimit:3}
 </style>
 <defs id="Markers">
  <g id="lend5">
   <path d="M 2 1 L 0 0 L 1.98117 -0.993387 C 1.67173 -0.364515 1.67301 0.372641 1.98465 1.00043 " style="stroke:none">
   </path>
  </g>
  <marker class="st6" id="mrkr5-13" markerUnits="strokeWidth" orient="auto" overflow="visible" refX="5.8">
   <use transform="scale(3.52) " xlink:href="#lend5">
   </use>
  </marker>
  <marker class="st6" id="mrkr5-28" markerUnits="strokeWidth" orient="auto" overflow="visible" refX="-6.16">
   <use transform="scale(-3.52,-3.52) " xlink:href="#lend5">
   </use>
  </marker>
 </defs>
 <defs id="Filters">
  <filter id="filter_2">
   <feGaussianBlur stdDeviation="2">
   </feGaussianBlur>
  </filter>
 </defs>
 <g>
  <g transform="translate(74.6327,-5.34779)">
   <g class="st1" id="shadow459-2" transform="matrix(1,0,0,1,0.345598,1.97279)">
    <rect class="st2" height="341.229" width="633.617" x="0" y="6.75001">
    </rect>
   </g>
   <rect class="st3" height="341.229" width="633.617" x="0" y="6.75001">
   </rect>
  </g>
  <g transform="translate(81.0625,-9.57398)">
   <rect class="st4" height="178.312" width="276.75" x="0" y="169.667">
   </rect>
  </g>
  <g transform="translate(194.821,587.319) rotate(180)">
   <path class="st5" d="M5.8 347.98 L6.16 347.98 L48.38 347.98">
   </path>
  </g>
  <g transform="translate(61.9952,-234.313)">
   <path class="st7" d="M0 347.98 L55.63 347.98">
   </path>
  </g>
  <g transform="translate(64.3536,-258.741)">
   <path class="st7" d="M0 339.11 L53.83 338.85">
   </path>
  </g>
  <g transform="translate(4,-263.395)">
   <desc>
    Start Event
   </desc>
   <rect class="st8" height="7.72984" width="52.3651" x="0" y="340.249">
   </rect>
   <text class="st9" x="12.52" y="346.51">
    Start Event
   </text>
  </g>
  <g transform="translate(625.629,94.6099) rotate(89.7456)">
   <path class="st10" d="M0 347.98 L57.78 347.98">
   </path>
  </g>
  <g transform="translate(242.061,-252.018)">
   <desc>
    Channel Sequencer
   </desc>
   <g class="st1" id="shadow134-30" transform="matrix(1,0,0,1,0.345598,1.97279)">
    <rect class="st2" height="28.4062" width="66.5296" x="0" y="319.573">
    </rect>
   </g>
   <rect class="st11" height="28.4062" width="66.5296" x="0" y="319.573">
   </rect>
   <text class="st12" x="16.69" y="330.78">
    Channel
    <tspan class="st13" dy="1.2em" x="11.77">
     Sequencer
    </tspan>
   </text>
  </g>
  <g transform="translate(225.229,-275.357)">
   <path class="st10" d="M0 347.98 L10.78 347.98">
   </path>
  </g>
  <g transform="translate(546.813,-251.616)">
   <path class="st7" d="M9 347.98 L9 325.02">
   </path>
  </g>
  <g transform="translate(724,406.962) rotate(180)">
   <path class="st10" d="M0 347.98 L138.68 347.98">
   </path>
  </g>
  <g transform="translate(531.625,-274.699)">
   <desc>
    รท
   </desc>
   <path class="st11" d="M4.77 347.98 L42.97 347.98 A4.77455 4.77455 -180 0 0 47.75 343.2 L47.75 324.44 A4.77455 4.77455 -180 0 0 42.97
						 319.67 L4.77 319.67 A4.77455 4.77455 -180 0 0 0 324.44 L0 343.2 A4.77455 4.77455 -180 0 0 4.77 347.98 Z">
   </path>
   <text class="st14" x="13" y="337.45">
    รท
   </text>
  </g>
  <g transform="translate(173.821,-179.074)">
   <desc>
    Result Resolution
   </desc>
   <rect class="st8" height="7.09554" width="69" x="0" y="340.884">
   </rect>
   <text class="st15" x="6.19" y="346.83">
    Result Resolution
   </text>
  </g>
  <g transform="translate(552.958,184.955) rotate(90)">
   <path class="st10" d="M0 347.98 L41.73 347.98">
   </path>
  </g>
  <g transform="translate(205.964,-49.7526)">
   <desc>
    Conversion Time
   </desc>
   <rect class="st8" height="15.533" width="69.8523" x="0" y="332.446">
   </rect>
   <text class="st16" x="6.04" y="342.76">
    Conversion Time
   </text>
  </g>
  <g transform="translate(286.204,-280.911)">
   <path class="st5" d="M-9 342.18 L-9 341.82 L-9 320.32">
   </path>
  </g>
  <g transform="translate(373.841,-9.57398)">
   <rect class="st4" height="178.594" width="199.409" x="0" y="169.385">
   </rect>
  </g>
  <g transform="translate(312.529,-187.886)">
   <path class="st17" d="M218.53 247.86 L0 247.86 L0 341.82">
   </path>
  </g>
  <g transform="translate(139.729,-300.255)">
   <desc>
    Free Run
   </desc>
   <rect class="st8" height="7.09554" width="67.0173" x="0" y="340.884">
   </rect>
   <text class="st9" x="4" y="346.83">
    Free Run
   </text>
  </g>
  <g transform="translate(142.547,-297.351)">
   <path class="st7" d="M0 347.98 L70.7 347.98">
   </path>
  </g>
  <g transform="translate(139.729,-281.005)">
   <desc>
    Software Trigger
   </desc>
   <rect class="st8" height="7.09554" width="69.0423" x="0" y="340.884">
   </rect>
   <text class="st9" x="4" y="346.83">
    Software Trigger
   </text>
  </g>
  <g transform="translate(173.125,-233.824)">
   <desc>
    Conversion Trigger
   </desc>
   <rect class="st8" height="7.09554" width="75.1473" x="0" y="340.884">
   </rect>
   <text class="st15" x="7.03" y="346.83">
    Conversion Trigger
   </text>
  </g>
  <g transform="translate(723.744,-274.844)">
   <desc>
    GCLK
   </desc>
   <g class="st1" id="shadow138-88" transform="matrix(1,0,0,1,0.345598,1.97279)">
    <rect class="st2" height="28.4062" width="55.75" x="0" y="319.573">
    </rect>
   </g>
   <rect class="st18" height="28.4062" width="55.75" x="0" y="319.573">
   </rect>
   <text class="st19" x="16.3" y="337.08">
    GCLK
   </text>
  </g>
  <g transform="translate(323.216,-188.168)">
   <path class="st17" d="M30.75 264.17 L0 264.17 L0 341.82">
   </path>
  </g>
  <g transform="translate(585.812,-135.611)">
   <desc>
    Result Register
   </desc>
   <rect class="st8" height="7.09554" width="59.625" x="0" y="340.884">
   </rect>
   <text class="st9" x="5.57" y="346.83">
    Result Register
   </text>
  </g>
  <g transform="translate(784.179,302.131) rotate(90)">
   <path class="st7" d="M0 347.98 L10.64 347.98">
   </path>
  </g>
  <g transform="translate(387.586,-46.0501)">
   <g class="st1" id="shadow232-105" transform="matrix(1,0,0,1,0.345598,1.97279)">
    <rect class="st2" height="97.3687" width="103.859" x="0" y="250.61">
    </rect>
   </g>
   <rect class="st20" height="97.3687" width="103.859" x="0" y="250.61">
   </rect>
  </g>
  <g transform="translate(380.479,-189.871)">
   <desc>
    Automatic Window Comparison
   </desc>
   <rect class="st8" height="14.85" width="192.81" x="0" y="333.129">
   </rect>
   <text class="st21" x="41.23" y="343.1">
    Automatic Window Comparison
   </text>
  </g>
  <g transform="translate(583.703,-87.1059)">
   <desc>
    WINMON Interrupt
   </desc>
   <rect class="st8" height="11.8125" width="71.8043" x="0" y="336.167">
   </rect>
   <text class="st9" x="4.43" y="344.47">
    WINMON Interrupt
   </text>
  </g>
  <g transform="translate(407.217,-9.32605)">
   <desc>
    Comparsion Mode
   </desc>
   <rect class="st8" height="14.505" width="69.6" x="0" y="333.474">
   </rect>
   <text class="st15" x="4.73" y="343.13">
    Comparsion Mode
   </text>
  </g>
  <g transform="translate(135.318,-259.799)">
   <path class="st7" d="M0 347.98 L81.63 347.98">
   </path>
  </g>
  <g transform="translate(141.917,-278.943)">
   <path class="st7" d="M0 347.98 L70.91 347.98">
   </path>
  </g>
  <g transform="translate(56.4196,-263.773)">
   <g>
    <rect class="st22" height="7.63592" width="7.63592" x="0" y="340.343">
    </rect>
   </g>
   <g transform="translate(-242.222,105.506) rotate(-45)">
    <path class="st23" d="M0 342.73 L5.22 342.73 L5.22 347.98 L5.22 342.73 L10.44 342.73 L5.22 342.73 L5.22 337.48 L5.22 342.73 L0
							 342.73 Z">
    </path>
   </g>
  </g>
  <g transform="translate(139.729,-262.588)">
   <desc>
    Hardware Trigger
   </desc>
   <rect class="st8" height="7.09554" width="68.8173" x="0" y="340.884">
   </rect>
   <text class="st9" x="4" y="346.83">
    Hardware Trigger
   </text>
  </g>
  <g transform="translate(557.125,-255.949)">
   <desc>
    Prescaler
   </desc>
   <rect class="st8" height="5.0625" width="38.925" x="0" y="342.917">
   </rect>
   <text class="st15" x="4.54" y="347.85">
    Prescaler
   </text>
  </g>
  <g transform="translate(430.091,-89.9813)">
  </g>
  <g transform="translate(381.195,-77.5501)">
   <path class="st17" d="M0.48 347.98 L0 266.34 L201.97 266.61">
   </path>
  </g>
  <g transform="translate(438.625,-122.373)">
   <path class="st7" d="M0 347.98 L4.1 347.98">
   </path>
  </g>
  <g transform="translate(443.849,585.985) rotate(-179.943)">
   <path class="st7" d="M0 347.98 L61.95 347.98">
   </path>
  </g>
  <g transform="translate(443.35,618.758) rotate(180)">
   <path class="st7" d="M0 347.98 L61.67 347.98">
   </path>
  </g>
  <g transform="translate(393.338,-132.248)">
   <desc>
    VHi
   </desc>
   <rect class="st8" height="6.95788" width="21.8375" x="0" y="341.021">
   </rect>
   <text class="st15" x="5.24" y="346.9">
    VHi
   </text>
  </g>
  <g transform="translate(394.15,-48.724)">
   <desc>
    VLo
   </desc>
   <rect class="st8" height="6.60938" width="22.1042" x="0" y="341.37">
   </rect>
   <text class="st15" x="4.99" y="347.07">
    VLo
   </text>
  </g>
  <g transform="translate(486.945,-93.0978)">
   <path class="st7" d="M0 347.98 L36.56 347.98">
   </path>
  </g>
  <g transform="translate(380.505,-108.956)">
   <g class="st1" id="shadow395-160" transform="matrix(1,0,0,1,0.345598,1.97279)">
    <ellipse class="st2" cx="1.125" cy="346.854" rx="1.125" ry="1.125">
    </ellipse>
   </g>
   <ellipse class="st24" cx="1.125" cy="346.854" rx="1.125" ry="1.125">
   </ellipse>
  </g>
  <g transform="translate(496.582,-91.9618)">
   <g class="st1" id="shadow402-165" transform="matrix(1,0,0,1,0.345598,1.97279)">
    <ellipse class="st2" cx="1.125" cy="346.854" rx="1.125" ry="1.125">
    </ellipse>
   </g>
   <ellipse class="st24" cx="1.125" cy="346.854" rx="1.125" ry="1.125">
   </ellipse>
  </g>
  <g transform="translate(874.77,258.054) rotate(90)">
   <path class="st7" d="M0 347.98 L8.73 347.98">
   </path>
  </g>
  <g transform="translate(532.589,-93.0602) rotate(-0.0483052)">
   <path class="st10" d="M0 347.98 L47.14 347.98">
   </path>
  </g>
  <g transform="translate(380.875,603.951) rotate(180)">
   <path class="st7" d="M0 347.98 L99.05 347.98">
   </path>
  </g>
  <g transform="translate(467.72,-95.5673)">
   <path class="st25" d="M0 327.73 L3.86 327.73 L3.86 347.84 L9.06 347.98">
   </path>
  </g>
  <g transform="translate(467.72,-70.1141)">
   <path class="st25" d="M0 347.98 L4.15 347.98 L4.15 327.17 L9.55 327.17">
   </path>
  </g>
  <g transform="translate(442.949,-102.783)">
   <path class="st11" d="M0 321.66 L24.86 334.95 L0.48 347.98 L0 321.66 Z">
   </path>
  </g>
  <g transform="translate(438.813,-64.2647)">
   <path class="st7" d="M0 347.98 L4.62 347.98">
   </path>
  </g>
  <g transform="translate(500.174,-57.3686)">
   <desc>
    WINMON Interrupt
   </desc>
   <rect class="st8" height="11.8125" width="71.6042" x="0" y="336.167">
   </rect>
   <text class="st15" x="4.33" y="344.47">
    WINMON Interrupt
   </text>
  </g>
  <g transform="translate(195.25,626.28) rotate(180)">
   <path class="st5" d="M5.8 347.98 L6.16 347.98 L48.75 347.98">
   </path>
  </g>
  <g transform="translate(490.674,205.543) rotate(90)">
   <path class="st7" d="M0 347.98 L11.1 347.98">
   </path>
  </g>
  <g transform="translate(490.729,296.459) rotate(90)">
   <path class="st7" d="M0 347.98 L19.45 347.98">
   </path>
  </g>
  <g transform="translate(485.854,260.486) rotate(90)">
   <path class="st26" d="M0 347.98 L45.67 347.98 L38.06 339.73 L7.61 339.73 L0 347.98 Z">
   </path>
  </g>
  <g transform="translate(145.695,-111.264)">
   <desc>
    +ve
   </desc>
   <rect class="st8" height="5.34375" width="22.5" x="0" y="342.635">
   </rect>
   <text class="st9" x="5.46" y="347.71">
    +ve
   </text>
  </g>
  <g transform="translate(143.029,-62.8478)">
   <desc>
    -ve
   </desc>
   <rect class="st8" height="5.34375" width="22.5" x="0" y="342.635">
   </rect>
   <text class="st9" x="6.23" y="347.71">
    -ve
   </text>
  </g>
  <g transform="translate(497.633,-47.8165)">
   <path class="st17" d="M0 302.97 L0 347.98 L82.96 347.47">
   </path>
  </g>
  <g transform="translate(869.82,248.057) rotate(90)">
   <g class="st1" id="shadow443-219" transform="matrix(1,0,0,1,1.97279,-0.345598)">
    <path class="st2" d="M0 347.98 L13.68 347.98 L6.84 336.58 L0 347.98 Z">
    </path>
   </g>
   <path class="st11" d="M0 347.98 L13.68 347.98 L6.84 336.58 L0 347.98 Z">
   </path>
  </g>
  <g transform="translate(876.249,298.756) rotate(90)">
   <path class="st7" d="M0 347.98 L12.09 347.98">
   </path>
  </g>
  <g transform="translate(871.154,293.057) rotate(90)">
   <g class="st1" id="shadow403-227" transform="matrix(1,0,0,1,1.97279,-0.345598)">
    <path class="st2" d="M0 347.98 L13.68 347.98 L6.84 336.58 L0 347.98 Z">
    </path>
   </g>
   <path class="st11" d="M0 347.98 L13.68 347.98 L6.84 336.58 L0 347.98 Z">
   </path>
  </g>
  <g transform="translate(500.508,-15.827)">
   <desc>
    WINMON EVENT OUT
   </desc>
   <rect class="st8" height="11.8125" width="71.6042" x="0" y="336.167">
   </rect>
   <text class="st27" x="4.76" y="344.17">
    WINMON EVENT OUT
   </text>
  </g>
  <g transform="translate(585.424,-42.327)">
   <desc>
    EVENT
   </desc>
   <rect class="st8" height="11.8125" width="30.375" x="0" y="336.167">
   </rect>
   <text class="st9" x="4.48" y="344.47">
    EVENT
   </text>
  </g>
  <g transform="translate(641.82,-163.697) rotate(0.176139)">
   <path class="st10" d="M0 347.98 L41.28 347.98">
   </path>
  </g>
  <g transform="translate(640.75,-147.514)">
   <path class="st10" d="M0 347.98 L41.46 347.98">
   </path>
  </g>
  <g transform="translate(639.25,-190.967)">
   <desc>
    Result Interrupt
   </desc>
   <rect class="st8" height="7.09554" width="59.625" x="0" y="340.884">
   </rect>
   <text class="st15" x="4.05" y="346.83">
    Result Interrupt
   </text>
  </g>
  <g transform="translate(637.964,-114.853)">
   <desc>
    Result Event
   </desc>
   <rect class="st8" height="7.09554" width="59.625" x="0" y="340.884">
   </rect>
   <text class="st15" x="9.63" y="346.83">
    Result Event
   </text>
  </g>
  <g transform="translate(4,-230.556)">
   <desc>
    Flush Event
   </desc>
   <rect class="st8" height="7.72984" width="52.3651" x="0" y="340.249">
   </rect>
   <text class="st9" x="11.13" y="346.51">
    Flush Event
   </text>
  </g>
  <g transform="translate(438.979,54.9949) rotate(90)">
   <g class="st1" id="shadow467-257" transform="matrix(1,0,0,1,1.97279,-0.345598)">
    <path class="st2" d="M0 347.98 L13.68 347.98 L6.84 336.58 L0 347.98 Z">
    </path>
   </g>
   <path class="st11" d="M0 347.98 L13.68 347.98 L6.84 336.58 L0 347.98 Z">
   </path>
  </g>
  <g transform="translate(469.729,124.923) rotate(90)">
   <path class="st7" d="M0 347.98 L16.04 347.98">
   </path>
  </g>
  <g transform="translate(82.375,-234.681)">
   <path class="st25" d="M0 347.98 L0 328.85 L7.87 328.85">
   </path>
  </g>
  <g transform="translate(438.604,87.2449) rotate(90)">
   <g class="st1" id="shadow468-268" transform="matrix(1,0,0,1,1.97279,-0.345598)">
    <path class="st2" d="M0 347.98 L13.68 347.98 L6.84 336.58 L0 347.98 Z">
    </path>
   </g>
   <path class="st11" d="M0 347.98 L13.68 347.98 L6.84 336.58 L0 347.98 Z">
   </path>
  </g>
  <g transform="translate(469.729,32.9677) rotate(90)">
   <path class="st7" d="M0 347.98 L19.98 347.98">
   </path>
  </g>
  <g transform="translate(626.961,284.727) rotate(90)">
   <path class="st5" d="M5.8 347.98 L6.16 347.98 L33.47 347.98">
   </path>
  </g>
  <g transform="translate(243.839,-13.1097)">
   <desc>
    Select Reference
   </desc>
   <rect class="st8" height="5.34375" width="91.5417" x="0" y="342.635">
   </rect>
   <text class="st15" x="18.56" y="347.71">
    Select Reference
   </text>
  </g>
  <g transform="translate(1010.85,162.611) rotate(89.6737)">
   <path class="st7" d="M0 347.98 L16.22 347.98">
   </path>
  </g>
  <g transform="translate(1005.55,177.502) rotate(90)">
   <g class="st1" id="shadow486-287" transform="matrix(1,0,0,1,1.97279,-0.345598)">
    <path class="st2" d="M0 347.98 L13.68 347.98 L6.84 336.58 L0 347.98 Z">
    </path>
   </g>
   <path class="st11" d="M0 347.98 L13.68 347.98 L6.84 336.58 L0 347.98 Z">
   </path>
  </g>
  <g transform="translate(1011.23,203.506) rotate(90)">
   <path class="st7" d="M0 347.98 L15.27 347.98">
   </path>
  </g>
  <g transform="translate(1005.98,193.578) rotate(90)">
   <g class="st1" id="shadow489-295" transform="matrix(1,0,0,1,1.97279,-0.345598)">
    <path class="st2" d="M0 347.98 L13.68 347.98 L6.84 336.58 L0 347.98 Z">
    </path>
   </g>
   <path class="st11" d="M0 347.98 L13.68 347.98 L6.84 336.58 L0 347.98 Z">
   </path>
  </g>
  <g transform="translate(58,-130.605)">
   <path class="st7" d="M0 347.98 L81 347.98">
   </path>
  </g>
  <g transform="translate(402.97,218.462) rotate(89.5772)">
   <path class="st28" d="M0 347.98 L25.41 347.98">
   </path>
  </g>
  <g transform="translate(485.854,211.736) rotate(90)">
   <path class="st26" d="M0 347.98 L45.67 347.98 L38.06 339.73 L7.61 339.73 L0 347.98 Z">
   </path>
  </g>
  <g transform="translate(58.375,-96.199)">
   <path class="st7" d="M0 347.98 L79.12 347.98">
   </path>
  </g>
  <g transform="translate(58.375,-81.574)">
   <path class="st7" d="M0 347.98 L79.12 347.98">
   </path>
  </g>
  <g transform="translate(58.375,-46.699)">
   <path class="st7" d="M0 347.98 L79.12 347.98">
   </path>
  </g>
  <g transform="translate(82.9816,-268.15)">
   <path class="st25" d="M0 347.98 L0 329.98 L7.41 329.98">
   </path>
  </g>
  <g transform="translate(101.875,-286.056)">
   <path class="st7" d="M0 347.98 L16.12 347.98">
   </path>
  </g>
  <g transform="translate(465.979,45.9052) rotate(90)">
   <path class="st26" d="M0 347.98 L40.77 347.98 L33 340.67 L7.77 340.67 L0 347.98 Z">
   </path>
  </g>
  <g transform="translate(100.75,-253.678)">
   <path class="st7" d="M0 347.98 L16.87 347.98">
   </path>
  </g>
  <g transform="translate(101.125,-284.931)">
   <g class="st1" id="shadow616-328" transform="matrix(1,0,0,1,0.345598,1.97279)">
    <ellipse class="st2" cx="1.125" cy="346.854" rx="1.125" ry="1.125">
    </ellipse>
   </g>
   <ellipse class="st24" cx="1.125" cy="346.854" rx="1.125" ry="1.125">
   </ellipse>
  </g>
  <g transform="translate(100.375,-252.365)">
   <g class="st1" id="shadow619-333" transform="matrix(1,0,0,1,0.345598,1.97279)">
    <ellipse class="st2" cx="1.125" cy="346.854" rx="1.125" ry="1.125">
    </ellipse>
   </g>
   <ellipse class="st24" cx="1.125" cy="346.854" rx="1.125" ry="1.125">
   </ellipse>
  </g>
  <g transform="translate(56.5,-230.481)">
   <g>
    <rect class="st22" height="7.63592" width="7.63592" x="0" y="340.343">
    </rect>
   </g>
   <g transform="translate(-242.222,105.506) rotate(-45)">
    <path class="st23" d="M0 342.73 L5.22 342.73 L5.22 347.98 L5.22 342.73 L10.44 342.73 L5.22 342.73 L5.22 337.48 L5.22 342.73 L0
							 342.73 Z">
    </path>
   </g>
  </g>
  <g transform="translate(51.25,-126.949)">
   <g>
    <rect class="st22" height="7.63592" width="7.63592" x="0" y="340.343">
    </rect>
   </g>
   <g transform="translate(-242.222,105.506) rotate(-45)">
    <path class="st23" d="M0 342.73 L5.22 342.73 L5.22 347.98 L5.22 342.73 L10.44 342.73 L5.22 342.73 L5.22 337.48 L5.22 342.73 L0
							 342.73 Z">
    </path>
   </g>
  </g>
  <g transform="translate(50.875,-93.199)">
   <g>
    <rect class="st22" height="7.63592" width="7.63592" x="0" y="340.343">
    </rect>
   </g>
   <g transform="translate(-242.222,105.506) rotate(-45)">
    <path class="st23" d="M0 342.73 L5.22 342.73 L5.22 347.98 L5.22 342.73 L10.44 342.73 L5.22 342.73 L5.22 337.48 L5.22 342.73 L0
							 342.73 Z">
    </path>
   </g>
  </g>
  <g transform="translate(50.875,-77.449)">
   <g>
    <rect class="st22" height="7.63592" width="7.63592" x="0" y="340.343">
    </rect>
   </g>
   <g transform="translate(-242.222,105.506) rotate(-45)">
    <path class="st23" d="M0 342.73 L5.22 342.73 L5.22 347.98 L5.22 342.73 L10.44 342.73 L5.22 342.73 L5.22 337.48 L5.22 342.73 L0
							 342.73 Z">
    </path>
   </g>
  </g>
  <g transform="translate(51.25,-42.574)">
   <g>
    <rect class="st22" height="7.63592" width="7.63592" x="0" y="340.343">
    </rect>
   </g>
   <g transform="translate(-242.222,105.506) rotate(-45)">
    <path class="st23" d="M0 342.73 L5.22 342.73 L5.22 347.98 L5.22 342.73 L10.44 342.73 L5.22 342.73 L5.22 337.48 L5.22 342.73 L0
							 342.73 Z">
    </path>
   </g>
  </g>
  <g transform="translate(402.97,269.087) rotate(89.5772)">
   <path class="st28" d="M0 347.98 L25.41 347.98">
   </path>
  </g>
  <g transform="translate(0.25,-111.199)">
   <desc>
    Analog Input
   </desc>
   <rect class="st8" height="7.72984" width="52.3651" x="0" y="340.249">
   </rect>
   <text class="st9" x="5.38" y="346.51">
    Analog Input
   </text>
  </g>
  <g transform="translate(0.25,-59.824)">
   <desc>
    Analog Input
   </desc>
   <rect class="st8" height="7.72984" width="52.3651" x="0" y="340.249">
   </rect>
   <text class="st9" x="5.38" y="346.51">
    Analog Input
   </text>
  </g>
  <g transform="translate(333.81,-188.074)">
   <path class="st17" d="M20.16 279.54 L0 279.54 L0 341.82">
   </path>
  </g>
  <g transform="translate(352.375,-269.168)">
   <desc>
    Run in standby
   </desc>
   <rect class="st29" height="5.34375" width="66.375" x="0" y="342.635">
   </rect>
   <text class="st30" x="4" y="348.01">
    Run in standby
   </text>
  </g>
  <g transform="translate(352.375,-254.074)">
   <desc>
    On demand control
   </desc>
   <rect class="st29" height="5.34375" width="82.6875" x="0" y="342.635">
   </rect>
   <text class="st30" x="4" y="348.01">
    On demand control
   </text>
  </g>
  <g transform="translate(963.229,145.869) rotate(90)">
   <path class="st7" d="M0 347.98 L30.16 347.98">
   </path>
  </g>
  <g transform="translate(578.821,-208.281)">
   <desc>
    Left-aligned result
   </desc>
   <rect class="st8" height="7.09554" width="73.875" x="0" y="340.884">
   </rect>
   <text class="st15" x="7.44" y="346.83">
    Left-aligned result
   </text>
  </g>
  <g transform="translate(125.5,-244.636)">
   <path class="st7" d="M0 347.98 L9.28 347.98">
   </path>
  </g>
  <g transform="translate(125.909,-244.994)">
   <path class="st25" d="M0 316.02 L9.28 316.02 L9.15 347.98">
   </path>
  </g>
  <g transform="translate(466.086,88.3873) rotate(90)">
   <path class="st26" d="M0 347.98 L40.77 347.98 L33 340.67 L7.77 340.67 L0 347.98 Z">
   </path>
  </g>
  <g transform="translate(61.15,-296.824)">
   <path class="st7" d="M0 347.98 L56.8 347.98">
   </path>
  </g>
  <g transform="translate(60.85,-221.395)">
   <path class="st7" d="M0 347.98 L56.67 347.98">
   </path>
  </g>
  <g transform="translate(551.479,284.298) rotate(90)">
   <path class="st5" d="M5.8 347.98 L6.16 347.98 L37.29 347.98">
   </path>
  </g>
  <g transform="translate(165.786,-13.5383)">
   <desc>
    Sample Length
   </desc>
   <rect class="st8" height="5.34375" width="91.5417" x="0" y="342.635">
   </rect>
   <text class="st15" x="21.81" y="347.71">
    Sample Length
   </text>
  </g>
  <g transform="translate(-185.122,-187.964) rotate(-45)">
   <path class="st31" d="M0 343.07 L4.88 343.07 L4.88 347.98 L4.88 343.07 L9.77 343.07 L4.88 343.07 L4.88 338.16 L4.88 343.07 L0 343.07
						 Z">
   </path>
  </g>
  <g transform="translate(-185.767,-112.593) rotate(-45)">
   <path class="st31" d="M0 343.07 L4.88 343.07 L4.88 347.98 L4.88 343.07 L9.77 343.07 L4.88 343.07 L4.88 338.16 L4.88 343.07 L0 343.07
						 Z">
   </path>
  </g>
  <g transform="translate(176.125,-63.574)">
   <path class="st32" d="M0 322.57 L25.99 296.75 L105.19 296.65 L105.19 347.98 L25.99 347.78 L0 322.57 Z">
   </path>
  </g>
  <g transform="translate(212.8,-81.6425)">
   <desc>
    ADC
   </desc>
   <rect class="st8" height="15.1875" width="46.6875" x="0" y="332.792">
   </rect>
   <text class="st33" x="10.98" y="344.59">
    ADC
   </text>
  </g>
  <g transform="translate(443.182,-57.1376)">
   <path class="st11" d="M0 321.66 L24.86 334.95 L0.48 347.98 L0 321.66 Z">
   </path>
  </g>
  <g transform="translate(825.365,250.329) rotate(90)">
   <g class="st1" id="shadow393-422" transform="matrix(1,0,0,1,1.97279,-0.345598)">
    <path class="st2" d="M9.29 343.34 A4.64375 4.64375 -180 0 0 4.64 338.69 A4.64375 4.64375 -180 0 0 0 343.34 L0 347.98 L9.29 347.98
							 L9.29 343.34 Z">
    </path>
   </g>
   <path class="st11" d="M9.29 343.34 A4.64375 4.64375 -180 0 0 4.64 338.69 A4.64375 4.64375 -180 0 0 0 343.34 L0 347.98 L9.29 347.98
						 L9.29 343.34 Z">
   </path>
  </g>
  <g transform="translate(589.32,-144.011)">
   <g transform="translate(0,-0.210289)">
    <rect class="st34" height="27.3424" width="51.2083" x="0" y="320.637">
    </rect>
   </g>
  </g>
  <g transform="translate(380.52,-90.87)">
   <g class="st1" id="shadow396-430" transform="matrix(1,0,0,1,0.345598,1.97279)">
    <ellipse class="st2" cx="1.125" cy="346.854" rx="1.125" ry="1.125">
    </ellipse>
   </g>
   <ellipse class="st24" cx="1.125" cy="346.854" rx="1.125" ry="1.125">
   </ellipse>
  </g>
  <g transform="translate(560.739,32.5793) rotate(90)">
   <path class="st26" d="M0 347.98 L73.41 347.98 L63.88 332.86 L9.53 332.86 L0 347.98 Z">
   </path>
  </g>
 </g>
</svg>
