<?xml version="1.0" encoding="UTF-8" standalone="no"?>
<!DOCTYPE svg PUBLIC "-//W3C//DTD SVG 1.1//EN" "http://www.w3.org/Graphics/SVG/1.1/DTD/svg11.dtd">
<!-- Generated by Microsoft Visio, SVG Export adc_u2204.svg Page-1 -->
<svg class="st32" color-interpolation-filters="sRGB" height="8.45388in" viewBox="0 0 1231.47 608.679" width="17.1038in" xml:space="preserve" xmlns="http://www.w3.org/2000/svg" xmlns:xlink="http://www.w3.org/1999/xlink">
 <style type="text/css">
  .st1 {visibility:visible}
		.st2 {fill:#5b9bd5;fill-opacity:0.22;filter:url(#filter_2);stroke:#5b9bd5;stroke-opacity:0.22}
		.st3 {fill:#ffffff;stroke:#000000;stroke-width:0.25}
		.st4 {fill:#000000;fill-opacity:0.4;filter:url(#filter_2.6666667461395);stroke:#000000;stroke-opacity:0.4}
		.st5 {fill:#fcfefe;stroke:#70ad47;stroke-width:1}
		.st6 {marker-start:url(#mrkr5-16);stroke:#000000;stroke-linecap:round;stroke-linejoin:round;stroke-width:1}
		.st7 {fill:#000000;fill-opacity:1;stroke:#000000;stroke-opacity:1;stroke-width:0.28409090909091}
		.st8 {stroke:#000000;stroke-linecap:round;stroke-linejoin:round;stroke-width:1}
		.st9 {fill:none;stroke:none;stroke-width:0.25}
		.st10 {fill:#000000;font-family:Calibri;font-size:1.00001em}
		.st11 {marker-end:url(#mrkr5-31);stroke:#000000;stroke-linecap:round;stroke-linejoin:round;stroke-width:1}
		.st12 {fill:#d5e8d4;stroke:#82b366;stroke-width:1}
		.st13 {fill:#000000;font-family:Calibri;font-size:1.33333em}
		.st14 {fill:#000000;font-family:Calibri;font-size:1.99999em}
		.st15 {fill:#fff0e1;stroke:#d79b00;stroke-width:1}
		.st16 {marker-end:url(#mrkr5-31);stroke:#000000;stroke-width:1}
		.st17 {fill:#dae8fc;stroke:#6c8ebf;stroke-width:1}
		.st18 {fill:#fff0e1;stroke:none;stroke-width:1}
		.st19 {fill:#000000;font-family:Calibri;font-size:1.5em}
		.st20 {fill:#f8cecc;stroke:#c8c8c8;stroke-width:1}
		.st21 {fill:#ffffff;stroke:#70ad47;stroke-dasharray:1,2;stroke-width:1}
		.st22 {fill:#ffffff;stroke:#70ad47;stroke-width:1}
		.st23 {fill:#ffffff;stroke:#c7c8c8;stroke-width:0.25}
		.st24 {fill:#000000;stroke:#000000;stroke-width:0.25}
		.st25 {fill:#dae8fc;stroke:#70ad47;stroke-width:1}
		.st26 {fill:#000000;stroke:#c7c8c8;stroke-width:0.25}
		.st27 {stroke:#000000;stroke-width:1}
		.st28 {fill:#000000;font-family:Calibri;font-size:0.916672em}
		.st29 {stroke:#000000;stroke-dasharray:1,2;stroke-linecap:round;stroke-linejoin:round;stroke-width:1}
		.st30 {fill:#000000;stroke:#c7c8c8;stroke-width:1}
		.st31 {fill:none;stroke:none;stroke-width:1}
		.st32 {fill:none;fill-rule:evenodd;font-size:12px;overflow:visible;stroke-linecap:square;stroke-miterlimit:3}
 </style>
 <defs id="Markers">
  <g id="lend5">
   <path d="M 2 1 L 0 0 L 1.98117 -0.993387 C 1.67173 -0.364515 1.67301 0.372641 1.98465 1.00043 " style="stroke:none">
   </path>
  </g>
  <marker class="st7" id="mrkr5-16" markerUnits="strokeWidth" orient="auto" overflow="visible" refX="5.8">
   <use transform="scale(3.52) " xlink:href="#lend5">
   </use>
  </marker>
  <marker class="st7" id="mrkr5-31" markerUnits="strokeWidth" orient="auto" overflow="visible" refX="-6.16">
   <use transform="scale(-3.52,-3.52) " xlink:href="#lend5">
   </use>
  </marker>
 </defs>
 <defs id="Filters">
  <filter id="filter_2">
   <feGaussianBlur stdDeviation="2">
   </feGaussianBlur>
  </filter>
  <filter id="filter_2.6666667461395">
   <feGaussianBlur stdDeviation="2.6666667461395">
   </feGaussianBlur>
  </filter>
 </defs>
 <g>
  <g transform="translate(110.804,-5.0978)">
   <g class="st1" id="shadow459-2" transform="matrix(1,0,0,1,0.345598,1.97279)">
    <rect class="st2" height="602.429" width="1006.57" x="0" y="6.25002">
    </rect>
   </g>
   <rect class="st3" height="602.429" width="1006.57" x="0" y="6.25002">
   </rect>
  </g>
  <g transform="translate(122.516,-22.6077)">
   <g class="st1" id="shadow92-7" transform="matrix(1,0,0,1,0,3)">
    <rect class="st4" height="316.129" width="392.923" x="0" y="292.551">
    </rect>
   </g>
   <rect class="st5" height="316.129" width="392.923" x="0" y="292.551">
   </rect>
  </g>
  <g transform="translate(288.543,1012.85) rotate(180)">
   <path class="st6" d="M5.8 608.68 L6.16 608.68 L79.67 608.68">
   </path>
  </g>
  <g transform="translate(91.0064,-432.691)">
   <path class="st8" d="M0 608.68 L62.86 608.68">
   </path>
  </g>
  <g transform="translate(95.6031,-477.99)">
   <path class="st8" d="M0 599.68 L58.7 599.68">
   </path>
  </g>
  <g transform="translate(13.7972,-479.845)">
   <desc>
    Start Event
   </desc>
   <rect class="st9" height="13.0928" width="77.4393" x="0" y="595.586">
   </rect>
   <text class="st10" x="11.83" y="605.73">
    Start Event
   </text>
  </g>
  <g transform="translate(1019.71,159.285) rotate(89.7779)">
   <path class="st11" d="M0 608.68 L102.14 608.68">
   </path>
  </g>
  <g transform="translate(358.404,-447.362)">
   <desc>
    Pin Scan
   </desc>
   <g class="st1" id="shadow134-33" transform="matrix(1,0,0,1,0.345598,1.97279)">
    <rect class="st2" height="48.1146" width="98.3862" x="0" y="560.565">
    </rect>
   </g>
   <rect class="st12" height="48.1146" width="98.3862" x="0" y="560.565">
   </rect>
   <text class="st13" x="22.12" y="589.42">
    Pin Scan
   </text>
  </g>
  <g transform="translate(333.511,-486.894)">
   <path class="st11" d="M0 608.68 L18.89 608.68">
   </path>
  </g>
  <g transform="translate(786.62,-485.78)">
   <desc>
    รท
   </desc>
   <path class="st12" d="M8.73 608.68 L78.59 608.68 A8.73261 8.73261 -180 0 0 87.33 599.95 L87.33 569.45 A8.73261 8.73261 -180 0 0 78.59
						 560.72 L8.73 560.72 A8.73261 8.73261 -180 0 0 0 569.45 L0 599.95 A8.73261 8.73261 -180 0 0 8.73 608.68 Z">
   </path>
   <text class="st14" x="9.43" y="591.9">
    รท
   </text>
  </g>
  <g transform="translate(1127.82,706.66) rotate(179.896)">
   <path class="st11" d="M0 608.68 L248.54 608.68">
   </path>
  </g>
  <g transform="translate(821.859,-446.681)">
   <path class="st8" d="M9 608.68 L9 569.79">
   </path>
  </g>
  <g transform="translate(252.497,-323.81)">
   <desc>
    Result Resolution
   </desc>
   <rect class="st9" height="12.0185" width="102.04" x="0" y="596.661">
   </rect>
   <text class="st10" x="8.55" y="606.27">
    Result Resolution
   </text>
  </g>
  <g transform="translate(907.252,311.547) rotate(90)">
   <path class="st11" d="M0 608.68 L74.95 608.68">
   </path>
  </g>
  <g transform="translate(260.895,-128.175)">
   <path class="st15" d="M0 565.63 L38.43 521.91 L155.55 521.75 L155.55 608.68 L38.43 608.34 L0 565.63 Z">
   </path>
  </g>
  <g transform="translate(305.022,-104.764)">
   <desc>
    Conversion Time
   </desc>
   <rect class="st9" height="26.3099" width="103.3" x="0" y="582.369">
   </rect>
   <text class="st10" x="10.87" y="599.12">
    Conversion Time
   </text>
  </g>
  <g transform="translate(377.617,-495.285)">
   <path class="st6" d="M-8.96 602.88 L-8.96 602.52 L-9.05 559.35">
   </path>
  </g>
  <g transform="translate(532.83,-22.6077)">
   <g class="st1" id="shadow226-73" transform="matrix(1,0,0,1,0,3)">
    <rect class="st4" height="316.658" width="374.752" x="0" y="292.021">
    </rect>
   </g>
   <rect class="st5" height="316.658" width="374.752" x="0" y="292.021">
   </rect>
  </g>
  <g transform="translate(462.613,-338.736)">
   <path class="st16" d="M323.18 439.1 L0 439.1 L0 602.52">
   </path>
  </g>
  <g transform="translate(207.625,-505.902)">
   <desc>
    Software Trigger
   </desc>
   <rect class="st9" height="12.0185" width="99.1075" x="0" y="596.661">
   </rect>
   <text class="st10" x="4" y="606.27">
    Software Trigger
   </text>
  </g>
  <g transform="translate(211.292,-524.148)">
   <path class="st8" d="M0 608.68 L110.57 608.68">
   </path>
  </g>
  <g transform="translate(209.125,-533.652)">
   <desc>
    Free Run
   </desc>
   <rect class="st9" height="12.0185" width="102.102" x="0" y="596.661">
   </rect>
   <text class="st10" x="4" y="606.27">
    Free Run
   </text>
  </g>
  <g transform="translate(231.625,-566.652)">
   <desc>
    Conversion Trigger
   </desc>
   <rect class="st9" height="12.0185" width="111.13" x="0" y="596.661">
   </rect>
   <text class="st10" x="9.75" y="606.27">
    Conversion Trigger
   </text>
  </g>
  <g transform="translate(919.429,53.9601) rotate(90)">
   <path class="st17" d="M0 608.68 L124.34 608.68 L108.2 585.11 L16.14 585.11 L0 608.68 Z">
   </path>
  </g>
  <g transform="translate(317.417,-153.998)">
   <desc>
    ADC
   </desc>
   <rect class="st18" height="33.4964" width="52.2958" x="0" y="575.183">
   </rect>
   <text class="st19" x="10.6" y="597.33">
    ADC
   </text>
  </g>
  <g transform="translate(1125.66,-488.566)">
   <desc>
    GCLK
   </desc>
   <g class="st1" id="shadow138-100" transform="matrix(1,0,0,1,0.345598,1.97279)">
    <rect class="st2" height="48.1146" width="101.966" x="0" y="560.565">
    </rect>
   </g>
   <rect class="st20" height="48.1146" width="101.966" x="0" y="560.565">
   </rect>
   <text class="st13" x="34.15" y="589.42">
    GCLK
   </text>
  </g>
  <g transform="translate(922.333,-264.421)">
   <g transform="translate(0,-0.356188)">
    <path class="st21" d="M0 608.68 L90.87 608.68 L90.87 562.37 L0 562.37 L0 608.68 Z">
    </path>
   </g>
  </g>
  <g transform="translate(477.031,-339.213)">
   <path class="st16" d="M45.47 466.73 L0 466.73 L0 602.52">
   </path>
  </g>
  <g transform="translate(915.11,-248.17)">
   <desc>
    Result Register
   </desc>
   <rect class="st9" height="12.0185" width="105.802" x="0" y="596.661">
   </rect>
   <text class="st10" x="16.54" y="606.27">
    Result Register
   </text>
  </g>
  <g transform="translate(564.364,-98.4932)">
   <g class="st1" id="shadow232-117" transform="matrix(1,0,0,1,0,3)">
    <rect class="st4" height="164.924" width="220.952" x="0" y="443.756">
    </rect>
   </g>
   <rect class="st22" height="164.924" width="220.952" x="0" y="443.756">
   </rect>
  </g>
  <g transform="translate(551.752,-342.097)">
   <desc>
    Automatic Window Comparison
   </desc>
   <rect class="st9" height="25.153" width="342.134" x="0" y="583.526">
   </rect>
   <text class="st10" x="93.18" y="599.7">
    Automatic Window Comparison
   </text>
  </g>
  <g transform="translate(949.053,-165.366)">
   <desc>
    WINMON Interrupt
   </desc>
   <rect class="st9" height="20.0081" width="127.414" x="0" y="588.671">
   </rect>
   <text class="st10" x="16.49" y="602.28">
    WINMON Interrupt
   </text>
  </g>
  <g transform="translate(612.487,-474.982)">
   <rect class="st23" height="8.34622" width="8.01898" x="0" y="600.333">
   </rect>
  </g>
  <g transform="translate(590.727,-31.9946)">
   <desc>
    Comparsion Mode
   </desc>
   <rect class="st9" height="24.5686" width="145.004" x="0" y="584.111">
   </rect>
   <text class="st10" x="27.4" y="600">
    Comparsion Mode
   </text>
  </g>
  <g transform="translate(199.593,-460.541) rotate(-0.0899218)">
   <path class="st8" d="M0 608.68 L110.2 608.68">
   </path>
  </g>
  <g transform="translate(216.755,-493.14) rotate(0.365196)">
   <path class="st8" d="M0 608.68 L99.32 608.68">
   </path>
  </g>
  <g transform="translate(83.8701,-480.384)">
   <g>
    <rect class="st3" height="12.9338" width="11.2923" x="0" y="595.745">
    </rect>
   </g>
   <g transform="translate(-424.726,183.556) rotate(-45)">
    <path class="st24" d="M0 600.35 L8.28 600.35 L8.28 608.68 L8.28 600.35 L16.57 600.35 L8.28 600.35 L8.28 592.03 L8.28 600.35 L0
							 600.35 Z">
    </path>
   </g>
  </g>
  <g transform="translate(204.423,-472.835)">
   <desc>
    Hardware Trigger
   </desc>
   <rect class="st9" height="12.0185" width="101.769" x="0" y="596.661">
   </rect>
   <text class="st10" x="4" y="606.27">
    Hardware Trigger
   </text>
  </g>
  <g transform="translate(833.259,-454.021)">
   <desc>
    Prescaler
   </desc>
   <rect class="st9" height="8.57489" width="71.1934" x="0" y="600.104">
   </rect>
   <text class="st10" x="13.21" y="607.99">
    Prescaler
   </text>
  </g>
  <g transform="translate(652.919,-172.904)">
  </g>
  <g transform="translate(553.024,-151.848)">
   <path class="st16" d="M0.86 608.68 L0 470.39 L363.15 470.86">
   </path>
  </g>
  <g transform="translate(646.939,-227.726) rotate(-0.0788881)">
   <path class="st8" d="M0 608.68 L31.45 608.68">
   </path>
  </g>
  <g transform="translate(684.937,1010.4) rotate(179.959)">
   <path class="st8" d="M0 608.68 L129.62 608.68">
   </path>
  </g>
  <g transform="translate(682.131,1066.34) rotate(-179.895)">
   <path class="st8" d="M0 608.68 L129.36 608.68">
   </path>
  </g>
  <g transform="translate(576.348,-241.955)">
   <desc>
    VHi
   </desc>
   <rect class="st9" height="11.7853" width="45.4959" x="0" y="596.894">
   </rect>
   <text class="st10" x="14.23" y="606.39">
    VHi
   </text>
  </g>
  <g transform="translate(578.039,-103.022)">
   <desc>
    VLo
   </desc>
   <rect class="st9" height="11.195" width="46.0517" x="0" y="597.484">
   </rect>
   <text class="st10" x="13.94" y="606.68">
    VLo
   </text>
  </g>
  <g transform="translate(1358.72,418.686) rotate(90)">
   <g class="st1" id="shadow393-171" transform="matrix(1,0,0,1,1.97279,-0.345598)">
    <path class="st2" d="M28.34 594.51 A14.1706 14.1706 -180 0 0 14.17 580.34 A14.1706 14.1706 -180 0 0 -0 594.51 L0 608.68 L28.34
							 608.68 L28.34 594.51 Z">
    </path>
   </g>
   <path class="st25" d="M28.34 594.51 A14.1706 14.1706 -180 0 0 14.17 580.34 A14.1706 14.1706 -180 0 0 -0 594.51 L0 608.68 L28.34 608.68
						 L28.34 594.51 Z">
   </path>
  </g>
  <g transform="translate(774.956,-176.64) rotate(-0.357108)">
   <path class="st8" d="M0 608.68 L72.76 608.68">
   </path>
  </g>
  <g transform="translate(552.22,-205.044)">
   <g class="st1" id="shadow395-179" transform="matrix(1,0,0,1,0.345598,1.97279)">
    <ellipse class="st2" cx="1.99626" cy="606.774" rx="1.99626" ry="1.90553">
    </ellipse>
   </g>
   <ellipse class="st26" cx="1.99626" cy="606.774" rx="1.99626" ry="1.90553">
   </ellipse>
  </g>
  <g transform="translate(552.361,-173.364)">
   <g class="st1" id="shadow396-184" transform="matrix(1,0,0,1,0.345598,1.97279)">
    <ellipse class="st2" cx="1.99626" cy="606.774" rx="1.99626" ry="1.90553">
    </ellipse>
   </g>
   <ellipse class="st26" cx="1.99626" cy="606.774" rx="1.99626" ry="1.90553">
   </ellipse>
  </g>
  <g transform="translate(1274.32,510.529) rotate(90)">
   <path class="st8" d="M0 608.68 L18.02 608.68">
   </path>
  </g>
  <g transform="translate(795.856,-175.23)">
   <g class="st1" id="shadow402-192" transform="matrix(1,0,0,1,0.345598,1.97279)">
    <ellipse class="st2" cx="1.99626" cy="606.774" rx="1.99626" ry="1.90553">
    </ellipse>
   </g>
   <ellipse class="st26" cx="1.99626" cy="606.774" rx="1.99626" ry="1.90553">
   </ellipse>
  </g>
  <g transform="translate(772.248,183.169) rotate(90.171)">
   <path class="st8" d="M0 608.68 L33.81 608.68">
   </path>
  </g>
  <g transform="translate(870.68,-176.111)">
   <path class="st11" d="M0 608.68 L80.44 608.68">
   </path>
  </g>
  <g transform="translate(680.192,-117.273)">
   <path class="st12" d="M0 564.1 L28.81 586.61 L0.55 608.68 L0 564.1 Z">
   </path>
  </g>
  <g transform="translate(552.198,1041.02) rotate(180)">
   <path class="st8" d="M0 608.68 L135 608.68">
   </path>
  </g>
  <g transform="translate(709,-188.601)">
   <path class="st27" d="M0 580.66 L16.92 580.66 L16.92 608.49 L39.77 608.68">
   </path>
  </g>
  <g transform="translate(706.75,-138.912)">
   <path class="st27" d="M0 608.68 L18.27 608.68 L18.27 581.13 L42.02 581.13">
   </path>
  </g>
  <g transform="translate(679.707,-194.587)">
   <path class="st12" d="M0 564.1 L28.17 586.61 L0.54 608.68 L0 564.1 Z">
   </path>
  </g>
  <g transform="translate(647.241,-129.301) rotate(-0.0788881)">
   <path class="st8" d="M0 608.68 L31.45 608.68">
   </path>
  </g>
  <g transform="translate(768.827,-121.491)">
   <desc>
    WINMON Interrupt
   </desc>
   <rect class="st9" height="20.0081" width="160.966" x="0" y="588.671">
   </rect>
   <text class="st28" x="37.21" y="601.98">
    WINMON Interrupt
   </text>
  </g>
  <g transform="translate(289.177,1078.84) rotate(180)">
   <path class="st6" d="M5.8 608.68 L6.16 608.68 L80.3 608.68">
   </path>
  </g>
  <g transform="translate(812.672,343.427) rotate(90.1907)">
   <path class="st8" d="M0 608.68 L24.33 608.68">
   </path>
  </g>
  <g transform="translate(812.676,500.92) rotate(90)">
   <path class="st8" d="M0 608.68 L36.75 608.68">
   </path>
  </g>
  <g transform="translate(805.466,439.989) rotate(90)">
   <path class="st17" d="M0 608.68 L77.36 608.68 L64.46 596.48 L12.89 596.48 L0 608.68 Z">
   </path>
  </g>
  <g transform="translate(203.915,-207.429)">
   <desc>
    +ve
   </desc>
   <rect class="st9" height="9.05127" width="33.2738" x="0" y="599.628">
   </rect>
   <text class="st28" x="8.68" y="607.45">
    +ve
   </text>
  </g>
  <g transform="translate(203.965,-127.453)">
   <desc>
    -ve
   </desc>
   <rect class="st9" height="9.05127" width="33.2738" x="0" y="599.628">
   </rect>
   <text class="st28" x="9.73" y="607.45">
    -ve
   </text>
  </g>
  <g transform="translate(797.918,-100.366)">
   <path class="st16" d="M0 532.45 L0 608.68 L162.19 607.78">
   </path>
  </g>
  <g transform="translate(1460.73,421.485) rotate(90)">
   <g class="st1" id="shadow443-248" transform="matrix(1,0,0,1,1.97279,-0.345598)">
    <path class="st2" d="M0 608.68 L21.69 608.68 L10.85 590.6 L0 608.68 Z">
    </path>
   </g>
   <path class="st12" d="M0 608.68 L21.69 608.68 L10.85 590.6 L0 608.68 Z">
   </path>
  </g>
  <g transform="translate(1471.17,504.706) rotate(89.8847)">
   <path class="st8" d="M0 608.68 L26.35 608.68">
   </path>
  </g>
  <g transform="translate(1465.45,496.936) rotate(90)">
   <g class="st1" id="shadow403-256" transform="matrix(1,0,0,1,1.97279,-0.345598)">
    <path class="st2" d="M0 608.68 L22.04 608.68 L11.02 590.31 L0 608.68 Z">
    </path>
   </g>
   <path class="st12" d="M0 608.68 L22.04 608.68 L11.02 590.31 L0 608.68 Z">
   </path>
  </g>
  <g transform="translate(858.184,-68.9073)">
   <g class="st1" id="shadow447-261" transform="matrix(1,0,0,1,0.345598,1.97279)">
    <rect class="st2" height="8.34622" width="9.62199" x="0" y="600.333">
    </rect>
   </g>
   <rect class="st23" height="8.34622" width="9.62199" x="0" y="600.333">
   </rect>
  </g>
  <g transform="translate(748.665,-34.052)">
   <desc>
    WINMON EVENT OUT
   </desc>
   <rect class="st9" height="20.0081" width="196.663" x="0" y="588.671">
   </rect>
   <text class="st10" x="45.11" y="602.28">
    WINMON EVENT OUT
   </text>
  </g>
  <g transform="translate(967.589,-90.7089)">
   <desc>
    EVENT
   </desc>
   <rect class="st9" height="20.0081" width="53.8991" x="0" y="588.671">
   </rect>
   <text class="st10" x="10.89" y="602.28">
    EVENT
   </text>
  </g>
  <g transform="translate(1015.38,-297.765) rotate(0.168134)">
   <path class="st11" d="M0 608.68 L78.02 608.68">
   </path>
  </g>
  <g transform="translate(1012.4,-270.352) rotate(-0.160857)">
   <path class="st11" d="M0 608.68 L81.82 608.68">
   </path>
  </g>
  <g transform="translate(1010.09,-355.856)">
   <desc>
    Result Interrupt
   </desc>
   <rect class="st9" height="12.0185" width="105.802" x="0" y="596.661">
   </rect>
   <text class="st10" x="14.26" y="606.27">
    Result Interrupt
   </text>
  </g>
  <g transform="translate(1008.78,-198.867)">
   <desc>
    Result Event
   </desc>
   <rect class="st9" height="12.0185" width="105.802" x="0" y="596.661">
   </rect>
   <text class="st10" x="22.63" y="606.27">
    Result Event
   </text>
  </g>
  <g transform="translate(11.8958,-426.327)">
   <desc>
    Flush Event
   </desc>
   <rect class="st9" height="13.0928" width="77.4393" x="0" y="595.586">
   </rect>
   <text class="st10" x="10.79" y="605.73">
    Flush Event
   </text>
  </g>
  <g transform="translate(764.274,111.518) rotate(90)">
   <g class="st1" id="shadow467-291" transform="matrix(1,0,0,1,1.97279,-0.345598)">
    <path class="st2" d="M0 608.68 L20.01 608.68 L10 592.01 L0 608.68 Z">
    </path>
   </g>
   <path class="st12" d="M0 608.68 L20.01 608.68 L10 592.01 L0 608.68 Z">
   </path>
  </g>
  <g transform="translate(762.495,164.977) rotate(90)">
   <g class="st1" id="shadow468-296" transform="matrix(1,0,0,1,1.97279,-0.345598)">
    <path class="st2" d="M0 608.68 L22.22 608.68 L11.11 590.17 L0 608.68 Z">
    </path>
   </g>
   <path class="st12" d="M0 608.68 L22.22 608.68 L11.11 590.17 L0 608.68 Z">
   </path>
  </g>
  <g transform="translate(1023.35,481.048) rotate(90)">
   <path class="st6" d="M5.8 608.68 L6.16 608.68 L68.82 608.68">
   </path>
  </g>
  <g transform="translate(363.454,-27.4683)">
   <desc>
    Select Reference
   </desc>
   <rect class="st9" height="9.05127" width="135.375" x="0" y="599.628">
   </rect>
   <text class="st10" x="26.87" y="607.75">
    Select Reference
   </text>
  </g>
  <g transform="translate(1661.12,257.526) rotate(89.2491)">
   <path class="st8" d="M0 608.68 L39.54 608.68">
   </path>
  </g>
  <g transform="translate(1047.35,-342.975)">
   <rect class="st23" height="8.34622" width="9.62199" x="0" y="600.333">
   </rect>
  </g>
  <g transform="translate(1658.61,301.649) rotate(90)">
   <g class="st1" id="shadow486-314" transform="matrix(1,0,0,1,1.97279,-0.345598)">
    <path class="st2" d="M0 608.68 L18.08 608.68 L9.04 593.62 L0 608.68 Z">
    </path>
   </g>
   <path class="st12" d="M0 608.68 L18.08 608.68 L9.04 593.62 L0 608.68 Z">
   </path>
  </g>
  <g transform="translate(1662.18,339.766) rotate(89.6507)">
   <path class="st8" d="M0 608.68 L39.78 608.68">
   </path>
  </g>
  <g transform="translate(1049.54,-218.592)">
   <rect class="st23" height="8.34622" width="9.62199" x="0" y="600.333">
   </rect>
  </g>
  <g transform="translate(1658.83,328.327) rotate(90)">
   <g class="st1" id="shadow489-324" transform="matrix(1,0,0,1,1.97279,-0.345598)">
    <path class="st2" d="M0 608.68 L19.13 608.68 L9.56 592.74 L0 608.68 Z">
    </path>
   </g>
   <path class="st12" d="M0 608.68 L19.13 608.68 L9.56 592.74 L0 608.68 Z">
   </path>
  </g>
  <g transform="translate(159.772,-385.241)">
   <rect class="st23" height="8.34622" width="8.01898" x="0" y="600.333">
   </rect>
  </g>
  <g transform="translate(78.6652,-241.713)">
   <path class="st8" d="M0 608.68 L119.79 608.68">
   </path>
  </g>
  <g transform="translate(682.895,369.237) rotate(89.6308)">
   <path class="st29" d="M0 608.68 L43.03 608.68">
   </path>
  </g>
  <g transform="translate(805.466,357.416) rotate(90)">
   <path class="st17" d="M0 608.68 L77.36 608.68 L64.46 596.48 L12.89 596.48 L0 608.68 Z">
   </path>
  </g>
  <g transform="translate(79.2197,-183.436)">
   <path class="st8" d="M0 608.68 L117.01 608.68">
   </path>
  </g>
  <g transform="translate(79.2197,-158.664)">
   <path class="st8" d="M0 608.68 L117.01 608.68">
   </path>
  </g>
  <g transform="translate(79.2197,-99.5923)">
   <path class="st8" d="M0 608.68 L117.01 608.68">
   </path>
  </g>
  <g transform="translate(170.723,-484.636)">
   <g class="st1" id="shadow616-348" transform="matrix(1,0,0,1,0.345598,1.97279)">
    <ellipse class="st2" cx="1.66369" cy="606.774" rx="1.66369" ry="1.90553">
    </ellipse>
   </g>
   <ellipse class="st30" cx="1.66369" cy="606.774" rx="1.66369" ry="1.90553">
   </ellipse>
  </g>
  <g transform="translate(169.392,-430.265)">
   <g class="st1" id="shadow619-353" transform="matrix(1,0,0,1,0.345598,1.97279)">
    <ellipse class="st2" cx="1.66369" cy="606.774" rx="1.66369" ry="1.90553">
    </ellipse>
   </g>
   <ellipse class="st26" cx="1.66369" cy="606.774" rx="1.66369" ry="1.90553">
   </ellipse>
  </g>
  <g transform="translate(82.8799,-426.2)">
   <g>
    <rect class="st3" height="12.9338" width="11.2923" x="0" y="595.745">
    </rect>
   </g>
   <g transform="translate(-424.726,183.556) rotate(-45)">
    <path class="st24" d="M0 600.35 L8.28 600.35 L8.28 608.68 L8.28 600.35 L16.57 600.35 L8.28 600.35 L8.28 592.03 L8.28 600.35 L0
							 600.35 Z">
    </path>
   </g>
  </g>
  <g transform="translate(68.683,-235.52)">
   <g>
    <rect class="st3" height="12.9338" width="11.2923" x="0" y="595.745">
    </rect>
   </g>
   <g transform="translate(-424.726,183.556) rotate(-45)">
    <path class="st24" d="M0 600.35 L8.28 600.35 L8.28 608.68 L8.28 600.35 L16.57 600.35 L8.28 600.35 L8.28 592.03 L8.28 600.35 L0
							 600.35 Z">
    </path>
   </g>
  </g>
  <g transform="translate(68.1285,-178.354)">
   <g>
    <rect class="st3" height="12.9338" width="11.2923" x="0" y="595.745">
    </rect>
   </g>
   <g transform="translate(-424.726,183.556) rotate(-45)">
    <path class="st24" d="M0 600.35 L8.28 600.35 L8.28 608.68 L8.28 600.35 L16.57 600.35 L8.28 600.35 L8.28 592.03 L8.28 600.35 L0
							 600.35 Z">
    </path>
   </g>
  </g>
  <g transform="translate(68.1285,-151.677)">
   <g>
    <rect class="st3" height="12.9338" width="11.2923" x="0" y="595.745">
    </rect>
   </g>
   <g transform="translate(-424.726,183.556) rotate(-45)">
    <path class="st24" d="M0 600.35 L8.28 600.35 L8.28 608.68 L8.28 600.35 L16.57 600.35 L8.28 600.35 L8.28 592.03 L8.28 600.35 L0
							 600.35 Z">
    </path>
   </g>
  </g>
  <g transform="translate(68.683,-92.6053)">
   <g>
    <rect class="st3" height="12.9338" width="11.2923" x="0" y="595.745">
    </rect>
   </g>
   <g transform="translate(-424.726,183.556) rotate(-45)">
    <path class="st24" d="M0 600.35 L8.28 600.35 L8.28 608.68 L8.28 600.35 L16.57 600.35 L8.28 600.35 L8.28 592.03 L8.28 600.35 L0
							 600.35 Z">
    </path>
   </g>
  </g>
  <g transform="translate(682.895,454.986) rotate(89.6308)">
   <path class="st29" d="M0 608.68 L43.03 608.68">
   </path>
  </g>
  <g transform="translate(0.804563,-208.843)">
   <desc>
    Analog Input
   </desc>
   <rect class="st9" height="13.0928" width="77.4393" x="0" y="595.586">
   </rect>
   <text class="st10" x="7.52" y="605.73">
    Analog Input
   </text>
  </g>
  <g transform="translate(0.25,-121.823)">
   <desc>
    Analog Input
   </desc>
   <rect class="st9" height="13.0928" width="77.4393" x="0" y="595.586">
   </rect>
   <text class="st10" x="7.52" y="605.73">
    Analog Input
   </text>
  </g>
  <g transform="translate(515.993,-476.411)">
   <desc>
    Run in standby
   </desc>
   <rect class="st31" height="9.05127" width="98.1576" x="0" y="599.628">
   </rect>
   <text class="st10" x="12.87" y="607.75">
    Run in standby
   </text>
  </g>
  <g transform="translate(1577.02,245.852) rotate(90)">
   <path class="st8" d="M0 608.68 L51.09 608.68">
   </path>
  </g>
  <g transform="translate(963.686,-360.105)">
   <rect class="st23" height="8.34622" width="9.62199" x="0" y="600.333">
   </rect>
  </g>
  <g transform="translate(903.703,-373.281)">
   <desc>
    Left-aligned result
   </desc>
   <rect class="st9" height="12.0185" width="131.088" x="0" y="596.661">
   </rect>
   <text class="st10" x="21.3" y="606.27">
    Left-aligned result
   </text>
  </g>
  <g transform="translate(172.497,-432.826)">
   <path class="st8" d="M0 608.68 L27.26 608.68">
   </path>
  </g>
  <g transform="translate(171.887,-432.924)">
   <path class="st27" d="M0 554.54 L28.47 554.54 L28.08 608.68">
   </path>
  </g>
  <g transform="translate(906.729,480.322) rotate(90)">
   <path class="st6" d="M5.8 608.68 L6.16 608.68 L71.07 608.68">
   </path>
  </g>
  <g transform="translate(241.473,-26.5425)">
   <desc>
    Sample Length
   </desc>
   <rect class="st9" height="9.05127" width="135.375" x="0" y="599.628">
   </rect>
   <text class="st10" x="31.75" y="607.75">
    Sample Length
   </text>
  </g>
  <g transform="translate(243.038,-129.954)">
   <rect class="st17" height="83.8762" width="15.0287" x="0" y="524.803">
   </rect>
  </g>
  <g transform="translate(859.702,478.725) rotate(90)">
   <path class="st8" d="M0 608.68 L22.87 608.68">
   </path>
  </g>
  <g transform="translate(227.763,-76.3521)">
   <desc>
    Gain
   </desc>
   <rect class="st9" height="9.05127" width="44.9196" x="0" y="599.628">
   </rect>
   <text class="st10" x="11.27" y="607.75">
    Gain
   </text>
  </g>
  <g transform="translate(453.846,-494.799)">
   <path class="st6" d="M-8.96 602.88 L-8.96 602.52 L-9.05 559.35">
   </path>
  </g>
  <g transform="translate(440.875,-564.402)">
   <desc>
    Scan start offset
   </desc>
   <rect class="st9" height="12.0185" width="99.1075" x="0" y="596.661">
   </rect>
   <text class="st10" x="4" y="606.27">
    Scan start offset
   </text>
  </g>
  <g transform="translate(359.875,-565.152)">
   <desc>
    Input to scan
   </desc>
   <rect class="st9" height="12.0185" width="99.1075" x="0" y="596.661">
   </rect>
   <text class="st10" x="4" y="606.27">
    Input to scan
   </text>
  </g>
  <g transform="translate(770.958,76.5038) rotate(90.0991)">
   <path class="st8" d="M0 608.68 L40.47 608.68">
   </path>
  </g>
  <g transform="translate(159.334,-532.568)">
   <rect class="st23" height="8.34622" width="8.01898" x="0" y="600.333">
   </rect>
  </g>
 </g>
</svg>
