<?xml version="1.0" encoding="UTF-8" standalone="no"?>
<!DOCTYPE svg PUBLIC "-//W3C//DTD SVG 1.1//EN" "http://www.w3.org/Graphics/SVG/1.1/DTD/svg11.dtd">
<!-- Generated by Microsoft Visio, SVG Export SAML21.svg Page-1 -->
<svg class="st36" color-interpolation-filters="sRGB" height="11.7917in" viewBox="0 0 1207.72 849" width="16.7739in" xml:space="preserve" xmlns="http://www.w3.org/2000/svg" xmlns:xlink="http://www.w3.org/1999/xlink">
 <style type="text/css">
  .st1 {visibility:visible}
		.st2 {fill:#000000;fill-opacity:0.4;filter:url(#filter_2.6666667461395);stroke:#000000;stroke-opacity:0.4}
		.st3 {fill:#ffffff;stroke:#70ad47;stroke-width:1}
		.st4 {stroke:#000000;stroke-linecap:round;stroke-linejoin:round;stroke-width:0.75}
		.st5 {fill:#dae8fc;stroke:#6c8ebf;stroke-width:1}
		.st6 {marker-end:url(#mrkr5-46);stroke:#000000;stroke-linecap:round;stroke-linejoin:round;stroke-width:1}
		.st7 {fill:#000000;fill-opacity:1;stroke:#000000;stroke-opacity:1;stroke-width:0.28409090909091}
		.st8 {fill:none;stroke:none;stroke-width:0.25}
		.st9 {fill:#002060;font-family:Calibri;font-size:0.666664em}
		.st10 {fill:#000000;font-family:Calibri;font-size:0.666664em}
		.st11 {fill:#d5e8d4;stroke:#82b366;stroke-width:1}
		.st12 {fill:#5b9bd5;fill-opacity:0.22;filter:url(#filter_2);stroke:#5b9bd5;stroke-opacity:0.22}
		.st13 {fill:#000000;stroke:#c7c8c8;stroke-width:0.25}
		.st14 {marker-start:url(#mrkr5-95);stroke:#000000;stroke-linecap:round;stroke-linejoin:round;stroke-width:0.75}
		.st15 {fill:#000000;fill-opacity:1;stroke:#000000;stroke-opacity:1;stroke-width:0.22935779816514}
		.st16 {stroke:#000000;stroke-linecap:round;stroke-linejoin:round;stroke-width:1}
		.st17 {fill:#ffffff;stroke:#000000;stroke-width:0.25}
		.st18 {fill:#000000;stroke:#000000;stroke-width:0.25}
		.st19 {fill:#000000;stroke:none;stroke-width:0.25}
		.st20 {fill:none;stroke:none;stroke-width:0.5}
		.st21 {fill:#000000;font-family:Calibri;font-size:1.00001em}
		.st22 {fill:#f8cecc;stroke:#c7c8c8;stroke-width:0.25}
		.st23 {marker-start:url(#mrkr5-289);stroke:#000000;stroke-linecap:round;stroke-linejoin:round;stroke-width:1}
		.st24 {marker-end:url(#mrkr5-301);stroke:#000000;stroke-width:0.75}
		.st25 {fill:#000000;font-family:Times New Roman;font-size:0.833336em}
		.st26 {fill:#f8cecc;stroke:none;stroke-width:0.25}
		.st27 {fill:#f8cecc;stroke:#000000;stroke-width:0.25}
		.st28 {fill:#000000;font-family:Calibri;font-size:0.833336em}
		.st29 {font-size:1em}
		.st30 {fill:#000000;fill-opacity:1;stroke:#000000;stroke-opacity:1;stroke-width:0.090252707581227}
		.st31 {fill:#0066cc;font-family:Calibri;font-size:0.666664em;font-weight:bold}
		.st32 {fill:#ffffff;stroke:#000000;stroke-width:0.75}
		.st33 {stroke:#000000;stroke-width:0.75}
		.st34 {fill:#000000;font-family:Calibri;font-size:0.75em}
		.st35 {marker-end:url(#mrkr4-781);stroke:#000000;stroke-linecap:round;stroke-linejoin:round;stroke-width:1}
		.st36 {fill:none;fill-rule:evenodd;font-size:12px;overflow:visible;stroke-linecap:square;stroke-miterlimit:3}
 </style>
 <defs id="Markers">
  <g id="lend5">
   <path d="M 2 1 L 0 0 L 1.98117 -0.993387 C 1.67173 -0.364515 1.67301 0.372641 1.98465 1.00043 " style="stroke:none">
   </path>
  </g>
  <marker class="st7" id="mrkr5-46" markerUnits="strokeWidth" orient="auto" overflow="visible" refX="-6.16">
   <use transform="scale(-3.52,-3.52) " xlink:href="#lend5">
   </use>
  </marker>
  <marker class="st15" id="mrkr5-95" markerUnits="strokeWidth" orient="auto" overflow="visible" refX="7.15">
   <use transform="scale(4.36) " xlink:href="#lend5">
   </use>
  </marker>
  <marker class="st7" id="mrkr5-289" markerUnits="strokeWidth" orient="auto" overflow="visible" refX="5.8">
   <use transform="scale(3.52) " xlink:href="#lend5">
   </use>
  </marker>
  <marker class="st15" id="mrkr5-301" markerUnits="strokeWidth" orient="auto" overflow="visible" refX="-7.63">
   <use transform="scale(-4.36,-4.36) " xlink:href="#lend5">
   </use>
  </marker>
  <marker class="st30" id="mrkr5-390" markerUnits="strokeWidth" orient="auto" overflow="visible" refX="-19.39">
   <use transform="scale(-11.08,-11.08) " xlink:href="#lend5">
   </use>
  </marker>
  <g id="lend4">
   <path d="M 2 1 L 0 0 L 2 -1 L 2 1 " style="stroke:none">
   </path>
  </g>
  <marker class="st7" id="mrkr4-781" markerUnits="strokeWidth" orient="auto" overflow="visible" refX="-7.04">
   <use transform="scale(-3.52,-3.52) " xlink:href="#lend4">
   </use>
  </marker>
 </defs>
 <defs id="Filters">
  <filter id="filter_2.6666667461395">
   <feGaussianBlur stdDeviation="2.6666667461395">
   </feGaussianBlur>
  </filter>
  <filter id="filter_2">
   <feGaussianBlur stdDeviation="2">
   </feGaussianBlur>
  </filter>
 </defs>
 <g>
  <g transform="translate(227.375,-643.688)">
   <g class="st1" id="shadow580-2" transform="matrix(1,0,0,1,0,3)">
    <rect class="st2" height="200.25" width="224.25" x="0" y="648.75">
    </rect>
   </g>
   <rect class="st3" height="200.25" width="224.25" x="0" y="648.75">
   </rect>
  </g>
  <g transform="translate(228.875,-16.6875)">
   <g class="st1" id="shadow577-7" transform="matrix(1,0,0,1,0,3)">
    <rect class="st2" height="270.562" width="219.284" x="0" y="578.438">
    </rect>
   </g>
   <rect class="st3" height="270.562" width="219.284" x="0" y="578.438">
   </rect>
  </g>
  <g transform="translate(881.411,-114.375)">
   <g class="st1" id="shadow512-12" transform="matrix(1,0,0,1,0,3)">
    <rect class="st2" height="193.079" width="129.831" x="0" y="655.921">
    </rect>
   </g>
   <rect class="st3" height="193.079" width="129.831" x="0" y="655.921">
   </rect>
  </g>
  <g transform="translate(136.625,-296.063)">
   <g class="st1" id="shadow381-17" transform="matrix(1,0,0,1,0,3)">
    <rect class="st2" height="163.313" width="318" x="0" y="685.688">
    </rect>
   </g>
   <rect class="st3" height="163.313" width="318" x="0" y="685.688">
   </rect>
  </g>
  <g transform="translate(883.891,-7.50001)">
   <g class="st1" id="shadow249-22" transform="matrix(1,0,0,1,0,3)">
    <rect class="st2" height="98.1562" width="129.108" x="0" y="750.844">
    </rect>
   </g>
   <rect class="st3" height="98.1562" width="129.108" x="0" y="750.844">
   </rect>
  </g>
  <g transform="translate(1791.72,800.346) rotate(90)">
   <path class="st4" d="M0 849 L13.45 849">
   </path>
  </g>
  <g transform="translate(874.625,-608.813)">
   <g class="st1" id="shadow131-30" transform="matrix(1,0,0,1,0,3)">
    <rect class="st2" height="236.25" width="135.281" x="0" y="612.75">
    </rect>
   </g>
   <rect class="st3" height="236.25" width="135.281" x="0" y="612.75">
   </rect>
  </g>
  <g transform="translate(592.344,-625.688)">
   <g class="st1" id="shadow45-35" transform="matrix(1,0,0,1,0,3)">
    <rect class="st2" height="221.812" width="118.125" x="0" y="627.188">
    </rect>
   </g>
   <rect class="st3" height="221.812" width="118.125" x="0" y="627.188">
   </rect>
  </g>
  <g transform="translate(1448.92,1.68749) rotate(90)">
   <path class="st5" d="M0 849 L219.38 849 L182.81 821.24 L36.56 821.24 L0 849 Z">
   </path>
  </g>
  <g transform="translate(623.477,-733.628)">
   <path class="st6" d="M4.35 840.08 L7.49 840.03">
   </path>
  </g>
  <g transform="translate(695.043,-743.023) rotate(0.158611)">
   <path class="st6" d="M0 849 L217.96 849">
   </path>
  </g>
  <g transform="translate(604.709,-834.494)">
   <desc>
    GCLK Generator 0
   </desc>
   <rect class="st8" height="9.28125" width="90.4891" x="0" y="839.719">
   </rect>
   <text class="st9" x="16.23" y="846.76">
    GCLK Generator 0
   </text>
  </g>
  <g transform="translate(887.46,-830.095)">
   <desc>
    Main Clock
   </desc>
   <rect class="st8" height="10.4306" width="109.61" x="0" y="838.569">
   </rect>
   <text class="st9" x="36.88" y="846.18">
    Main Clock
   </text>
  </g>
  <g transform="translate(713.908,-746.547)">
   <desc>
    GCLK0
   </desc>
   <rect class="st8" height="9.28125" width="29.6961" x="0" y="839.719">
   </rect>
   <text class="st10" x="4.4" y="846.76">
    GCLK0
   </text>
  </g>
  <g transform="translate(960.027,-810.702)">
   <path class="st6" d="M0 849 L114.93 849">
   </path>
  </g>
  <g transform="translate(939.59,1644.02) rotate(180)">
   <path class="st4" d="M0 849 L100.89 849">
   </path>
  </g>
  <g transform="translate(947.7,-61.2126)">
   <path class="st4" d="M0 857.72 L138.42 858.28">
   </path>
  </g>
  <g transform="translate(938.426,-46.0001)">
   <path class="st11" d="M0 835.21 L0 849 L10.03 842.52 L0 835.21 Z">
   </path>
  </g>
  <g transform="translate(895.875,-94.6875)">
   <desc>
    GCLK Input Output (IO)
   </desc>
   <rect class="st8" height="9.28125" width="97.5326" x="0" y="839.719">
   </rect>
   <text class="st9" x="11.27" y="846.76">
    GCLK Input Output (IO)
   </text>
  </g>
  <g transform="translate(948.032,1610.27) rotate(180)">
   <path class="st11" d="M0 835.21 L0 849 L10.03 842.52 L0 835.21 Z">
   </path>
  </g>
  <g transform="translate(948.095,-71.9491)">
   <path class="st4" d="M0 840 L25.46 840">
   </path>
  </g>
  <g transform="translate(1822.65,768.094) rotate(90)">
   <path class="st4" d="M0 849 L28.37 849">
   </path>
  </g>
  <g transform="translate(972.065,-50.6968)">
   <g class="st1" id="shadow283-86" transform="matrix(1,0,0,1,0.345598,1.97279)">
    <ellipse class="st12" cx="1.82812" cy="847.172" rx="1.82812" ry="1.82812">
    </ellipse>
   </g>
   <ellipse class="st13" cx="1.82812" cy="847.172" rx="1.82812" ry="1.82812">
   </ellipse>
  </g>
  <g transform="translate(837.391,-72.1741)">
   <path class="st14" d="M5.36 840 L5.72 840 L100.76 840">
   </path>
  </g>
  <g transform="translate(832.556,-84.3997)">
   <desc>
    GCLK_IN[x]
   </desc>
   <rect class="st8" height="9.28125" width="45.7105" x="0" y="839.719">
   </rect>
   <text class="st10" x="4.67" y="846.76">
    GCLK_IN[x]
   </text>
  </g>
  <g transform="translate(830.75,-56.3254)">
   <desc>
    GCLKx
   </desc>
   <rect class="st8" height="9.28125" width="33.8839" x="0" y="839.719">
   </rect>
   <text class="st10" x="6.79" y="846.76">
    GCLKx
   </text>
  </g>
  <g transform="translate(375.125,-802.313)">
   <path class="st6" d="M0 840 L116.47 840">
   </path>
  </g>
  <g transform="translate(386.375,-710.062)">
   <path class="st6" d="M0 840 L104.59 840">
   </path>
  </g>
  <g transform="translate(444.661,-814.238)">
   <desc>
    OSC16M
   </desc>
   <rect class="st8" height="9.28125" width="51.9583" x="0" y="839.719">
   </rect>
   <text class="st10" x="11.89" y="846.76">
    OSC16M
   </text>
  </g>
  <g transform="translate(451.252,-721.42)">
   <desc>
    XOSC
   </desc>
   <rect class="st8" height="9.28125" width="51.9583" x="0" y="839.719">
   </rect>
   <text class="st10" x="17.28" y="846.76">
    XOSC
   </text>
  </g>
  <g transform="translate(93.3125,-357.427)">
   <path class="st6" d="M0 840 L47 840">
   </path>
  </g>
  <g transform="translate(45.9821,-392.75)">
   <path class="st16" d="M0 840 L152.33 840">
   </path>
  </g>
  <g transform="translate(154.382,-350.245)">
   <path class="st16" d="M9 849 L9 873.17">
   </path>
  </g>
  <g transform="translate(183.437,-357.348)">
   <path class="st16" d="M3.78 840 L14.22 840">
   </path>
  </g>
  <g transform="translate(87.2316,-427.164)">
   <path class="st16" d="M0 840 L111.08 840">
   </path>
  </g>
  <g transform="translate(216.687,-392.68)">
   <path class="st6" d="M0 840 L67.15 840">
   </path>
  </g>
  <g transform="translate(361.71,-392.834)">
   <path class="st6" d="M0 840 L22.04 840">
   </path>
  </g>
  <g transform="translate(404.183,-388.52)">
   <path class="st16" d="M9 851.15 L9 864.85">
   </path>
  </g>
  <g transform="translate(339.862,-388.602)">
   <path class="st16" d="M9 851.15 L9 864.85">
   </path>
  </g>
  <g transform="translate(431.948,-392.873)">
   <path class="st6" d="M0 840 L65.02 840">
   </path>
  </g>
  <g transform="translate(455.042,-403.75)">
   <desc>
    FDPLL
   </desc>
   <rect class="st8" height="9.28125" width="51.9583" x="0" y="839.719">
   </rect>
   <text class="st10" x="16.25" y="846.76">
    FDPLL
   </text>
  </g>
  <g transform="translate(264.398,-445.425)">
   <desc>
    Fractional Digital Phase Locked Loop
   </desc>
   <rect class="st8" height="9.28125" width="132.852" x="0" y="839.719">
   </rect>
   <text class="st9" x="7.28" y="846.76">
    Fractional Digital Phase Locked Loop
   </text>
  </g>
  <g transform="translate(353.625,-195.188)">
   <path class="st6" d="M0 857.81 L133.47 858.17">
   </path>
  </g>
  <g transform="translate(351.781,-26.1171)">
   <path class="st6" d="M0 840 L134.75 840">
   </path>
  </g>
  <g transform="translate(214.068,-66.7688)">
   <path class="st16" d="M0 840 L44.81 840">
   </path>
  </g>
  <g transform="translate(213.296,-26.1788)">
   <path class="st16" d="M0 840 L45.9 840">
   </path>
  </g>
  <g transform="translate(204.178,-31.4588)">
   <rect class="st17" height="9.04485" width="9.04485" x="0" y="839.955">
   </rect>
  </g>
  <g transform="translate(-391.611,221.455) rotate(-45)">
   <path class="st18" d="M0 842.78 L6.19 842.78 L6.19 849 L6.19 842.78 L12.37 842.78 L6.19 842.78 L6.19 836.57 L6.19 842.78 L0 842.78
						 Z">
   </path>
  </g>
  <g transform="translate(204.928,-71.5388)">
   <rect class="st17" height="9.04485" width="9.04485" x="0" y="839.955">
   </rect>
  </g>
  <g transform="translate(-390.861,181.375) rotate(-45)">
   <path class="st18" d="M0 842.78 L6.19 842.78 L6.19 849 L6.19 842.78 L12.37 842.78 L6.19 842.78 L6.19 836.57 L6.19 842.78 L0 842.78
						 Z">
   </path>
  </g>
  <g transform="translate(1221.74,717.188) rotate(90)">
   <path class="st5" d="M0 849 L78.75 849 L65.62 830.86 L13.13 830.86 L0 849 Z">
   </path>
  </g>
  <g transform="translate(391.437,-101.18)">
   <path class="st6" d="M0 857.88 L95.65 858.1">
   </path>
  </g>
  <g transform="translate(240.875,-76.9354)">
   <path class="st16" d="M0 849 L0 814.33 L131.86 814.33">
   </path>
  </g>
  <g transform="translate(238.803,-73.7325)">
   <path class="st19" d="M0 846.74 A2.26121 2.26121 0 0 1 4.52 846.74 A2.26121 2.26121 0 1 1 0 846.74 Z">
   </path>
  </g>
  <g transform="translate(165.395,-65.0888)">
   <desc>
    XIN32
   </desc>
   <rect class="st20" height="20.0997" width="43.0879" x="0" y="828.9">
   </rect>
   <text class="st21" x="6.96" y="842.55">
    XIN32
   </text>
  </g>
  <g transform="translate(155.884,-24.6488)">
   <desc>
    XOUT32
   </desc>
   <rect class="st20" height="20.0997" width="49.4029" x="0" y="828.9">
   </rect>
   <text class="st21" x="4.76" y="842.55">
    XOUT32
   </text>
  </g>
  <g transform="translate(445.411,-187.018)">
   <desc>
    OSCULP1K
   </desc>
   <rect class="st8" height="9.28125" width="51.9583" x="0" y="839.719">
   </rect>
   <text class="st10" x="8.94" y="846.76">
    OSCULP1K
   </text>
  </g>
  <g transform="translate(450.554,-94.875)">
   <desc>
    XOSC32K
   </desc>
   <rect class="st8" height="9.28125" width="38.2246" x="0" y="839.719">
   </rect>
   <text class="st10" x="4.28" y="846.76">
    XOSC32K
   </text>
  </g>
  <g transform="translate(353.375,-135.938)">
   <path class="st6" d="M0 840 L134.28 840">
   </path>
  </g>
  <g transform="translate(447.554,-148.393)">
   <desc>
    OSCULP32K
   </desc>
   <rect class="st8" height="9.28125" width="51.9583" x="0" y="839.719">
   </rect>
   <text class="st10" x="6.91" y="846.76">
    OSCULP32K
   </text>
  </g>
  <g transform="translate(1088.32,-341.264)">
   <desc>
    EIC
   </desc>
   <g class="st1" id="shadow412-219" transform="matrix(1,0,0,1,0.345598,1.97279)">
    <rect class="st12" height="26.3613" width="69.8003" x="0" y="822.639">
    </rect>
   </g>
   <rect class="st22" height="26.3613" width="69.8003" x="0" y="822.639">
   </rect>
   <text class="st21" x="27.26" y="839.42">
    EIC
   </text>
  </g>
  <g transform="translate(354.056,-267.704)">
   <path class="st6" d="M0 857.86 L131.91 858.13">
   </path>
  </g>
  <g transform="translate(449.268,-260.518)">
   <desc>
    OSC32K
   </desc>
   <rect class="st8" height="9.28125" width="36.1142" x="0" y="839.719">
   </rect>
   <text class="st10" x="5.31" y="846.76">
    OSC32K
   </text>
  </g>
  <g transform="translate(353.187,-228.215)">
   <path class="st6" d="M0 857.75 L134.25 858.23">
   </path>
  </g>
  <g transform="translate(447.339,-220.446)">
   <desc>
    OSC1K
   </desc>
   <rect class="st8" height="9.28125" width="36.1142" x="0" y="839.719">
   </rect>
   <text class="st10" x="7.33" y="846.76">
    OSC1K
   </text>
  </g>
  <g transform="translate(351.406,-69.4622)">
   <path class="st16" d="M0 840 L20.8 840">
   </path>
  </g>
  <g transform="translate(1088.32,-309.604)">
   <desc>
    WDT
   </desc>
   <g class="st1" id="shadow468-244" transform="matrix(1,0,0,1,0.345598,1.97279)">
    <rect class="st12" height="26.3613" width="69.8003" x="0" y="822.639">
    </rect>
   </g>
   <rect class="st22" height="26.3613" width="69.8003" x="0" y="822.639">
   </rect>
   <text class="st21" x="22.95" y="839.42">
    WDT
   </text>
  </g>
  <g transform="translate(448.411,-36.8036)">
   <desc>
    XOSC1K
   </desc>
   <rect class="st8" height="9.28125" width="38.2246" x="0" y="839.719">
   </rect>
   <text class="st10" x="6.31" y="846.76">
    XOSC1K
   </text>
  </g>
  <g transform="translate(1088.4,-212.804)">
   <desc>
    RTC
   </desc>
   <g class="st1" id="shadow475-253" transform="matrix(1,0,0,1,0.345598,1.97279)">
    <rect class="st12" height="26.3613" width="69.2192" x="0" y="822.639">
    </rect>
   </g>
   <rect class="st22" height="26.3613" width="69.2192" x="0" y="822.639">
   </rect>
   <text class="st21" x="25.23" y="839.42">
    RTC
   </text>
  </g>
  <g transform="translate(1818.12,541.688) rotate(90)">
   <path class="st5" d="M0 849 L167.62 849 L139.69 822.88 L27.94 822.88 L0 849 Z">
   </path>
  </g>
  <g transform="translate(826.125,-229.188)">
   <path class="st16" d="M0 840 L144.13 840">
   </path>
  </g>
  <g transform="translate(831.875,-224.35)">
   <path class="st16" d="M0 857.99 L136.69 858.01">
   </path>
  </g>
  <g transform="translate(831.875,-181.792)">
   <path class="st16" d="M0 840.08 L136.97 839.92">
   </path>
  </g>
  <g transform="translate(832.075,-253.722)">
   <path class="st16" d="M0 840.15 L136.49 839.85">
   </path>
  </g>
  <g transform="translate(832.165,-277.976)">
   <path class="st16" d="M0 840.09 L136.68 839.91">
   </path>
  </g>
  <g transform="translate(994.982,-216.836)">
   <path class="st6" d="M0 840 L86.8 840">
   </path>
  </g>
  <g transform="translate(939.013,-283.864)">
   <path class="st19" d="M0 845.95 A3.05105 3.05105 0 1 1 6.1 845.95 A3.05105 3.05105 0 0 1 0 845.95 Z">
   </path>
  </g>
  <g transform="translate(910.309,-259.683)">
   <path class="st19" d="M0 845.95 A3.05105 3.05105 0 1 1 6.1 845.95 A3.05105 3.05105 0 0 1 0 845.95 Z">
   </path>
  </g>
  <g transform="translate(907.754,887.213) rotate(-179.465)">
   <path class="st23" d="M5.8 849 L6.16 849 L60.19 849">
   </path>
  </g>
  <g transform="translate(1704.5,38.6081) rotate(90.138)">
   <path class="st16" d="M0 849 L140.06 849">
   </path>
  </g>
  <g transform="translate(293.521,-387.902)">
   <path class="st16" d="M9 851.15 L9 864.85">
   </path>
  </g>
  <g transform="translate(941.932,-286.792)">
   <path class="st24" d="M0 849 L0 812.66 L140.29 812.66">
   </path>
  </g>
  <g transform="translate(913.169,-263.281)">
   <path class="st24" d="M0 849 L0 756.98 L169.05 756.98">
   </path>
  </g>
  <g transform="translate(883.608,-145.724)">
   <desc>
    RTC Clock Selection
   </desc>
   <rect class="st8" height="11.7557" width="103.9" x="0" y="837.244">
   </rect>
   <text class="st9" x="20.32" y="845.52">
    RTC Clock Selection
   </text>
  </g>
  <g transform="translate(831.875,-160.302)">
   <path class="st16" d="M0 840.2 L136.69 839.8">
   </path>
  </g>
  <g transform="translate(265.125,-274.375)">
   <desc>
    32 KHz Oscillators Controller
   </desc>
   <rect class="st8" height="9.28125" width="132.852" x="0" y="839.719">
   </rect>
   <text class="st9" x="20.12" y="846.76">
    32 KHz Oscillators Controller
   </text>
  </g>
  <g transform="translate(270.322,-834.604)">
   <desc>
    Oscillators Controller
   </desc>
   <rect class="st8" height="9.28125" width="132.852" x="0" y="839.719">
   </rect>
   <text class="st9" x="32.13" y="846.76">
    Oscillators Controller
   </text>
  </g>
  <g transform="translate(1081.4,-798.57)">
   <desc>
    CPU
   </desc>
   <g class="st1" id="shadow591-320" transform="matrix(1,0,0,1,0.345598,1.97279)">
    <rect class="st12" height="24.2638" width="122.849" x="0" y="824.736">
    </rect>
   </g>
   <rect class="st22" height="24.2638" width="122.849" x="0" y="824.736">
   </rect>
   <text class="st21" x="51.28" y="840.47">
    CPU
   </text>
  </g>
  <g transform="translate(659.453,-726.699)">
   <path class="st16" d="M9 849 L9 873.17">
   </path>
  </g>
  <g transform="translate(636.125,-726.527)">
   <desc>
    ÷
   </desc>
   <path class="st11" d="M4.4 849 L57.13 849 A4.18407 4.18407 -180 0 0 61.31 844.82 L61.31 821.19 A4.18407 4.18407 -180 0 0 57.13 817.01
						 L3.86 817.01 A3.85696 3.85696 -180 0 0 0 820.87 L0 844.6 A4.39869 4.39869 -180 0 0 4.4 849 Z">
   </path>
   <text class="st25" x="6.5" y="836.04">
    ÷
   </text>
  </g>
  <g transform="translate(599.469,869.911) rotate(180)">
   <path class="st16" d="M0 849 L53.82 849">
   </path>
  </g>
  <g transform="translate(599.301,999.895) rotate(180)">
   <path class="st16" d="M0 849 L53.65 849">
   </path>
  </g>
  <g transform="translate(599.281,934.486) rotate(180)">
   <path class="st16" d="M0 849 L53.63 849">
   </path>
  </g>
  <g transform="translate(599.562,956.567) rotate(180)">
   <path class="st16" d="M0 849 L53.91 849">
   </path>
  </g>
  <g transform="translate(599.656,978.648) rotate(180)">
   <path class="st16" d="M0 849 L54 849">
   </path>
  </g>
  <g transform="translate(599.469,891.158) rotate(180)">
   <path class="st16" d="M0 849 L53.82 849">
   </path>
  </g>
  <g transform="translate(599.562,913.655) rotate(180)">
   <path class="st16" d="M0 849 L53.91 849">
   </path>
  </g>
  <g transform="translate(1086.58,-44.3438)">
   <g transform="translate(0,2.01563)">
    <g class="st1" id="shadow593-354" transform="matrix(1,0,0,1,0.345598,1.97279)">
     <rect class="st12" height="20.8125" width="64.4674" x="0" y="828.188">
     </rect>
    </g>
    <rect class="st22" height="20.8125" width="64.4674" x="0" y="828.188">
    </rect>
   </g>
   <g transform="translate(15,-3.75)">
    <desc>
     GCLK_IO[x]
    </desc>
    <rect class="st26" height="9.28125" width="49.5" x="0" y="839.719">
    </rect>
    <text class="st10" x="6.5" y="846.76">
     GCLK_IO[x]
    </text>
   </g>
   <g transform="translate(8.65909,-4.29545)">
    <rect class="st27" height="9.04485" width="9.04485" x="0" y="839.955">
    </rect>
   </g>
   <g transform="translate(-587.112,248.528) rotate(-45)">
    <path class="st27" d="M0 842.9 L6.13 842.9 L6.13 849 L6.13 842.9 L12.26 842.9 L6.13 842.9 L6.13 836.81 L6.13 842.9 L0 842.9 Z">
    </path>
   </g>
  </g>
  <g transform="translate(599.361,1022.43) rotate(180)">
   <path class="st16" d="M0 849 L53.71 849">
   </path>
  </g>
  <g transform="translate(318.425,-771.038)">
  </g>
  <g transform="translate(279.5,-784.313)">
   <desc>
    16 MHz Internal Oscillator
   </desc>
   <path class="st11" d="M4.47 849 L91.89 849 A4.85685 4.85685 -180 0 0 96.75 844.14 L96.75 804.1 A4.27403 4.27403 -180 0 0 92.48 799.83
						 L5.05 799.83 A5.05112 5.05112 -180 0 0 0 804.88 L0 844.53 A4.4683 4.4683 -180 0 0 4.47 849 Z">
   </path>
   <text class="st28" x="4" y="827.41">
    16 MHz Internal
    <tspan class="st29" dy="1.2em" x="4">
     Oscillator
    </tspan>
   </text>
  </g>
  <g transform="translate(317.635,-768.893)">
   <path class="st16" d="M9 845.6 L9 834.41">
   </path>
  </g>
  <g transform="translate(354.11,-695.664)">
   <path class="st16" d="M0 840 L18.31 840">
   </path>
  </g>
  <g transform="translate(213.393,-716.844)">
   <path class="st16" d="M0 840 L45.15 840">
   </path>
  </g>
  <g transform="translate(212.868,-674.004)">
   <path class="st16" d="M0 840 L45.68 840">
   </path>
  </g>
  <g transform="translate(203.675,-678.333)">
   <rect class="st17" height="9.04485" width="9.04485" x="0" y="839.955">
   </rect>
  </g>
  <g transform="translate(-392.114,-425.42) rotate(-45)">
   <path class="st18" d="M0 842.78 L6.19 842.78 L6.19 849 L6.19 842.78 L12.37 842.78 L6.19 842.78 L6.19 836.57 L6.19 842.78 L0 842.78
						 Z">
   </path>
  </g>
  <g transform="translate(204.168,-720.92)">
   <rect class="st17" height="9.04485" width="9.04485" x="0" y="839.955">
   </rect>
  </g>
  <g transform="translate(-391.622,-468.007) rotate(-45)">
   <path class="st18" d="M0 842.78 L6.19 842.78 L6.19 849 L6.19 842.78 L12.37 842.78 L6.19 842.78 L6.19 836.57 L6.19 842.78 L0 842.78
						 Z">
   </path>
  </g>
  <g transform="translate(240.125,-722.333)">
   <path class="st16" d="M0 844.96 L0 835.04 L131.95 835.04">
   </path>
  </g>
  <g transform="translate(237.912,-723.563)">
   <path class="st19" d="M0 846.74 A2.26121 2.26121 0 0 1 4.52 846.74 A2.26121 2.26121 0 1 1 0 846.74 Z">
   </path>
  </g>
  <g transform="translate(175.458,-716.938)">
   <desc>
    XIN
   </desc>
   <rect class="st20" height="20.0997" width="28.555" x="0" y="828.9">
   </rect>
   <text class="st21" x="5.78" y="842.55">
    XIN
   </text>
  </g>
  <g transform="translate(164.625,-669.188)">
   <desc>
    XOUT
   </desc>
   <rect class="st20" height="20.0997" width="36.495" x="0" y="828.9">
   </rect>
   <text class="st21" x="4.39" y="842.55">
    XOUT
   </text>
  </g>
  <g transform="translate(252.5,-678.894)">
   <desc>
    Crystal Oscillator
   </desc>
   <path class="st11" d="M4.44 849 L97.65 849 A3.92629 3.92629 -180 0 0 101.57 845.07 L101.57 801.95 A5.12122 5.12122 -180 0 0 96.45
						 796.83 L4.44 796.83 A4.43829 4.43829 -180 0 0 0 801.26 L0 844.56 A4.43829 4.43829 -180 0 0 4.44 849 Z">
   </path>
   <text class="st28" x="16.54" y="825.91">
    Crystal Oscillator
   </text>
  </g>
  <g transform="translate(1221.73,95.0625) rotate(90)">
   <path class="st5" d="M0 849 L74.25 849 L61.87 830.86 L12.38 830.86 L0 849 Z">
   </path>
  </g>
  <g transform="translate(289.813,-385.443)">
   <desc>
    ×
   </desc>
   <path class="st11" d="M3.75 849 L66.75 849 A4.8158 4.8158 -180 0 0 71.57 844.18 L71.57 821.83 A4.8158 4.8158 -180 0 0 66.75 817.01
						 L4.87 817.01 A4.87488 4.87488 -180 0 0 -0 821.89 L0 845.25 A3.7499 3.7499 -180 0 0 3.75 849 Z">
   </path>
   <text class="st25" x="9" y="836.04">
    ×
   </text>
  </g>
  <g transform="translate(389.31,-385.688)">
   <desc>
    ÷
   </desc>
   <path class="st11" d="M4.77 849 L42.97 849 A4.77455 4.77455 -180 0 0 47.75 844.23 L47.75 822.27 A4.77455 4.77455 -180 0 0 42.97 817.5
						 L4.77 817.5 A4.77455 4.77455 -180 0 0 0 822.27 L0 844.23 A4.77455 4.77455 -180 0 0 4.77 849 Z">
   </path>
   <text class="st28" x="10.78" y="836.25">
    ÷
   </text>
  </g>
  <g transform="translate(249.125,-23.8125)">
   <desc>
    32K Crystal Oscillator
   </desc>
   <path class="st11" d="M6.47 849 L105.92 849 A6.58471 6.58471 -180 0 0 112.5 842.42 L112.5 788.79 A6.91953 6.91953 -180 0 0 105.58
						 781.88 L7.48 781.88 A7.47756 7.47756 -180 0 0 0 789.35 L0 842.53 A6.47311 6.47311 -180 0 0 6.47 849 Z">
   </path>
   <text class="st28" x="13.21" y="818.44">
    32K Crystal Oscillator
   </text>
  </g>
  <g transform="translate(306.768,-73.9622)">
   <desc>
    32 KHz
   </desc>
   <rect class="st20" height="8.15625" width="32.261" x="0" y="840.844">
   </rect>
   <text class="st31" x="4.87" y="847.32">
    32 KHz
   </text>
  </g>
  <g transform="translate(310.304,-32.1765)">
   <desc>
    1 KHz
   </desc>
   <rect class="st20" height="8.15625" width="28.1732" x="0" y="840.844">
   </rect>
   <text class="st31" x="4.85" y="847.32">
    1 KHz
   </text>
  </g>
  <g transform="translate(246.875,-203.813)">
   <desc>
    32K High Accuracy Internal Oscillator
   </desc>
   <path class="st11" d="M4.83 849 L112.73 849 A5.39349 5.39349 -180 0 0 118.13 843.61 L118.12 789.65 A6.08295 6.08295 -180 0 0 112.04
						 783.56 L5.17 783.56 A5.17404 5.17404 -180 0 0 0 788.74 L0 844.17 A4.82932 4.82932 -180 0 0 4.83 849 Z">
   </path>
   <text class="st28" x="4.54" y="813.28">
    32K High Accuracy Internal
    <tspan class="st29" dy="1.2em" x="39.79">
     Oscillator
    </tspan>
   </text>
  </g>
  <g transform="translate(308.466,-253.918)">
   <desc>
    32 KHz
   </desc>
   <rect class="st20" height="8.15625" width="32.7054" x="0" y="840.844">
   </rect>
   <text class="st31" x="5.09" y="847.32">
    32 KHz
   </text>
  </g>
  <g transform="translate(312.599,-213.69)">
   <desc>
    1 KHz
   </desc>
   <rect class="st20" height="8.15625" width="29.5875" x="0" y="840.844">
   </rect>
   <text class="st31" x="5.56" y="847.32">
    1 KHz
   </text>
  </g>
  <g transform="translate(249.125,-135.239)">
   <desc>
    32K Ultra Low Power Internal Oscillator
   </desc>
   <path class="st11" d="M5.39 849 L99.1 849 A5.69331 5.69331 -180 0 0 104.79 843.31 L104.79 793.09 A5.99954 5.99954 -180 0 0 98.79 787.09
						 L5.39 787.09 A5.39013 5.39013 -180 0 0 0 792.48 L0 843.61 A5.39013 5.39013 -180 0 0 5.39 849 Z">
   </path>
   <text class="st28" x="9.83" y="815.04">
    32K Ultra Low Power
    <tspan class="st29" dy="1.2em" x="16.03">
     Internal Oscillator
    </tspan>
   </text>
  </g>
  <g transform="translate(311.341,-182.069)">
   <desc>
    1 KHz
   </desc>
   <rect class="st20" height="8.15625" width="35.5714" x="0" y="840.844">
   </rect>
   <text class="st31" x="7.65" y="847.32">
    1  KHz
   </text>
  </g>
  <g transform="translate(311.75,-142.694)">
   <desc>
    32 KHz
   </desc>
   <rect class="st20" height="8.15625" width="34.8037" x="0" y="840.844">
   </rect>
   <text class="st31" x="6.14" y="847.32">
    32 KHz
   </text>
  </g>
  <g transform="translate(1791.3,51.8211) rotate(90)">
   <path class="st16" d="M0 849 L12.11 849">
   </path>
  </g>
  <g transform="translate(915.436,-797.812)">
   <desc>
    ÷
   </desc>
   <path class="st11" d="M4.18 849 L49.69 849 A3.96641 3.96641 -180 0 0 53.66 845.03 L53.66 828.22 A3.96641 3.96641 -180 0 0 49.69 824.25
						 L3.55 824.25 A3.54498 3.54498 -180 0 0 -0 827.8 L0 844.82 A4.17712 4.17712 -180 0 0 4.18 849 Z">
   </path>
   <text class="st25" x="11.5" y="839.66">
    ÷
   </text>
  </g>
  <g transform="translate(74.9911,-395.089)">
   <path class="st32" d="M0 834.82 L0 849 L10.31 842.34 L0 834.82 Z">
   </path>
  </g>
  <g transform="translate(70.8125,-382.197)">
   <path class="st16" d="M9 846.82 L9 833.18">
   </path>
  </g>
  <g transform="translate(0.5,-409.5)">
   <desc>
    Clock Source
   </desc>
   <rect class="st20" height="16.1622" width="63.5625" x="0" y="832.838">
   </rect>
   <text class="st28" x="5.91" y="843.92">
    Clock Source
   </text>
  </g>
  <g transform="translate(145.625,-350.073)">
   <desc>
    ÷
   </desc>
   <path class="st11" d="M4.16 849 L37.47 849 A4.16298 4.16298 -180 0 0 41.63 844.84 L41.63 821.17 A4.16298 4.16298 -180 0 0 37.47 817.01
						 L4.16 817.01 A4.16298 4.16298 -180 0 0 0 821.17 L0 844.84 A4.16298 4.16298 -180 0 0 4.16 849 Z">
   </path>
   <text class="st25" x="6.5" y="836.04">
    ÷
   </text>
  </g>
  <g transform="translate(1047.56,394.198) rotate(90)">
   <path class="st5" d="M0 849 L108.54 849 L90.45 831 L18.09 831 L0 849 Z">
   </path>
  </g>
  <g transform="translate(1088.32,-373.951)">
   <desc>
    OPAMP
   </desc>
   <g class="st1" id="shadow678-466" transform="matrix(1,0,0,1,0.345598,1.97279)">
    <rect class="st12" height="26.3613" width="69.8003" x="0" y="822.639">
    </rect>
   </g>
   <rect class="st22" height="26.3613" width="69.8003" x="0" y="822.639">
   </rect>
   <text class="st21" x="16.13" y="839.42">
    OPAMP
   </text>
  </g>
  <g transform="translate(1043.6,-355.724)">
   <path class="st24" d="M0 849 L0 816.17 L38.62 816.17">
   </path>
  </g>
  <g transform="translate(1040.69,-352.34)">
   <path class="st19" d="M0 845.95 A3.05105 3.05105 0 1 1 6.1 845.95 A3.05105 3.05105 0 0 1 0 845.95 Z">
   </path>
  </g>
  <g transform="translate(599.361,1046.52) rotate(180)">
   <path class="st16" d="M0 849 L53.71 849">
   </path>
  </g>
  <g transform="translate(208.625,-469.313)">
   <g class="st1" id="shadow688-482" transform="matrix(1,0,0,1,0,3)">
    <rect class="st2" height="164.625" width="245.25" x="0" y="684.375">
    </rect>
   </g>
   <rect class="st3" height="164.625" width="245.25" x="0" y="684.375">
   </rect>
  </g>
  <g transform="translate(221.069,-528.023)">
   <path class="st16" d="M0 840 L98.67 840">
   </path>
  </g>
  <g transform="translate(132.22,-606.101)">
   <path class="st16" d="M0 840 L107.59 840">
   </path>
  </g>
  <g transform="translate(343.883,-524.31)">
   <path class="st16" d="M9 852.14 L9 863.86">
   </path>
  </g>
  <g transform="translate(319.677,-521.665)">
   <desc>
    ×
   </desc>
   <path class="st11" d="M6.79 849 L61.07 849 A6.78495 6.78495 -180 0 0 67.85 842.21 L67.85 825.57 A6.78495 6.78495 -180 0 0 61.07 818.79
						 L6.79 818.79 A6.78495 6.78495 -180 0 0 -0 825.57 L0 842.21 A6.78495 6.78495 -180 0 0 6.79 849 Z">
   </path>
   <text class="st25" x="9" y="837.19">
    ×
   </text>
  </g>
  <g transform="translate(387.527,-528.366)">
   <path class="st16" d="M0 840.11 L35.91 839.89">
   </path>
  </g>
  <g transform="translate(165.481,-615.833)">
   <desc>
    GCLK_DFLL
   </desc>
   <rect class="st8" height="9.28125" width="48.1974" x="0" y="839.719">
   </rect>
   <text class="st10" x="6.03" y="846.76">
    GCLK_DFLL
   </text>
  </g>
  <g transform="translate(311.402,-586.989)">
   <path class="st6" d="M0 840 L17.44 840">
   </path>
  </g>
  <g transform="translate(406.039,-587.176)">
   <path class="st6" d="M0 840 L83.91 840">
   </path>
  </g>
  <g transform="translate(449.871,-598.659)">
   <desc>
    DFLL
   </desc>
   <rect class="st8" height="9.28125" width="51.9583" x="0" y="839.719">
   </rect>
   <text class="st10" x="18.32" y="846.76">
    DFLL
   </text>
  </g>
  <g transform="translate(277.584,-621.972)">
   <desc>
    Digital Frequency Locked Loop (DFLL)
   </desc>
   <rect class="st8" height="9.28125" width="132.852" x="0" y="839.719">
   </rect>
   <text class="st9" x="5.95" y="846.76">
    Digital Frequency Locked Loop (DFLL)
   </text>
  </g>
  <g transform="translate(334.856,-580.166)">
   <desc>
    DCO
   </desc>
   <path class="st11" d="M3.75 849 L66.75 849 A4.8158 4.8158 -180 0 0 71.57 844.18 L71.57 821.83 A4.8158 4.8158 -180 0 0 66.75 817.01
						 L4.87 817.01 A4.87488 4.87488 -180 0 0 -0 821.89 L0 845.25 A3.7499 3.7499 -180 0 0 3.75 849 Z">
   </path>
   <text class="st25" x="25.23" y="836.04">
    DCO
   </text>
  </g>
  <g transform="translate(155.042,-608.44)">
   <path class="st32" d="M0 834.82 L0 849 L10.31 842.34 L0 834.82 Z">
   </path>
  </g>
  <g transform="translate(150.863,-595.129)">
   <path class="st16" d="M9 847.24 L9 832.76">
   </path>
  </g>
  <g transform="translate(84.125,-629.547)">
   <desc>
    Clock Source
   </desc>
   <rect class="st20" height="20.0997" width="47.8929" x="0" y="828.9">
   </rect>
   <text class="st21" x="10.94" y="835.35">
    Clock
    <tspan class="st29" dy="1.2em" x="7.26">
     Source
    </tspan>
   </text>
  </g>
  <g transform="translate(233.903,-585.84)">
   <path class="st11" d="M0 813 L0 849 L27.56 831 L0 813 Z">
   </path>
  </g>
  <g transform="translate(220.706,-537.252)">
   <path class="st33" d="M13.5 794.73 L0 794.73 L0 849">
   </path>
  </g>
  <g transform="translate(432.298,-598.057)">
   <path class="st16" d="M-9 849 L-9 909.74">
   </path>
  </g>
  <g transform="translate(421.059,-594.052)">
   <path class="st19" d="M0 846.74 A2.26121 2.26121 0 0 1 4.52 846.74 A2.26121 2.26121 0 1 1 0 846.74 Z">
   </path>
  </g>
  <g transform="translate(261.402,-595.035)">
   <path class="st16" d="M0 840 L44.33 840">
   </path>
  </g>
  <g transform="translate(1145.38,228.937) rotate(90)">
   <path class="st5" d="M0 849 L70.88 849 L56.37 827.05 L14.5 827.05 L0 849 Z">
   </path>
  </g>
  <g transform="translate(297.024,1126.98) rotate(180)">
   <path class="st16" d="M0 849 L13.67 849">
   </path>
  </g>
  <g transform="translate(256.625,-566.437)">
   <desc>
    Calib
   </desc>
   <rect class="st8" height="9.28125" width="34.0585" x="0" y="839.719">
   </rect>
   <text class="st10" x="9.04" y="846.76">
    Calib
   </text>
  </g>
  <g transform="translate(595.161,-312.938)">
   <g class="st1" id="shadow712-554" transform="matrix(1,0,0,1,0,3)">
    <rect class="st2" height="290.25" width="120.07" x="0" y="558.75">
    </rect>
   </g>
   <rect class="st3" height="290.25" width="120.07" x="0" y="558.75">
   </rect>
  </g>
  <g transform="translate(1453.55,246.375) rotate(90)">
   <path class="st5" d="M0 849 L288 849 L240 821.87 L48 821.87 L0 849 Z">
   </path>
  </g>
  <g transform="translate(665.456,-439.433)">
   <path class="st16" d="M9 849 L9 885.47">
   </path>
  </g>
  <g transform="translate(626.765,-471.959)">
   <path class="st6" d="M5.07 857.97 L6.77 857.99">
   </path>
  </g>
  <g transform="translate(605.412,1132.4) rotate(180)">
   <path class="st16" d="M0 849 L57.04 849">
   </path>
  </g>
  <g transform="translate(604.967,1316.68) rotate(180)">
   <path class="st16" d="M0 849 L56.59 849">
   </path>
  </g>
  <g transform="translate(605.261,1223.27) rotate(180)">
   <path class="st16" d="M0 849 L56.89 849">
   </path>
  </g>
  <g transform="translate(605.163,1253.85) rotate(180)">
   <path class="st16" d="M0 849 L56.79 849">
   </path>
  </g>
  <g transform="translate(605.163,1284.44) rotate(180)">
   <path class="st16" d="M0 849 L56.79 849">
   </path>
  </g>
  <g transform="translate(605.163,1163.26) rotate(180)">
   <path class="st16" d="M0 849 L56.79 849">
   </path>
  </g>
  <g transform="translate(605.261,1194.42) rotate(180)">
   <path class="st16" d="M0 849 L56.89 849">
   </path>
  </g>
  <g transform="translate(548.375,-350.643)">
   <path class="st16" d="M0 849 L56.89 849">
   </path>
  </g>
  <g transform="translate(695.93,-454.811)">
   <path class="st6" d="M0 849 L62.96 849">
   </path>
  </g>
  <g transform="translate(706.943,-463.877)">
   <desc>
    GCLK1
   </desc>
   <rect class="st8" height="14.0019" width="41.6816" x="0" y="834.998">
   </rect>
   <text class="st10" x="10.4" y="844.4">
    GCLK1
   </text>
  </g>
  <g transform="translate(609.955,-580.644)">
   <desc>
    GCLK Generator 1
   </desc>
   <rect class="st8" height="14.0019" width="92.4649" x="0" y="834.998">
   </rect>
   <text class="st9" x="17.22" y="844.4">
    GCLK Generator 1
   </text>
  </g>
  <g transform="translate(639.119,-439.173)">
   <desc>
    ÷
   </desc>
   <path class="st11" d="M4.32 849 L59.68 849 A4.69384 4.69384 -180 0 0 64.38 844.31 L64.38 805.05 A4.31464 4.31464 -180 0 0 60.06 800.74
						 L4.32 800.74 A4.3177 4.3177 -180 0 0 -0 805.06 L0 844.68 A4.3177 4.3177 -180 0 0 4.32 849 Z">
   </path>
   <text class="st25" x="6.5" y="827.91">
    ÷
   </text>
  </g>
  <g transform="translate(597.875,-10.1875)">
   <g class="st1" id="shadow731-607" transform="matrix(1,0,0,1,0,3)">
    <rect class="st2" height="268.875" width="118.125" x="0" y="580.125">
    </rect>
   </g>
   <rect class="st3" height="268.875" width="118.125" x="0" y="580.125">
   </rect>
  </g>
  <g transform="translate(1454.08,576.563) rotate(90)">
   <path class="st5" d="M0 849 L257.62 849 L214.69 822.45 L42.94 822.45 L0 849 Z">
   </path>
  </g>
  <g transform="translate(610.433,-270.307)">
   <desc>
    GCLK Generator x (x=2-8)
   </desc>
   <rect class="st8" height="9.28125" width="90.4891" x="0" y="839.719">
   </rect>
   <text class="st9" x="4.19" y="846.76">
    GCLK Generator x (x=2-8)
   </text>
  </g>
  <g transform="translate(713.75,-97.3125)">
   <desc>
    GCLKx
   </desc>
   <rect class="st8" height="9.28125" width="29.6961" x="0" y="839.719">
   </rect>
   <text class="st10" x="4.7" y="846.76">
    GCLKx
   </text>
  </g>
  <g transform="translate(674.176,-80.3861)">
   <path class="st16" d="M9 849 L9 873.17">
   </path>
  </g>
  <g transform="translate(650.849,-80.2142)">
   <desc>
    ÷
   </desc>
   <path class="st11" d="M4.4 849 L57.13 849 A4.18407 4.18407 -180 0 0 61.31 844.82 L61.31 821.19 A4.18407 4.18407 -180 0 0 57.13 817.01
						 L3.86 817.01 A3.85696 3.85696 -180 0 0 0 820.87 L0 844.6 A4.39869 4.39869 -180 0 0 4.4 849 Z">
   </path>
   <text class="st25" x="6.5" y="836.04">
    ÷
   </text>
  </g>
  <g transform="translate(604.628,1457.06) rotate(180)">
   <path class="st16" d="M0 849 L53.25 849">
   </path>
  </g>
  <g transform="translate(604.462,1597.89) rotate(180)">
   <path class="st16" d="M0 849 L53.09 849">
   </path>
  </g>
  <g transform="translate(604.442,1527.04) rotate(180)">
   <path class="st16" d="M0 849 L53.07 849">
   </path>
  </g>
  <g transform="translate(604.72,1549.07) rotate(180)">
   <path class="st16" d="M0 849 L53.35 849">
   </path>
  </g>
  <g transform="translate(604.813,1573.36) rotate(180)">
   <path class="st16" d="M0 849 L53.44 849">
   </path>
  </g>
  <g transform="translate(604.628,1480.47) rotate(180)">
   <path class="st16" d="M0 849 L53.25 849">
   </path>
  </g>
  <g transform="translate(604.72,1505.19) rotate(180)">
   <path class="st16" d="M0 849 L53.35 849">
   </path>
  </g>
  <g transform="translate(604.521,1626.02) rotate(180)">
   <path class="st16" d="M0 849 L53.15 849">
   </path>
  </g>
  <g transform="translate(712.25,-97.3125)">
   <path class="st6" d="M0 849 L62.96 849">
   </path>
  </g>
  <g transform="translate(881.408,-384.938)">
   <g class="st1" id="shadow777-655" transform="matrix(1,0,0,1,0,3)">
    <rect class="st2" height="203.431" width="130.467" x="0" y="645.569">
    </rect>
   </g>
   <rect class="st3" height="203.431" width="130.467" x="0" y="645.569">
   </rect>
  </g>
  <g transform="translate(971.775,-475.5)">
   <path class="st16" d="M-8.85 849 L-9.15 821.3">
   </path>
  </g>
  <g transform="translate(912.186,-498.238)">
   <path class="st16" d="M0 840 L44.87 840">
   </path>
  </g>
  <g transform="translate(892.858,1127.42) rotate(180)">
   <path class="st16" d="M0 849 L53.36 849">
   </path>
  </g>
  <g transform="translate(887.778,1235.4) rotate(-179.629)">
   <path class="st16" d="M0 849 L53.44 849">
   </path>
  </g>
  <g transform="translate(893.148,1181.07) rotate(180)">
   <path class="st16" d="M0 849 L53.65 849">
   </path>
  </g>
  <g transform="translate(893.148,1199.42) rotate(180)">
   <path class="st16" d="M0 849 L53.31 849">
   </path>
  </g>
  <g transform="translate(893.148,1217.76) rotate(180)">
   <path class="st16" d="M0 849 L53.87 849">
   </path>
  </g>
  <g transform="translate(893.148,1145.07) rotate(180)">
   <path class="st16" d="M0 849 L53.36 849">
   </path>
  </g>
  <g transform="translate(893.494,1163.76) rotate(180)">
   <path class="st16" d="M0 849 L53.36 849">
   </path>
  </g>
  <g transform="translate(898.626,-575.398)">
   <desc>
    Peripheral Clock Selection
   </desc>
   <rect class="st8" height="9.28125" width="97.5326" x="0" y="839.719">
   </rect>
   <text class="st9" x="6.6" y="846.76">
    Peripheral Clock Selection
   </text>
  </g>
  <g transform="translate(964.471,-497.915)">
   <path class="st6" d="M0 840.08 L103.67 839.92">
   </path>
  </g>
  <g transform="translate(957.694,-500.268)">
   <path class="st11" d="M0 834.82 L0 849 L10.31 842.34 L0 834.82 Z">
   </path>
  </g>
  <g transform="translate(1083.84,-496.224)">
   <desc>
    Peripherals
   </desc>
   <g class="st1" id="shadow790-697" transform="matrix(1,0,0,1,0.345598,1.97279)">
    <rect class="st12" height="20.8125" width="64.4674" x="0" y="828.188">
    </rect>
   </g>
   <rect class="st22" height="20.8125" width="64.4674" x="0" y="828.188">
   </rect>
   <text class="st21" x="4.7" y="842.19">
    Peripherals
   </text>
  </g>
  <g transform="translate(835.25,-570.947)">
   <desc>
    GCLK0
   </desc>
   <rect class="st8" height="9.28125" width="32.9803" x="0" y="839.719">
   </rect>
   <text class="st34" x="4.74" y="847.06">
    GCLK0
   </text>
  </g>
  <g transform="translate(835.25,-554.132)">
   <desc>
    GCLK1
   </desc>
   <rect class="st8" height="9.28125" width="32.9803" x="0" y="839.719">
   </rect>
   <text class="st34" x="4.74" y="847.06">
    GCLK1
   </text>
  </g>
  <g transform="translate(835.25,-535.184)">
   <desc>
    GCLK2
   </desc>
   <rect class="st8" height="9.28125" width="32.9803" x="0" y="839.719">
   </rect>
   <text class="st34" x="4.74" y="847.06">
    GCLK2
   </text>
  </g>
  <g transform="translate(835.25,-517.895)">
   <desc>
    GCLK3
   </desc>
   <rect class="st8" height="9.28125" width="32.9803" x="0" y="839.719">
   </rect>
   <text class="st34" x="4.74" y="847.06">
    GCLK3
   </text>
  </g>
  <g transform="translate(835.25,-498.237)">
   <desc>
    GCLK4
   </desc>
   <rect class="st8" height="9.28125" width="32.9803" x="0" y="839.719">
   </rect>
   <text class="st34" x="4.74" y="847.06">
    GCLK4
   </text>
  </g>
  <g transform="translate(835.25,-480.474)">
   <desc>
    GCLK5
   </desc>
   <rect class="st8" height="9.28125" width="32.9803" x="0" y="839.719">
   </rect>
   <text class="st34" x="4.74" y="847.06">
    GCLK5
   </text>
  </g>
  <g transform="translate(835.25,-462.947)">
   <desc>
    GCLK6
   </desc>
   <rect class="st8" height="9.28125" width="32.9803" x="0" y="839.719">
   </rect>
   <text class="st34" x="4.74" y="847.06">
    GCLK6
   </text>
  </g>
  <g transform="translate(835.25,-446.132)">
   <desc>
    GCLK7
   </desc>
   <rect class="st8" height="9.28125" width="32.9803" x="0" y="839.719">
   </rect>
   <text class="st34" x="4.74" y="847.06">
    GCLK7
   </text>
  </g>
  <g transform="translate(888.083,1253.26) rotate(-179.629)">
   <path class="st16" d="M0 849 L53.44 849">
   </path>
  </g>
  <g transform="translate(888.803,1271.98) rotate(-179.629)">
   <path class="st16" d="M0 849 L53.44 849">
   </path>
  </g>
  <g transform="translate(835.25,-426.45)">
   <desc>
    GCLK8
   </desc>
   <rect class="st8" height="9.28125" width="32.9803" x="0" y="839.719">
   </rect>
   <text class="st34" x="4.74" y="847.06">
    GCLK8
   </text>
  </g>
  <g transform="translate(1742.84,270.598) rotate(90)">
   <path class="st5" d="M0 849 L168.15 849 L140.13 831 L28.03 831 L0 849 Z">
   </path>
  </g>
  <g transform="translate(962.134,-741.928)">
   <path class="st6" d="M0 849 L115.42 849">
   </path>
  </g>
  <g transform="translate(1084,-726.972)">
   <desc>
    Low Power Domain
   </desc>
   <g class="st1" id="shadow804-743" transform="matrix(1,0,0,1,0.345598,1.97279)">
    <rect class="st12" height="30.3435" width="118.988" x="0" y="818.657">
    </rect>
   </g>
   <rect class="st22" height="30.3435" width="118.988" x="0" y="818.657">
   </rect>
   <text class="st21" x="12.12" y="837.43">
    Low Power Domain
   </text>
  </g>
  <g transform="translate(1792.63,118.345) rotate(90)">
   <path class="st16" d="M0 849 L12.11 849">
   </path>
  </g>
  <g transform="translate(916.769,-730.312)">
   <desc>
    ÷
   </desc>
   <path class="st11" d="M4.18 849 L49.69 849 A3.96641 3.96641 -180 0 0 53.66 845.03 L53.66 830.47 A3.96641 3.96641 -180 0 0 49.69 826.5
						 L3.55 826.5 A3.54498 3.54498 -180 0 0 0 830.05 L0 844.82 A4.17712 4.17712 -180 0 0 4.18 849 Z">
   </path>
   <text class="st25" x="11.5" y="840.79">
    ÷
   </text>
  </g>
  <g transform="translate(961.992,-677.523)">
   <path class="st6" d="M0 849 L114.93 849">
   </path>
  </g>
  <g transform="translate(1085.26,-665.828)">
   <desc>
    Backup Domain
   </desc>
   <g class="st1" id="shadow808-760" transform="matrix(1,0,0,1,0.345598,1.97279)">
    <rect class="st12" height="23.3898" width="118.356" x="0" y="825.61">
    </rect>
   </g>
   <rect class="st22" height="23.3898" width="118.356" x="0" y="825.61">
   </rect>
   <text class="st21" x="21.06" y="840.91">
    Backup Domain
   </text>
  </g>
  <g transform="translate(1793.26,185) rotate(90)">
   <path class="st16" d="M0 849 L12.11 849">
   </path>
  </g>
  <g transform="translate(917.401,-663.937)">
   <desc>
    ÷
   </desc>
   <path class="st11" d="M4.18 849 L49.69 849 A3.96641 3.96641 -180 0 0 53.66 845.03 L53.66 829.34 A3.96641 3.96641 -180 0 0 49.69 825.38
						 L3.55 825.38 A3.54498 3.54498 -180 0 0 -0 828.92 L0 844.82 A4.17712 4.17712 -180 0 0 4.18 849 Z">
   </path>
   <text class="st25" x="11.5" y="840.23">
    ÷
   </text>
  </g>
  <g transform="translate(855.219,-671.813)">
   <path class="st6" d="M0 849 L56 849">
   </path>
  </g>
  <g transform="translate(635.469,-158.672)">
   <path class="st35" d="M1.22 849 L1.22 911.13 L9.74 911.13">
   </path>
  </g>
  <g transform="translate(628.866,1539.34) rotate(-179.459)">
   <path class="st16" d="M0 849 L4.97 849">
   </path>
  </g>
  <g transform="translate(551.375,-46.7026)">
  </g>
  <g transform="translate(551.375,-46.7026)">
  </g>
  <g id="clk_sam_l21-gclk-input-pin" transform="translate(551.375,-46.7026)">
   <g id="clk_sam_l21-gclk-input-pin" transform="translate(53.1457,1698) rotate(180)">
    <path class="st16" d="M0 849 L53.15 849">
    </path>
   </g>
  </g>
 </g>
</svg>
