<?xml version="1.0" encoding="UTF-8" standalone="no"?>
<!DOCTYPE svg PUBLIC "-//W3C//DTD SVG 1.1//EN" "http://www.w3.org/Graphics/SVG/1.1/DTD/svg11.dtd">
<!-- Generated by Microsoft Visio, SVG Export adc_u2500.svg Page-1 -->
<svg class="st31" color-interpolation-filters="sRGB" height="9.69618in" viewBox="0 0 1370.97 698.125" width="19.0413in" xml:space="preserve" xmlns="http://www.w3.org/2000/svg" xmlns:xlink="http://www.w3.org/1999/xlink">
 <style type="text/css">
  .st1 {visibility:visible}
		.st2 {fill:#5b9bd5;fill-opacity:0.22;filter:url(#filter_2);stroke:#5b9bd5;stroke-opacity:0.22}
		.st3 {fill:#ffffff;stroke:#000000;stroke-width:0.25}
		.st4 {fill:#000000;fill-opacity:0.4;filter:url(#filter_2.6666667461395);stroke:#000000;stroke-opacity:0.4}
		.st5 {fill:#fcfefe;stroke:#82b366;stroke-width:1}
		.st6 {marker-start:url(#mrkr5-16);stroke:#000000;stroke-linecap:round;stroke-linejoin:round;stroke-width:1}
		.st7 {fill:#000000;fill-opacity:1;stroke:#000000;stroke-opacity:1;stroke-width:0.28409090909091}
		.st8 {stroke:#000000;stroke-linecap:round;stroke-linejoin:round;stroke-width:1}
		.st9 {fill:none;stroke:none;stroke-width:0.25}
		.st10 {fill:#000000;font-family:Calibri;font-size:1.00001em}
		.st11 {marker-end:url(#mrkr5-31);stroke:#000000;stroke-linecap:round;stroke-linejoin:round;stroke-width:1}
		.st12 {fill:#d5e8d4;stroke:#82b366;stroke-width:1}
		.st13 {fill:#000000;font-family:Calibri;font-size:1.00001em;font-weight:bold}
		.st14 {fill:#000000;font-family:Times New Roman;font-size:1.99999em;font-weight:bold}
		.st15 {fill:#203864;font-family:Calibri;font-size:1.00001em}
		.st16 {fill:#fff0e1;stroke:#d79b00;stroke-width:1}
		.st17 {marker-end:url(#mrkr5-31);stroke:#000000;stroke-width:1}
		.st18 {fill:#203864;font-family:Calibri;font-size:1.00001em;font-weight:bold}
		.st19 {fill:#dae8fc;stroke:#6c8ebf;stroke-width:1}
		.st20 {fill:#000000;font-family:Calibri;font-size:1.99999em;font-weight:bold}
		.st21 {fill:#f8cecc;stroke:#c8c8c8;stroke-width:1}
		.st22 {fill:#000000;font-family:Calibri;font-size:1.99999em}
		.st23 {fill:#ffffff;stroke:#82b366;stroke-dasharray:1,2;stroke-width:1}
		.st24 {fill:#feffff;stroke:#70ad47;stroke-width:1}
		.st25 {fill:#000000;stroke:#000000;stroke-width:0.25}
		.st26 {fill:#000000;stroke:#c7c8c8;stroke-width:0.25}
		.st27 {stroke:#000000;stroke-width:1}
		.st28 {stroke:#000000;stroke-dasharray:1,2;stroke-linecap:round;stroke-linejoin:round;stroke-width:1}
		.st29 {fill:none;stroke:none;stroke-width:1}
		.st30 {fill:#000000;stroke:#000000;stroke-width:0.5}
		.st31 {fill:none;fill-rule:evenodd;font-size:12px;overflow:visible;stroke-linecap:square;stroke-miterlimit:3}
 </style>
 <defs id="Markers">
  <g id="lend5">
   <path d="M 2 1 L 0 0 L 1.98117 -0.993387 C 1.67173 -0.364515 1.67301 0.372641 1.98465 1.00043 " style="stroke:none">
   </path>
  </g>
  <marker class="st7" id="mrkr5-16" markerUnits="strokeWidth" orient="auto" overflow="visible" refX="5.8">
   <use transform="scale(3.52) " xlink:href="#lend5">
   </use>
  </marker>
  <marker class="st7" id="mrkr5-31" markerUnits="strokeWidth" orient="auto" overflow="visible" refX="-6.16">
   <use transform="scale(-3.52,-3.52) " xlink:href="#lend5">
   </use>
  </marker>
 </defs>
 <defs id="Filters">
  <filter id="filter_2">
   <feGaussianBlur stdDeviation="2">
   </feGaussianBlur>
  </filter>
  <filter id="filter_2.6666667461395">
   <feGaussianBlur stdDeviation="2.6666667461395">
   </feGaussianBlur>
  </filter>
 </defs>
 <g>
  <g transform="translate(132.5,-5.0978)">
   <g class="st1" id="shadow459-2" transform="matrix(1,0,0,1,0.345598,1.97279)">
    <rect class="st2" height="691.875" width="1108.62" x="0" y="6.25002">
    </rect>
   </g>
   <rect class="st3" height="691.875" width="1108.62" x="0" y="6.25002">
   </rect>
  </g>
  <g transform="translate(156.598,-22.5353)">
   <g class="st1" id="shadow92-7" transform="matrix(1,0,0,1,0,3)">
    <rect class="st4" height="364.355" width="459.778" x="0" y="333.77">
    </rect>
   </g>
   <rect class="st5" height="364.355" width="459.778" x="0" y="333.77">
   </rect>
  </g>
  <g transform="translate(345.027,1156.06) rotate(180)">
   <path class="st6" d="M5.8 698.13 L6.16 698.13 L85.56 698.13">
   </path>
  </g>
  <g transform="translate(110.114,-472.837)">
   <path class="st8" d="M0 698.13 L98.39 698.13">
   </path>
  </g>
  <g transform="translate(114.285,-525.718)">
   <path class="st8" d="M0 689.36 L95.21 688.89">
   </path>
  </g>
  <g transform="translate(8.49281,-526.674)">
   <desc>
    Start Event
   </desc>
   <rect class="st9" height="14.3096" width="92.6115" x="0" y="683.815">
   </rect>
   <text class="st10" x="19.42" y="694.57">
    Start Event
   </text>
  </g>
  <g transform="translate(1189.64,189.911) rotate(89.7569)">
   <path class="st11" d="M0 698.13 L112.2 698.13">
   </path>
  </g>
  <g transform="translate(428.574,-483.785)">
   <desc>
    DMA Sequencer
   </desc>
   <g class="st1" id="shadow134-33" transform="matrix(1,0,0,1,0.345598,1.97279)">
    <rect class="st2" height="74.4119" width="117.662" x="0" y="623.713">
    </rect>
   </g>
   <rect class="st12" height="74.4119" width="117.662" x="0" y="623.713">
   </rect>
   <text class="st13" x="18.61" y="671.72">
    DMA Sequencer
   </text>
  </g>
  <g transform="translate(398.804,-548.817)">
   <path class="st11" d="M0 698.13 L23.79 698.13">
   </path>
  </g>
  <g transform="translate(940.688,-547.599)">
   <desc>
    รท
   </desc>
   <path class="st12" d="M9.17 698.13 L82.57 698.13 A9.17481 9.17481 -180 0 0 91.75 688.95 L91.75 654.89 A9.17481 9.17481 -180 0 0 82.57
						 645.71 L9.17 645.71 A9.17481 9.17481 -180 0 0 0 654.89 L0 688.95 A9.17481 9.17481 -180 0 0 9.17 698.13 Z">
   </path>
   <text class="st14" x="10" y="679.18">
    รท
   </text>
  </g>
  <g transform="translate(1273.45,821.406) rotate(179.68)">
   <path class="st11" d="M0 698.13 L231.51 698.13">
   </path>
  </g>
  <g transform="translate(974.465,-504.867)">
   <path class="st8" d="M9 698.13 L9 655.63">
   </path>
  </g>
  <g transform="translate(301.918,-370.577)">
   <desc>
    Result Resolution
   </desc>
   <rect class="st9" height="13.1353" width="122.031" x="0" y="684.99">
   </rect>
   <text class="st15" x="18.54" y="695.16">
    Result Resolution
   </text>
  </g>
  <g transform="translate(1055.15,356.705) rotate(90)">
   <path class="st11" d="M0 698.13 L82.49 698.13">
   </path>
  </g>
  <g transform="translate(311.961,-156.762)">
   <path class="st16" d="M0 651.08 L45.96 603.3 L186.03 603.11 L186.03 698.13 L45.96 697.76 L0 651.08 Z">
   </path>
  </g>
  <g transform="translate(364.734,-131.175)">
   <desc>
    Conversion Time
   </desc>
   <rect class="st9" height="28.7549" width="123.539" x="0" y="669.37">
   </rect>
   <text class="st15" x="20.99" y="687.35">
    Conversion Time
   </text>
  </g>
  <g transform="translate(499.663,-559.098)">
   <path class="st6" d="M-8.95 692.33 L-8.95 691.97 L-9.06 644.21">
   </path>
  </g>
  <g transform="translate(645.719,-22.5353)">
   <g class="st1" id="shadow226-73" transform="matrix(1,0,0,1,0,3)">
    <rect class="st4" height="362.626" width="368.044" x="0" y="335.499">
    </rect>
   </g>
   <rect class="st5" height="362.626" width="368.044" x="0" y="335.499">
   </rect>
  </g>
  <g transform="translate(553.2,-386.891)">
   <path class="st17" d="M386.49 512.79 L0 512.79 L0 691.97">
   </path>
  </g>
  <g transform="translate(249.625,-570.91)">
   <desc>
    Software Trigger
   </desc>
   <rect class="st9" height="13.1353" width="118.525" x="0" y="684.99">
   </rect>
   <text class="st10" x="4" y="695.16">
    Software Trigger
   </text>
  </g>
  <g transform="translate(252.64,-601.533)">
   <path class="st8" d="M0 698.13 L132.24 698.13">
   </path>
  </g>
  <g transform="translate(248.625,-608.41)">
   <desc>
    Free Run
   </desc>
   <rect class="st9" height="13.1353" width="122.106" x="0" y="684.99">
   </rect>
   <text class="st10" x="4" y="695.16">
    Free Run
   </text>
  </g>
  <g transform="translate(316.375,-676.91)">
   <desc>
    Conversion Trigger
   </desc>
   <rect class="st9" height="13.1353" width="132.903" x="0" y="684.99">
   </rect>
   <text class="st18" x="19.75" y="695.16">
    Conversion Trigger
   </text>
  </g>
  <g transform="translate(1068.5,52.9022) rotate(90)">
   <path class="st19" d="M0 698.13 L181.12 698.13 L157.62 668.72 L23.51 668.72 L0 698.13 Z">
   </path>
  </g>
  <g transform="translate(352.417,-192.86)">
   <desc>
    ADC
   </desc>
   <rect class="st9" height="28.1153" width="82.5702" x="0" y="670.01">
   </rect>
   <text class="st20" x="20.1" y="691.27">
    ADC
   </text>
  </g>
  <g transform="translate(1268.53,-550.644)">
   <desc>
    GCLK
   </desc>
   <g class="st1" id="shadow138-100" transform="matrix(1,0,0,1,0.345598,1.97279)">
    <rect class="st2" height="52.586" width="98.5979" x="0" y="645.539">
    </rect>
   </g>
   <rect class="st21" height="52.586" width="98.5979" x="0" y="645.539">
   </rect>
   <text class="st22" x="24.05" y="679.03">
    GCLK
   </text>
  </g>
  <g transform="translate(1043.42,-305.669)">
   <g transform="translate(0,-0.389289)">
    <path class="st23" d="M0 698.13 L94.51 698.13 L94.51 647.51 L0 647.51 L0 698.13 Z">
    </path>
   </g>
  </g>
  <g transform="translate(570.444,-387.411)">
   <path class="st17" d="M54.38 542.98 L0 542.98 L0 691.97">
   </path>
  </g>
  <g transform="translate(1035.91,-289.826)">
   <desc>
    Result Register
   </desc>
   <rect class="st9" height="13.1353" width="110.048" x="0" y="684.99">
   </rect>
   <text class="st15" x="18.66" y="695.16">
    Result Register
   </text>
  </g>
  <g transform="translate(671.087,-113.66)">
   <g class="st1" id="shadow232-117" transform="matrix(1,0,0,1,0,3)">
    <rect class="st4" height="208.125" width="196.538" x="0" y="490">
    </rect>
   </g>
   <rect class="st24" height="208.125" width="196.538" x="0" y="490">
   </rect>
  </g>
  <g transform="translate(657.969,-390.564)">
   <desc>
    Automatic Window Comparison
   </desc>
   <rect class="st9" height="27.4905" width="355.865" x="0" y="670.635">
   </rect>
   <text class="st15" x="100.04" y="687.98">
    Automatic Window Comparison
   </text>
  </g>
  <g transform="translate(1031.67,-197.145)">
   <desc>
    WINMON Interrupt
   </desc>
   <rect class="st9" height="21.8674" width="132.527" x="0" y="676.258">
   </rect>
   <text class="st15" x="19.05" y="690.79">
    WINMON Interrupt
   </text>
  </g>
  <g transform="translate(702.625,-22.1603)">
   <desc>
    Comparsion Mode
   </desc>
   <rect class="st9" height="26.8518" width="128.459" x="0" y="671.273">
   </rect>
   <text class="st15" x="19.13" y="688.3">
    Comparsion Mode
   </text>
  </g>
  <g transform="translate(245.531,-519.992) rotate(0.471118)">
   <path class="st8" d="M0 698.13 L130.59 698.13">
   </path>
  </g>
  <g transform="translate(261.697,-561.434) rotate(0.593895)">
   <path class="st8" d="M0 698.13 L114.42 698.13">
   </path>
  </g>
  <g transform="translate(100.253,-527.262)">
   <g>
    <rect class="st3" height="14.1357" width="13.5047" x="0" y="683.989">
    </rect>
   </g>
   <g transform="translate(-486.863,210.808) rotate(-45)">
    <path class="st25" d="M0 688.63 L9.45 688.63 L9.45 698.13 L9.45 688.63 L18.9 688.63 L9.45 688.63 L9.45 679.13 L9.45 688.63 L0
							 688.63 Z">
    </path>
   </g>
  </g>
  <g transform="translate(247.591,-534.18)">
   <desc>
    Hardware Trigger
   </desc>
   <rect class="st9" height="13.1353" width="121.708" x="0" y="684.99">
   </rect>
   <text class="st10" x="4" y="695.16">
    Hardware Trigger
   </text>
  </g>
  <g transform="translate(985.787,-512.889)">
   <desc>
    Prescaler
   </desc>
   <rect class="st9" height="9.37176" width="68.8416" x="0" y="688.753">
   </rect>
   <text class="st15" x="12.03" y="697.04">
    Prescaler
   </text>
  </g>
  <g transform="translate(749.538,-205.647)">
  </g>
  <g transform="translate(659.292,-182.635)">
   <path class="st17" d="M0.89 698.13 L0 546.99 L377.97 547.5">
   </path>
  </g>
  <g transform="translate(739.859,-265.546) rotate(-0.420546)">
   <path class="st8" d="M0 698.13 L34.33 698.13">
   </path>
  </g>
  <g transform="translate(786.4,1152.34) rotate(179.464)">
   <path class="st8" d="M0 698.13 L118.66 698.13">
   </path>
  </g>
  <g transform="translate(778.849,1214.25) rotate(179.992)">
   <path class="st8" d="M0 698.13 L118.57 698.13">
   </path>
  </g>
  <g transform="translate(681.125,-291.41)">
   <desc>
    VHi
   </desc>
   <rect class="st9" height="12.8805" width="40.3048" x="0" y="685.244">
   </rect>
   <text class="st15" x="11.63" y="695.28">
    VHi
   </text>
  </g>
  <g transform="translate(682.625,-126.91)">
   <desc>
    VLo
   </desc>
   <rect class="st9" height="12.2354" width="40.7972" x="0" y="685.89">
   </rect>
   <text class="st15" x="11.31" y="695.61">
    VLo
   </text>
  </g>
  <g transform="translate(1535.37,474.199) rotate(90)">
   <g class="st1" id="shadow393-169" transform="matrix(1,0,0,1,1.97279,-0.345598)">
    <path class="st2" d="M25.14 685.55 A12.5702 12.5702 -180 0 0 12.57 672.98 A12.5702 12.5702 -180 0 0 -0 685.55 L0 698.13 L25.14
							 698.13 L25.14 685.55 Z">
    </path>
   </g>
   <path class="st19" d="M25.14 685.55 A12.5702 12.5702 -180 0 0 12.57 672.98 A12.5702 12.5702 -180 0 0 -0 685.55 L0 698.13 L25.14 698.13
						 L25.14 685.55 Z">
   </path>
  </g>
  <g transform="translate(869.778,-210.941) rotate(0.546024)">
   <path class="st8" d="M0 698.13 L62.7 698.13">
   </path>
  </g>
  <g transform="translate(658.456,-240.774)">
   <g class="st1" id="shadow395-177" transform="matrix(1,0,0,1,0.345598,1.97279)">
    <ellipse class="st2" cx="2.07638" cy="696.042" rx="2.07638" ry="2.08261">
    </ellipse>
   </g>
   <ellipse class="st26" cx="2.07638" cy="696.042" rx="2.07638" ry="2.08261">
   </ellipse>
  </g>
  <g transform="translate(658.602,-206.149)">
   <g class="st1" id="shadow396-182" transform="matrix(1,0,0,1,0.345598,1.97279)">
    <ellipse class="st2" cx="2.07638" cy="696.042" rx="2.07638" ry="2.08261">
    </ellipse>
   </g>
   <ellipse class="st26" cx="2.07638" cy="696.042" rx="2.07638" ry="2.08261">
   </ellipse>
  </g>
  <g transform="translate(1458.94,585.785) rotate(90.0909)">
   <path class="st8" d="M0 698.13 L39.16 698.13">
   </path>
  </g>
  <g transform="translate(875.137,-208.036)">
   <g class="st1" id="shadow402-190" transform="matrix(1,0,0,1,0.345598,1.97279)">
    <ellipse class="st2" cx="2.07638" cy="696.042" rx="2.07638" ry="2.08261">
    </ellipse>
   </g>
   <ellipse class="st26" cx="2.07638" cy="696.042" rx="2.07638" ry="2.08261">
   </ellipse>
  </g>
  <g transform="translate(1629.19,502.73) rotate(90.7474)">
   <path class="st8" d="M0 698.13 L38.53 698.13">
   </path>
  </g>
  <g transform="translate(942.372,-209.334)">
   <path class="st11" d="M0 698.13 L83.92 698.13">
   </path>
  </g>
  <g transform="translate(776.5,-153.785)">
   <path class="st12" d="M0 664.68 L28.86 681.57 L0.56 698.13 L0 664.68 Z">
   </path>
  </g>
  <g transform="translate(660.338,1186.85) rotate(180)">
   <path class="st8" d="M0 698.13 L161.45 698.13">
   </path>
  </g>
  <g transform="translate(804.625,-215.66)">
   <path class="st27" d="M0 660.64 L13.4 660.64 L13.4 697.87 L31.5 698.13">
   </path>
  </g>
  <g transform="translate(804.062,-169.348)">
   <path class="st27" d="M0 698.13 L13.94 698.13 L13.94 659.88 L32.06 659.88">
   </path>
  </g>
  <g transform="translate(779.5,-236.285)">
   <path class="st12" d="M0 662.4 L27.94 680.44 L0.54 698.13 L0 662.4 Z">
   </path>
  </g>
  <g transform="translate(736.927,-157.943) rotate(-0.683084)">
   <path class="st8" d="M0 698.13 L32.38 698.13">
   </path>
  </g>
  <g transform="translate(880.625,-124.91)">
   <desc>
    WINMON Interrupt
   </desc>
   <rect class="st9" height="21.8674" width="132.158" x="0" y="676.258">
   </rect>
   <text class="st15" x="18.87" y="690.79">
    WINMON Interrupt
   </text>
  </g>
  <g transform="translate(345.785,1228.19) rotate(180)">
   <path class="st6" d="M5.8 698.13 L6.16 698.13 L86.22 698.13">
   </path>
  </g>
  <g transform="translate(951.055,391.876) rotate(90.2087)">
   <path class="st8" d="M0 698.13 L26.59 698.13">
   </path>
  </g>
  <g transform="translate(951.041,558.615) rotate(89.5846)">
   <path class="st8" d="M0 698.13 L60.73 698.13">
   </path>
  </g>
  <g transform="translate(942.438,497.083) rotate(90)">
   <path class="st19" d="M0 698.13 L84.54 698.13 L70.45 683.53 L14.09 683.53 L0 698.13 Z">
   </path>
  </g>
  <g transform="translate(258.144,-245.047)">
   <desc>
    +ve
   </desc>
   <rect class="st9" height="9.89241" width="39.7929" x="0" y="688.233">
   </rect>
   <text class="st10" x="11.21" y="696.78">
    +ve
   </text>
  </g>
  <g transform="translate(253.427,-155.417)">
   <desc>
    -ve
   </desc>
   <rect class="st9" height="9.89241" width="39.7929" x="0" y="688.233">
   </rect>
   <text class="st10" x="12.36" y="696.78">
    -ve
   </text>
  </g>
  <g transform="translate(877.312,-105.785)">
   <path class="st17" d="M0 594.04 L0 698.13 L158.32 696.9">
   </path>
  </g>
  <g transform="translate(1624.62,474.503) rotate(90)">
   <g class="st1" id="shadow443-246" transform="matrix(1,0,0,1,1.97279,-0.345598)">
    <path class="st2" d="M0 698.13 L26.34 698.13 L13.17 676.18 L0 698.13 Z">
    </path>
   </g>
   <path class="st12" d="M0 698.13 L26.34 698.13 L13.17 676.18 L0 698.13 Z">
   </path>
  </g>
  <g transform="translate(1631.98,594.634) rotate(89.8902)">
   <path class="st8" d="M0 698.13 L28.8 698.13">
   </path>
  </g>
  <g transform="translate(1623.5,578.652) rotate(90)">
   <g class="st1" id="shadow403-254" transform="matrix(1,0,0,1,1.97279,-0.345598)">
    <path class="st2" d="M0 698.13 L25.31 698.13 L12.66 677.03 L0 698.13 Z">
    </path>
   </g>
   <path class="st12" d="M0 698.13 L25.31 698.13 L12.66 677.03 L0 698.13 Z">
   </path>
  </g>
  <g transform="translate(881.875,-25.1603)">
   <desc>
    WINMON EVENT OUT
   </desc>
   <rect class="st9" height="21.8674" width="132.158" x="0" y="676.258">
   </rect>
   <text class="st15" x="12.86" y="690.79">
    WINMON EVENT OUT
   </text>
  </g>
  <g transform="translate(1039.35,-96.1377)">
   <desc>
    EVENT
   </desc>
   <rect class="st9" height="21.8674" width="56.0623" x="0" y="676.258">
   </rect>
   <text class="st15" x="11.97" y="690.79">
    EVENT
   </text>
  </g>
  <g transform="translate(1140.5,-342.111) rotate(0.176668)">
   <path class="st11" d="M0 698.13 L81.39 698.13">
   </path>
  </g>
  <g transform="translate(1136.82,-312.15) rotate(-0.169022)">
   <path class="st11" d="M0 698.13 L85.36 698.13">
   </path>
  </g>
  <g transform="translate(1135.58,-419.593)">
   <desc>
    Result Interrupt
   </desc>
   <rect class="st9" height="13.1353" width="110.048" x="0" y="684.99">
   </rect>
   <text class="st15" x="16.38" y="695.16">
    Result Interrupt
   </text>
  </g>
  <g transform="translate(1133.2,-233.689)">
   <desc>
    Result Event
   </desc>
   <rect class="st9" height="13.1353" width="110.048" x="0" y="684.99">
   </rect>
   <text class="st15" x="24.75" y="695.16">
    Result Event
   </text>
  </g>
  <g transform="translate(15.5039,-465.881)">
   <desc>
    Flush Event
   </desc>
   <rect class="st9" height="14.3096" width="92.6115" x="0" y="683.815">
   </rect>
   <text class="st10" x="18.38" y="694.57">
    Flush Event
   </text>
  </g>
  <g transform="translate(855.25,112.647) rotate(90)">
   <g class="st1" id="shadow467-284" transform="matrix(1,0,0,1,1.97279,-0.345598)">
    <path class="st2" d="M0 698.13 L34.32 698.13 L17.16 669.53 L0 698.13 Z">
    </path>
   </g>
   <path class="st12" d="M0 698.13 L34.32 698.13 L17.16 669.53 L0 698.13 Z">
   </path>
  </g>
  <g transform="translate(913.79,232.672) rotate(88.8956)">
   <path class="st8" d="M0 698.13 L23.62 698.13">
   </path>
  </g>
  <g transform="translate(146.157,-473.517)">
   <path class="st27" d="M0 698.13 L0 662.72 L13.93 662.72">
   </path>
  </g>
  <g transform="translate(854.25,174.053) rotate(90)">
   <g class="st1" id="shadow468-295" transform="matrix(1,0,0,1,1.97279,-0.345598)">
    <path class="st2" d="M0 698.13 L31.66 698.13 L15.83 671.74 L0 698.13 Z">
    </path>
   </g>
   <path class="st12" d="M0 698.13 L31.66 698.13 L15.83 671.74 L0 698.13 Z">
   </path>
  </g>
  <g transform="translate(913.81,68.8506) rotate(89.8547)">
   <path class="st8" d="M0 698.13 L42.27 698.13">
   </path>
  </g>
  <g transform="translate(1193.96,547.427) rotate(90.4489)">
   <path class="st6" d="M5.8 698.13 L6.16 698.13 L77.95 698.13">
   </path>
  </g>
  <g transform="translate(433.375,-34.9103)">
   <desc>
    Select Reference
   </desc>
   <rect class="st9" height="9.89241" width="161.898" x="0" y="688.233">
   </rect>
   <text class="st10" x="40.13" y="696.78">
    Select Reference
   </text>
  </g>
  <g transform="translate(1877.91,303.152) rotate(90.5027)">
   <path class="st8" d="M0 698.13 L52.57 698.13">
   </path>
  </g>
  <g transform="translate(1873,344.488) rotate(90)">
   <g class="st1" id="shadow486-314" transform="matrix(1,0,0,1,1.97279,-0.345598)">
    <path class="st2" d="M0 698.13 L22.73 698.13 L11.36 679.19 L0 698.13 Z">
    </path>
   </g>
   <path class="st12" d="M0 698.13 L22.73 698.13 L11.36 679.19 L0 698.13 Z">
   </path>
  </g>
  <g transform="translate(1877.92,401.624) rotate(90.8225)">
   <path class="st8" d="M0 698.13 L43.24 698.13">
   </path>
  </g>
  <g transform="translate(1873,373.991) rotate(90)">
   <g class="st1" id="shadow489-322" transform="matrix(1,0,0,1,1.97279,-0.345598)">
    <path class="st2" d="M0 698.13 L24.47 698.13 L12.24 677.73 L0 698.13 Z">
    </path>
   </g>
   <path class="st12" d="M0 698.13 L24.47 698.13 L12.24 677.73 L0 698.13 Z">
   </path>
  </g>
  <g transform="translate(103.048,-280.851)">
   <path class="st8" d="M0 698.13 L143.25 698.13">
   </path>
  </g>
  <g transform="translate(795.85,419.121) rotate(89.596)">
   <path class="st28" d="M0 698.13 L47.03 698.13">
   </path>
  </g>
  <g transform="translate(942.438,406.836) rotate(90)">
   <path class="st19" d="M0 698.13 L84.54 698.13 L70.45 683.53 L14.09 683.53 L0 698.13 Z">
   </path>
  </g>
  <g transform="translate(103.711,-217.158)">
   <path class="st8" d="M0 698.13 L139.94 698.13">
   </path>
  </g>
  <g transform="translate(103.711,-190.084)">
   <path class="st8" d="M0 698.13 L139.94 698.13">
   </path>
  </g>
  <g transform="translate(103.711,-125.523)">
   <path class="st8" d="M0 698.13 L139.94 698.13">
   </path>
  </g>
  <g transform="translate(147.23,-535.475)">
   <path class="st27" d="M0 698.13 L0 664.8 L9.96 664.8">
   </path>
  </g>
  <g transform="translate(192.836,-568.151) rotate(0.294287)">
   <path class="st8" d="M0 698.13 L19.35 698.13">
   </path>
  </g>
  <g transform="translate(907.288,99.8492) rotate(90)">
   <path class="st19" d="M0 698.13 L75.47 698.13 L61.08 685.19 L14.39 685.19 L0 698.13 Z">
   </path>
  </g>
  <g transform="translate(179.457,-508.375) rotate(-0.434368)">
   <path class="st8" d="M0 698.13 L23.75 698.13">
   </path>
  </g>
  <g transform="translate(184.375,-566.285)">
   <g class="st1" id="shadow616-355" transform="matrix(1,0,0,1,0.345598,1.97279)">
    <ellipse class="st2" cx="2.15356" cy="696.042" rx="2.15356" ry="2.08261">
    </ellipse>
   </g>
   <ellipse class="st26" cx="2.15356" cy="696.042" rx="2.15356" ry="2.08261">
   </ellipse>
  </g>
  <g transform="translate(180.75,-506.16)">
   <g class="st1" id="shadow619-360" transform="matrix(1,0,0,1,0.345598,1.97279)">
    <ellipse class="st2" cx="1.98964" cy="696.042" rx="1.98964" ry="2.08261">
    </ellipse>
   </g>
   <ellipse class="st26" cx="1.98964" cy="696.042" rx="1.98964" ry="2.08261">
   </ellipse>
  </g>
  <g transform="translate(100.395,-465.742)">
   <g>
    <rect class="st3" height="14.1357" width="13.5047" x="0" y="683.989">
    </rect>
   </g>
   <g transform="translate(-486.863,210.808) rotate(-45)">
    <path class="st25" d="M0 688.63 L9.45 688.63 L9.45 698.13 L9.45 688.63 L18.9 688.63 L9.45 688.63 L9.45 679.13 L9.45 688.63 L0
							 688.63 Z">
    </path>
   </g>
  </g>
  <g transform="translate(91.1104,-274.082)">
   <g>
    <rect class="st3" height="14.1357" width="13.5047" x="0" y="683.989">
    </rect>
   </g>
   <g transform="translate(-486.863,210.808) rotate(-45)">
    <path class="st25" d="M0 688.63 L9.45 688.63 L9.45 698.13 L9.45 688.63 L18.9 688.63 L9.45 688.63 L9.45 679.13 L9.45 688.63 L0
							 688.63 Z">
    </path>
   </g>
  </g>
  <g transform="translate(90.4472,-211.604)">
   <g>
    <rect class="st3" height="14.1357" width="13.5047" x="0" y="683.989">
    </rect>
   </g>
   <g transform="translate(-486.863,210.808) rotate(-45)">
    <path class="st25" d="M0 688.63 L9.45 688.63 L9.45 698.13 L9.45 688.63 L18.9 688.63 L9.45 688.63 L9.45 679.13 L9.45 688.63 L0
							 688.63 Z">
    </path>
   </g>
  </g>
  <g transform="translate(90.4472,-182.447)">
   <g>
    <rect class="st3" height="14.1357" width="13.5047" x="0" y="683.989">
    </rect>
   </g>
   <g transform="translate(-486.863,210.808) rotate(-45)">
    <path class="st25" d="M0 688.63 L9.45 688.63 L9.45 698.13 L9.45 688.63 L18.9 688.63 L9.45 688.63 L9.45 679.13 L9.45 688.63 L0
							 688.63 Z">
    </path>
   </g>
  </g>
  <g transform="translate(91.1104,-117.886)">
   <g>
    <rect class="st3" height="14.1357" width="13.5047" x="0" y="683.989">
    </rect>
   </g>
   <g transform="translate(-486.863,210.808) rotate(-45)">
    <path class="st25" d="M0 688.63 L9.45 688.63 L9.45 698.13 L9.45 688.63 L18.9 688.63 L9.45 688.63 L9.45 679.13 L9.45 688.63 L0
							 688.63 Z">
    </path>
   </g>
  </g>
  <g transform="translate(795.85,512.838) rotate(89.596)">
   <path class="st28" d="M0 698.13 L47.03 698.13">
   </path>
  </g>
  <g transform="translate(0.913214,-244.926)">
   <desc>
    Analog Input
   </desc>
   <rect class="st9" height="14.3096" width="92.6115" x="0" y="683.815">
   </rect>
   <text class="st10" x="15.11" y="694.57">
    Analog Input
   </text>
  </g>
  <g transform="translate(0.25,-149.82)">
   <desc>
    Analog Input
   </desc>
   <rect class="st9" height="14.3096" width="92.6115" x="0" y="683.815">
   </rect>
   <text class="st10" x="15.11" y="694.57">
    Analog Input
   </text>
  </g>
  <g transform="translate(591.174,-387.238)">
   <path class="st17" d="M32.17 596.23 L0 596.23 L0 691.97">
   </path>
  </g>
  <g transform="translate(617.039,-537.359)">
   <desc>
    Run in standby
   </desc>
   <rect class="st29" height="9.89241" width="117.389" x="0" y="688.233">
   </rect>
   <text class="st10" x="22.49" y="696.78">
    Run in standby
   </text>
  </g>
  <g transform="translate(610.625,-485.41)">
   <desc>
    On demand control
   </desc>
   <rect class="st29" height="9.89241" width="146.239" x="0" y="688.233">
   </rect>
   <text class="st10" x="25.68" y="696.78">
    On demand control
   </text>
  </g>
  <g transform="translate(1789.41,284.904) rotate(90)">
   <path class="st8" d="M0 698.13 L55.83 698.13">
   </path>
  </g>
  <g transform="translate(1024.05,-429.145)">
   <desc>
    Left-aligned result
   </desc>
   <rect class="st9" height="13.1353" width="136.349" x="0" y="684.99">
   </rect>
   <text class="st15" x="23.93" y="695.16">
    Left-aligned result
   </text>
  </g>
  <g transform="translate(222.427,-491.945)">
   <path class="st8" d="M0 698.13 L16.41 698.13">
   </path>
  </g>
  <g transform="translate(223.15,-492.608)">
   <path class="st27" d="M0 638.96 L16.41 638.96 L16.19 698.13">
   </path>
  </g>
  <g transform="translate(907.477,178.493) rotate(90)">
   <path class="st19" d="M0 698.13 L75.47 698.13 L61.08 685.19 L14.39 685.19 L0 698.13 Z">
   </path>
  </g>
  <g transform="translate(108.619,-588.557)">
   <path class="st8" d="M0 698.13 L100.45 698.13">
   </path>
  </g>
  <g transform="translate(108.089,-448.923)">
   <path class="st8" d="M0 698.13 L100.22 698.13">
   </path>
  </g>
  <g transform="translate(1054.51,536.979) rotate(89.6565)">
   <path class="st6" d="M5.8 698.13 L6.16 698.13 L79.86 698.13">
   </path>
  </g>
  <g transform="translate(290.125,-35.6603)">
   <desc>
    Sample Length
   </desc>
   <rect class="st9" height="9.89241" width="161.898" x="0" y="688.233">
   </rect>
   <text class="st10" x="45.01" y="696.78">
    Sample Length
   </text>
  </g>
  <g transform="translate(-385.12,-371.739) rotate(-45)">
   <path class="st30" d="M0 689.04 L8.64 689.04 L8.64 698.13 L8.64 689.04 L17.27 689.04 L8.64 689.04 L8.64 679.96 L8.64 689.04 L0 689.04
						 Z">
   </path>
  </g>
  <g transform="translate(-386.307,-231.993) rotate(-45)">
   <path class="st30" d="M0 689.04 L8.64 689.04 L8.64 698.13 L8.64 689.04 L17.27 689.04 L8.64 689.04 L8.64 679.96 L8.64 689.04 L0 689.04
						 Z">
   </path>
  </g>
 </g>
</svg>
