<?xml version="1.0" encoding="UTF-8" standalone="no"?>
<!DOCTYPE svg PUBLIC "-//W3C//DTD SVG 1.1//EN" "http://www.w3.org/Graphics/SVG/1.1/DTD/svg11.dtd">
<!-- Generated by Microsoft Visio, SVG Export adc_00755.svg Page-1 -->
<svg class="st26" color-interpolation-filters="sRGB" height="7.66365in" viewBox="0 0 788.375 551.783" width="10.9497in" xml:space="preserve" xmlns="http://www.w3.org/2000/svg" xmlns:xlink="http://www.w3.org/1999/xlink">
 <style type="text/css">
  .st1 {visibility:visible}
		.st2 {fill:#000000;fill-opacity:0.4;filter:url(#filter_2.6666667461395);stroke:#000000;stroke-opacity:0.4}
		.st3 {fill:#ffffff;stroke:#70ad47;stroke-width:0.75}
		.st4 {fill:#000000;font-family:Tahoma;font-size:0.583328em}
		.st5 {fill:#ffffff;stroke:#000000;stroke-dasharray:0.25,0.5;stroke-width:0.25}
		.st6 {marker-end:url(#mrkr5-14);stroke:#000000;stroke-linecap:round;stroke-linejoin:round;stroke-width:1}
		.st7 {fill:#000000;fill-opacity:1;stroke:#000000;stroke-opacity:1;stroke-width:0.28409090909091}
		.st8 {stroke:#000000;stroke-linecap:round;stroke-linejoin:round;stroke-width:1}
		.st9 {fill:#fff0e1;stroke:#d79b00;stroke-width:0.25}
		.st10 {fill:none;stroke:none;stroke-width:0.25}
		.st11 {fill:#0070c0;font-family:Tahoma;font-size:0.833336em}
		.st12 {fill:#000000;font-family:Tahoma;font-size:0.833336em}
		.st13 {marker-end:url(#mrkr5-14);stroke:#000000;stroke-width:1}
		.st14 {fill:#feffff;stroke:#d79b00;stroke-width:0.25}
		.st15 {fill:#dae8fc;stroke:#6c8ebf;stroke-width:0.5}
		.st16 {fill:#000000;font-family:Tahoma;font-size:1.00001em;font-weight:bold}
		.st17 {fill:#ffffff;stroke:#000000;stroke-width:0.25}
		.st18 {fill:#000000;stroke:#000000;stroke-width:0.25}
		.st19 {fill:#000000;font-family:Tahoma;font-size:0.666664em}
		.st20 {stroke:#000000;stroke-dasharray:3,3;stroke-linecap:round;stroke-linejoin:round;stroke-width:1}
		.st21 {stroke:#000000;stroke-width:1}
		.st22 {fill:#5b9bd5;fill-opacity:0.22;filter:url(#filter_2);stroke:#5b9bd5;stroke-opacity:0.22}
		.st23 {stroke:#7f7f7f;stroke-linecap:round;stroke-linejoin:round;stroke-width:0.25}
		.st24 {fill:#5b9bd5;fill-opacity:0.22;filter:url(#filter_2);stroke:none}
		.st25 {fill:#000000;stroke:none;stroke-width:0.25}
		.st26 {fill:none;fill-rule:evenodd;font-size:12px;overflow:visible;stroke-linecap:square;stroke-miterlimit:3}
 </style>
 <defs id="Markers">
  <g id="lend5">
   <path d="M 2 1 L 0 0 L 1.98117 -0.993387 C 1.67173 -0.364515 1.67301 0.372641 1.98465 1.00043 " style="stroke:none">
   </path>
  </g>
  <marker class="st7" id="mrkr5-14" markerUnits="strokeWidth" orient="auto" overflow="visible" refX="-6.16">
   <use transform="scale(-3.52,-3.52) " xlink:href="#lend5">
   </use>
  </marker>
 </defs>
 <defs id="Filters">
  <filter id="filter_2.6666667461395">
   <feGaussianBlur stdDeviation="2.6666667461395">
   </feGaussianBlur>
  </filter>
  <filter id="filter_2">
   <feGaussianBlur stdDeviation="2">
   </feGaussianBlur>
  </filter>
 </defs>
 <g>
  <g transform="translate(4.375,-49.3658)">
   <desc>
    ADC1BUF0
   </desc>
   <g class="st1" id="shadow12-2" transform="matrix(1,0,0,1,0,3)">
    <rect class="st2" height="351.822" width="779.625" x="0" y="199.961">
    </rect>
   </g>
   <rect class="st3" height="351.822" width="779.625" x="0" y="199.961">
   </rect>
   <text class="st4" x="373.23" y="378.87">
    ADC1BUF0
   </text>
  </g>
  <g transform="translate(634.402,-169.208)">
   <path class="st5" d="M0 551.78 L55.32 551.78 L55.32 469.02 L0 469.02 L0 551.78 Z">
   </path>
  </g>
  <g transform="translate(605.625,-208.562)">
   <path class="st6" d="M0 551.78 L21.96 551.78">
   </path>
  </g>
  <g transform="translate(94.5625,-159.594)">
   <path class="st8" d="M0 551.78 L187.97 551.78">
   </path>
  </g>
  <g transform="translate(282.25,-123.401)">
   <path class="st9" d="M0 551.78 L253.69 551.78 L324 466.61 L253.69 381.43 L0 381.43 L0 551.78 Z">
   </path>
  </g>
  <g transform="translate(52.75,-524.937)">
   <desc>
    Clock Source
   </desc>
   <rect class="st10" height="14.5955" width="68.7938" x="0" y="537.187">
   </rect>
   <text class="st11" x="6.15" y="547.49">
    Clock Source
   </text>
  </g>
  <g transform="translate(468.437,-539.937)">
   <desc>
    Reference Voltage
   </desc>
   <rect class="st10" height="11.5955" width="95.0625" x="0" y="540.187">
   </rect>
   <text class="st11" x="7.32" y="548.99">
    Reference Voltage
   </text>
  </g>
  <g transform="translate(129.25,-513.312)">
   <desc>
    Clock Divider
   </desc>
   <rect class="st10" height="16.658" width="105.75" x="0" y="535.125">
   </rect>
   <text class="st11" x="24.29" y="546.45">
    Clock Divider
   </text>
  </g>
  <g transform="translate(545.5,-382.625)">
   <desc>
    VREFL
   </desc>
   <rect class="st10" height="13.8455" width="36.5625" x="0" y="537.937">
   </rect>
   <text class="st12" x="4.29" y="547.86">
    VREFL
   </text>
  </g>
  <g transform="translate(302.5,-293.75) scale(-1,1)">
   <path class="st13" d="M43.31 356.41 L0 356.41 L0 545.62">
   </path>
  </g>
  <g transform="translate(577,-382.344)">
   <desc>
    VREFH
   </desc>
   <rect class="st10" height="14.408" width="45" x="0" y="537.375">
   </rect>
   <text class="st12" x="7.62" y="547.58">
    VREFH
   </text>
  </g>
  <g transform="translate(137.125,-525.312)">
   <desc>
    CONCLKDIV
   </desc>
   <rect class="st10" height="16.658" width="88.3125" x="0" y="535.125">
   </rect>
   <text class="st12" x="17.61" y="546.45">
    CONCLKDIV
   </text>
  </g>
  <g transform="translate(448.75,-463.951)">
   <desc>
    VREFSEL
   </desc>
   <rect class="st10" height="16.658" width="57.375" x="0" y="535.125">
   </rect>
   <text class="st12" x="9.11" y="546.45">
    VREFSEL
   </text>
  </g>
  <g transform="translate(561.813,-400.695) scale(-1,1)">
   <path class="st13" d="M48.81 514.45 L0 514.45 L0 545.62">
   </path>
  </g>
  <g transform="translate(600.084,-400.803) scale(-1,1)">
   <path class="st13" d="M76.46 447.34 L0 447.34 L0 545.62">
   </path>
  </g>
  <g transform="translate(226,-428.562)">
   <desc>
    ADCSEL
   </desc>
   <rect class="st10" height="16.658" width="52.875" x="0" y="535.125">
   </rect>
   <text class="st12" x="8.97" y="546.45">
    ADCSEL
   </text>
  </g>
  <g transform="translate(298.562,-152.909)">
   <rect class="st14" height="116.654" width="219.938" x="0" y="435.129">
   </rect>
  </g>
  <g transform="translate(1168.03,234.221) rotate(90)">
   <path class="st6" d="M0 551.78 L102.59 551.78">
   </path>
  </g>
  <g transform="translate(799.242,21.783) rotate(90)">
   <path class="st15" d="M0 551.78 L82.62 551.78 L68.85 533.87 L13.77 533.87 L0 551.78 Z">
   </path>
  </g>
  <g transform="translate(929.658,470.096) rotate(90) scale(-1,1)">
   <path class="st6" d="M0 551.78 L35.56 551.78">
   </path>
  </g>
  <g transform="translate(281.375,-250.562)">
   <desc>
    +
   </desc>
   <rect class="st10" height="14.4605" width="17.75" x="0" y="537.322">
   </rect>
   <text class="st16" x="4" y="548.15">
    +
   </text>
  </g>
  <g transform="translate(281.375,-151.937)">
   <desc>
    -
   </desc>
   <rect class="st10" height="14.4605" width="17.75" x="0" y="537.322">
   </rect>
   <text class="st16" x="4" y="548.15">
    -
   </text>
  </g>
  <g transform="translate(146.125,-311.102)">
   <path class="st8" d="M0 542.84 L34.92 542.72">
   </path>
  </g>
  <g transform="translate(146.125,-295.252)">
   <path class="st8" d="M0 542.84 L34.92 542.72">
   </path>
  </g>
  <g transform="translate(146.125,-279.402)">
   <path class="st8" d="M0 542.84 L34.92 542.72">
   </path>
  </g>
  <g transform="translate(733.092,170.283) rotate(90)">
   <path class="st15" d="M0 551.78 L104.83 551.78 L87.36 538.59 L17.47 538.59 L0 551.78 Z">
   </path>
  </g>
  <g transform="translate(54.7427,-160.747)">
   <path class="st8" d="M0 542.84 L26.18 542.72">
   </path>
  </g>
  <g transform="translate(46.1089,-165.339)">
   <g>
    <rect class="st17" height="8.81568" width="8.81568" x="0" y="542.967">
    </rect>
   </g>
   <g transform="translate(-385.757,165.497) rotate(-45)">
    <path class="st18" d="M0 545.89 L5.87 545.89 L5.87 551.78 L5.87 545.89 L11.74 545.89 L5.87 545.89 L5.87 540 L5.87 545.89 L0 545.89
							 Z">
    </path>
   </g>
  </g>
  <g transform="translate(46.15,-140.458)">
   <path class="st6" d="M0 542.78 L28.61 542.78">
   </path>
  </g>
  <g transform="translate(632.967,370.392) rotate(90)">
   <path class="st15" d="M0 551.78 L43.58 551.78 L36.32 538.59 L7.26 538.59 L0 551.78 Z">
   </path>
  </g>
  <g transform="translate(377.5,-76.9595)">
   <desc>
    Conversion Trigger Source
   </desc>
   <rect class="st10" height="21.9817" width="126" x="0" y="529.801">
   </rect>
   <text class="st11" x="4" y="543.79">
    Conversion Trigger Source
   </text>
  </g>
  <g transform="translate(484.384,-506.247)">
   <path class="st8" d="M0 542.84 L26.18 542.72">
   </path>
  </g>
  <g transform="translate(475.75,-510.839)">
   <g>
    <rect class="st17" height="8.81568" width="8.81568" x="0" y="542.967">
    </rect>
   </g>
   <g transform="translate(-385.757,165.497) rotate(-45)">
    <path class="st18" d="M0 545.89 L5.87 545.89 L5.87 551.78 L5.87 545.89 L11.74 545.89 L5.87 545.89 L5.87 540 L5.87 545.89 L0 545.89
							 Z">
    </path>
   </g>
  </g>
  <g transform="translate(484.384,-485.896)">
   <path class="st8" d="M0 542.84 L26.18 542.72">
   </path>
  </g>
  <g transform="translate(475.75,-490.489)">
   <g>
    <rect class="st17" height="8.81568" width="8.81568" x="0" y="542.967">
    </rect>
   </g>
   <g transform="translate(-385.757,165.497) rotate(-45)">
    <path class="st18" d="M0 545.89 L5.87 545.89 L5.87 551.78 L5.87 545.89 L11.74 545.89 L5.87 545.89 L5.87 540 L5.87 545.89 L0 545.89
							 Z">
    </path>
   </g>
  </g>
  <g transform="translate(1060.72,14.4705) rotate(90)">
   <path class="st15" d="M0 551.78 L63 551.78 L52.5 533.98 L10.5 533.98 L0 551.78 Z">
   </path>
  </g>
  <g transform="translate(475.75,-418.062)">
   <g transform="translate(8.63381,-20.6842)">
    <path class="st8" d="M0 542.84 L26.18 542.72">
    </path>
   </g>
   <g transform="translate(-9.54237E-14,-25.2763)">
    <g>
     <rect class="st17" height="8.81568" width="8.81568" x="0" y="542.967">
     </rect>
    </g>
    <g transform="translate(-385.757,165.497) rotate(-45)">
     <path class="st18" d="M0 545.89 L5.87 545.89 L5.87 551.78 L5.87 545.89 L11.74 545.89 L5.87 545.89 L5.87 540 L5.87 545.89 L0
								 545.89 Z">
     </path>
    </g>
   </g>
   <g transform="translate(8.63381,-0.333988)">
    <path class="st8" d="M0 542.84 L26.18 542.72">
    </path>
   </g>
   <g transform="translate(-9.54237E-14,-4.92615)">
    <g>
     <rect class="st17" height="8.81568" width="8.81568" x="0" y="542.967">
     </rect>
    </g>
    <g transform="translate(-385.757,165.497) rotate(-45)">
     <path class="st18" d="M0 545.89 L5.87 545.89 L5.87 551.78 L5.87 545.89 L11.74 545.89 L5.87 545.89 L5.87 540 L5.87 545.89 L0
								 545.89 Z">
     </path>
    </g>
   </g>
  </g>
  <g transform="translate(327.25,-77.5625)">
   <desc>
    STRGSRC
   </desc>
   <rect class="st10" height="20.7757" width="53.4375" x="0" y="531.007">
   </rect>
   <text class="st12" x="4" y="544.4">
    STRGSRC
   </text>
  </g>
  <g transform="translate(627.75,-157.062)">
   <desc>
    Result Registers
   </desc>
   <rect class="st10" height="7.09554" width="68.625" x="0" y="544.687">
   </rect>
   <text class="st19" x="6.04" y="550.64">
    Result Registers
   </text>
  </g>
  <g transform="translate(1213.67,326.2) rotate(89.4452)">
   <path class="st20" d="M0 551.78 L30.31 551.78">
   </path>
  </g>
  <g transform="translate(121.75,-502.945)">
   <path class="st6" d="M0 551.78 L119.3 551.78">
   </path>
  </g>
  <g transform="translate(122.5,-475.631)">
   <path class="st6" d="M0 551.78 L118.55 551.78">
   </path>
  </g>
  <g transform="translate(61.3563,-64.025)">
  </g>
  <g transform="translate(61.3563,-85.0625)">
   <g transform="translate(0,-21.7962)">
    <path class="st15" d="M0 551.78 L52.31 551.78 L43.59 539.49 L8.72 539.49 L0 551.78 Z">
    </path>
   </g>
   <g transform="translate(-539.284,551.783) rotate(-90)">
    <path class="st6" d="M0 551.78 L15.39 551.78">
    </path>
   </g>
   <g transform="translate(-511.969,551.783) rotate(-90)">
    <path class="st6" d="M0 551.78 L15.39 551.78">
    </path>
   </g>
   <g transform="translate(-525.627,517.363) rotate(-90)">
    <path class="st6" d="M0 551.78 L15.84 551.78">
    </path>
   </g>
  </g>
  <g transform="translate(163.056,-250.446)">
   <path class="st15" d="M0 551.78 L52.31 551.78 L43.59 539.49 L8.72 539.49 L0 551.78 Z">
   </path>
  </g>
  <g transform="translate(-348.913,320.471) rotate(-90)">
   <path class="st6" d="M0 551.78 L12.72 551.78">
   </path>
  </g>
  <g transform="translate(-362.57,288.258) rotate(-90)">
   <path class="st6" d="M0 551.78 L15.39 551.78">
   </path>
  </g>
  <g transform="translate(110.125,-243.598)">
   <path class="st8" d="M0 560.69 L24.69 560.87">
   </path>
  </g>
  <g transform="translate(110.053,-205.158)">
   <path class="st6" d="M0 542.78 L18.6 542.78">
   </path>
  </g>
  <g transform="translate(686.859,305.692) rotate(90)">
   <path class="st15" d="M0 551.78 L43.58 551.78 L36.32 538.59 L7.26 538.59 L0 551.78 Z">
   </path>
  </g>
  <g transform="translate(175.375,853.128) rotate(180)">
   <path class="st13" d="M26.32 523.66 L0 523.66 L0 545.62">
   </path>
  </g>
  <g transform="translate(46.5625,-49.8125)">
   <desc>
    CH0NA
   </desc>
   <rect class="st10" height="14.4605" width="40.875" x="0" y="537.322">
   </rect>
   <text class="st12" x="4" y="547.55">
    CH0NA
   </text>
  </g>
  <g transform="translate(89.5,-49.8125)">
   <desc>
    CH0NB
   </desc>
   <rect class="st10" height="14.4605" width="40.875" x="0" y="537.322">
   </rect>
   <text class="st12" x="4" y="547.55">
    CH0NB
   </text>
  </g>
  <g transform="translate(146.234,-326.953)">
   <g transform="translate(8.63381,1.13687E-13)">
    <path class="st8" d="M0 542.84 L26.18 542.72">
    </path>
   </g>
   <g transform="translate(0,-4.59216)">
    <g>
     <rect class="st17" height="8.81568" width="8.81568" x="0" y="542.967">
     </rect>
    </g>
    <g transform="translate(-385.757,165.497) rotate(-45)">
     <path class="st18" d="M0 545.89 L5.87 545.89 L5.87 551.78 L5.87 545.89 L11.74 545.89 L5.87 545.89 L5.87 540 L5.87 545.89 L0
								 545.89 Z">
     </path>
    </g>
   </g>
  </g>
  <g transform="translate(146.234,-360.703)">
   <g transform="translate(8.63381,1.13687E-13)">
    <path class="st8" d="M0 542.84 L26.18 542.72">
    </path>
   </g>
   <g transform="translate(0,-4.59216)">
    <g>
     <rect class="st17" height="8.81568" width="8.81568" x="0" y="542.967">
     </rect>
    </g>
    <g transform="translate(-385.757,165.497) rotate(-45)">
     <path class="st18" d="M0 545.89 L5.87 545.89 L5.87 551.78 L5.87 545.89 L11.74 545.89 L5.87 545.89 L5.87 540 L5.87 545.89 L0
								 545.89 Z">
     </path>
    </g>
   </g>
  </g>
  <g transform="translate(194.711,-257.75)">
   <path class="st21" d="M0 480.52 L56.54 480.52 L56.54 551.78 L87.16 551.78">
   </path>
  </g>
  <g transform="translate(763.533,294.971) rotate(90)">
   <path class="st13" d="M230.81 518.33 L0 518.33 L0 545.62">
   </path>
  </g>
  <g transform="translate(245.176,-113.017) scale(-1,1)">
   <path class="st6" d="M0 551.78 L129.45 551.78">
   </path>
  </g>
  <g transform="translate(242.594,-110.187)">
   <g class="st1" id="shadow245-246" transform="matrix(1,0,0,1,0.345598,1.97279)">
    <ellipse class="st22" cx="2.6625" cy="549.12" rx="2.6625" ry="2.6625">
    </ellipse>
   </g>
   <ellipse class="st18" cx="2.6625" cy="549.12" rx="2.6625" ry="2.6625">
   </ellipse>
  </g>
  <g transform="translate(-409.033,362.771) rotate(-90)">
   <path class="st6" d="M0 551.78 L11.68 551.78">
   </path>
  </g>
  <g transform="translate(634.402,-231.098)">
   <desc>
    ADC1BUF1
   </desc>
   <rect class="st17" height="10.4803" width="55.3207" x="0" y="541.303">
   </rect>
   <text class="st4" x="11.08" y="550.14">
    ADC1BUF1
   </text>
  </g>
  <g transform="translate(634.402,-220.647)">
   <desc>
    ADC1BUF2
   </desc>
   <rect class="st17" height="10.4803" width="55.3207" x="0" y="541.303">
   </rect>
   <text class="st4" x="11.08" y="550.14">
    ADC1BUF2
   </text>
  </g>
  <g transform="translate(634.402,-178.963)">
   <desc>
    ADC1BUFE
   </desc>
   <rect class="st17" height="10.4803" width="55.3207" x="0" y="541.303">
   </rect>
   <text class="st4" x="11.03" y="550.14">
    ADC1BUFE
   </text>
  </g>
  <g transform="translate(634.402,-168.571)">
   <desc>
    ADC1BUFF
   </desc>
   <rect class="st17" height="10.4803" width="55.3207" x="0" y="541.303">
   </rect>
   <text class="st4" x="11.17" y="550.14">
    ADC1BUFF
   </text>
  </g>
  <g transform="translate(634.402,-241.519)">
   <desc>
    ADC1BUF0
   </desc>
   <rect class="st17" height="10.4803" width="55.3207" x="0" y="541.303">
   </rect>
   <text class="st4" x="11.08" y="548.64">
    ADC1BUF0
   </text>
  </g>
  <g transform="translate(634.5,-189.312)">
   <desc>
    ADC1BUFD
   </desc>
   <rect class="st17" height="10.4803" width="55.3207" x="0" y="541.303">
   </rect>
   <text class="st4" x="10.62" y="550.14">
    ADC1BUFD
   </text>
  </g>
  <g transform="translate(25,-184.062)">
   <desc>
    CH0SA
   </desc>
   <rect class="st10" height="14.4605" width="40.875" x="0" y="537.322">
   </rect>
   <text class="st12" x="4" y="547.55">
    CH0SA
   </text>
  </g>
  <g transform="translate(184.6,-194.862)">
   <desc>
    CH0SB
   </desc>
   <rect class="st10" height="14.4605" width="40.875" x="0" y="537.322">
   </rect>
   <text class="st12" x="4" y="547.55">
    CH0SB
   </text>
  </g>
  <g transform="translate(179.65,-175.85)">
   <desc>
    CSCNA
   </desc>
   <rect class="st10" height="14.4605" width="40.875" x="0" y="537.322">
   </rect>
   <text class="st12" x="4" y="547.55">
    CSCNA
   </text>
  </g>
  <g id="adc_00755-ANz" transform="translate(101.5,-328.062)">
   <desc>
    ANz
   </desc>
   <rect class="st10" height="14.625" width="34.3125" x="0" y="537.158">
   </rect>
   <text class="st12" x="13.2" y="547.47">
    ANz
   </text>
  </g>
  <g transform="translate(1060.72,81.9705) rotate(90)">
   <path class="st15" d="M0 551.78 L63 551.78 L52.5 533.98 L10.5 533.98 L0 551.78 Z">
   </path>
  </g>
  <g transform="translate(245.5,-22.0625)">
   <desc>
    Alternate Input Sample Mode
   </desc>
   <rect class="st10" height="21.9817" width="150.375" x="0" y="529.801">
   </rect>
   <text class="st11" x="4" y="543.79">
    Alternate Input Sample Mode
   </text>
  </g>
  <g id="adc_00755-negativePin2" transform="translate(17.875,-161.75)">
   <desc>
    AN1
   </desc>
   <rect class="st10" height="14.4605" width="33.75" x="0" y="537.322">
   </rect>
   <text class="st12" x="4" y="547.55">
    AN1
   </text>
  </g>
  <g id="adc_00755-negativePin1" transform="translate(6.62498,-143.562)">
   <desc>
    VREFL
   </desc>
   <rect class="st10" height="14.4605" width="38.8125" x="0" y="537.322">
   </rect>
   <text class="st12" x="4" y="547.55">
    VREFL
   </text>
  </g>
  <g id="adc_00755-positivePin3" transform="translate(97,-312.312)">
   <desc>
    IVREF
   </desc>
   <rect class="st10" height="14.625" width="43.3125" x="0" y="537.158">
   </rect>
   <text class="st12" x="12.58" y="547.47">
    IVREF
   </text>
  </g>
  <g id="adc_00755-positivePin4" transform="translate(93.0625,-297.125)">
   <desc>
    CTMUT
   </desc>
   <rect class="st10" height="14.625" width="47.25" x="0" y="537.158">
   </rect>
   <text class="st12" x="11.3" y="547.47">
    CTMUT
   </text>
  </g>
  <g id="adc_00755-positivePin5" transform="translate(93.0625,-280.812)">
   <desc>
    Open
   </desc>
   <rect class="st10" height="14.625" width="47.25" x="0" y="537.158">
   </rect>
   <text class="st12" x="19.81" y="547.47">
    Open
   </text>
  </g>
  <g transform="translate(33.625,-0.125)">
   <path class="st23" d="M0 551.78 L15.75 551.78">
   </path>
  </g>
  <g transform="translate(106,-362.562)">
   <desc>
    AN0
   </desc>
   <rect class="st10" height="14.625" width="34.3125" x="0" y="537.158">
   </rect>
   <text class="st12" x="12.18" y="547.47">
    AN0
   </text>
  </g>
  <g transform="translate(149,-341.312)">
   <g transform="translate(-1.19404E-13,-6.46607)">
    <g class="st1" id="shadow273-313" transform="matrix(1,0,0,1,0.345598,1.97279)">
     <path class="st24" d="M0 550.3 A1.48311 1.48311 0 0 1 2.97 550.3 A1.48311 1.48311 0 1 1 0 550.3 Z">
     </path>
    </g>
    <path class="st25" d="M0 550.3 A1.48311 1.48311 0 0 1 2.97 550.3 A1.48311 1.48311 0 1 1 0 550.3 Z">
    </path>
   </g>
   <g>
    <g class="st1" id="shadow274-318" transform="matrix(1,0,0,1,0.345598,1.97279)">
     <path class="st24" d="M0 550.3 A1.48311 1.48311 0 0 1 2.97 550.3 A1.48311 1.48311 0 1 1 0 550.3 Z">
     </path>
    </g>
    <path class="st25" d="M0 550.3 A1.48311 1.48311 0 0 1 2.97 550.3 A1.48311 1.48311 0 1 1 0 550.3 Z">
    </path>
   </g>
   <g transform="translate(-1.19404E-13,-12.9321)">
    <g class="st1" id="shadow275-323" transform="matrix(1,0,0,1,0.345598,1.97279)">
     <path class="st24" d="M0 550.3 A1.48311 1.48311 0 0 1 2.97 550.3 A1.48311 1.48311 0 1 1 0 550.3 Z">
     </path>
    </g>
    <path class="st25" d="M0 550.3 A1.48311 1.48311 0 0 1 2.97 550.3 A1.48311 1.48311 0 1 1 0 550.3 Z">
    </path>
   </g>
   <g transform="translate(-1.19404E-13,-19.3982)">
    <g class="st1" id="shadow276-328" transform="matrix(1,0,0,1,0.345598,1.97279)">
     <path class="st24" d="M0 550.3 A1.48311 1.48311 0 0 1 2.97 550.3 A1.48311 1.48311 0 1 1 0 550.3 Z">
     </path>
    </g>
    <path class="st25" d="M0 550.3 A1.48311 1.48311 0 0 1 2.97 550.3 A1.48311 1.48311 0 1 1 0 550.3 Z">
    </path>
   </g>
  </g>
 </g>
</svg>
