<?xml version="1.0" encoding="UTF-8" standalone="no"?>
<!DOCTYPE svg PUBLIC "-//W3C//DTD SVG 1.1//EN" "http://www.w3.org/Graphics/SVG/1.1/DTD/svg11.dtd">
<!-- Generated by Microsoft Visio, SVG Export SAMD21.svg Page-1 -->
<svg class="st34" color-interpolation-filters="sRGB" height="12.7774in" viewBox="0 0 1311.33 919.975" width="18.213in" xml:space="preserve" xmlns="http://www.w3.org/2000/svg" xmlns:xlink="http://www.w3.org/1999/xlink">
 <style type="text/css">
  .st1 {visibility:visible}
		.st2 {fill:#000000;fill-opacity:0.4;filter:url(#filter_2.6666667461395);stroke:#000000;stroke-opacity:0.4}
		.st3 {fill:#ffffff;stroke:#70ad47;stroke-width:1}
		.st4 {stroke:#000000;stroke-linecap:round;stroke-linejoin:round;stroke-width:0.75}
		.st5 {stroke:#000000;stroke-linecap:round;stroke-linejoin:round;stroke-width:1}
		.st6 {marker-end:url(#mrkr5-50);stroke:#000000;stroke-linecap:round;stroke-linejoin:round;stroke-width:1}
		.st7 {fill:#000000;fill-opacity:1;stroke:#000000;stroke-opacity:1;stroke-width:0.28409090909091}
		.st8 {fill:#dae8fc;stroke:#6c8ebf;stroke-width:1}
		.st9 {fill:none;stroke:none;stroke-width:0.25}
		.st10 {fill:#000000;font-family:Calibri;font-size:1.00001em}
		.st11 {fill:#002060;font-family:Calibri;font-size:1.00001em}
		.st12 {fill:#d5e8d4;stroke:#82b366;stroke-width:1}
		.st13 {fill:#002060;font-family:Calibri;font-size:0.666664em}
		.st14 {fill:#000000;font-family:Times New Roman;font-size:0.833336em}
		.st15 {fill:#5b9bd5;fill-opacity:0.22;filter:url(#filter_2);stroke:#5b9bd5;stroke-opacity:0.22}
		.st16 {fill:#000000;stroke:#c7c8c8;stroke-width:0.25}
		.st17 {marker-start:url(#mrkr5-201);stroke:#000000;stroke-linecap:round;stroke-linejoin:round;stroke-width:0.75}
		.st18 {fill:#000000;fill-opacity:1;stroke:#000000;stroke-opacity:1;stroke-width:0.22935779816514}
		.st19 {fill:#000000;font-family:Calibri;font-size:0.666664em}
		.st20 {fill:#ffffff;stroke:#000000;stroke-width:0.25}
		.st21 {fill:#000000;stroke:#000000;stroke-width:0.25}
		.st22 {fill:#000000;stroke:none;stroke-width:0.25}
		.st23 {fill:none;stroke:none;stroke-width:0.5}
		.st24 {fill:#f8cecc;stroke:#c7c8c8;stroke-width:0.25}
		.st25 {marker-start:url(#mrkr5-289);stroke:#000000;stroke-linecap:round;stroke-linejoin:round;stroke-width:1}
		.st26 {fill:#f8cecc;stroke:none;stroke-width:0.25}
		.st27 {fill:#f8cecc;stroke:#000000;stroke-width:0.25}
		.st28 {fill:#000000;font-family:Calibri;font-size:0.916672em}
		.st29 {font-size:1em}
		.st30 {fill:#000000;fill-opacity:1;stroke:#000000;stroke-opacity:1;stroke-width:0.090252707581227}
		.st31 {fill:#000000;font-family:Calibri;font-size:1.16666em}
		.st32 {fill:#ffffff;stroke:#000000;stroke-width:0.75}
		.st33 {stroke:#000000;stroke-width:0.75}
		.st34 {fill:none;fill-rule:evenodd;font-size:12px;overflow:visible;stroke-linecap:square;stroke-miterlimit:3}
 </style>
 <defs id="Markers">
  <g id="lend5">
   <path d="M 2 1 L 0 0 L 1.98117 -0.993387 C 1.67173 -0.364515 1.67301 0.372641 1.98465 1.00043 " style="stroke:none">
   </path>
  </g>
  <marker class="st7" id="mrkr5-50" markerUnits="strokeWidth" orient="auto" overflow="visible" refX="-6.16">
   <use transform="scale(-3.52,-3.52) " xlink:href="#lend5">
   </use>
  </marker>
  <marker class="st18" id="mrkr5-201" markerUnits="strokeWidth" orient="auto" overflow="visible" refX="7.15">
   <use transform="scale(4.36) " xlink:href="#lend5">
   </use>
  </marker>
  <marker class="st7" id="mrkr5-289" markerUnits="strokeWidth" orient="auto" overflow="visible" refX="5.8">
   <use transform="scale(3.52) " xlink:href="#lend5">
   </use>
  </marker>
  <marker class="st30" id="mrkr5-408" markerUnits="strokeWidth" orient="auto" overflow="visible" refX="-19.39">
   <use transform="scale(-11.08,-11.08) " xlink:href="#lend5">
   </use>
  </marker>
 </defs>
 <defs id="Filters">
  <filter id="filter_2.6666667461395">
   <feGaussianBlur stdDeviation="2.6666667461395">
   </feGaussianBlur>
  </filter>
  <filter id="filter_2">
   <feGaussianBlur stdDeviation="2">
   </feGaussianBlur>
  </filter>
 </defs>
 <g>
  <g transform="translate(245.75,-268.5)">
   <g class="st1" id="shadow756-2" transform="matrix(1,0,0,1,0,3)">
    <rect class="st2" height="197.726" width="312.75" x="0" y="722.249">
    </rect>
   </g>
   <rect class="st3" height="197.726" width="312.75" x="0" y="722.249">
   </rect>
  </g>
  <g transform="translate(315.803,-724.313)">
   <g class="st1" id="shadow580-7" transform="matrix(1,0,0,1,0,3)">
    <rect class="st2" height="194.162" width="247.433" x="0" y="725.813">
    </rect>
   </g>
   <rect class="st3" height="194.162" width="247.433" x="0" y="725.813">
   </rect>
  </g>
  <g transform="translate(246.006,-7.5)">
   <g class="st1" id="shadow577-12" transform="matrix(1,0,0,1,0,3)">
    <rect class="st2" height="243.981" width="310.244" x="0" y="675.994">
    </rect>
   </g>
   <rect class="st3" height="243.981" width="310.244" x="0" y="675.994">
   </rect>
  </g>
  <g transform="translate(1001.16,-242.403)">
   <g class="st1" id="shadow249-17" transform="matrix(1,0,0,1,0,3)">
    <rect class="st2" height="140.492" width="143.95" x="0" y="779.483">
    </rect>
   </g>
   <rect class="st3" height="140.492" width="143.95" x="0" y="779.483">
   </rect>
  </g>
  <g transform="translate(1990.83,607.117) rotate(90)">
   <path class="st4" d="M0 919.97 L16.52 919.97">
   </path>
  </g>
  <g transform="translate(997.062,-741.409)">
   <g class="st1" id="shadow131-25" transform="matrix(1,0,0,1,0,3)">
    <rect class="st2" height="110.29" width="142.617" x="0" y="809.685">
    </rect>
   </g>
   <rect class="st3" height="110.29" width="142.617" x="0" y="809.685">
   </rect>
  </g>
  <g transform="translate(1002.32,-403.5)">
   <g class="st1" id="shadow107-30" transform="matrix(1,0,0,1,0,3)">
    <rect class="st2" height="248.911" width="143.95" x="0" y="671.064">
    </rect>
   </g>
   <rect class="st3" height="248.911" width="143.95" x="0" y="671.064">
   </rect>
  </g>
  <g transform="translate(1089.54,-476.842)">
   <path class="st5" d="M9 919.97 L9 880.26">
   </path>
  </g>
  <g transform="translate(733.373,-120.432)">
   <g class="st1" id="shadow29-38" transform="matrix(1,0,0,1,0,3)">
    <rect class="st2" height="262.546" width="139.216" x="0" y="657.428">
    </rect>
   </g>
   <rect class="st3" height="262.546" width="139.216" x="0" y="657.428">
   </rect>
  </g>
  <g transform="translate(816.404,-199.616)">
   <path class="st5" d="M9 919.97 L9 949.67">
   </path>
  </g>
  <g transform="translate(768.613,-211.3)">
   <path class="st6" d="M0 911.04 L24.12 910.93">
   </path>
  </g>
  <g transform="translate(731.137,-669.361)">
   <g class="st1" id="shadow45-52" transform="matrix(1,0,0,1,0,3)">
    <rect class="st2" height="246.875" width="139.952" x="0" y="673.1">
    </rect>
   </g>
   <rect class="st3" height="246.875" width="139.952" x="0" y="673.1">
   </rect>
  </g>
  <g transform="translate(1660.09,6.38462) rotate(90)">
   <path class="st8" d="M0 919.97 L231.41 919.97 L192.84 886.39 L38.57 886.39 L0 919.97 Z">
   </path>
  </g>
  <g transform="translate(773.385,-797.741)">
   <path class="st6" d="M0 910.98 L14.46 910.97">
   </path>
  </g>
  <g transform="translate(850.028,-805.749)">
   <path class="st5" d="M0 919.97 L75.15 919.97">
   </path>
  </g>
  <g transform="translate(854.037,-219.254)">
   <path class="st6" d="M0 919.97 L75.74 919.97">
   </path>
  </g>
  <g transform="translate(872.071,-223.702)">
   <desc>
    GCLKx
   </desc>
   <rect class="st9" height="11.4036" width="48.3281" x="0" y="908.571">
   </rect>
   <text class="st10" x="8.94" y="917.87">
    GCLKx
   </text>
  </g>
  <g transform="translate(745.787,-900.256)">
   <desc>
    GCLK Generator 0
   </desc>
   <rect class="st9" height="11.4036" width="107.209" x="0" y="908.571">
   </rect>
   <text class="st11" x="10.09" y="917.87">
    GCLK Generator 0
   </text>
  </g>
  <g transform="translate(750.527,-366.995)">
   <desc>
    GCLK Generator x
   </desc>
   <rect class="st9" height="11.4036" width="107.209" x="0" y="908.571">
   </rect>
   <text class="st11" x="10.53" y="917.87">
    GCLK Generator x
   </text>
  </g>
  <g transform="translate(1038.78,-512.185)">
   <path class="st5" d="M0 910.97 L53.16 910.97">
   </path>
  </g>
  <g transform="translate(1016.55,1227.39) rotate(180)">
   <path class="st5" d="M0 919.97 L63.22 919.97">
   </path>
  </g>
  <g transform="translate(1010.37,1360.06) rotate(-179.615)">
   <path class="st5" d="M0 919.97 L63.31 919.97">
   </path>
  </g>
  <g transform="translate(1016.55,1293.31) rotate(180)">
   <path class="st5" d="M0 919.97 L63.57 919.97">
   </path>
  </g>
  <g transform="translate(1016.55,1315.85) rotate(180)">
   <path class="st5" d="M0 919.97 L63.16 919.97">
   </path>
  </g>
  <g transform="translate(1016.55,1338.39) rotate(180)">
   <path class="st5" d="M0 919.97 L63.83 919.97">
   </path>
  </g>
  <g transform="translate(1016.55,1249.08) rotate(180)">
   <path class="st5" d="M0 919.97 L63.22 919.97">
   </path>
  </g>
  <g transform="translate(1016.55,1272.05) rotate(180)">
   <path class="st5" d="M0 919.97 L63.22 919.97">
   </path>
  </g>
  <g transform="translate(995,-629.625)">
   <desc>
    Peripheral Clock Selection
   </desc>
   <rect class="st9" height="18.2533" width="168.75" x="0" y="901.722">
   </rect>
   <text class="st11" x="21.13" y="914.45">
    Peripheral Clock Selection
   </text>
  </g>
  <g transform="translate(1100.73,-512.185)">
   <path class="st6" d="M0 911.08 L123.97 910.88">
   </path>
  </g>
  <g transform="translate(1010.59,-837.271)">
   <desc>
    Main Clock
   </desc>
   <rect class="st9" height="11.4036" width="115.554" x="0" y="908.571">
   </rect>
   <text class="st11" x="30.88" y="917.87">
    Main Clock
   </text>
  </g>
  <g transform="translate(875.164,-808.692)">
   <desc>
    GCLK0
   </desc>
   <rect class="st9" height="11.4036" width="47.836" x="0" y="908.571">
   </rect>
   <text class="st10" x="8.25" y="917.87">
    GCLK0
   </text>
  </g>
  <g transform="translate(1096.58,-806.23)">
   <path class="st6" d="M0 919.97 L121.5 919.97">
   </path>
  </g>
  <g transform="translate(1092.7,-512.474)">
   <path class="st12" d="M0 902.55 L0 919.97 L12.22 911.79 L0 902.55 Z">
   </path>
  </g>
  <g transform="translate(1067.15,1520.54) rotate(180)">
   <path class="st4" d="M0 919.97 L119.53 919.97">
   </path>
  </g>
  <g transform="translate(1076.75,-308.749)">
   <path class="st4" d="M0 911.16 L154.1 910.79">
   </path>
  </g>
  <g transform="translate(1065.77,-309.597)">
   <path class="st12" d="M0 903.03 L0 919.97 L11.88 912.02 L0 903.03 Z">
   </path>
  </g>
  <g transform="translate(1015.35,-369.418)">
   <desc>
    GCLK Input Output (IO)
   </desc>
   <rect class="st9" height="11.4036" width="115.554" x="0" y="908.571">
   </rect>
   <text class="st13" x="20.28" y="916.67">
    GCLK Input Output (IO)
   </text>
  </g>
  <g transform="translate(732.22,-401.998)">
   <g class="st1" id="shadow257-137" transform="matrix(1,0,0,1,0,3)">
    <rect class="st2" height="249.358" width="139.952" x="0" y="670.617">
    </rect>
   </g>
   <rect class="st3" height="249.358" width="139.952" x="0" y="670.617">
   </rect>
  </g>
  <g transform="translate(1663.68,272.527) rotate(90)">
   <path class="st8" d="M0 919.97 L228.35 919.97 L190.3 885.52 L38.06 885.52 L0 919.97 Z">
   </path>
  </g>
  <g transform="translate(815.896,-520.85)">
   <path class="st5" d="M9 919.97 L9 949.67">
   </path>
  </g>
  <g transform="translate(772.345,-551.003)">
   <path class="st6" d="M0 928.88 L19.08 929.03">
   </path>
  </g>
  <g transform="translate(797.531,-520.639)">
   <desc>
    ÷
   </desc>
   <path class="st12" d="M4.21 919.97 L52.53 919.97 A4.04046 4.04046 -180 0 0 56.57 915.93 L56.57 885.04 A4.37367 4.37367 -180 0 0 52.19
						 880.67 L4.21 880.67 A4.21146 4.21146 -180 0 0 -0 884.88 L0 915.76 A4.21146 4.21146 -180 0 0 4.21 919.97
						 Z">
   </path>
   <text class="st14" x="11.5" y="903.36">
    ÷
   </text>
  </g>
  <g transform="translate(743.644,1229.62) rotate(180)">
   <path class="st5" d="M0 919.97 L64 919.97">
   </path>
  </g>
  <g transform="translate(743.792,1361.89) rotate(180)">
   <path class="st5" d="M0 919.97 L63.74 919.97">
   </path>
  </g>
  <g transform="translate(743.94,1295.54) rotate(180)">
   <path class="st5" d="M0 919.97 L64.3 919.97">
   </path>
  </g>
  <g transform="translate(743.792,1318.08) rotate(180)">
   <path class="st5" d="M0 919.97 L64.21 919.97">
   </path>
  </g>
  <g transform="translate(743.644,1340.63) rotate(180)">
   <path class="st5" d="M0 919.97 L63.98 919.97">
   </path>
  </g>
  <g transform="translate(743.94,1251.31) rotate(180)">
   <path class="st5" d="M0 919.97 L64.19 919.97">
   </path>
  </g>
  <g transform="translate(878.193,-544.725)">
   <desc>
    GCLK1
   </desc>
   <rect class="st9" height="11.4036" width="40.3071" x="0" y="908.571">
   </rect>
   <text class="st10" x="4.49" y="917.87">
    GCLK1
   </text>
  </g>
  <g transform="translate(746.864,-635.78)">
   <desc>
    GCLK Generator 1
   </desc>
   <rect class="st9" height="11.4036" width="107.209" x="0" y="908.571">
   </rect>
   <text class="st11" x="10.09" y="917.87">
    GCLK Generator 1
   </text>
  </g>
  <g transform="translate(854.22,-540.291)">
   <path class="st6" d="M0 919.97 L53.94 919.97">
   </path>
  </g>
  <g transform="translate(1077.15,1479.09) rotate(180)">
   <path class="st12" d="M0 903.03 L0 919.97 L11.88 912.02 L0 903.03 Z">
   </path>
  </g>
  <g transform="translate(1077.22,-343.538)">
   <path class="st4" d="M0 910.97 L30.16 910.97">
   </path>
  </g>
  <g transform="translate(2027.47,567.49) rotate(90)">
   <path class="st4" d="M0 919.97 L34.86 919.97">
   </path>
  </g>
  <g transform="translate(1105.13,-314.953)">
   <g class="st1" id="shadow283-192" transform="matrix(1,0,0,1,0.345598,1.97279)">
    <ellipse class="st15" cx="2.66119" cy="917.314" rx="2.66119" ry="2.66119">
    </ellipse>
   </g>
   <ellipse class="st16" cx="2.66119" cy="917.314" rx="2.66119" ry="2.66119">
   </ellipse>
  </g>
  <g transform="translate(946.063,-343.814)">
   <path class="st17" d="M5.36 910.97 L5.72 910.97 L119.37 910.97">
   </path>
  </g>
  <g transform="translate(940.334,-356.778)">
   <desc>
    GCLK_IN[x]
   </desc>
   <rect class="st9" height="11.4036" width="54.1567" x="0" y="908.571">
   </rect>
   <text class="st19" x="8.89" y="916.67">
    GCLK_IN[x]
   </text>
  </g>
  <g transform="translate(938.194,-322.284)">
   <desc>
    GCLKx
   </desc>
   <rect class="st9" height="11.4036" width="40.1448" x="0" y="908.571">
   </rect>
   <text class="st19" x="9.92" y="916.67">
    GCLKx
   </text>
  </g>
  <g transform="translate(502.3,-867.956)">
   <path class="st6" d="M0 910.97 L113.18 910.97">
   </path>
  </g>
  <g transform="translate(495.654,-777.591)">
   <path class="st6" d="M0 910.97 L119.11 910.97">
   </path>
  </g>
  <g transform="translate(561.584,-880.131)">
   <desc>
    OSC8M
   </desc>
   <rect class="st9" height="10.0745" width="58.7723" x="0" y="909.9">
   </rect>
   <text class="st10" x="11.29" y="918.54">
    OSC8M
   </text>
  </g>
  <g transform="translate(557.79,-789.15)">
   <desc>
    XOSC
   </desc>
   <rect class="st9" height="10.0745" width="58.7723" x="0" y="909.9">
   </rect>
   <text class="st10" x="16.34" y="918.54">
    XOSC
   </text>
  </g>
  <g transform="translate(225.35,-71.2387)">
   <path class="st5" d="M0 910.97 L62.51 910.97">
   </path>
  </g>
  <g transform="translate(224.274,-44.8668)">
   <path class="st5" d="M0 910.97 L64.03 910.97">
   </path>
  </g>
  <g transform="translate(210.662,-47.5815)">
   <rect class="st20" height="14.4023" width="14.4023" x="0" y="905.573">
   </rect>
  </g>
  <g transform="translate(-433.742,225.791) rotate(-45)">
   <path class="st21" d="M0 912.88 L8.63 912.88 L8.63 919.97 L8.63 912.88 L17.26 912.88 L8.63 912.88 L8.63 905.78 L8.63 912.88 L0 912.88
						 Z">
   </path>
  </g>
  <g transform="translate(211.708,-73.3713)">
   <rect class="st20" height="14.4023" width="14.4023" x="0" y="905.573">
   </rect>
  </g>
  <g transform="translate(-432.696,200.001) rotate(-45)">
   <path class="st21" d="M0 912.88 L8.63 912.88 L8.63 919.97 L8.63 912.88 L17.26 912.88 L8.63 912.88 L8.63 905.78 L8.63 912.88 L0 912.88
						 Z">
   </path>
  </g>
  <g transform="translate(1366.67,802.041) rotate(90)">
   <path class="st8" d="M0 919.97 L84.11 919.97 L70.09 891.53 L14.02 891.53 L0 919.97 Z">
   </path>
  </g>
  <g transform="translate(473.569,-66.0274)">
   <path class="st6" d="M0 911.73 L137.88 910.29">
   </path>
  </g>
  <g transform="translate(254.638,-80.0522)">
   <path class="st5" d="M0 919.97 L0 901.36 L192.06 901.36">
   </path>
  </g>
  <g transform="translate(250.582,-76.0792)">
   <path class="st22" d="M0 916.37 A3.60057 3.60057 0 0 1 7.2 916.37 A3.60057 3.60057 0 1 1 0 916.37 Z">
   </path>
  </g>
  <g transform="translate(157.451,-68.0482)">
   <desc>
    XIN32
   </desc>
   <rect class="st23" height="22.9424" width="60.1085" x="0" y="897.032">
   </rect>
   <text class="st10" x="15.47" y="912.1">
    XIN32
   </text>
  </g>
  <g transform="translate(144.182,-41.8475)">
   <desc>
    XOUT32
   </desc>
   <rect class="st23" height="22.9424" width="68.9181" x="0" y="897.032">
   </rect>
   <text class="st10" x="14.52" y="912.1">
    XOUT32
   </text>
  </g>
  <g transform="translate(557.502,-76.5456)">
   <desc>
    XOSC32K
   </desc>
   <rect class="st9" height="10.5939" width="53.3242" x="0" y="909.381">
   </rect>
   <text class="st10" x="4.42" y="918.28">
    XOSC32K
   </text>
  </g>
  <g transform="translate(419.686,-134.804)">
   <path class="st6" d="M0 910.97 L189.75 910.97">
   </path>
  </g>
  <g transform="translate(553.317,-147.749)">
   <desc>
    OSCULP32K
   </desc>
   <rect class="st9" height="10.5939" width="72.4829" x="0" y="909.381">
   </rect>
   <text class="st10" x="7.64" y="918.28">
    OSCULP32K
   </text>
  </g>
  <g transform="translate(420.117,-198.443)">
   <path class="st6" d="M0 910.97 L188.18 910.97">
   </path>
  </g>
  <g transform="translate(556.607,-208.902)">
   <desc>
    OSC32K
   </desc>
   <rect class="st9" height="10.5939" width="50.3801" x="0" y="909.381">
   </rect>
   <text class="st10" x="6.06" y="918.28">
    OSC32K
   </text>
  </g>
  <g transform="translate(416.729,-43.4438)">
   <path class="st5" d="M0 910.97 L29.02 910.97">
   </path>
  </g>
  <g transform="translate(1231.48,-508.4)">
   <desc>
    Peripherals
   </desc>
   <g class="st1" id="shadow473-279" transform="matrix(1,0,0,1,0.345598,1.97279)">
    <rect class="st15" height="25.5716" width="76.3794" x="0" y="894.403">
    </rect>
   </g>
   <rect class="st24" height="25.5716" width="76.3794" x="0" y="894.403">
   </rect>
   <text class="st10" x="10.66" y="910.79">
    Peripherals
   </text>
  </g>
  <g transform="translate(1040.16,1034.15) rotate(180)">
   <path class="st25" d="M5.8 919.97 L6.16 919.97 L121.51 919.97">
   </path>
  </g>
  <g transform="translate(944.6,-614.55)">
   <desc>
    GCLK0
   </desc>
   <rect class="st9" height="11.5825" width="47.3703" x="0" y="908.392">
   </rect>
   <text class="st10" x="8.02" y="917.78">
    GCLK0
   </text>
  </g>
  <g transform="translate(945.95,-593.85)">
   <desc>
    GCLK1
   </desc>
   <rect class="st9" height="11.5825" width="47.3703" x="0" y="908.392">
   </rect>
   <text class="st10" x="8.02" y="917.78">
    GCLK1
   </text>
  </g>
  <g transform="translate(946.4,-568.65)">
   <desc>
    GCLK2
   </desc>
   <rect class="st9" height="11.5825" width="47.3703" x="0" y="908.392">
   </rect>
   <text class="st10" x="8.02" y="917.78">
    GCLK2
   </text>
  </g>
  <g transform="translate(945.38,-547.335)">
   <desc>
    GCLK3
   </desc>
   <rect class="st9" height="11.5825" width="47.3703" x="0" y="908.392">
   </rect>
   <text class="st10" x="8.02" y="917.78">
    GCLK3
   </text>
  </g>
  <g transform="translate(945.38,-525.053)">
   <desc>
    GCLK4
   </desc>
   <rect class="st9" height="11.5825" width="47.3703" x="0" y="908.392">
   </rect>
   <text class="st10" x="8.02" y="917.78">
    GCLK4
   </text>
  </g>
  <g transform="translate(945.38,-502.886)">
   <desc>
    GCLK5
   </desc>
   <rect class="st9" height="11.5825" width="47.3703" x="0" y="908.392">
   </rect>
   <text class="st10" x="8.02" y="917.78">
    GCLK5
   </text>
  </g>
  <g transform="translate(945.38,-481.014)">
   <desc>
    GCLK6
   </desc>
   <rect class="st9" height="11.5825" width="47.3703" x="0" y="908.392">
   </rect>
   <text class="st10" x="8.02" y="917.78">
    GCLK6
   </text>
  </g>
  <g transform="translate(945.38,-460.029)">
   <desc>
    GCLK7
   </desc>
   <rect class="st9" height="11.5825" width="47.3703" x="0" y="908.392">
   </rect>
   <text class="st10" x="8.02" y="917.78">
    GCLK7
   </text>
  </g>
  <g transform="translate(296.576,-236.785)">
   <desc>
    32 KHz Oscillators Controller
   </desc>
   <rect class="st9" height="10.5939" width="185.332" x="0" y="909.381">
   </rect>
   <text class="st11" x="23.2" y="918.28">
    32 KHz Oscillators Controller
   </text>
  </g>
  <g transform="translate(364.382,-904.68)">
   <desc>
    Oscillators Controller
   </desc>
   <rect class="st9" height="10.0745" width="150.275" x="0" y="909.9">
   </rect>
   <text class="st11" x="23.69" y="918.54">
    Oscillators Controller
   </text>
  </g>
  <g transform="translate(1224.54,-793.444)">
   <desc>
    CPU
   </desc>
   <g class="st1" id="shadow591-321" transform="matrix(1,0,0,1,0.345598,1.97279)">
    <rect class="st15" height="25.5716" width="80.3078" x="0" y="894.403">
    </rect>
   </g>
   <rect class="st24" height="25.5716" width="80.3078" x="0" y="894.403">
   </rect>
   <text class="st10" x="30.01" y="910.79">
    CPU
   </text>
  </g>
  <g transform="translate(812.309,-785.687)">
   <path class="st5" d="M9 919.97 L9 949.67">
   </path>
  </g>
  <g transform="translate(793.945,-785.476)">
   <desc>
    ÷
   </desc>
   <path class="st12" d="M4.06 919.97 L52.71 919.97 A3.86034 3.86034 -180 0 0 56.57 916.11 L56.57 884.53 A3.86034 3.86034 -180 0 0 52.71
						 880.67 L3.56 880.67 A3.55854 3.55854 -180 0 0 0 884.23 L0 915.92 A4.05836 4.05836 -180 0 0 4.06 919.97 Z">
   </path>
   <text class="st14" x="11.5" y="903.36">
    ÷
   </text>
  </g>
  <g transform="translate(739.607,959.343) rotate(180)">
   <path class="st5" d="M0 919.97 L63.76 919.97">
   </path>
  </g>
  <g transform="translate(739.409,1091.79) rotate(180)">
   <path class="st5" d="M0 919.97 L63.56 919.97">
   </path>
  </g>
  <g transform="translate(739.385,1025.01) rotate(180)">
   <path class="st5" d="M0 919.97 L63.54 919.97">
   </path>
  </g>
  <g transform="translate(739.718,1047.56) rotate(180)">
   <path class="st5" d="M0 919.97 L63.87 919.97">
   </path>
  </g>
  <g transform="translate(739.829,1070.1) rotate(180)">
   <path class="st5" d="M0 919.97 L63.98 919.97">
   </path>
  </g>
  <g transform="translate(739.607,981.033) rotate(180)">
   <path class="st5" d="M0 919.97 L63.76 919.97">
   </path>
  </g>
  <g transform="translate(739.718,1003.75) rotate(180)">
   <path class="st5" d="M0 919.97 L63.87 919.97">
   </path>
  </g>
  <g transform="translate(1230.63,-307.562)">
   <g transform="translate(3.83693E-13,2.47653)">
    <g class="st1" id="shadow593-355" transform="matrix(1,0,0,1,0.345598,1.97279)">
     <rect class="st15" height="25.5716" width="76.3794" x="0" y="894.403">
     </rect>
    </g>
    <rect class="st24" height="25.5716" width="76.3794" x="0" y="894.403">
    </rect>
   </g>
   <g transform="translate(17.7716,-4.6075)">
    <desc>
     GCLK_IO[x]
    </desc>
    <rect class="st26" height="11.4036" width="58.6464" x="0" y="908.571">
    </rect>
    <text class="st19" x="11.07" y="916.67">
     GCLK_IO[x]
    </text>
   </g>
   <g transform="translate(10.2591,-5.27769)">
    <rect class="st27" height="11.1131" width="10.7161" x="0" y="908.862">
    </rect>
   </g>
   <g transform="translate(-634.666,269.095) rotate(-45)">
    <path class="st27" d="M0 912.48 L7.26 912.48 L7.26 919.97 L7.26 912.48 L14.53 912.48 L7.26 912.48 L7.26 904.99 L7.26 912.48 L0
							 912.48 Z">
    </path>
   </g>
  </g>
  <g transform="translate(1010.37,1382.01) rotate(-179.615)">
   <path class="st5" d="M0 919.97 L63.31 919.97">
   </path>
  </g>
  <g transform="translate(739.479,1114.79) rotate(180)">
   <path class="st5" d="M0 919.97 L63.63 919.97">
   </path>
  </g>
  <g transform="translate(1010.37,1405.01) rotate(-179.615)">
   <path class="st5" d="M0 919.97 L63.31 919.97">
   </path>
  </g>
  <g transform="translate(945.38,-435.467)">
   <desc>
    GCLK8
   </desc>
   <rect class="st9" height="11.5825" width="47.3703" x="0" y="908.392">
   </rect>
   <text class="st10" x="8.02" y="917.78">
    GCLK8
   </text>
  </g>
  <g transform="translate(418.793,-833.239)">
   <g transform="translate(1.43885E-13,-35.838)">
    <path class="st6" d="M0 910.97 L24.53 910.97">
    </path>
   </g>
   <g transform="translate(30.6387,-26.0511)">
    <desc>
     ÷
    </desc>
    <path class="st12" d="M5.4 919.97 L48.61 919.97 A5.4007 5.4007 -180 0 0 54.01 914.57 L54.01 890.65 A5.4007 5.4007 -180 0 0 48.61
							 885.25 L5.4 885.25 A5.4007 5.4007 -180 0 0 -0 890.65 L0 914.57 A5.4007 5.4007 -180 0 0 5.4 919.97 Z">
    </path>
    <text class="st14" x="11.5" y="905.65">
     ÷
    </text>
   </g>
  </g>
  <g transform="translate(325.135,-856.685)">
   <desc>
    8 MHz Internal Oscillator
   </desc>
   <path class="st12" d="M4.88 919.97 L100.32 919.97 A5.30214 5.30214 -180 0 0 105.62 914.67 L105.62 880.3 A4.66589 4.66589 -180 0 0
						 100.95 875.63 L5.51 875.63 A5.51423 5.51423 -180 0 0 0 881.15 L0 915.1 A4.87797 4.87797 -180 0 0 4.88 919.97
						 Z">
   </path>
   <text class="st28" x="19.68" y="894.5">
    8 MHz Internal
    <tspan class="st29" dy="1.2em" x="31.61">
     Oscillator
    </tspan>
   </text>
  </g>
  <g transform="translate(467.436,-843.891)">
   <path class="st5" d="M9 917.05 L9 904.9">
   </path>
  </g>
  <g transform="translate(459.158,-752.193)">
   <path class="st5" d="M0 910.97 L20.71 910.97">
   </path>
  </g>
  <g transform="translate(299.987,-774.573)">
   <path class="st5" d="M0 910.97 L51.08 910.97">
   </path>
  </g>
  <g transform="translate(299.393,-734.177)">
   <path class="st5" d="M0 910.97 L51.67 910.97">
   </path>
  </g>
  <g transform="translate(288.558,-737.463)">
   <rect class="st20" height="11.1054" width="11.1054" x="0" y="908.869">
   </rect>
  </g>
  <g transform="translate(-356.586,-463.842) rotate(-45)">
   <path class="st21" d="M0 913.23 L7 913.23 L7 919.97 L7 913.23 L13.99 913.23 L7 913.23 L7 906.48 L7 913.23 L0 913.23 Z">
   </path>
  </g>
  <g transform="translate(289.115,-777.584)">
   <rect class="st20" height="11.1054" width="11.1054" x="0" y="908.869">
   </rect>
  </g>
  <g transform="translate(-356.029,-503.963) rotate(-45)">
   <path class="st21" d="M0 913.23 L7 913.23 L7 919.97 L7 913.23 L13.99 913.23 L7 913.23 L7 906.48 L7 913.23 L0 913.23 Z">
   </path>
  </g>
  <g transform="translate(330.225,-782.668)">
   <path class="st5" d="M0 919.71 L0 902.23 L149.25 902.23">
   </path>
  </g>
  <g transform="translate(327.503,-780.774)">
   <path class="st22" d="M0 917.2 A2.77635 2.77635 0 0 1 5.55 917.2 A2.77635 2.77635 0 1 1 0 917.2 Z">
   </path>
  </g>
  <g transform="translate(261.274,-771.227)">
   <desc>
    XIN
   </desc>
   <rect class="st23" height="21.8174" width="32.2998" x="0" y="898.157">
   </rect>
   <text class="st10" x="7.65" y="912.67">
    XIN
   </text>
  </g>
  <g transform="translate(250.819,-731.273)">
   <desc>
    XOUT
   </desc>
   <rect class="st23" height="21.8174" width="41.281" x="0" y="898.157">
   </rect>
   <text class="st10" x="6.78" y="912.67">
    XOUT
   </text>
  </g>
  <g transform="translate(350.949,-738.966)">
   <desc>
    Crystal Oscialltor
   </desc>
   <path class="st12" d="M4.73 919.97 L103.98 919.97 A4.18118 4.18118 -180 0 0 108.17 915.79 L108.17 877.8 A5.4537 5.4537 -180 0 0 102.71
						 872.35 L4.73 872.35 A4.72642 4.72642 -180 0 0 0 877.08 L0 915.25 A4.72642 4.72642 -180 0 0 4.73 919.97 Z">
   </path>
   <text class="st10" x="12.98" y="899.76">
    Crystal Oscialltor
   </text>
  </g>
  <g transform="translate(1400.19,100.413) rotate(90)">
   <path class="st8" d="M0 919.97 L82.06 919.97 L68.38 896.91 L13.68 896.91 L0 919.97 Z">
   </path>
  </g>
  <g transform="translate(264.839,-38.3186)">
   <desc>
    32K Crystal Oscillator
   </desc>
   <path class="st12" d="M9.48 919.97 L155.14 919.97 A9.6451 9.6451 -180 0 0 164.79 910.33 L164.79 879.39 A10.1355 10.1355 -180 0 0 154.65
						 869.25 L10.95 869.25 A10.9529 10.9529 -180 0 0 0 880.21 L0 910.49 A9.48163 9.48163 -180 0 0 9.48 919.97
						 Z">
   </path>
   <text class="st31" x="22.13" y="898.81">
    32K Crystal Oscillator
   </text>
  </g>
  <g transform="translate(266.408,-178.287)">
   <desc>
    32K High Accuracy Internal Oscillator
   </desc>
   <path class="st12" d="M6.61 919.97 L154.27 919.97 A7.38072 7.38072 -180 0 0 161.65 912.59 L161.65 872.4 A8.32421 8.32421 -180 0 0
						 153.32 864.07 L7.08 864.07 A7.08042 7.08042 -180 0 0 0 871.15 L0 913.37 A6.60867 6.60867 -180 0 0 6.61 919.97
						 Z">
   </path>
   <text class="st28" x="20.84" y="888.72">
    32K High Accuracy Internal
    <tspan class="st29" dy="1.2em" x="59.62">
     Oscillator
    </tspan>
   </text>
  </g>
  <g transform="translate(266.408,-113.439)">
   <desc>
    32K Ultra Low Power Internal Oscillator
   </desc>
   <path class="st12" d="M8.27 919.97 L152.12 919.97 A8.73969 8.73969 -180 0 0 160.86 911.24 L160.86 875.93 A9.20978 9.20978 -180 0 0
						 151.65 866.72 L8.27 866.72 A8.27429 8.27429 -180 0 0 0 875 L0 911.7 A8.27429 8.27429 -180 0 0 8.27 919.97
						 Z">
   </path>
   <text class="st10" x="8.84" y="889.75">
    32K Ultra Low Power Internal
    <tspan class="st29" dy="1.2em" x="57.3">
     Oscillator
    </tspan>
   </text>
  </g>
  <g transform="translate(1937.02,295.488) rotate(90)">
   <path class="st8" d="M0 919.97 L206.6 919.97 L172.17 898.65 L34.43 898.65 L0 919.97 Z">
   </path>
  </g>
  <g transform="translate(798.039,-199.405)">
   <desc>
    ÷
   </desc>
   <path class="st12" d="M3.79 919.97 L52.44 919.97 A4.12461 4.12461 -180 0 0 56.57 915.85 L56.57 884.46 A3.7914 3.7914 -180 0 0 52.78
						 880.67 L3.79 880.67 A3.79409 3.79409 -180 0 0 0 884.46 L0 916.18 A3.79409 3.79409 -180 0 0 3.79 919.97 Z">
   </path>
   <text class="st14" x="11.5" y="903.36">
    ÷
   </text>
  </g>
  <g transform="translate(1988.38,133.45) rotate(90)">
   <path class="st5" d="M0 919.97 L13.23 919.97">
   </path>
  </g>
  <g transform="translate(1040.09,-786.577)">
   <desc>
    ÷
   </desc>
   <path class="st12" d="M4.4 919.97 L52.39 919.97 A4.18149 4.18149 -180 0 0 56.57 915.79 L56.57 884.85 A4.18149 4.18149 -180 0 0 52.39
						 880.67 L3.74 880.67 A3.73721 3.73721 -180 0 0 0 884.41 L0 915.57 A4.40363 4.40363 -180 0 0 4.4 919.97 Z">
   </path>
   <text class="st14" x="11.5" y="903.36">
    ÷
   </text>
  </g>
  <g transform="translate(743.624,1273.79) rotate(180)">
   <path class="st5" d="M0 919.97 L63.95 919.97">
   </path>
  </g>
  <g transform="translate(1662.55,545.544) rotate(90)">
   <path class="st8" d="M0 919.97 L246.06 919.97 L205.05 891.54 L41.01 891.54 L0 919.97 Z">
   </path>
  </g>
  <g transform="translate(281.689,-331.273)">
   <path class="st5" d="M0 910.97 L102.86 910.97">
   </path>
  </g>
  <g transform="translate(149.272,-423.146)">
   <path class="st5" d="M0 910.97 L150.09 910.97">
   </path>
  </g>
  <g transform="translate(409.04,-320.376)">
   <path class="st5" d="M9 921.29 L9 936.66">
   </path>
  </g>
  <g transform="translate(384.737,-318.834)">
   <desc>
    ×
   </desc>
   <path class="st12" d="M6.66 919.97 L59.95 919.97 A6.6606 6.6606 -180 0 0 66.61 913.31 L66.61 884.7 A6.6606 6.6606 -180 0 0 59.95 878.04
						 L6.66 878.04 A6.6606 6.6606 -180 0 0 0 884.7 L0 913.31 A6.6606 6.6606 -180 0 0 6.66 919.97 Z">
   </path>
   <text class="st14" x="11.5" y="902.04">
    ×
   </text>
  </g>
  <g transform="translate(451.289,-331.169)">
   <path class="st5" d="M0 910.97 L62.39 910.97">
   </path>
  </g>
  <g transform="translate(182.171,-437.606)">
   <desc>
    GCLK_DFLL
   </desc>
   <rect class="st9" height="12.1673" width="67.2363" x="0" y="907.808">
   </rect>
   <text class="st10" x="6.51" y="917.49">
    GCLK_DFLL
   </text>
  </g>
  <g transform="translate(363.906,-398.092)">
   <path class="st6" d="M0 910.97 L21.16 910.97">
   </path>
  </g>
  <g transform="translate(490.334,-398.336)">
   <path class="st6" d="M0 910.97 L119.49 910.97">
   </path>
  </g>
  <g transform="translate(542.481,-410.592)">
   <desc>
    DFLL
   </desc>
   <rect class="st9" height="12.1673" width="72.4829" x="0" y="907.808">
   </rect>
   <text class="st10" x="24.75" y="917.49">
    DFLL
   </text>
  </g>
  <g transform="translate(299.66,-446.07)">
   <desc>
    Digital Frequency Locked Loop (DFLL 48Mhz)
   </desc>
   <rect class="st9" height="12.1673" width="231.887" x="0" y="907.808">
   </rect>
   <text class="st11" x="7.14" y="917.49">
    Digital Frequency Locked Loop (DFLL 48Mhz)
   </text>
  </g>
  <g transform="translate(391.032,-386.349)">
   <desc>
    DCO
   </desc>
   <path class="st12" d="M5.23 919.97 L93.12 919.97 A6.71814 6.71814 -180 0 0 99.84 913.26 L99.84 884.76 A6.71814 6.71814 -180 0 0 93.12
						 878.04 L6.8 878.04 A6.80056 6.80056 -180 0 0 -0 884.84 L0 914.74 A5.23118 5.23118 -180 0 0 5.23 919.97 Z">
   </path>
   <text class="st14" x="39.36" y="902.04">
    DCO
   </text>
  </g>
  <g transform="translate(181.108,-423.415)">
   <path class="st32" d="M0 901.39 L0 919.97 L14.39 911.24 L0 901.39 Z">
   </path>
  </g>
  <g transform="translate(178.834,-408.27)">
   <path class="st5" d="M9 919.97 L9 900.99">
   </path>
  </g>
  <g transform="translate(85.898,-445.186)">
   <desc>
    Clock Source
   </desc>
   <rect class="st23" height="26.3497" width="66.8115" x="0" y="893.625">
   </rect>
   <text class="st10" x="20.4" y="903.2">
    Clock
    <tspan class="st29" dy="1.2em" x="16.72">
     Source
    </tspan>
   </text>
  </g>
  <g transform="translate(300.422,-393.787)">
   <path class="st32" d="M0 872.78 L0 919.97 L38.45 896.38 L0 872.78 Z">
   </path>
  </g>
  <g transform="translate(281.546,-340.766)">
   <path class="st33" d="M18.83 859.51 L0 859.51 L0 919.97">
   </path>
  </g>
  <g transform="translate(522.507,-409.802)">
   <path class="st5" d="M-8.83 919.97 L-9.17 989.75">
   </path>
  </g>
  <g transform="translate(509.377,-403.381)">
   <path class="st22" d="M0 915.84 A4.13532 4.13532 0 1 1 8.27 915.84 A4.13532 4.13532 0 0 1 0 915.84 Z">
   </path>
  </g>
  <g transform="translate(338.402,-408.203)">
   <path class="st5" d="M0.94 910.97 L17.06 910.97">
   </path>
  </g>
  <g transform="translate(1274.27,483.983) rotate(90)">
   <path class="st8" d="M0 919.97 L64.15 919.97 L51.03 898 L13.13 898 L0 919.97 Z">
   </path>
  </g>
  <g transform="translate(355.111,1451.27) rotate(180)">
   <path class="st5" d="M0 919.97 L9.42 919.97">
   </path>
  </g>
  <g transform="translate(305.894,-382.073)">
   <desc>
    Calib
   </desc>
   <rect class="st9" height="12.1673" width="47.5123" x="0" y="907.808">
   </rect>
   <text class="st31" x="9.78" y="918.09">
    Calib
   </text>
  </g>
  <g transform="translate(741.74,1518.58) rotate(180)">
   <path class="st5" d="M0 919.97 L63.76 919.97">
   </path>
  </g>
  <g transform="translate(741.541,1651.03) rotate(180)">
   <path class="st5" d="M0 919.97 L63.56 919.97">
   </path>
  </g>
  <g transform="translate(741.517,1584.25) rotate(180)">
   <path class="st5" d="M0 919.97 L63.54 919.97">
   </path>
  </g>
  <g transform="translate(741.851,1606.79) rotate(180)">
   <path class="st5" d="M0 919.97 L63.87 919.97">
   </path>
  </g>
  <g transform="translate(741.962,1629.34) rotate(180)">
   <path class="st5" d="M0 919.97 L63.98 919.97">
   </path>
  </g>
  <g transform="translate(741.74,1540.27) rotate(180)">
   <path class="st5" d="M0 919.97 L63.76 919.97">
   </path>
  </g>
  <g transform="translate(741.851,1562.99) rotate(180)">
   <path class="st5" d="M0 919.97 L63.87 919.97">
   </path>
  </g>
  <g id="clk_sam_d21-gclkXLine9" transform="translate(741.611,1674.03) rotate(180)">
   <path class="st5" d="M0 919.97 L63.63 919.97">
   </path>
  </g>
  <g transform="translate(155.825,-480)">
   <g class="st1" id="shadow784-548" transform="matrix(1,0,0,1,0,3)">
    <rect class="st2" height="229.5" width="406.337" x="0" y="690.475">
    </rect>
   </g>
   <rect class="st3" height="229.5" width="406.337" x="0" y="690.475">
   </rect>
  </g>
  <g transform="translate(1176.53,217.488) rotate(90)">
   <path class="st8" d="M0 919.97 L166.48 919.97 L138.74 883.21 L27.75 883.21 L0 919.97 Z">
   </path>
  </g>
  <g transform="translate(106.789,-564.836)">
   <path class="st6" d="M0 910.97 L70.24 910.97">
   </path>
  </g>
  <g transform="translate(56.6927,-610.729)">
   <path class="st5" d="M0 910.97 L199.09 910.97">
   </path>
  </g>
  <g transform="translate(204.043,-549.015)">
   <path class="st5" d="M9 919.97 L9 957.05">
   </path>
  </g>
  <g transform="translate(183.513,-548.751)">
   <desc>
    ÷
   </desc>
   <path class="st12" d="M5.91 919.97 L53.15 919.97 A5.90586 5.90586 -180 0 0 59.06 914.07 L59.06 876.81 A5.90586 5.90586 -180 0 0 53.15
						 870.91 L5.91 870.91 A5.90586 5.90586 -180 0 0 -0 876.81 L0 914.07 A5.90586 5.90586 -180 0 0 5.91 919.97
						 Z">
   </path>
   <text class="st14" x="11.5" y="898.48">
    ÷
   </text>
  </g>
  <g transform="translate(239.982,-564.714)">
   <path class="st5" d="M2.54 910.97 L15.46 910.97">
   </path>
  </g>
  <g transform="translate(103.468,-652.745)">
   <path class="st5" d="M0 910.97 L152.29 910.97">
   </path>
  </g>
  <g transform="translate(293.321,-611.747)">
   <path class="st6" d="M0 911.23 L53.39 910.77">
   </path>
  </g>
  <g transform="translate(440.969,-612.369)">
   <path class="st6" d="M0 911.1 L173.94 910.86">
   </path>
  </g>
  <g transform="translate(416.076,-597.646)">
   <path class="st5" d="M9 919.97 L9 940.98">
   </path>
  </g>
  <g transform="translate(553.677,-625.551)">
   <desc>
    FDPLL
   </desc>
   <rect class="st9" height="12.6411" width="64.2696" x="0" y="907.334">
   </rect>
   <text class="st10" x="17.54" y="917.25">
    FDPLL
   </text>
  </g>
  <g transform="translate(290.75,-688.103)">
   <desc>
    Fractional Digital Phase Locked Loop (FDPLL)
   </desc>
   <rect class="st9" height="14.2359" width="227.345" x="0" y="905.739">
   </rect>
   <text class="st11" x="5.36" y="916.46">
    Fractional Digital Phase Locked Loop (FDPLL)
   </text>
  </g>
  <g transform="translate(358.755,-596.571)">
   <path class="st5" d="M9 919.97 L9 940.98">
   </path>
  </g>
  <g transform="translate(352.036,-596.685)">
   <desc>
    ×
   </desc>
   <path class="st12" d="M4.64 919.97 L82.57 919.97 A5.95688 5.95688 -180 0 0 88.52 914.02 L88.52 876.87 A5.95688 5.95688 -180 0 0 82.57
						 870.91 L6.03 870.91 A6.02996 6.02996 -180 0 0 0 876.94 L0 915.34 A4.63842 4.63842 -180 0 0 4.64 919.97 Z">
   </path>
   <text class="st14" x="11.5" y="898.48">
    ×
   </text>
  </g>
  <g transform="translate(84.9215,-609.613)">
   <path class="st32" d="M0 898.44 L0 919.97 L12.76 909.86 L0 898.44 Z">
   </path>
  </g>
  <g transform="translate(81.8854,-592.067)">
   <path class="st5" d="M9 919.97 L9 897.98">
   </path>
  </g>
  <g transform="translate(0.5,-634.836)">
   <desc>
    Clock Source
   </desc>
   <rect class="st23" height="30.5273" width="59.2409" x="0" y="889.448">
   </rect>
   <text class="st10" x="16.62" y="901.11">
    Clock
    <tspan class="st29" dy="1.2em" x="12.93">
     Source
    </tspan>
   </text>
  </g>
  <g transform="translate(742.989,1380.78) rotate(180)">
   <path class="st5" d="M0 919.97 L63.74 919.97">
   </path>
  </g>
  <g transform="translate(739.472,1132.24) rotate(180)">
   <path class="st5" d="M0 919.97 L63.63 919.97">
   </path>
  </g>
  <g transform="translate(741.508,1499.55) rotate(180)">
   <path class="st5" d="M0 919.97 L63.76 919.97">
   </path>
  </g>
 </g>
</svg>
