<?xml version="1.0" encoding="UTF-8" standalone="no"?>
<!DOCTYPE svg PUBLIC "-//W3C//DTD SVG 1.1//EN" "http://www.w3.org/Graphics/SVG/1.1/DTD/svg11.dtd">
<!-- Generated by Microsoft Visio, SVG Export adc_02805.svg Page-1 -->
<svg class="st23" color-interpolation-filters="sRGB" height="7.08045in" viewBox="0 0 788.375 509.792" width="10.9497in" xml:space="preserve" xmlns="http://www.w3.org/2000/svg" xmlns:xlink="http://www.w3.org/1999/xlink">
 <style type="text/css">
  .st1 {visibility:visible}
		.st2 {fill:#000000;fill-opacity:0.18;filter:url(#filter_2.6666667461395);stroke:#000000;stroke-opacity:0.18}
		.st3 {fill:#ffffff;stroke:#70ad47;stroke-width:0.75}
		.st4 {fill:#ffffff;stroke:#000000;stroke-width:0.5}
		.st5 {marker-end:url(#mrkr5-13);stroke:#000000;stroke-linecap:round;stroke-linejoin:round;stroke-width:1}
		.st6 {fill:#000000;fill-opacity:1;stroke:#000000;stroke-opacity:1;stroke-width:0.28409090909091}
		.st7 {stroke:#000000;stroke-linecap:round;stroke-linejoin:round;stroke-width:1}
		.st8 {fill:#fff0e1;stroke:#d79b00;stroke-width:0.25}
		.st9 {fill:none;stroke:none;stroke-width:0.25}
		.st10 {fill:#0070c0;font-family:Tahoma;font-size:0.833336em}
		.st11 {fill:#000000;font-family:Tahoma;font-size:0.833336em}
		.st12 {marker-end:url(#mrkr5-13);stroke:#000000;stroke-width:1}
		.st13 {fill:#feffff;stroke:#d79b00;stroke-width:0.25}
		.st14 {fill:#dae8fc;stroke:#6c8ebf;stroke-width:1}
		.st15 {fill:#000000;font-family:Tahoma;font-size:1.00001em;font-weight:bold}
		.st16 {fill:#000000;font-family:Tahoma;font-size:0.666664em}
		.st17 {stroke:#000000;stroke-dasharray:3,3;stroke-linecap:round;stroke-linejoin:round;stroke-width:1}
		.st18 {fill:#ffffff;stroke:#000000;stroke-width:0.25}
		.st19 {fill:#000000;stroke:#000000;stroke-width:0.25}
		.st20 {stroke:#000000;stroke-width:1}
		.st21 {fill:#000000;font-family:Tahoma;font-size:0.583328em}
		.st22 {font-size:0.599989em}
		.st23 {fill:none;fill-rule:evenodd;font-size:12px;overflow:visible;stroke-linecap:square;stroke-miterlimit:3}
 </style>
 <defs id="Markers">
  <g id="lend5">
   <path d="M 2 1 L 0 0 L 1.98117 -0.993387 C 1.67173 -0.364515 1.67301 0.372641 1.98465 1.00043 " style="stroke:none">
   </path>
  </g>
  <marker class="st6" id="mrkr5-13" markerUnits="strokeWidth" orient="auto" overflow="visible" refX="-6.16">
   <use transform="scale(-3.52,-3.52) " xlink:href="#lend5">
   </use>
  </marker>
 </defs>
 <defs id="Filters">
  <filter id="filter_2.6666667461395">
   <feGaussianBlur stdDeviation="2.6666667461395">
   </feGaussianBlur>
  </filter>
 </defs>
 <g>
  <g transform="translate(4.375,-7.375)">
   <g class="st1" id="shadow12-2" transform="matrix(1,0,0,1,0,3)">
    <rect class="st2" height="351.822" width="779.625" x="0" y="157.971">
    </rect>
   </g>
   <rect class="st3" height="351.822" width="779.625" x="0" y="157.971">
   </rect>
  </g>
  <g transform="translate(634.402,-127.217)">
   <rect class="st4" height="82.7615" width="55.3207" x="0" y="427.031">
   </rect>
  </g>
  <g transform="translate(605.625,-166.572)">
   <path class="st5" d="M0 509.79 L21.96 509.79">
   </path>
  </g>
  <g transform="translate(94.5625,-117.603)">
   <path class="st7" d="M0 509.79 L187.97 509.79">
   </path>
  </g>
  <g transform="translate(282.25,-81.4105)">
   <path class="st8" d="M0 509.79 L253.69 509.79 L324 424.62 L253.69 339.44 L0 339.44 L0 509.79 Z">
   </path>
  </g>
  <g transform="translate(5.5,-437.976)">
   <desc>
    Clock Source
   </desc>
   <rect class="st9" height="14.5955" width="68.7938" x="0" y="495.197">
   </rect>
   <text class="st10" x="6.15" y="505.49">
    Clock Source
   </text>
  </g>
  <g transform="translate(468.437,-497.947)">
   <desc>
    Reference Voltage
   </desc>
   <rect class="st9" height="11.5955" width="95.0625" x="0" y="498.197">
   </rect>
   <text class="st10" x="7.32" y="506.99">
    Reference Voltage
   </text>
  </g>
  <g transform="translate(164.125,-457.664)">
   <desc>
    Clock Divider
   </desc>
   <rect class="st9" height="16.658" width="105.75" x="0" y="493.134">
   </rect>
   <text class="st10" x="24.29" y="504.46">
    Clock Divider
   </text>
  </g>
  <g transform="translate(545.5,-340.634)">
   <desc>
    VREFL
   </desc>
   <rect class="st9" height="13.8455" width="36.5625" x="0" y="495.947">
   </rect>
   <text class="st11" x="4.29" y="505.87">
    VREFL
   </text>
  </g>
  <g transform="translate(302.5,-251.759) scale(-1,1)">
   <path class="st12" d="M140.25 314.42 L0 314.42 L0 503.63">
   </path>
  </g>
  <g transform="translate(577,-340.353)">
   <desc>
    VREFH
   </desc>
   <rect class="st9" height="14.408" width="45" x="0" y="495.384">
   </rect>
   <text class="st11" x="7.62" y="505.59">
    VREFH
   </text>
  </g>
  <g transform="translate(172,-469.664)">
   <desc>
    ADCS
   </desc>
   <rect class="st9" height="16.658" width="88.3125" x="0" y="493.134">
   </rect>
   <text class="st11" x="31.98" y="504.46">
    ADCS
   </text>
  </g>
  <g transform="translate(452.687,-421.743)">
   <desc>
    VCFG
   </desc>
   <rect class="st9" height="16.658" width="57.375" x="0" y="493.134">
   </rect>
   <text class="st11" x="16.76" y="504.46">
    VCFG
   </text>
  </g>
  <g transform="translate(561.813,-358.704) scale(-1,1)">
   <path class="st12" d="M48.81 472.46 L0 472.46 L0 503.63">
   </path>
  </g>
  <g transform="translate(600.084,-358.812) scale(-1,1)">
   <path class="st12" d="M76.46 405.34 L0 405.34 L0 503.63">
   </path>
  </g>
  <g transform="translate(131.937,-395.354)">
   <desc>
    ADRC
   </desc>
   <rect class="st9" height="16.658" width="52.875" x="0" y="493.134">
   </rect>
   <text class="st11" x="13.94" y="504.46">
    ADRC
   </text>
  </g>
  <g transform="translate(299.687,-108.668)">
   <rect class="st13" height="116.654" width="212.063" x="0" y="393.138">
   </rect>
  </g>
  <g transform="translate(1126.04,220.346) rotate(90)">
   <path class="st5" d="M0 509.79 L116.46 509.79">
   </path>
  </g>
  <g transform="translate(659.292,27.5363) rotate(90)">
   <path class="st14" d="M0 509.79 L70.24 509.79 L58.54 492.04 L11.71 492.04 L0 509.79 Z">
   </path>
  </g>
  <g transform="translate(887.667,474.971) rotate(90) scale(-1,1)">
   <path class="st5" d="M0 509.79 L40.43 509.79">
   </path>
  </g>
  <g transform="translate(281.375,-208.572)">
   <desc>
    +
   </desc>
   <rect class="st9" height="14.4605" width="17.75" x="0" y="495.332">
   </rect>
   <text class="st15" x="4" y="506.16">
    +
   </text>
  </g>
  <g transform="translate(282.5,-109.947)">
   <desc>
    -
   </desc>
   <rect class="st9" height="14.4605" width="17.75" x="0" y="495.332">
   </rect>
   <text class="st15" x="4" y="506.16">
    -
   </text>
  </g>
  <g transform="translate(146.125,-261.881)">
   <path class="st7" d="M0 500.85 L34.92 500.73">
   </path>
  </g>
  <g transform="translate(146.125,-246.031)">
   <path class="st7" d="M0 500.85 L34.92 500.73">
   </path>
  </g>
  <g transform="translate(146.125,-230.181)">
   <path class="st7" d="M0 500.85 L34.92 500.73">
   </path>
  </g>
  <g transform="translate(377.5,-34.9686)">
   <desc>
    Conversion Trigger Source
   </desc>
   <rect class="st9" height="21.9817" width="126" x="0" y="487.81">
   </rect>
   <text class="st10" x="4" y="501.8">
    Conversion Trigger Source
   </text>
  </g>
  <g transform="translate(343,-35.5716)">
   <desc>
    SSRC
   </desc>
   <rect class="st9" height="20.7757" width="31.5" x="0" y="489.016">
   </rect>
   <text class="st11" x="4" y="502.4">
    SSRC
   </text>
  </g>
  <g transform="translate(627.75,-115.072)">
   <desc>
    Result Registers
   </desc>
   <rect class="st9" height="7.09554" width="68.625" x="0" y="502.697">
   </rect>
   <text class="st16" x="6.04" y="508.64">
    Result Registers
   </text>
  </g>
  <g transform="translate(1171.68,326.607) rotate(89.4452)">
   <path class="st17" d="M0 509.79 L30.31 509.79">
   </path>
  </g>
  <g transform="translate(121.75,-460.954)">
   <path class="st5" d="M0 509.79 L22.05 509.79">
   </path>
  </g>
  <g transform="translate(121.919,-433.64)">
   <path class="st5" d="M0 509.79 L21.88 509.79">
   </path>
  </g>
  <g transform="translate(61.3563,-22.0341)">
  </g>
  <g transform="translate(114.484,-214.052)">
   <path class="st7" d="M0 518.77 L20.33 518.81">
   </path>
  </g>
  <g transform="translate(114.25,-164.572)">
   <path class="st5" d="M0 500.79 L14.41 500.79">
   </path>
  </g>
  <g transform="translate(188.875,775.138) rotate(180)">
   <path class="st12" d="M39.82 453.43 L0 453.43 L0 503.63">
   </path>
  </g>
  <g transform="translate(146.234,-291.697)">
   <g transform="translate(8.63381,5.68434E-14)">
    <path class="st7" d="M0 500.85 L26.18 500.73">
    </path>
   </g>
   <g transform="translate(1.34892E-14,-4.59216)">
    <g>
     <rect class="st18" height="8.81568" width="8.81568" x="0" y="500.976">
     </rect>
    </g>
    <g transform="translate(-356.065,153.198) rotate(-45)">
     <path class="st19" d="M0 503.9 L5.87 503.9 L5.87 509.79 L5.87 503.9 L11.74 503.9 L5.87 503.9 L5.87 498.01 L5.87 503.9 L0 503.9
								 Z">
     </path>
    </g>
   </g>
  </g>
  <g transform="translate(146.234,-325.447)">
   <g transform="translate(8.63381,5.68434E-14)">
    <path class="st7" d="M0 500.85 L26.18 500.73">
    </path>
   </g>
   <g transform="translate(-1.09912E-14,-4.59216)">
    <g>
     <rect class="st18" height="8.81568" width="8.81568" x="0" y="500.976">
     </rect>
    </g>
    <g transform="translate(-356.065,153.198) rotate(-45)">
     <path class="st19" d="M0 503.9 L5.87 503.9 L5.87 509.79 L5.87 503.9 L11.74 503.9 L5.87 503.9 L5.87 498.01 L5.87 503.9 L0 503.9
								 Z">
     </path>
    </g>
   </g>
  </g>
  <g transform="translate(194.711,-215.759)">
   <path class="st20" d="M0 438.53 L56.54 438.53 L56.54 509.79 L87.16 509.79">
   </path>
  </g>
  <g transform="translate(-367.042,362.771) rotate(-90)">
   <path class="st5" d="M0 509.79 L11.68 509.79">
   </path>
  </g>
  <g transform="translate(634.402,-189.107)">
   <desc>
    ADC1BUF1
   </desc>
   <rect class="st18" height="10.4803" width="55.3207" x="0" y="499.312">
   </rect>
   <text class="st21" x="11.08" y="508.15">
    ADC1BUF1
   </text>
  </g>
  <g transform="translate(634.402,-178.656)">
   <desc>
    ADC1BUF2
   </desc>
   <rect class="st18" height="10.4803" width="55.3207" x="0" y="499.312">
   </rect>
   <text class="st21" x="11.08" y="508.15">
    ADC1BUF2
   </text>
  </g>
  <g transform="translate(634.402,-136.972)">
   <rect class="st18" height="10.4803" width="55.3207" x="0" y="499.312">
   </rect>
  </g>
  <g transform="translate(634.402,-126.58)">
   <rect class="st18" height="10.4803" width="55.3207" x="0" y="499.312">
   </rect>
  </g>
  <g transform="translate(634.402,-199.528)">
   <desc>
    ADC1BUF0
   </desc>
   <rect class="st18" height="10.4803" width="55.3207" x="0" y="499.312">
   </rect>
   <text class="st21" x="11.08" y="506.65">
    ADC1BUF0
   </text>
  </g>
  <g transform="translate(634.402,-147.322)">
   <rect class="st18" height="10.4803" width="55.3207" x="0" y="499.312">
   </rect>
  </g>
  <g transform="translate(29.875,-145.611)">
   <desc>
    CH0SA
   </desc>
   <rect class="st9" height="14.4605" width="40.875" x="0" y="495.332">
   </rect>
   <text class="st11" x="4" y="505.56">
    CH0SA
   </text>
  </g>
  <g transform="translate(173.875,-132.111)">
   <desc>
    CSCNA
   </desc>
   <rect class="st9" height="14.4605" width="40.875" x="0" y="495.332">
   </rect>
   <text class="st11" x="4" y="505.56">
    CSCNA
   </text>
  </g>
  <g transform="translate(64,-108.884)">
   <desc>
    AVss
   </desc>
   <rect class="st9" height="14.4605" width="29.25" x="0" y="495.332">
   </rect>
   <text class="st11" x="4" y="505.56">
    AVss
   </text>
  </g>
  <g transform="translate(661.042,181.236) rotate(90)">
   <path class="st17" d="M0 509.79 L23.62 509.79">
   </path>
  </g>
  <g transform="translate(112.094,-247.491)">
   <desc>
    AVss
   </desc>
   <rect class="st9" height="14.4605" width="29.25" x="0" y="495.332">
   </rect>
   <text class="st11" x="4.36" y="505.56">
    AVss
   </text>
  </g>
  <g transform="translate(112.094,-232.371)">
   <desc>
    AVDD
   </desc>
   <rect class="st9" height="14.4605" width="29.25" x="0" y="495.332">
   </rect>
   <text class="st11" x="5.15" y="505.56">
    AV
    <tspan class="st22">
     DD
    </tspan>
   </text>
  </g>
  <g transform="translate(112.094,-262.611)">
   <desc>
    VBG
   </desc>
   <rect class="st9" height="14.4605" width="29.25" x="0" y="495.332">
   </rect>
   <text class="st11" x="11.74" y="505.56">
    V
    <tspan class="st22">
     BG
    </tspan>
   </text>
  </g>
  <g transform="translate(112.094,-326.572)">
   <desc>
    AN0
   </desc>
   <rect class="st9" height="14.4605" width="29.25" x="0" y="495.332">
   </rect>
   <text class="st11" x="7.12" y="505.56">
    AN0
   </text>
  </g>
  <g transform="translate(484.384,-464.256)">
   <path class="st7" d="M0 500.85 L26.18 500.73">
   </path>
  </g>
  <g transform="translate(475.75,-468.848)">
   <g>
    <rect class="st18" height="8.81568" width="8.81568" x="0" y="500.976">
    </rect>
   </g>
   <g transform="translate(-356.065,153.198) rotate(-45)">
    <path class="st18" d="M0 503.9 L5.87 503.9 L5.87 509.79 L5.87 503.9 L11.74 503.9 L5.87 503.9 L5.87 498.01 L5.87 503.9 L0 503.9
							 Z">
    </path>
   </g>
  </g>
  <g transform="translate(484.384,-443.906)">
   <path class="st7" d="M0 500.85 L26.18 500.73">
   </path>
  </g>
  <g transform="translate(475.75,-448.498)">
   <g>
    <rect class="st18" height="8.81568" width="8.81568" x="0" y="500.976">
    </rect>
   </g>
   <g transform="translate(-356.065,153.198) rotate(-45)">
    <path class="st18" d="M0 503.9 L5.87 503.9 L5.87 509.79 L5.87 503.9 L11.74 503.9 L5.87 503.9 L5.87 498.01 L5.87 503.9 L0 503.9
							 Z">
    </path>
   </g>
  </g>
  <g transform="translate(484.384,-396.756)">
   <path class="st7" d="M0 500.85 L26.18 500.73">
   </path>
  </g>
  <g transform="translate(475.75,-401.348)">
   <g>
    <rect class="st18" height="8.81568" width="8.81568" x="0" y="500.976">
    </rect>
   </g>
   <g transform="translate(-356.065,153.198) rotate(-45)">
    <path class="st18" d="M0 503.9 L5.87 503.9 L5.87 509.79 L5.87 503.9 L11.74 503.9 L5.87 503.9 L5.87 498.01 L5.87 503.9 L0 503.9
							 Z">
    </path>
   </g>
  </g>
  <g transform="translate(484.384,-376.406)">
   <path class="st7" d="M0 500.85 L26.18 500.73">
   </path>
  </g>
  <g transform="translate(475.75,-380.998)">
   <g>
    <rect class="st18" height="8.81568" width="8.81568" x="0" y="500.976">
    </rect>
   </g>
   <g transform="translate(-356.065,153.198) rotate(-45)">
    <path class="st18" d="M0 503.9 L5.87 503.9 L5.87 509.79 L5.87 503.9 L11.74 503.9 L5.87 503.9 L5.87 498.01 L5.87 503.9 L0 503.9
							 Z">
    </path>
   </g>
  </g>
  <g transform="translate(1019.85,15.033) rotate(90)">
   <path class="st14" d="M0 509.79 L62.68 509.79 L52.24 492.04 L10.45 492.04 L0 509.79 Z">
   </path>
  </g>
  <g transform="translate(1019.85,82.2863) rotate(90)">
   <path class="st14" d="M0 509.79 L62.68 509.79 L52.24 492.04 L10.45 492.04 L0 509.79 Z">
   </path>
  </g>
  <g transform="translate(644.868,294.145) rotate(90)">
   <path class="st14" d="M0 509.79 L55.13 509.79 L45.94 496.6 L9.19 496.6 L0 509.79 Z">
   </path>
  </g>
  <g id="adc_02805-result-register-x" transform="translate(634.402,-147.541)">
   <desc>
    ADC1BUFx
   </desc>
   <rect class="st18" height="10.4803" width="55.3207" x="0" y="499.312">
   </rect>
   <text class="st21" x="11.26" y="506.65">
    ADC1BUFx
   </text>
  </g>
  <g id="adc_02805-result-register-y" transform="translate(634.402,-136.972)">
   <desc>
    ADC1BUFy
   </desc>
   <rect class="st18" height="10.4803" width="55.3207" x="0" y="499.312">
   </rect>
   <text class="st21" x="11.25" y="506.65">
    ADC1BUFy
   </text>
  </g>
  <g id="adc_02805-result-register-z" transform="translate(634.402,-126.492)">
   <desc>
    ADC1BUFz
   </desc>
   <rect class="st18" height="10.4803" width="55.3207" x="0" y="499.312">
   </rect>
   <text class="st21" x="11.44" y="506.65">
    ADC1BUFz
   </text>
  </g>
  <g id="adc_02805-vdd-core" transform="translate(104.05,-276.243)">
   <g transform="translate(42.05,5.68434E-14)">
    <path class="st7" d="M0 500.85 L34.92 500.73">
    </path>
   </g>
   <g id="adc_02805-vddCoreLabel" transform="translate(-2.53125,-0.993001)">
    <desc>
     VDDcore
    </desc>
    <rect class="st9" height="14.4605" width="39.825" x="0" y="495.332">
    </rect>
    <text class="st11" x="4.95" y="505.56">
     VDD
     <tspan class="st22">
      core
     </tspan>
    </text>
   </g>
  </g>
  <g id="adc_02805-ANz" transform="translate(98.3125,-291.697)">
   <desc>
    ANz
   </desc>
   <rect class="st9" height="14.4605" width="43.0312" x="0" y="495.332">
   </rect>
   <text class="st11" x="21.92" y="505.56">
    ANz
   </text>
  </g>
  <g transform="translate(691.102,170.283) rotate(90)">
   <path class="st14" d="M0 509.79 L104.83 509.79 L87.36 496.6 L17.47 496.6 L0 509.79 Z">
   </path>
  </g>
 </g>
</svg>
