<?xml version="1.0" encoding="UTF-8" standalone="no"?>
<!DOCTYPE svg PUBLIC "-//W3C//DTD SVG 1.1//EN" "http://www.w3.org/Graphics/SVG/1.1/DTD/svg11.dtd">
<!-- Generated by Microsoft Visio, SVG Export adc_6489.svg Page-1 -->
<svg xmlns="http://www.w3.org/2000/svg" xmlns:xlink="http://www.w3.org/1999/xlink" 
		width="7.94056in" height="4.31293in" viewBox="0 0 571.721 310.531"  
		style="fill:none;fill-rule:evenodd;font-size:12px;overflow:visible;stroke-linecap:square;stroke-miterlimit:3">
	

	<defs id="Markers">
		<g id="lend5">
			<path d="M 2 1 L 0 0 L 1.98117 -0.993387 C 1.67173 -0.364515 1.67301 0.372641 1.98465 1.00043 " style="stroke:none"/>
		</g>
		<marker id="mrkr5-30" style="fill:#000000;fill-opacity:1;stroke:#000000;stroke-opacity:1;stroke-width:0.28409090909091" refX="-6.16" orient="auto" markerUnits="strokeWidth" overflow="visible">
			<use xlink:href="#lend5" transform="scale(-3.52,-3.52) "/>
		</marker>
		<marker id="mrkr5-36" style="fill:#000000;fill-opacity:1;stroke:#000000;stroke-opacity:1;stroke-width:0.28409090909091" refX="5.8" orient="auto" markerUnits="strokeWidth" overflow="visible">
			<use xlink:href="#lend5" transform="scale(3.52) "/>
		</marker>
	</defs>
	<defs id="Filters">
		<filter id="filter_2.6666667461395">
			<feGaussianBlur stdDeviation="2.6666667461395"/>
		</filter>
		<filter id="filter_2">
			<feGaussianBlur stdDeviation="2"/>
		</filter>
	</defs>
	<g>
		
		<g id="shape82-1" transform="translate(81.25,-7.375)">
			
			<g id="shadow82-2" transform="matrix(1,0,0,1,0,3)" style="visibility:visible">
				<rect x="0" y="8.75" width="421.875" height="301.781" style="fill:#000000;fill-opacity:0.4;filter:url(#filter_2.6666667461395);stroke:#000000;stroke-opacity:0.4"/>
			</g>
			<rect x="0" y="8.75" width="421.875" height="301.781" style="fill:#ffffff;stroke:#70ad47;stroke-width:0.75"/>
		</g>
		<g id="shape92-6" transform="translate(93.25,-14.9688)">
			
			<g id="shadow92-7" transform="matrix(1,0,0,1,0.345598,1.97279)" style="visibility:visible">
				<rect x="0" y="162.031" width="282.187" height="148.5" style="fill:#5b9bd5;fill-opacity:0.22;filter:url(#filter_2);stroke:#5b9bd5;stroke-opacity:0.22"/>
			</g>
			<rect x="0" y="162.031" width="282.187" height="148.5" style="fill:#f2f2f2;stroke:#c7c8c8;stroke-width:0.25"/>
		</g>
		<g id="shape6-11" transform="translate(68.0458,-155.275)">
			
			<path d="M0 319.53 L74.14 319.53" style="stroke:#000000;stroke-linecap:round;stroke-linejoin:round;stroke-width:1"/>
		</g>
		<g id="shape7-14" transform="translate(68.119,-121.716)">
			
			<path d="M0 301.53 L74.44 301.53" style="stroke:#000000;stroke-linecap:round;stroke-linejoin:round;stroke-width:1"/>
		</g>
		<g id="shape8-17" transform="translate(59,-126.996)">
			
			<rect x="0" y="301.486" width="9.04485" height="9.04485" style="fill:#ffffff;stroke:#000000;stroke-width:0.25"/>
		</g>
		<g id="shape9-19" transform="translate(-156.035,-31.7966) rotate(-45)">
			
			<path d="M0 304.31 L6.19 304.31 L6.19 310.53 L6.19 304.31 L12.37 304.31 L6.19 304.31 L6.19 298.1 L6.19 304.31 L0 304.31
						 Z" style="fill:#000000;stroke:#000000;stroke-width:0.25"/>
		</g>
		<g id="shape10-21" transform="translate(59.1875,-142.045)">
			
			<rect x="0" y="301.486" width="9.04485" height="9.04485" style="fill:#ffffff;stroke:#000000;stroke-width:0.25"/>
		</g>
		<g id="shape11-23" transform="translate(-155.847,-46.8453) rotate(-45)">
			
			<path d="M0 304.31 L6.19 304.31 L6.19 310.53 L6.19 304.31 L12.37 304.31 L6.19 304.31 L6.19 298.1 L6.19 304.31 L0 304.31
						 Z" style="fill:#000000;stroke:#000000;stroke-width:0.25"/>
		</g>
		<g id="shape56-25" transform="translate(147.1,-88.2301)">
			
			<path d="M0 310.53 L26.61 310.53" style="marker-end:url(#mrkr5-30);stroke:#000000;stroke-linecap:round;stroke-linejoin:round;stroke-width:1"/>
		</g>
		<g id="shape80-31" transform="translate(258.437,531.5) rotate(180)">
			
			<path d="M5.8 310.53 L6.16 310.53 L46.31 310.53" style="marker-start:url(#mrkr5-36);stroke:#000000;stroke-linecap:round;stroke-linejoin:round;stroke-width:1"/>
		</g>
		<g id="shape116-37" transform="translate(65.5276,-240.537)">
			
			<path d="M0 310.53 L69.44 310.53" style="stroke:#000000;stroke-linecap:round;stroke-linejoin:round;stroke-width:1"/>
		</g>
		<g id="shape117-40" transform="translate(65.5276,-231.537)">
			
			<path d="M0 310.53 L68.48 310.53" style="stroke:#000000;stroke-linecap:round;stroke-linejoin:round;stroke-width:1"/>
		</g>
		<g id="shape118-43" transform="translate(65.7734,-222.537)">
			
			<path d="M0 310.53 L69.2 310.53" style="stroke:#000000;stroke-linecap:round;stroke-linejoin:round;stroke-width:1"/>
		</g>
		<g id="shape123-46" transform="translate(65.6112,-245.29)">
			
			<path d="M0 301.53 L68.7 301.53" style="stroke:#000000;stroke-linecap:round;stroke-linejoin:round;stroke-width:1"/>
		</g>
		<g id="shape124-49" transform="translate(56.6539,-250.056)">
			
			<rect x="0" y="301.486" width="9.04485" height="9.04485" style="fill:#ffffff;stroke:#000000;stroke-width:0.25"/>
		</g>
		<g id="shape125-51" transform="translate(-158.381,-154.856) rotate(-45)">
			
			<path d="M0 304.31 L6.19 304.31 L6.19 310.53 L6.19 304.31 L12.37 304.31 L6.19 304.31 L6.19 298.1 L6.19 304.31 L0 304.31
						 Z" style="fill:#000000;stroke:#000000;stroke-width:0.25"/>
		</g>
		<g id="shape126-53" transform="translate(5.1129,-251.052)">
			
			<desc>ADCx_ADTRG</desc>
			<rect x="0" y="302.801" width="52.3651" height="7.72984" style="fill:none;stroke:none;stroke-width:0.25"/>
			<text x="4.13" y="309.07" style="fill:#000000;font-family:Calibri;font-size:0.666664em">ADCx_ADTRG</text>		</g>
		<g id="shape132-56" transform="translate(105.591,-169.401)">
			
			<desc>Trigger Selection</desc>
			<rect x="0" y="303.436" width="68.7938" height="7.09554" style="fill:none;stroke:none;stroke-width:0.25"/>
			<text x="7.18" y="309.38" style="fill:#0070c0;font-family:Calibri;font-size:0.666664em">Trigger Selection</text>		</g>
		<g id="shape133-59" transform="translate(128.725,-195.344)">
			
			<path d="M9 310.53 L9 285.37" style="stroke:#000000;stroke-linecap:round;stroke-linejoin:round;stroke-width:1"/>
		</g>
		<g id="shape135-62" transform="translate(141.362,-239.208)">
			
			<path d="M0 310.53 L73.14 310.53" style="stroke:#000000;stroke-linecap:round;stroke-linejoin:round;stroke-width:1"/>
		</g>
		<g id="shape136-65" transform="translate(226.937,-255.362)">
			
			<path d="M0 310.53 L14.04 310.53" style="marker-end:url(#mrkr5-30);stroke:#000000;stroke-linecap:round;stroke-linejoin:round;stroke-width:1"/>
		</g>
		<g id="shape140-70" transform="translate(525.625,361.594) rotate(180)">
			
			<path d="M0 310.53 L38.88 310.53" style="marker-end:url(#mrkr5-30);stroke:#000000;stroke-linecap:round;stroke-linejoin:round;stroke-width:1"/>
		</g>
		<g id="shape141-75" transform="translate(592.706,66.7375) rotate(90)">
			
			<path d="M0 310.53 L74.37 310.53" style="marker-end:url(#mrkr5-30);stroke:#000000;stroke-linecap:round;stroke-linejoin:round;stroke-width:1"/>
		</g>
		<g id="shape146-80" transform="translate(409.75,-230.669)">
			
			<path d="M-9 310.53 L-9 292.08" style="stroke:#000000;stroke-linecap:round;stroke-linejoin:round;stroke-width:1"/>
		</g>
		<g id="shape151-83" transform="translate(288.045,-147.31)">
			
			<desc>Resolution</desc>
			<rect x="0" y="303.436" width="44.3036" height="7.09554" style="fill:none;stroke:none;stroke-width:0.25"/>
			<text x="4.83" y="309.38" style="fill:#0070c0;font-family:Calibri;font-size:0.666664em">Resolution</text>		</g>
		<g id="shape154-86" transform="translate(620.681,181.637) rotate(90)">
			
			<path d="M0 310.53 L7.89 310.53" style="marker-end:url(#mrkr5-30);stroke:#000000;stroke-linecap:round;stroke-linejoin:round;stroke-width:1"/>
		</g>
		<g id="shape155-91" transform="translate(274.955,-48.3097)">
			
			<desc>Conversion Time</desc>
			<rect x="0" y="294.998" width="69.8523" height="15.533" style="fill:none;stroke:none;stroke-width:0.25"/>
			<text x="7.74" y="305.16" style="fill:#0070c0;font-family:Calibri;font-size:0.666664em">Conversion Time</text>		</g>
		<g id="shape156-94" transform="translate(305.575,-262.673)">
			
			<g id="shadow156-95" transform="matrix(1,0,0,1,0.345598,1.97279)" style="visibility:visible">
				<rect x="0" y="305.604" width="5.4225" height="4.9275" style="fill:#5b9bd5;fill-opacity:0.22;filter:url(#filter_2);stroke:#5b9bd5;stroke-opacity:0.22"/>
			</g>
			<rect x="0" y="305.604" width="5.4225" height="4.9275" style="fill:#ffffff;stroke:#c7c8c8;stroke-width:0.25"/>
		</g>
		<g id="shape158-99" transform="translate(273.175,-268.909)">
			
			<path d="M9 303.45 L9 303.09 L9 293.82" style="marker-start:url(#mrkr5-36);stroke:#000000;stroke-linecap:round;stroke-linejoin:round;stroke-width:1"/>
		</g>
		<g id="shape182-104" transform="translate(406.196,530.959) rotate(180)">
			
			<path d="M5.8 310.53 L6.16 310.53 L68.75 310.53" style="marker-start:url(#mrkr5-36);stroke:#000000;stroke-linecap:round;stroke-linejoin:round;stroke-width:1"/>
		</g>
		<g id="shape173-109" transform="translate(406.202,-63.5743)">
			
			<g id="shadow173-110" transform="matrix(1,0,0,1,0.345598,1.97279)" style="visibility:visible">
				<path d="M0 310.53 L55.32 310.53 L55.32 227.77 L0 227.77 L0 310.53 Z" style="fill:#5b9bd5;fill-opacity:0.22;filter:url(#filter_2);stroke:#5b9bd5;stroke-dasharray:0.25,0.5;stroke-opacity:0.22"/>
			</g>
			<path d="M0 310.53 L55.32 310.53 L55.32 227.77 L0 227.77 L0 310.53 Z" style="fill:#ffffff;stroke:#000000;stroke-dasharray:0.25,0.5;stroke-width:0.25"/>
		</g>
		<g id="shape174-114" transform="translate(406.202,-125.464)">
			
			<g id="shadow174-115" transform="matrix(1,0,0,1,0.345598,1.97279)" style="visibility:visible">
				<rect x="0" y="300.051" width="55.3207" height="10.4803" style="fill:#5b9bd5;fill-opacity:0.22;filter:url(#filter_2);stroke:#5b9bd5;stroke-opacity:0.22"/>
			</g>
			<rect x="0" y="300.051" width="55.3207" height="10.4803" style="fill:#ffffff;stroke:#000000;stroke-width:0.25"/>
		</g>
		<g id="shape175-119" transform="translate(406.202,-115.013)">
			
			<g id="shadow175-120" transform="matrix(1,0,0,1,0.345598,1.97279)" style="visibility:visible">
				<rect x="0" y="300.051" width="55.3207" height="10.4803" style="fill:#5b9bd5;fill-opacity:0.22;filter:url(#filter_2);stroke:#5b9bd5;stroke-opacity:0.22"/>
			</g>
			<rect x="0" y="300.051" width="55.3207" height="10.4803" style="fill:#ffffff;stroke:#000000;stroke-width:0.25"/>
		</g>
		<g id="shape176-124" transform="translate(406.202,-83.7799)">
			
			<g id="shadow176-125" transform="matrix(1,0,0,1,0.345598,1.97279)" style="visibility:visible">
				<rect x="0" y="300.051" width="55.3207" height="10.4803" style="fill:#5b9bd5;fill-opacity:0.22;filter:url(#filter_2);stroke:#5b9bd5;stroke-opacity:0.22"/>
			</g>
			<rect x="0" y="300.051" width="55.3207" height="10.4803" style="fill:#ffffff;stroke:#000000;stroke-width:0.25"/>
		</g>
		<g id="shape177-129" transform="translate(406.202,-73.3293)">
			
			<g id="shadow177-130" transform="matrix(1,0,0,1,0.345598,1.97279)" style="visibility:visible">
				<rect x="0" y="300.051" width="55.3207" height="10.4803" style="fill:#5b9bd5;fill-opacity:0.22;filter:url(#filter_2);stroke:#5b9bd5;stroke-opacity:0.22"/>
			</g>
			<rect x="0" y="300.051" width="55.3207" height="10.4803" style="fill:#ffffff;stroke:#000000;stroke-width:0.25"/>
		</g>
		<g id="shape178-134" transform="translate(406.202,-62.9378)">
			
			<g id="shadow178-135" transform="matrix(1,0,0,1,0.345598,1.97279)" style="visibility:visible">
				<rect x="0" y="300.051" width="55.3207" height="10.4803" style="fill:#5b9bd5;fill-opacity:0.22;filter:url(#filter_2);stroke:#5b9bd5;stroke-opacity:0.22"/>
			</g>
			<rect x="0" y="300.051" width="55.3207" height="10.4803" style="fill:#ffffff;stroke:#000000;stroke-width:0.25"/>
		</g>
		<g id="shape179-139" transform="translate(406.202,-135.885)">
			
			<g id="shadow179-140" transform="matrix(1,0,0,1,0.345598,1.97279)" style="visibility:visible">
				<rect x="0" y="300.051" width="55.3207" height="10.4803" style="fill:#5b9bd5;fill-opacity:0.22;filter:url(#filter_2);stroke:#5b9bd5;stroke-opacity:0.22"/>
			</g>
			<rect x="0" y="300.051" width="55.3207" height="10.4803" style="fill:#ffffff;stroke:#000000;stroke-width:0.25"/>
		</g>
		<g id="shape180-144" transform="translate(744.393,196.45) rotate(90)">
			
			<path d="M0 310.53 L19.87 310.53" style="stroke:#000000;stroke-dasharray:1,2;stroke-linecap:round;stroke-linejoin:round;stroke-width:1"/>
		</g>
		<g id="shape181-147" transform="translate(403.716,-51.9915)">
			
			<desc>Result Registers</desc>
			<rect x="0" y="303.436" width="61.288" height="7.09554" style="fill:none;stroke:none;stroke-width:0.25"/>
			<text x="4.84" y="309.38" style="fill:#000000;font-family:Calibri;font-size:0.666664em">Result Registers</text>		</g>
		<g id="shape186-150" transform="translate(9.48684,-142.96)">
			
			<desc>ADCx_AD0</desc>
			<rect x="0" y="303.436" width="48.1382" height="7.09554" style="fill:none;stroke:none;stroke-width:0.25"/>
			<text x="4" y="309.38" style="fill:#000000;font-family:Calibri;font-size:0.666664em">ADCx_AD0</text>		</g>
		<g id="shape187-153" transform="translate(9.46774,-126.866)">
			
			<desc>ADCx_AD1</desc>
			<rect x="0" y="303.436" width="48.1382" height="7.09554" style="fill:none;stroke:none;stroke-width:0.25"/>
			<text x="4" y="309.38" style="fill:#000000;font-family:Calibri;font-size:0.666664em">ADCx_AD1</text>		</g>
		<g id="shape192-156" transform="translate(68.8248,-42.3685)">
			
			<path d="M0 301.53 L72.8 301.53" style="stroke:#000000;stroke-linecap:round;stroke-linejoin:round;stroke-width:1"/>
		</g>
		<g id="shape193-159" transform="translate(59.3317,-46.5235)">
			
			<rect x="0" y="301.486" width="9.04485" height="9.04485" style="fill:#ffffff;stroke:#000000;stroke-width:0.25"/>
		</g>
		<g id="shape194-161" transform="translate(-155.703,48.6763) rotate(-45)">
			
			<path d="M0 304.31 L6.19 304.31 L6.19 310.53 L6.19 304.31 L12.37 304.31 L6.19 304.31 L6.19 298.1 L6.19 304.31 L0 304.31
						 Z" style="fill:#000000;stroke:#000000;stroke-width:0.25"/>
		</g>
		<g id="shape197-163" transform="translate(68.1064,-40.0385)">
			
			<path d="M0 319.53 L73.14 319.53" style="stroke:#000000;stroke-linecap:round;stroke-linejoin:round;stroke-width:1"/>
		</g>
		<g id="shape198-166" transform="translate(58.8008,-27.3185)">
			
			<rect x="0" y="301.486" width="9.04485" height="9.04485" style="fill:#ffffff;stroke:#000000;stroke-width:0.25"/>
		</g>
		<g id="shape199-168" transform="translate(-156.234,67.8814) rotate(-45)">
			
			<path d="M0 304.31 L6.19 304.31 L6.19 310.53 L6.19 304.31 L12.37 304.31 L6.19 304.31 L6.19 298.1 L6.19 304.31 L0 304.31
						 Z" style="fill:#000000;stroke:#000000;stroke-width:0.25"/>
		</g>
		<g id="shape202-170" transform="translate(3.0625,-28.1086)">
			
			<desc>ADCx_AD(n)</desc>
			<rect x="0" y="303.436" width="52.3125" height="7.09554" style="fill:none;stroke:none;stroke-width:0.25"/>
			<text x="4" y="309.38" style="fill:#000000;font-family:Calibri;font-size:0.666664em">ADCx_AD(n)</text>		</g>
		<g id="shape203-173" transform="translate(374.156,183.812) rotate(90)">
			
			<path d="M0 310.53 L71.25 310.53" style="stroke:#000000;stroke-dasharray:1,2;stroke-linecap:round;stroke-linejoin:round;stroke-width:1"/>
		</g>
		<g id="shape208-176" transform="translate(324.812,-163.75)">
			
			<path d="M54 214.2 L0 214.2 L0 304.37" style="marker-end:url(#mrkr5-30);stroke:#000000;stroke-width:1"/>
		</g>
		<g id="shape209-181" transform="translate(146.5,-241.111)">
			
			<desc>Hardware Trigger</desc>
			<rect x="0" y="303.436" width="69.0423" height="7.09554" style="fill:none;stroke:none;stroke-width:0.25"/>
			<text x="4" y="309.38" style="fill:#000000;font-family:Calibri;font-size:0.666664em">Hardware Trigger</text>		</g>
		<g id="shape210-184" transform="translate(151.118,-285.736)">
			
			<path d="M0 310.53 L63.13 310.53" style="stroke:#000000;stroke-linecap:round;stroke-linejoin:round;stroke-width:1"/>
		</g>
		<g id="shape211-187" transform="translate(146.5,-264.923)">
			
			<desc>Software Trigger</desc>
			<rect x="0" y="303.436" width="69.0423" height="7.09554" style="fill:none;stroke:none;stroke-width:0.25"/>
			<text x="4" y="309.38" style="fill:#000000;font-family:Calibri;font-size:0.666664em">Software Trigger</text>		</g>
		<g id="shape212-190" transform="translate(151,-262.861)">
			
			<path d="M0 310.53 L63.75 310.53" style="stroke:#000000;stroke-linecap:round;stroke-linejoin:round;stroke-width:1"/>
		</g>
		<g id="shape214-193" transform="translate(146.5,-287.798)">
			
			<desc>Free Run mode</desc>
			<rect x="0" y="303.436" width="69.0423" height="7.09554" style="fill:none;stroke:none;stroke-width:0.25"/>
			<text x="4" y="309.38" style="fill:#000000;font-family:Calibri;font-size:0.666664em">Free Run mode</text>		</g>
		<g id="shape216-196" transform="translate(181.375,-210.156)">
			
			<desc>Conversion Mode</desc>
			<rect x="0" y="303.436" width="68.9063" height="7.09554" style="fill:none;stroke:none;stroke-width:0.25"/>
			<text x="5.7" y="309.38" style="fill:#0070c0;font-family:Calibri;font-size:0.666664em">Conversion Mode</text>		</g>
		<g id="shape127-199" transform="translate(443.583,50.2426) rotate(90)">
			
			<path d="M0 310.53 L44.11 310.53 L36.76 302.28 L7.35 302.28 L0 310.53 Z" style="fill:#dae8fc;stroke:#6c8ebf;stroke-width:1"/>
		</g>
		<g id="shape190-201" transform="translate(452.243,157.911) rotate(90)">
			
			<path d="M0 310.53 L131.46 310.53 L120.37 302.28 L11.09 302.28 L0 310.53 Z" style="fill:#dae8fc;stroke:#6c8ebf;stroke-width:1"/>
		</g>
		<g id="shape207-203" transform="translate(523.87,4.74998) rotate(90)">
			
			<path d="M0 310.53 L86.06 310.53 L71.72 291.87 L14.34 291.87 L0 310.53 Z" style="fill:#dae8fc;stroke:#6c8ebf;stroke-width:1"/>
		</g>
		<g id="shape73-205" transform="translate(258.095,-64.0891)">
			
			<path d="M0 285.12 L20.57 259.31 L83.25 259.21 L83.25 310.53 L20.57 310.33 L0 285.12 Z" style="fill:#fff0e1;stroke:#d79b00;stroke-width:0.5"/>
		</g>
		<g id="shape76-207" transform="translate(282.747,-82.3185)">
			
			<desc>ADC</desc>
			<rect x="0" y="295.344" width="46.6875" height="15.1875" style="fill:none;stroke:none;stroke-width:0.25"/>
			<text x="10.98" y="307.14" style="fill:#000000;font-family:Calibri;font-size:1.16666em;font-weight:bold">ADC</text>		</g>
		<g id="shape49-210" transform="translate(179.875,-74.286)">
			
			<g id="shadow49-211" transform="matrix(1,0,0,1,0.345598,1.97279)" style="visibility:visible">
				<rect x="0" y="282.125" width="32.625" height="28.4062" style="fill:#5b9bd5;fill-opacity:0.22;filter:url(#filter_2);stroke:#5b9bd5;stroke-opacity:0.22"/>
			</g>
			<rect x="0" y="282.125" width="32.625" height="28.4062" style="fill:#d5e8d4;stroke:#82b366;stroke-width:0.5"/>
		</g>
		<g id="shape61-215" transform="translate(181.197,-80.5903)">
			
			<desc>S/H</desc>
			<rect x="0" y="295.344" width="29.8125" height="15.1875" style="fill:none;stroke:none;stroke-width:0.25"/>
			<text x="7.56" y="305.94" style="fill:#000000;font-family:Calibri;font-size:0.833336em">S/H</text>		</g>
		<g id="shape111-218" transform="translate(9.78571,-217.441)">
			
			<desc>TC, PWM</desc>
			<g id="shadow111-219" transform="matrix(1,0,0,1,0.345598,1.97279)" style="visibility:visible">
				<rect x="0" y="282.125" width="55.75" height="28.4062" style="fill:#5b9bd5;fill-opacity:0.22;filter:url(#filter_2);stroke:#5b9bd5;stroke-opacity:0.22"/>
			</g>
			<rect x="0" y="282.125" width="55.75" height="28.4062" style="fill:#f8cecc;stroke:#c8c8c8;stroke-width:0.25"/>
			<text x="9.09" y="299.33" style="fill:#000000;font-family:Calibri;font-size:0.833336em">TC, PWM</text>		</g>
		<g id="shape138-224" transform="translate(512.5,-245.969)">
			
			<desc>PMC</desc>
			<g id="shadow138-225" transform="matrix(1,0,0,1,0.345598,1.97279)" style="visibility:visible">
				<rect x="0" y="282.125" width="55.75" height="28.4062" style="fill:#5b9bd5;fill-opacity:0.22;filter:url(#filter_2);stroke:#5b9bd5;stroke-opacity:0.22"/>
			</g>
			<rect x="0" y="282.125" width="55.75" height="28.4062" style="fill:#f8cecc;stroke:#c8c8c8;stroke-width:0.25"/>
			<text x="18.35" y="299.33" style="fill:#000000;font-family:Calibri;font-size:0.833336em">PMC</text>		</g>
		<g id="shape217-230" transform="translate(0.25,-46.4688)">
			
			<desc>ADCx_AD(n-1)</desc>
			<rect x="0" y="303.436" width="57.9519" height="7.09554" style="fill:none;stroke:none;stroke-width:0.25"/>
			<text x="4" y="309.38" style="fill:#000000;font-family:Calibri;font-size:0.666664em">ADCx_AD(n-1)</text>		</g>
		<g id="shape218-233" transform="translate(423.55,-250.394)">
			
			<path d="M7.23 301.53 L7.59 301.53 L16.57 301.53" style="marker-start:url(#mrkr5-36);stroke:#000000;stroke-linecap:round;stroke-linejoin:round;stroke-width:1"/>
		</g>
		<g id="shape134-238" transform="translate(247.033,-241.88)">
			
			<desc>Channel Sequencer</desc>
			<g id="shadow134-239" transform="matrix(1,0,0,1,0.345598,1.97279)" style="visibility:visible">
				<rect x="0" y="282.125" width="66.5296" height="28.4062" style="fill:#5b9bd5;fill-opacity:0.22;filter:url(#filter_2);stroke:#5b9bd5;stroke-opacity:0.22"/>
			</g>
			<rect x="0" y="282.125" width="66.5296" height="28.4062" style="fill:#d5e8d4;stroke:#82b366;stroke-width:0.5"/>
			<text x="16.69" y="293.33" style="fill:#000000;font-family:Calibri;font-size:0.833336em">Channel <tspan x="11.77" dy="1.2em" style="font-size:1em">Sequencer</tspan></text>		</g>
		<g id="shape139-245" transform="translate(377.5,-245.594)">
			
			<desc>รท</desc>
			<path d="M4.77 310.53 L42.97 310.53 A4.77455 4.77455 -180 0 0 47.75 305.76 L47.75 286.99 A4.77455 4.77455 -180 0 0 42.97
						 282.22 L4.77 282.22 A4.77455 4.77455 -180 0 0 0 286.99 L0 305.76 A4.77455 4.77455 -180 0 0 4.77 310.53 Z"
					style="fill:#d5e8d4;stroke:#82b366;stroke-width:0.5"/>
			<text x="13" y="300" style="fill:#000000;font-family:Times New Roman;font-size:1.00001em;font-weight:bold">รท </text>		</g>
	</g>
</svg>
