<?xml version="1.0" encoding="UTF-8" standalone="no"?>
<!DOCTYPE svg PUBLIC "-//W3C//DTD SVG 1.1//EN" "http://www.w3.org/Graphics/SVG/1.1/DTD/svg11.dtd">
<!-- Generated by Microsoft Visio, SVG Export adc_03620.svg Page-1 -->
<svg class="st26" color-interpolation-filters="sRGB" height="6.22427in" viewBox="0 0 666.5 448.148" width="9.25694in" xml:space="preserve" xmlns="http://www.w3.org/2000/svg" xmlns:xlink="http://www.w3.org/1999/xlink">
 <style type="text/css">
  .st1 {visibility:visible}
		.st2 {fill:#000000;fill-opacity:0.4;filter:url(#filter_2.6666667461395);stroke:#000000;stroke-opacity:0.4}
		.st3 {fill:#fcfefe;stroke:#d79b00;stroke-width:1}
		.st4 {fill:#fff0e1;stroke:#d79b00;stroke-width:1}
		.st5 {fill:none;stroke:#c9c9c9;stroke-width:2.25}
		.st6 {fill:none;stroke:none;stroke-width:0.25}
		.st7 {fill:#0070c0;font-family:Tahoma;font-size:0.833336em}
		.st8 {marker-end:url(#mrkr5-18);stroke:#000000;stroke-linecap:round;stroke-linejoin:round;stroke-width:1}
		.st9 {fill:#000000;fill-opacity:1;stroke:#000000;stroke-opacity:1;stroke-width:0.28409090909091}
		.st10 {fill:#feffff;stroke:#d79b00;stroke-width:1}
		.st11 {fill:#000000;font-family:Tahoma;font-size:0.833336em}
		.st12 {fill:#000000;fill-opacity:0.12;filter:url(#filter_4);stroke:none}
		.st13 {fill:#ffffff;stroke:none;stroke-width:0.25}
		.st14 {fill:#0070c0;font-family:Tahoma;font-size:0.833336em;font-weight:bold}
		.st15 {font-size:1em}
		.st16 {fill:#dae8fc;stroke:#6c8ebf;stroke-width:1}
		.st17 {fill:#000000;font-family:Tahoma;font-size:0.666664em}
		.st18 {stroke:#000000;stroke-dasharray:1,2;stroke-linecap:round;stroke-linejoin:round;stroke-width:1}
		.st19 {stroke:#000000;stroke-linecap:round;stroke-linejoin:round;stroke-width:1}
		.st20 {fill:#ffffff;stroke:#000000;stroke-width:0.25}
		.st21 {fill:#000000;stroke:#000000;stroke-width:0.25}
		.st22 {font-size:1em;font-style:italic}
		.st23 {fill:#0070c0;font-family:Tahoma;font-size:0.666664em}
		.st24 {marker-start:url(#mrkr10-153);stroke:#000000;stroke-linecap:round;stroke-linejoin:round;stroke-width:1}
		.st25 {fill:#525252;font-family:Tahoma;font-size:0.666664em}
		.st26 {fill:none;fill-rule:evenodd;font-size:12px;overflow:visible;stroke-linecap:square;stroke-miterlimit:3}
 </style>
 <defs id="Markers">
  <g id="lend5">
   <path d="M 2 1 L 0 0 L 1.98117 -0.993387 C 1.67173 -0.364515 1.67301 0.372641 1.98465 1.00043 " style="stroke:none">
   </path>
  </g>
  <marker class="st9" id="mrkr5-18" markerUnits="strokeWidth" orient="auto" overflow="visible" refX="-6.16">
   <use transform="scale(-3.52,-3.52) " xlink:href="#lend5">
   </use>
  </marker>
  <g id="lend10">
   <path d="M 0 0.75 C -0.414214 0.75 -0.75 0.414214 -0.75 0 -0.75 -0.414214 -0.414214 -0.75 0 -0.75 0.414214 -0.75 0.75 -0.414214 0.75 0 0.75 0.414214 0.414214 0.75 0 0.75 Z " style="stroke:none">
   </path>
  </g>
  <marker class="st9" id="mrkr10-153" markerUnits="strokeWidth" orient="auto" overflow="visible" refX="2.28">
   <use transform="scale(3.52) " xlink:href="#lend10">
   </use>
  </marker>
 </defs>
 <defs id="Filters">
  <filter id="filter_2.6666667461395">
   <feGaussianBlur stdDeviation="2.6666667461395">
   </feGaussianBlur>
  </filter>
  <filter id="filter_4">
   <feGaussianBlur stdDeviation="4">
   </feGaussianBlur>
  </filter>
 </defs>
 <g>
  <g transform="translate(11.125,-308.449)">
   <g class="st1" id="shadow1-2" transform="matrix(1,0,0,1,0,3)">
    <rect class="st2" height="81.8325" width="185.625" x="0" y="366.315">
    </rect>
   </g>
   <rect class="st3" height="81.8325" width="185.625" x="0" y="366.315">
   </rect>
  </g>
  <g transform="translate(181.375,-133.484)">
   <path class="st4" d="M0 448.15 L299.25 448.15 L415.13 362.97 L299.25 277.8 L0 277.8 L0 448.15 Z">
   </path>
  </g>
  <g transform="translate(11.5,-102.281)">
   <rect class="st5" height="234" width="616.5" x="0" y="214.148">
   </rect>
  </g>
  <g transform="translate(413.688,-321.281)">
   <desc>
    Resolution
   </desc>
   <rect class="st6" height="16.658" width="56.25" x="0" y="431.49">
   </rect>
   <text class="st7" x="5.2" y="442.82">
    Resolution
   </text>
  </g>
  <g transform="translate(388.75,-218.52)">
   <path class="st8" d="M0 448.15 L26.09 448.15">
   </path>
  </g>
  <g transform="translate(198.812,-160.741)">
   <g class="st1" id="shadow6-20" transform="matrix(1,0,0,1,0,3)">
    <rect class="st2" height="116.654" width="189.563" x="0" y="331.494">
    </rect>
   </g>
   <rect class="st10" height="116.654" width="189.563" x="0" y="331.494">
   </rect>
  </g>
  <g transform="translate(205.562,-234.082)">
   <desc>
    Clock Divider
   </desc>
   <rect class="st6" height="16.658" width="93.9375" x="0" y="431.49">
   </rect>
   <text class="st7" x="4" y="442.82">
    Clock Divider
   </text>
  </g>
  <g transform="translate(205.562,-199.072)">
   <desc>
    Sample Count
   </desc>
   <rect class="st6" height="16.658" width="84.9375" x="0" y="431.49">
   </rect>
   <text class="st7" x="4" y="442.82">
    Sample Count
   </text>
  </g>
  <g transform="translate(205.562,-223.582)">
   <desc>
    ADCDIV
   </desc>
   <rect class="st6" height="14.4605" width="56.8125" x="0" y="433.687">
   </rect>
   <text class="st11" x="4" y="443.92">
    ADCDIV
   </text>
  </g>
  <g transform="translate(205.562,-188.145)">
   <desc>
    SAMC
   </desc>
   <rect class="st6" height="14.4605" width="44.25" x="0" y="433.687">
   </rect>
   <text class="st11" x="4" y="443.92">
    SAMC
   </text>
  </g>
  <g transform="translate(232,-273.281)">
   <desc>
    Sampling Rate
   </desc>
   <g class="st1" id="shadow11-37" transform="matrix(1,0,0,1,0,3)">
    <rect class="st12" height="22.5" width="111.375" x="0" y="425.648">
    </rect>
   </g>
   <rect class="st13" height="22.5" width="111.375" x="0" y="425.648">
   </rect>
   <text class="st14" x="19.11" y="439.9">
    Sampling Rate
   </text>
  </g>
  <g transform="translate(890.701,134.429) rotate(89.6223)">
   <path class="st8" d="M0 448.15 L79.16 448.15">
   </path>
  </g>
  <g transform="translate(409.75,-184.758)">
   <desc>
    Actual Rate (Msps)
   </desc>
   <rect class="st6" height="18.773" width="68.625" x="0" y="429.375">
   </rect>
   <text class="st11" x="9.19" y="435.76">
    Actual Rate
    <tspan class="st15" dy="1.2em" x="19.41">
     (Msps)
    </tspan>
   </text>
  </g>
  <g transform="translate(635.148,363.866) rotate(90) scale(-1,1)">
   <path class="st8" d="M0 448.15 L43.34 448.15">
   </path>
  </g>
  <g transform="translate(125.125,-55.0314)">
   <desc>
    SCAN Trigger Source
   </desc>
   <rect class="st6" height="17.625" width="101.25" x="0" y="430.523">
   </rect>
   <text class="st7" x="5.04" y="442.34">
    SCAN Trigger Source
   </text>
  </g>
  <g transform="translate(355.563,-306.645)">
   <desc>
    SELRES
   </desc>
   <rect class="st6" height="16.658" width="44.25" x="0" y="431.49">
   </rect>
   <text class="st11" x="5.35" y="442.82">
    SELRES
   </text>
  </g>
  <g transform="translate(570.472,170.121) rotate(90)">
   <path class="st16" d="M0 448.15 L123.63 448.15 L103.03 435.86 L20.61 435.86 L0 448.15 Z">
   </path>
  </g>
  <g transform="translate(135.984,-239.252) rotate(0.0977355)">
   <path class="st8" d="M0 448.15 L40.63 448.15">
   </path>
  </g>
  <g transform="translate(134.292,-195.409) rotate(-0.218046)">
   <path class="st8" d="M0 448.15 L40.37 448.15">
   </path>
  </g>
  <g transform="translate(143.98,-235.877)">
   <desc>
    Vin+
   </desc>
   <rect class="st6" height="16.658" width="30.9375" x="0" y="431.49">
   </rect>
   <text class="st17" x="7.03" y="442.22">
    Vin+
   </text>
  </g>
  <g transform="translate(143.136,-192.002)">
   <desc>
    Vin-
   </desc>
   <rect class="st6" height="16.658" width="30.9375" x="0" y="431.49">
   </rect>
   <text class="st17" x="8.48" y="442.22">
    Vin-
   </text>
  </g>
  <g transform="translate(554.758,268.862) rotate(90) scale(-1,1)">
   <path class="st18" d="M0 448.15 L76.57 448.15">
   </path>
  </g>
  <g transform="translate(91.6457,-163.471)">
   <path class="st19" d="M0 448.15 L29.83 448.15">
   </path>
  </g>
  <g transform="translate(87.2484,-159.036)">
   <g>
    <rect class="st20" height="8.81568" width="8.81568" x="0" y="439.332">
    </rect>
   </g>
   <g transform="translate(-312.476,135.143) rotate(-45)">
    <path class="st21" d="M0 442.26 L5.87 442.26 L5.87 448.15 L5.87 442.26 L11.74 442.26 L5.87 442.26 L5.87 436.36 L5.87 442.26 L0
							 442.26 Z">
    </path>
   </g>
  </g>
  <g transform="translate(22.3244,-263.115)">
   <desc>
    ADCn_AIN0
   </desc>
   <rect class="st6" height="16.658" width="65.6282" x="0" y="431.49">
   </rect>
   <text class="st17" x="12.14" y="442.22">
    ADC
    <tspan class="st22">
     n
    </tspan>
    _AIN0
   </text>
  </g>
  <g transform="translate(22.7974,-249.036)">
   <desc>
    ADCn_AIN1
   </desc>
   <rect class="st6" height="16.658" width="65.6282" x="0" y="431.49">
   </rect>
   <text class="st17" x="12.14" y="442.22">
    ADC
    <tspan class="st22">
     n
    </tspan>
    _AIN1
   </text>
  </g>
  <g transform="translate(0.665537,-168.036)">
   <desc>
    ADCn_AIN[Sn-2]
   </desc>
   <rect class="st6" height="16.658" width="89.0641" x="0" y="431.49">
   </rect>
   <text class="st17" x="14.89" y="442.22">
    ADC
    <tspan class="st22">
     n
    </tspan>
    _AIN[S
    <tspan class="st22">
     n
    </tspan>
    -2]
   </text>
  </g>
  <g transform="translate(0.25,-155.115)">
   <desc>
    ADCn_AIN[Sn-1]
   </desc>
   <rect class="st6" height="16.658" width="89.0641" x="0" y="431.49">
   </rect>
   <text class="st17" x="14.89" y="442.22">
    ADC
    <tspan class="st22">
     n
    </tspan>
    _AIN[S
    <tspan class="st22">
     n
    </tspan>
    -1]
   </text>
  </g>
  <g transform="translate(91.9243,-176.829)">
   <path class="st19" d="M0 448.15 L29.83 448.15">
   </path>
  </g>
  <g transform="translate(87.527,-172.395)">
   <g>
    <rect class="st20" height="8.81568" width="8.81568" x="0" y="439.332">
    </rect>
   </g>
   <g transform="translate(-312.476,135.143) rotate(-45)">
    <path class="st21" d="M0 442.26 L5.87 442.26 L5.87 448.15 L5.87 442.26 L11.74 442.26 L5.87 442.26 L5.87 436.36 L5.87 442.26 L0
							 442.26 Z">
    </path>
   </g>
  </g>
  <g transform="translate(91.9243,-258.014)">
   <path class="st19" d="M0 448.15 L29.83 448.15">
   </path>
  </g>
  <g transform="translate(87.527,-253.579)">
   <g>
    <rect class="st20" height="8.81568" width="8.81568" x="0" y="439.332">
    </rect>
   </g>
   <g transform="translate(-312.476,135.143) rotate(-45)">
    <path class="st21" d="M0 442.26 L5.87 442.26 L5.87 448.15 L5.87 442.26 L11.74 442.26 L5.87 442.26 L5.87 436.36 L5.87 442.26 L0
							 442.26 Z">
    </path>
   </g>
  </g>
  <g transform="translate(91.9243,-271.329)">
   <path class="st19" d="M0 448.15 L29.83 448.15">
   </path>
  </g>
  <g transform="translate(87.527,-266.895)">
   <g>
    <rect class="st20" height="8.81568" width="8.81568" x="0" y="439.332">
    </rect>
   </g>
   <g transform="translate(-312.476,135.143) rotate(-45)">
    <path class="st21" d="M0 442.26 L5.87 442.26 L5.87 448.15 L5.87 442.26 L11.74 442.26 L5.87 442.26 L5.87 436.36 L5.87 442.26 L0
							 442.26 Z">
    </path>
   </g>
  </g>
  <g transform="translate(-231.898,67.8701) rotate(-89.9477) scale(-1,1)">
   <path class="st8" d="M0 448.15 L70.81 448.15">
   </path>
  </g>
  <g transform="translate(245.359,-379.868)">
   <desc>
    Control Clock Divider
   </desc>
   <rect class="st6" height="11.033" width="85.7812" x="0" y="437.115">
   </rect>
   <text class="st23" x="6.1" y="445.03">
    Control Clock Divider
   </text>
  </g>
  <g transform="translate(-231.967,29.1749) rotate(89.8582) scale(1,-1)">
   <path class="st19" d="M0 448.15 L28.4 448.15">
   </path>
  </g>
  <g transform="translate(90.1797,-433.031)">
   <desc>
    ADC Input Clock (150000000 Hz)
   </desc>
   <rect class="st6" height="11.033" width="85.7812" x="0" y="437.115">
   </rect>
   <text class="st23" x="14.05" y="440.23">
    ADC Input Clock
    <tspan class="st15" dy="1.2em" x="14.45">
     (150000000 Hz)
    </tspan>
   </text>
  </g>
  <g transform="translate(166.68,476.213) scale(1,-1)">
   <path class="st24" d="M2.28 448.15 L2.64 448.15 L49.5 448.15">
   </path>
  </g>
  <g transform="translate(71.2528,-376.436)">
   <desc>
    VREF Selection
   </desc>
   <rect class="st6" height="11.5955" width="63.7734" x="0" y="436.552">
   </rect>
   <text class="st23" x="5.58" y="444.75">
    VREF Selection
   </text>
  </g>
  <g transform="translate(58.5742,-322.789)">
   <desc>
    ADREF-
   </desc>
   <rect class="st6" height="13.8455" width="56.25" x="0" y="434.302">
   </rect>
   <text class="st11" x="11.4" y="444.23">
    ADREF-
   </text>
  </g>
  <g transform="translate(99.0742,-322.612)">
   <desc>
    ADREF+
   </desc>
   <rect class="st6" height="14.408" width="56.25" x="0" y="433.74">
   </rect>
   <text class="st11" x="9.58" y="443.94">
    ADREF+
   </text>
  </g>
  <g transform="translate(531.648,89.0029) rotate(90)">
   <path class="st19" d="M0 448.15 L21.04 448.15">
   </path>
  </g>
  <g transform="translate(573.273,89.0029) rotate(90)">
   <path class="st19" d="M0 448.15 L21.04 448.15">
   </path>
  </g>
  <g transform="translate(691.146,401.18) rotate(-89.8323) scale(1,-1)">
   <path class="st8" d="M0 448.15 L79.34 448.15">
   </path>
  </g>
  <g transform="translate(313,-11.2502)">
   <desc>
    Start Conversion on Event Input
   </desc>
   <rect class="st6" height="17.625" width="101.25" x="0" y="430.523">
   </rect>
   <text class="st7" x="7.13" y="436.34">
    Start Conversion on
    <tspan class="st15" dy="1.2em" x="24.8">
     Event Input
    </tspan>
   </text>
  </g>
  <g transform="translate(753.312,359.366) rotate(90) scale(-1,1)">
   <path class="st8" d="M0 448.15 L38.9 448.15">
   </path>
  </g>
  <g transform="translate(256.75,-50.9064)">
   <desc>
    Enable Result Ready Event Output
   </desc>
   <rect class="st6" height="17.625" width="101.25" x="0" y="430.523">
   </rect>
   <text class="st7" x="5.56" y="436.34">
    Enable Result Ready
    <tspan class="st15" dy="1.2em" x="21.45">
     Event Output
    </tspan>
   </text>
  </g>
  <g transform="translate(374.875,-50.7189)">
   <desc>
    Enable End of Scan (EOS) Interrupt
   </desc>
   <rect class="st6" height="17.625" width="101.25" x="0" y="430.523">
   </rect>
   <text class="st7" x="8.01" y="436.34">
    Enable End of Scan
    <tspan class="st15" dy="1.2em" x="16.32">
     (EOS) Interrupt
    </tspan>
   </text>
  </g>
  <g transform="translate(808.677,411.767) rotate(-89.8323) scale(1,-1)">
   <path class="st8" d="M0 448.15 L89.93 448.15">
   </path>
  </g>
  <g transform="translate(169.844,-9.18768)">
   <desc>
    Enable Channel Overwritten Error (CHNERRC) Interrupt
   </desc>
   <rect class="st6" height="17.625" width="143.437" x="0" y="430.523">
   </rect>
   <text class="st7" x="37.63" y="430.34">
    Enable Channel
    <tspan class="st15" dy="1.2em" x="6.23">
     Overwritten Error (CHNERRC)
    </tspan>
    <tspan class="st15" dy="1.2em" x="51.93">
     Interrupt
    </tspan>
   </text>
  </g>
  <g transform="translate(873.648,358.903) rotate(90) scale(-1,1)">
   <path class="st8" d="M0 448.15 L38.84 448.15">
   </path>
  </g>
  <g transform="translate(103.609,-311.748)">
   <desc>
    VREFUPD Interrupt
   </desc>
   <rect class="st6" height="11.033" width="85.7812" x="0" y="437.115">
   </rect>
   <text class="st23" x="4" y="445.03">
    VREFUPD Interrupt
   </text>
  </g>
  <g transform="translate(16,-311.748)">
   <desc>
    VREFRDY Interrupt
   </desc>
   <rect class="st6" height="11.033" width="85.7812" x="0" y="437.115">
   </rect>
   <text class="st23" x="4" y="445.03">
    VREFRDY Interrupt
   </text>
  </g>
  <g transform="translate(14.875,-105.765)">
   <desc>
    Sn =
   </desc>
   <rect class="st6" height="11.033" width="30.9375" x="0" y="437.115">
   </rect>
   <text class="st25" x="4" y="445.03">
    S
    <tspan class="st22">
     n
    </tspan>
    =
   </text>
  </g>
  <g transform="translate(923.427,411.767) rotate(-89.8323) scale(1,-1)">
   <path class="st8" d="M0 448.15 L89.93 448.15">
   </path>
  </g>
  <g transform="translate(432.25,-11.2502)">
   <desc>
    Store ADC Results In FIFO
   </desc>
   <rect class="st6" height="17.625" width="101.25" x="0" y="430.523">
   </rect>
   <text class="st7" x="10.7" y="436.34">
    Store ADC Results
    <tspan class="st15" dy="1.2em" x="33.79">
     In FIFO
    </tspan>
   </text>
  </g>
  <g transform="translate(1051.4,395.554) rotate(90) scale(-1,1)">
   <path class="st8" d="M0 448.15 L43.34 448.15">
   </path>
  </g>
  <g transform="translate(558.25,-19.0314)">
   <desc>
    DMA Trigger Selection
   </desc>
   <rect class="st6" height="17.625" width="108" x="0" y="430.523">
   </rect>
   <text class="st7" x="4" y="442.34">
    DMA Trigger Selection
   </text>
  </g>
 </g>
</svg>
