<?xml version="1.0" encoding="UTF-8" standalone="no"?>
<!DOCTYPE svg PUBLIC "-//W3C//DTD SVG 1.1//EN" "http://www.w3.org/Graphics/SVG/1.1/DTD/svg11.dtd">
<!-- Generated by Microsoft Visio, SVG Export afec_11147.svg Page-1 -->
<svg class="st26" color-interpolation-filters="sRGB" height="4.28516in" viewBox="0 0 606.215 308.531" width="8.41965in" xml:space="preserve" xmlns="http://www.w3.org/2000/svg" xmlns:xlink="http://www.w3.org/1999/xlink">
 <style type="text/css">
  .st1 {visibility:visible}
		.st2 {fill:#5b9bd5;fill-opacity:0.22;filter:url(#filter_2);stroke:#5b9bd5;stroke-opacity:0.22}
		.st3 {fill:#ffffff;stroke:#70ad47;stroke-width:0.75}
		.st4 {fill:#f2f2f2;stroke:#c7c8c8;stroke-width:0.25}
		.st5 {stroke:#000000;stroke-linecap:round;stroke-linejoin:round;stroke-width:1}
		.st6 {fill:#ffffff;stroke:#000000;stroke-width:0.25}
		.st7 {fill:#000000;stroke:#000000;stroke-width:0.25}
		.st8 {marker-end:url(#mrkr5-37);stroke:#000000;stroke-linecap:round;stroke-linejoin:round;stroke-width:1}
		.st9 {fill:#000000;fill-opacity:1;stroke:#000000;stroke-opacity:1;stroke-width:0.28409090909091}
		.st10 {marker-start:url(#mrkr5-64);stroke:#000000;stroke-linecap:round;stroke-linejoin:round;stroke-width:1}
		.st11 {fill:none;stroke:none;stroke-width:0.25}
		.st12 {fill:#000000;font-family:Calibri;font-size:0.666664em}
		.st13 {fill:#0070c0;font-family:Calibri;font-size:0.666664em}
		.st14 {fill:#000000;fill-opacity:0.4;filter:url(#filter_2.6666667461395);stroke:#000000;stroke-dasharray:0.25,0.5;stroke-opacity:0.4}
		.st15 {fill:#ffffff;stroke:#000000;stroke-dasharray:0.25,0.5;stroke-width:0.25}
		.st16 {stroke:#000000;stroke-dasharray:1,2;stroke-linecap:round;stroke-linejoin:round;stroke-width:1}
		.st17 {marker-end:url(#mrkr5-37);stroke:#000000;stroke-width:1}
		.st18 {fill:#dae8fc;stroke:#6c8ebf;stroke-width:1}
		.st19 {fill:#fff0e1;stroke:#d79b00;stroke-width:0.5}
		.st20 {fill:#000000;font-family:Calibri;font-size:1.16666em;font-weight:bold}
		.st21 {fill:#d5e8d4;stroke:#82b366;stroke-width:0.5}
		.st22 {fill:#000000;font-family:Calibri;font-size:0.833336em}
		.st23 {fill:#f8cecc;stroke:#c8c8c8;stroke-width:0.25}
		.st24 {font-size:1em}
		.st25 {fill:#000000;font-family:Times New Roman;font-size:1.00001em;font-weight:bold}
		.st26 {fill:none;fill-rule:evenodd;font-size:12px;overflow:visible;stroke-linecap:square;stroke-miterlimit:3}
 </style>
 <defs id="Markers">
  <g id="lend5">
   <path d="M 2 1 L 0 0 L 1.98117 -0.993387 C 1.67173 -0.364515 1.67301 0.372641 1.98465 1.00043 " style="stroke:none">
   </path>
  </g>
  <marker class="st9" id="mrkr5-37" markerUnits="strokeWidth" orient="auto" overflow="visible" refX="-6.16">
   <use transform="scale(-3.52,-3.52) " xlink:href="#lend5">
   </use>
  </marker>
  <marker class="st9" id="mrkr5-64" markerUnits="strokeWidth" orient="auto" overflow="visible" refX="5.8">
   <use transform="scale(3.52) " xlink:href="#lend5">
   </use>
  </marker>
 </defs>
 <defs id="Filters">
  <filter id="filter_2">
   <feGaussianBlur stdDeviation="2">
   </feGaussianBlur>
  </filter>
  <filter id="filter_2.6666667461395">
   <feGaussianBlur stdDeviation="2.6666667461395">
   </feGaussianBlur>
  </filter>
 </defs>
 <g>
  <g transform="translate(92.5433,-5.3478)">
   <g class="st1" id="shadow82-2" transform="matrix(1,0,0,1,0.345598,1.97279)">
    <rect class="st2" height="301.781" width="436.5" x="0" y="6.75">
    </rect>
   </g>
   <rect class="st3" height="301.781" width="436.5" x="0" y="6.75">
   </rect>
  </g>
  <g transform="translate(104.543,-12.9416)">
   <g class="st1" id="shadow92-7" transform="matrix(1,0,0,1,0.345598,1.97279)">
    <rect class="st2" height="148.5" width="316.5" x="0" y="160.031">
    </rect>
   </g>
   <rect class="st4" height="148.5" width="316.5" x="0" y="160.031">
   </rect>
  </g>
  <g transform="translate(79.339,-135.319)">
   <path class="st5" d="M0 299.6 L46.11 299.46">
   </path>
  </g>
  <g transform="translate(79.4113,-119.718)">
   <path class="st5" d="M0 299.56 L45.9 299.5">
   </path>
  </g>
  <g transform="translate(70.2933,-124.969)">
   <rect class="st6" height="9.04485" width="9.04485" x="0" y="299.486">
   </rect>
  </g>
  <g transform="translate(-143.327,-30.3552) rotate(-45)">
   <path class="st7" d="M0 302.31 L6.19 302.31 L6.19 308.53 L6.19 302.31 L12.37 302.31 L6.19 302.31 L6.19 296.1 L6.19 302.31 L0 302.31
						 Z">
   </path>
  </g>
  <g transform="translate(70.4808,-140.018)">
   <rect class="st6" height="9.04485" width="9.04485" x="0" y="299.486">
   </rect>
  </g>
  <g transform="translate(-143.14,-45.4039) rotate(-45)">
   <path class="st7" d="M0 302.31 L6.19 302.31 L6.19 308.53 L6.19 302.31 L12.37 302.31 L6.19 302.31 L6.19 296.1 L6.19 302.31 L0 302.31
						 Z">
   </path>
  </g>
  <g transform="translate(79.4429,-107.215)">
   <path class="st5" d="M0 317.51 L45.87 317.55">
   </path>
  </g>
  <g transform="translate(70.5123,-94.5142)">
   <rect class="st6" height="9.04485" width="9.04485" x="0" y="299.486">
   </rect>
  </g>
  <g transform="translate(-143.108,0.0998665) rotate(-45)">
   <path class="st7" d="M0 302.31 L6.19 302.31 L6.19 308.53 L6.19 302.31 L12.37 302.31 L6.19 302.31 L6.19 296.1 L6.19 302.31 L0 302.31
						 Z">
   </path>
  </g>
  <g transform="translate(133.906,-122.203)">
   <path class="st8" d="M0 308.53 L9.59 308.53">
   </path>
  </g>
  <g transform="translate(182.512,-122.254)">
   <path class="st8" d="M0 308.53 L9.27 308.53">
   </path>
  </g>
  <g transform="translate(134.336,-51.5715)">
   <path class="st8" d="M0 308.53 L9.59 308.53">
   </path>
  </g>
  <g transform="translate(182.941,-51.6226)">
   <path class="st8" d="M0 308.53 L9.27 308.53">
   </path>
  </g>
  <g transform="translate(222.106,-121.953)">
   <path class="st5" d="M0 308.53 L19.56 308.53">
   </path>
  </g>
  <g transform="translate(222.95,-51.3549)">
   <path class="st5" d="M0 308.53 L18.57 308.53">
   </path>
  </g>
  <g transform="translate(269.731,529.528) rotate(180)">
   <path class="st10" d="M5.8 308.53 L6.16 308.53 L19.89 308.53">
   </path>
  </g>
  <g transform="translate(76.8209,-238.51)">
   <path class="st5" d="M0 308.53 L59.82 308.53">
   </path>
  </g>
  <g transform="translate(76.8209,-229.51)">
   <path class="st5" d="M0 308.53 L59.82 308.53">
   </path>
  </g>
  <g transform="translate(77.0298,-220.51)">
   <path class="st5" d="M0 308.53 L59.69 308.53">
   </path>
  </g>
  <g transform="translate(76.8919,-261.263)">
   <path class="st5" d="M0 317.53 L59.6 317.53">
   </path>
  </g>
  <g transform="translate(67.9471,-248.028)">
   <rect class="st6" height="9.04485" width="9.04485" x="0" y="299.486">
   </rect>
  </g>
  <g transform="translate(-145.673,-153.414) rotate(-45)">
   <path class="st7" d="M0 302.31 L6.19 302.31 L6.19 308.53 L6.19 302.31 L12.37 302.31 L6.19 302.31 L6.19 296.1 L6.19 302.31 L0 302.31
						 Z">
   </path>
  </g>
  <g transform="translate(16.4062,-249.025)">
   <desc>
    AFEx_ADTRG
   </desc>
   <rect class="st11" height="7.72984" width="52.3651" x="0" y="300.801">
   </rect>
   <text class="st12" x="4.93" y="307.07">
    AFEx_ADTRG
   </text>
  </g>
  <g transform="translate(116.884,-167.373)">
   <desc>
    Trigger Selection
   </desc>
   <rect class="st11" height="7.09554" width="68.7938" x="0" y="301.436">
   </rect>
   <text class="st13" x="7.18" y="307.38">
    Trigger Selection
   </text>
  </g>
  <g transform="translate(132.218,-195.442)">
   <path class="st5" d="M9 308.53 L9 286.51">
   </path>
  </g>
  <g transform="translate(145.043,-234.942)">
   <path class="st5" d="M0 308.53 L70.54 308.53">
   </path>
  </g>
  <g transform="translate(231.543,-253.942)">
   <path class="st8" d="M0 308.53 L13.84 308.53">
   </path>
  </g>
  <g transform="translate(546.984,359.32) rotate(180)">
   <path class="st8" d="M0 308.53 L38.88 308.53">
   </path>
  </g>
  <g transform="translate(593.372,69.1579) rotate(90)">
   <path class="st8" d="M0 308.53 L71.98 308.53">
   </path>
  </g>
  <g transform="translate(469.009,-228.554)">
   <path class="st5" d="M9 305.45 L9 293.62">
   </path>
  </g>
  <g transform="translate(299.339,-145.282)">
   <desc>
    Resolution
   </desc>
   <rect class="st11" height="7.09554" width="44.3036" x="0" y="301.436">
   </rect>
   <text class="st13" x="4.83" y="307.38">
    Resolution
   </text>
  </g>
  <g transform="translate(629.975,177.465) rotate(90)">
   <path class="st8" d="M0 308.53 L12.09 308.53">
   </path>
  </g>
  <g transform="translate(286.248,-46.2825)">
   <desc>
    Conversion Time
   </desc>
   <rect class="st11" height="15.533" width="69.8523" x="0" y="292.998">
   </rect>
   <text class="st13" x="7.74" y="303.16">
    Conversion Time
   </text>
  </g>
  <g transform="translate(275.841,-267.171)">
   <path class="st10" d="M9 301.16 L9 300.8 L9 292.11">
   </path>
  </g>
  <g transform="translate(451.325,528.986) rotate(180)">
   <path class="st10" d="M5.8 308.53 L6.16 308.53 L99.05 308.53">
   </path>
  </g>
  <g transform="translate(451.245,-61.5471)">
   <g class="st1" id="shadow173-133" transform="matrix(1,0,0,1,0,3)">
    <path class="st14" d="M0 308.53 L55.32 308.53 L55.32 225.77 L0 225.77 L0 308.53 Z">
    </path>
   </g>
   <path class="st15" d="M0 308.53 L55.32 308.53 L55.32 225.77 L0 225.77 L0 308.53 Z">
   </path>
  </g>
  <g transform="translate(451.245,-123.437)">
   <g class="st1" id="shadow174-138" transform="matrix(1,0,0,1,0.345598,1.97279)">
    <rect class="st2" height="10.4803" width="55.3207" x="0" y="298.051">
    </rect>
   </g>
   <rect class="st6" height="10.4803" width="55.3207" x="0" y="298.051">
   </rect>
  </g>
  <g transform="translate(451.245,-112.986)">
   <g class="st1" id="shadow175-143" transform="matrix(1,0,0,1,0.345598,1.97279)">
    <rect class="st2" height="10.4803" width="55.3207" x="0" y="298.051">
    </rect>
   </g>
   <rect class="st6" height="10.4803" width="55.3207" x="0" y="298.051">
   </rect>
  </g>
  <g transform="translate(451.245,-81.7527)">
   <g class="st1" id="shadow176-148" transform="matrix(1,0,0,1,0.345598,1.97279)">
    <rect class="st2" height="10.4803" width="55.3207" x="0" y="298.051">
    </rect>
   </g>
   <rect class="st6" height="10.4803" width="55.3207" x="0" y="298.051">
   </rect>
  </g>
  <g transform="translate(451.245,-71.3021)">
   <g class="st1" id="shadow177-153" transform="matrix(1,0,0,1,0.345598,1.97279)">
    <rect class="st2" height="10.4803" width="55.3207" x="0" y="298.051">
    </rect>
   </g>
   <rect class="st6" height="10.4803" width="55.3207" x="0" y="298.051">
   </rect>
  </g>
  <g transform="translate(451.245,-60.9106)">
   <g class="st1" id="shadow178-158" transform="matrix(1,0,0,1,0.345598,1.97279)">
    <rect class="st2" height="10.4803" width="55.3207" x="0" y="298.051">
    </rect>
   </g>
   <rect class="st6" height="10.4803" width="55.3207" x="0" y="298.051">
   </rect>
  </g>
  <g transform="translate(451.245,-133.858)">
   <g class="st1" id="shadow179-163" transform="matrix(1,0,0,1,0.345598,1.97279)">
    <rect class="st2" height="10.4803" width="55.3207" x="0" y="298.051">
    </rect>
   </g>
   <rect class="st6" height="10.4803" width="55.3207" x="0" y="298.051">
   </rect>
  </g>
  <g transform="translate(787.436,196.477) rotate(90)">
   <path class="st16" d="M0 308.53 L19.87 308.53">
   </path>
  </g>
  <g transform="translate(448.759,-49.9643)">
   <desc>
    Result Registers
   </desc>
   <rect class="st11" height="7.09554" width="61.288" x="0" y="301.436">
   </rect>
   <text class="st12" x="4.84" y="307.38">
    Result Registers
   </text>
  </g>
  <g transform="translate(787.436,129.09) rotate(90)">
   <path class="st8" d="M0 308.53 L28.68 308.53">
   </path>
  </g>
  <g transform="translate(449.68,-197.442)">
   <desc>
    Result Format
   </desc>
   <rect class="st11" height="7.09554" width="54.6359" x="0" y="301.436">
   </rect>
   <text class="st13" x="4.54" y="307.38">
    Result Format
   </text>
  </g>
  <g transform="translate(20.7801,-140.933)">
   <desc>
    AFECx_AD0
   </desc>
   <rect class="st11" height="7.09554" width="48.1382" x="0" y="301.436">
   </rect>
   <text class="st12" x="4" y="307.38">
    AFECx_AD0
   </text>
  </g>
  <g transform="translate(20.761,-124.839)">
   <desc>
    AFECx_AD1
   </desc>
   <rect class="st11" height="7.09554" width="48.1382" x="0" y="301.436">
   </rect>
   <text class="st12" x="4" y="307.38">
    AFECx_AD1
   </text>
  </g>
  <g transform="translate(0.25,-95.6505)">
   <desc>
    AFECx_AD(n/2 -1)
   </desc>
   <rect class="st11" height="7.09554" width="70.3125" x="0" y="301.436">
   </rect>
   <text class="st12" x="4" y="307.38">
    AFECx_AD(n/2 -1)
   </text>
  </g>
  <g transform="translate(383.594,184.742) rotate(90)">
   <path class="st16" d="M0 308.53 L19.87 308.53">
   </path>
  </g>
  <g transform="translate(80.4208,-66.0351)">
   <path class="st5" d="M0 299.54 L45.94 299.52">
   </path>
  </g>
  <g transform="translate(80.4931,-50.4663)">
   <path class="st5" d="M0 299.53 L45.86 299.53">
   </path>
  </g>
  <g transform="translate(71.375,-55.7463)">
   <rect class="st6" height="9.04485" width="9.04485" x="0" y="299.486">
   </rect>
  </g>
  <g transform="translate(-142.245,38.8677) rotate(-45)">
   <path class="st7" d="M0 302.31 L6.19 302.31 L6.19 308.53 L6.19 302.31 L12.37 302.31 L6.19 302.31 L6.19 296.1 L6.19 302.31 L0 302.31
						 Z">
   </path>
  </g>
  <g transform="translate(71.5625,-70.7951)">
   <rect class="st6" height="9.04485" width="9.04485" x="0" y="299.486">
   </rect>
  </g>
  <g transform="translate(-142.058,23.819) rotate(-45)">
   <path class="st7" d="M0 302.31 L6.19 302.31 L6.19 308.53 L6.19 302.31 L12.37 302.31 L6.19 302.31 L6.19 296.1 L6.19 302.31 L0 302.31
						 Z">
   </path>
  </g>
  <g transform="translate(80.5246,-20.0272)">
   <path class="st5" d="M0 299.55 L46.26 299.52">
   </path>
  </g>
  <g transform="translate(71.5941,-25.2913)">
   <rect class="st6" height="9.04485" width="9.04485" x="0" y="299.486">
   </rect>
  </g>
  <g transform="translate(-142.026,69.3228) rotate(-45)">
   <path class="st7" d="M0 302.31 L6.19 302.31 L6.19 308.53 L6.19 302.31 L12.37 302.31 L6.19 302.31 L6.19 296.1 L6.19 302.31 L0 302.31
						 Z">
   </path>
  </g>
  <g transform="translate(8.73077,-71.7103)">
   <desc>
    AFECx_AD(n/2)
   </desc>
   <rect class="st11" height="7.09554" width="61.2692" x="0" y="301.436">
   </rect>
   <text class="st12" x="4" y="307.38">
    AFECx_AD(n/2)
   </text>
  </g>
  <g transform="translate(0.596154,-56.3085)">
   <desc>
    AFECx_AD(n/2+1)
   </desc>
   <rect class="st11" height="7.09554" width="68.0001" x="0" y="301.436">
   </rect>
   <text class="st12" x="4" y="307.38">
    AFECx_AD(n/2+1)
   </text>
  </g>
  <g transform="translate(7.21635,-26.0814)">
   <desc>
    AFECx_AD(n -1)
   </desc>
   <rect class="st11" height="7.09554" width="60.7933" x="0" y="301.436">
   </rect>
   <text class="st12" x="4" y="307.38">
    AFECx_AD(n -1)
   </text>
  </g>
  <g transform="translate(384.675,253.965) rotate(90)">
   <path class="st16" d="M0 308.53 L19.87 308.53">
   </path>
  </g>
  <g transform="translate(333.293,-161.723)">
   <path class="st17" d="M120.66 212.34 L0 212.34 L0 302.37">
   </path>
  </g>
  <g transform="translate(153.387,-236.285)">
   <desc>
    Hardware Trigger
   </desc>
   <rect class="st11" height="7.09554" width="69.0423" x="0" y="301.436">
   </rect>
   <text class="st12" x="4" y="307.38">
    Hardware Trigger
   </text>
  </g>
  <g transform="translate(156.762,-283.442)">
   <path class="st5" d="M0 308.53 L58.78 308.53">
   </path>
  </g>
  <g transform="translate(153.387,-259.879)">
   <desc>
    Software Trigger
   </desc>
   <rect class="st11" height="7.09554" width="69.0423" x="0" y="301.436">
   </rect>
   <text class="st12" x="4" y="307.38">
    Software Trigger
   </text>
  </g>
  <g transform="translate(157.043,-258.942)">
   <path class="st5" d="M0 308.53 L58.18 308.53">
   </path>
  </g>
  <g transform="translate(153.387,-284.692)">
   <desc>
    Free Run mode
   </desc>
   <rect class="st11" height="7.09554" width="69.0423" x="0" y="301.436">
   </rect>
   <text class="st12" x="4" y="307.38">
    Free Run mode
   </text>
  </g>
  <g transform="translate(187.793,-207.692)">
   <desc>
    Conversion Mode
   </desc>
   <rect class="st11" height="7.09554" width="68.9063" x="0" y="301.436">
   </rect>
   <text class="st13" x="5.7" y="307.38">
    Conversion Mode
   </text>
  </g>
  <g transform="translate(445.175,50.7788) rotate(90)">
   <path class="st18" d="M0 308.53 L44.11 308.53 L36.76 300.28 L7.35 300.28 L0 308.53 Z">
   </path>
  </g>
  <g transform="translate(433.786,157.939) rotate(90)">
   <path class="st18" d="M0 308.53 L60.64 308.53 L50.53 300.28 L10.11 300.28 L0 308.53 Z">
   </path>
  </g>
  <g transform="translate(434.868,227.162) rotate(90)">
   <path class="st18" d="M0 308.53 L60.64 308.53 L50.53 300.28 L10.11 300.28 L0 308.53 Z">
   </path>
  </g>
  <g transform="translate(550.094,180.085) rotate(90)">
   <path class="st18" d="M0 308.53 L84.01 308.53 L70 300.28 L14 300.28 L0 308.53 Z">
   </path>
  </g>
  <g transform="translate(524.075,6.42254) rotate(90)">
   <path class="st18" d="M0 308.53 L85.92 308.53 L71.6 292.46 L14.32 292.46 L0 308.53 Z">
   </path>
  </g>
  <g transform="translate(269.388,-62.0619)">
   <path class="st19" d="M0 283.12 L20.57 257.31 L83.25 257.21 L83.25 308.53 L20.57 308.33 L0 283.12 Z">
   </path>
  </g>
  <g transform="translate(294.041,-80.2913)">
   <desc>
    ADC
   </desc>
   <rect class="st11" height="15.1875" width="46.6875" x="0" y="293.344">
   </rect>
   <text class="st20" x="10.98" y="305.14">
    ADC
   </text>
  </g>
  <g transform="translate(197.918,-37.4666)">
   <path class="st21" d="M0 279.84 L27.09 294.33 L0.52 308.53 L0 279.84 Z">
   </path>
  </g>
  <g transform="translate(191.583,-43.901)">
   <desc>
    PGA
   </desc>
   <rect class="st11" height="15.1875" width="29.8125" x="0" y="293.344">
   </rect>
   <text class="st12" x="8" y="303.34">
    PGA
   </text>
  </g>
  <g transform="translate(197.656,-107.934)">
   <path class="st21" d="M0 279.84 L27.09 294.33 L0.52 308.53 L0 279.84 Z">
   </path>
  </g>
  <g transform="translate(192.807,-114.427)">
   <desc>
    PGA
   </desc>
   <rect class="st11" height="15.1875" width="27.0189" x="0" y="293.344">
   </rect>
   <text class="st12" x="6.61" y="303.34">
    PGA
   </text>
  </g>
  <g transform="translate(149.73,-108.259)">
   <g class="st1" id="shadow49-275" transform="matrix(1,0,0,1,0.345598,1.97279)">
    <rect class="st2" height="28.4062" width="32.625" x="0" y="280.125">
    </rect>
   </g>
   <rect class="st21" height="28.4062" width="32.625" x="0" y="280.125">
   </rect>
  </g>
  <g transform="translate(151.052,-114.563)">
   <desc>
    S/H
   </desc>
   <rect class="st11" height="15.1875" width="29.8125" x="0" y="293.344">
   </rect>
   <text class="st22" x="7.56" y="303.94">
    S/H
   </text>
  </g>
  <g transform="translate(150.16,-37.6274)">
   <g class="st1" id="shadow63-283" transform="matrix(1,0,0,1,0.345598,1.97279)">
    <rect class="st2" height="28.4062" width="32.625" x="0" y="280.125">
    </rect>
   </g>
   <rect class="st21" height="28.4062" width="32.625" x="0" y="280.125">
   </rect>
  </g>
  <g transform="translate(151.782,-44.5317)">
   <desc>
    S/H
   </desc>
   <rect class="st11" height="15.1875" width="29.8125" x="0" y="293.344">
   </rect>
   <text class="st22" x="7.56" y="303.94">
    S/H
   </text>
  </g>
  <g transform="translate(21.079,-215.414)">
   <desc>
    TC, PWM
   </desc>
   <g class="st1" id="shadow111-291" transform="matrix(1,0,0,1,0.345598,1.97279)">
    <rect class="st2" height="28.4062" width="55.75" x="0" y="280.125">
    </rect>
   </g>
   <rect class="st23" height="28.4062" width="55.75" x="0" y="280.125">
   </rect>
   <text class="st22" x="9.09" y="297.33">
    TC, PWM
   </text>
  </g>
  <g transform="translate(546.994,-243.983)">
   <desc>
    PMC
   </desc>
   <g class="st1" id="shadow138-297" transform="matrix(1,0,0,1,0.345598,1.97279)">
    <rect class="st2" height="28.4062" width="55.75" x="0" y="280.125">
    </rect>
   </g>
   <rect class="st23" height="28.4062" width="55.75" x="0" y="280.125">
   </rect>
   <text class="st22" x="18.35" y="297.33">
    PMC
   </text>
  </g>
  <g transform="translate(251.576,-239.853)">
   <desc>
    Channel Sequencer
   </desc>
   <g class="st1" id="shadow134-303" transform="matrix(1,0,0,1,0.345598,1.97279)">
    <rect class="st2" height="28.4062" width="66.5296" x="0" y="280.125">
    </rect>
   </g>
   <rect class="st21" height="28.4062" width="66.5296" x="0" y="280.125">
   </rect>
   <text class="st22" x="16.69" y="291.33">
    Channel
    <tspan class="st24" dy="1.2em" x="11.77">
     Sequencer
    </tspan>
   </text>
  </g>
  <g transform="translate(454.104,-243.756)">
   <desc>
    รท
   </desc>
   <path class="st21" d="M4.77 308.53 L42.97 308.53 A4.77455 4.77455 -180 0 0 47.75 303.76 L47.75 284.99 A4.77455 4.77455 -180 0 0 42.97
						 280.22 L4.77 280.22 A4.77455 4.77455 -180 0 0 0 284.99 L0 303.76 A4.77455 4.77455 -180 0 0 4.77 308.53 Z">
   </path>
   <text class="st25" x="13" y="298">
    รท
   </text>
  </g>
 </g>
</svg>
