<?xml version="1.0" encoding="UTF-8" standalone="no"?>
<!DOCTYPE svg PUBLIC "-//W3C//DTD SVG 1.1//EN" "http://www.w3.org/Graphics/SVG/1.1/DTD/svg11.dtd">
<!-- Generated by Microsoft Visio, SVG Export adc_44073.svg Page-1 -->
<svg class="st35" color-interpolation-filters="sRGB" height="10.8108in" viewBox="0 0 1381.22 778.375" width="19.1836in" xml:space="preserve" xmlns="http://www.w3.org/2000/svg" xmlns:xlink="http://www.w3.org/1999/xlink">
 <style type="text/css">
  .st1 {visibility:visible}
		.st2 {fill:#5b9bd5;fill-opacity:0.61;filter:url(#filter_2);stroke:#5b9bd5;stroke-opacity:0.61}
		.st3 {fill:#ffffff;stroke:#000000;stroke-width:0.25}
		.st4 {fill:#000000;fill-opacity:0.4;filter:url(#filter_2.6666667461395);stroke:#000000;stroke-opacity:0.4}
		.st5 {fill:#fcfefe;stroke:#82b366;stroke-width:1}
		.st6 {stroke:#000000;stroke-linecap:round;stroke-linejoin:round;stroke-width:1}
		.st7 {fill:#ffffff;stroke:#82b366;stroke-width:0.25}
		.st8 {marker-start:url(#mrkr5-29);stroke:#000000;stroke-linecap:round;stroke-linejoin:round;stroke-width:1}
		.st9 {fill:#000000;fill-opacity:1;stroke:#000000;stroke-opacity:1;stroke-width:0.28409090909091}
		.st10 {fill:none;stroke:none;stroke-width:0.25}
		.st11 {fill:#002060;font-family:Calibri;font-size:1.16666em}
		.st12 {marker-end:url(#mrkr5-38);stroke:#000000;stroke-linecap:round;stroke-linejoin:round;stroke-width:1}
		.st13 {fill:#000000;stroke:#000000;stroke-width:0.25}
		.st14 {fill:#000000;font-family:Calibri;font-size:1.16666em}
		.st15 {fill:#203864;font-family:Calibri;font-size:1.16666em}
		.st16 {fill:#5b9bd5;fill-opacity:0.22;filter:url(#filter_2);stroke:#5b9bd5;stroke-opacity:0.22}
		.st17 {fill:#dae8fc;stroke:#6c8ebf;stroke-width:1}
		.st18 {stroke:#000000;stroke-width:1}
		.st19 {fill:#d5e8d4;stroke:#82b366;stroke-width:1}
		.st20 {fill:#000000;font-family:Calibri;font-size:1.5em}
		.st21 {fill:#fff0e1;stroke:#d79b00;stroke-width:1}
		.st22 {fill:#000000;font-family:Calibri;font-size:1.99999em;font-weight:bold}
		.st23 {fill:#5b9bd5;fill-opacity:0.22;filter:url(#filter_2);stroke:#5b9bd5;stroke-dasharray:0.01,3;stroke-opacity:0.22}
		.st24 {fill:#ffffff;stroke:#000000;stroke-dasharray:0.01,3;stroke-width:1}
		.st25 {fill:#ffffff;stroke:#000000;stroke-width:1}
		.st26 {stroke:#000000;stroke-dasharray:1,2;stroke-linecap:round;stroke-linejoin:round;stroke-width:1}
		.st27 {fill:#000000;font-family:Times New Roman;font-size:3em;font-weight:bold}
		.st28 {marker-end:url(#mrkr5-38);stroke:#000000;stroke-width:1}
		.st29 {fill:#f8cecc;stroke:#c8c8c8;stroke-width:0.25}
		.st30 {font-size:1em}
		.st31 {fill:#c5e0b3;stroke:#000000;stroke-width:0.25}
		.st32 {fill:#000000;font-family:Calibri;font-size:1.00001em}
		.st33 {stroke:#f2f2f2;stroke-width:0.75}
		.st34 {fill:none;stroke:none;stroke-width:1}
		.st35 {fill:none;fill-rule:evenodd;font-size:12px;overflow:visible;stroke-linecap:square;stroke-miterlimit:3}
 </style>
 <defs id="Markers">
  <g id="lend5">
   <path d="M 2 1 L 0 0 L 1.98117 -0.993387 C 1.67173 -0.364515 1.67301 0.372641 1.98465 1.00043 " style="stroke:none">
   </path>
  </g>
  <marker class="st9" id="mrkr5-29" markerUnits="strokeWidth" orient="auto" overflow="visible" refX="5.8">
   <use transform="scale(3.52) " xlink:href="#lend5">
   </use>
  </marker>
  <marker class="st9" id="mrkr5-38" markerUnits="strokeWidth" orient="auto" overflow="visible" refX="-6.16">
   <use transform="scale(-3.52,-3.52) " xlink:href="#lend5">
   </use>
  </marker>
 </defs>
 <defs id="Filters">
  <filter id="filter_2">
   <feGaussianBlur stdDeviation="2">
   </feGaussianBlur>
  </filter>
  <filter id="filter_2.6666667461395">
   <feGaussianBlur stdDeviation="2.6666667461395">
   </feGaussianBlur>
  </filter>
 </defs>
 <g>
  <g transform="translate(160.5,-0.25)">
   <g class="st1" id="shadow1-2" transform="matrix(0.83,0,0,0.83,93.3242,69.7497)">
    <rect class="st2" height="759.375" width="1093.87" x="0" y="19">
    </rect>
   </g>
   <rect class="st3" height="759.375" width="1093.87" x="0" y="19">
   </rect>
  </g>
  <g transform="translate(185.522,-19.6767)">
   <g class="st1" id="shadow2-7" transform="matrix(1,0,0,1,0,3)">
    <rect class="st4" height="363.907" width="488.139" x="0" y="414.468">
    </rect>
   </g>
   <rect class="st5" height="363.907" width="488.139" x="0" y="414.468">
   </rect>
  </g>
  <g transform="translate(693.837,-20.9768)">
   <g class="st1" id="shadow3-12" transform="matrix(1,0,0,1,0,3)">
    <rect class="st4" height="423.827" width="386.847" x="0" y="354.548">
    </rect>
   </g>
   <rect class="st5" height="423.827" width="386.847" x="0" y="354.548">
   </rect>
  </g>
  <g transform="translate(1597.2,662.041) rotate(90)">
   <path class="st6" d="M0 778.38 L27.32 778.38">
   </path>
  </g>
  <g transform="translate(717.219,-114.154)">
   <g class="st1" id="shadow4-20" transform="matrix(1,0,0,1,0,3)">
    <rect class="st4" height="218.415" width="202.665" x="0" y="559.96">
    </rect>
   </g>
   <rect class="st7" height="218.415" width="202.665" x="0" y="559.96">
   </rect>
  </g>
  <g transform="translate(418.215,1342) rotate(179.685)">
   <path class="st8" d="M5.8 778.38 L6.16 778.38 L68.99 778.38">
   </path>
  </g>
  <g transform="translate(477.968,-350.573)">
   <desc>
    Resolution
   </desc>
   <rect class="st10" height="14.359" width="84.829" x="0" y="764.016">
   </rect>
   <text class="st11" x="12.1" y="775.4">
    Resolution
   </text>
  </g>
  <g transform="translate(1292.65,461.193) rotate(90)">
   <path class="st12" d="M0 778.38 L40.49 778.38">
   </path>
  </g>
  <g transform="translate(455.523,-122.152)">
   <desc>
    Conversion Time
   </desc>
   <rect class="st10" height="31.4336" width="122.968" x="0" y="746.941">
   </rect>
   <text class="st11" x="13.91" y="766.86">
    Conversion Time
   </text>
  </g>
  <g transform="translate(709.821,1341.82) rotate(179.747)">
   <path class="st6" d="M0 778.38 L128.73 778.38">
   </path>
  </g>
  <g transform="translate(267.978,1322.11) rotate(-178.78)">
   <path class="st8" d="M5.8 778.38 L6.16 778.38 L44.57 778.38">
   </path>
  </g>
  <g transform="translate(278.061,1367.79) rotate(-179.523)">
   <path class="st8" d="M5.8 778.38 L6.16 778.38 L45.55 778.38">
   </path>
  </g>
  <g transform="translate(131.332,-348.311)">
   <path class="st6" d="M0 787.38 L93.18 787.38">
   </path>
  </g>
  <g transform="translate(118.375,-329.875)">
   <rect class="st3" height="17.4983" width="15.6339" x="0" y="760.877">
   </rect>
  </g>
  <g transform="translate(-424.108,-102.733) rotate(-45)">
   <path class="st13" d="M0 773.02 L5.87 773.02 L5.87 778.38 L5.87 773.02 L11.74 773.02 L5.87 773.02 L5.87 767.66 L5.87 773.02 L0 773.02
						 Z">
   </path>
  </g>
  <g transform="translate(38.9696,-333.882)">
   <desc>
    ADC_AD0
   </desc>
   <rect class="st10" height="11.6206" width="79.0979" x="0" y="766.754">
   </rect>
   <text class="st14" x="4" y="776.76">
    ADC_AD0
   </text>
  </g>
  <g transform="translate(39.9597,-291.76)">
   <g transform="translate(92.3622,-27.213)">
    <path class="st6" d="M0 787.38 L93.18 787.38">
    </path>
   </g>
   <g transform="translate(78.3528,-11.2854)">
    <rect class="st3" height="18.3307" width="14.247" x="0" y="760.044">
    </rect>
   </g>
   <g transform="translate(-464.351,218.963) rotate(-45)">
    <path class="st13" d="M0 771.23 L6.85 771.23 L6.85 778.38 L6.85 771.23 L13.71 771.23 L6.85 771.23 L6.85 764.09 L6.85 771.23 L0
							 771.23 Z">
    </path>
   </g>
   <g transform="translate(-9.27258E-13,-12.7842)">
    <desc>
     ADC_AD1
    </desc>
    <rect class="st10" height="11.6206" width="79.0979" x="0" y="766.754">
    </rect>
    <text class="st14" x="4" y="776.76">
     ADC_AD1
    </text>
   </g>
  </g>
  <g transform="translate(133.312,-269.198)">
   <path class="st6" d="M0 769.38 L93.18 769.38">
   </path>
  </g>
  <g transform="translate(117.5,-270.5)">
   <rect class="st3" height="18.0092" width="16.0904" x="0" y="760.366">
   </rect>
  </g>
  <g transform="translate(-424.585,-42.4386) rotate(-45)">
   <path class="st13" d="M0 771.91 L5.59 771.91 L5.59 778.38 L5.59 771.91 L11.19 771.91 L5.59 771.91 L5.59 765.45 L5.59 771.91 L0 771.91
						 Z">
   </path>
  </g>
  <g transform="translate(40.9499,-272.769)">
   <desc>
    ADC_AD2
   </desc>
   <rect class="st10" height="11.6206" width="79.0979" x="0" y="766.754">
   </rect>
   <text class="st14" x="4" y="776.76">
    ADC_AD2
   </text>
  </g>
  <g transform="translate(133.312,-84.5788)">
   <path class="st6" d="M0 787.38 L93.18 787.38">
   </path>
  </g>
  <g transform="translate(116.875,-65.75)">
   <rect class="st3" height="21.1314" width="18.8799" x="0" y="757.244">
   </rect>
  </g>
  <g transform="translate(-422.875,161.794) rotate(-45)">
   <path class="st13" d="M0 770.71 L6.63 770.71 L6.63 778.38 L6.63 770.71 L13.26 770.71 L6.63 770.71 L6.63 763.05 L6.63 770.71 L0 770.71
						 Z">
   </path>
  </g>
  <g id="adc_44073-last-input-pin" transform="translate(36.9891,-70.1501)">
   <desc>
    ADC_AD(n-1)
   </desc>
   <rect class="st10" height="11.6206" width="90.9805" x="0" y="766.754">
   </rect>
   <text class="st14" x="4" y="776.76">
    ADC_AD(n-1)
   </text>
  </g>
  <g transform="translate(1112.62,-241.75)">
   <desc>
    Result Registers
   </desc>
   <rect class="st10" height="15.8995" width="118.827" x="0" y="762.476">
   </rect>
   <text class="st11" x="14.25" y="774.63">
    Result Registers
   </text>
  </g>
  <g transform="translate(1098.37,-214.75)">
   <desc>
    COMPE Interrupt
   </desc>
   <rect class="st10" height="15.8995" width="145.708" x="0" y="762.476">
   </rect>
   <text class="st11" x="24.04" y="774.63">
    COMPE Interrupt
   </text>
  </g>
  <g transform="translate(1117.01,1333.63) rotate(179.464)">
   <path class="st8" d="M5.8 778.38 L6.16 778.38 L202.32 778.38">
   </path>
  </g>
  <g transform="translate(1113.36,1154.41) rotate(-179.84)">
   <path class="st8" d="M5.8 778.38 L6.16 778.38 L90.44 778.38">
   </path>
  </g>
  <g transform="translate(911.25,-293.875)">
   <desc>
    Comparison Type
   </desc>
   <rect class="st10" height="32.514" width="209.502" x="0" y="745.861">
   </rect>
   <text class="st15" x="55.23" y="766.32">
    Comparison Type
   </text>
  </g>
  <g transform="translate(1775.78,551.328) rotate(89.883)">
   <path class="st6" d="M0 778.38 L42.82 778.38">
   </path>
  </g>
  <g transform="translate(1763.89,538.296) rotate(90)">
   <g class="st1" id="shadow38-119" transform="matrix(1,0,0,1,1.97279,-0.345598)">
    <path class="st16" d="M0 778.38 L36.16 778.38 L18.08 741.55 L0 778.38 Z">
    </path>
   </g>
   <path class="st17" d="M0 778.38 L36.16 778.38 L18.08 741.55 L0 778.38 Z">
   </path>
  </g>
  <g transform="translate(944.348,-135.053)">
   <desc>
    COMPE Interrupt
   </desc>
   <rect class="st10" height="32.514" width="126.213" x="0" y="745.861">
   </rect>
   <text class="st15" x="14.29" y="766.32">
    COMPE Interrupt
   </text>
  </g>
  <g transform="translate(985.704,-400.408)">
   <desc>
    0
   </desc>
   <rect class="st10" height="30.4192" width="21.725" x="0" y="747.956">
   </rect>
   <text class="st15" x="7.31" y="767.37">
    0
   </text>
  </g>
  <g transform="translate(986.521,-355.531)">
   <desc>
    1
   </desc>
   <rect class="st10" height="30.4192" width="21.725" x="0" y="747.956">
   </rect>
   <text class="st15" x="7.31" y="767.37">
    1
   </text>
  </g>
  <g transform="translate(1006.12,1153.26) rotate(-179.898)">
   <path class="st6" d="M0 778.38 L300.08 778.38">
   </path>
  </g>
  <g transform="translate(1006.67,1194.98) rotate(-179.946)">
   <path class="st6" d="M0 778.38 L300.04 778.38">
   </path>
  </g>
  <g transform="translate(1714.73,427.465) rotate(90.1079)">
   <path class="st6" d="M0 778.38 L131.48 778.38">
   </path>
  </g>
  <g transform="translate(1700.91,398.843) rotate(90)">
   <g class="st1" id="shadow46-142" transform="matrix(1,0,0,1,1.97279,-0.345598)">
    <path class="st16" d="M0 778.38 L34.08 778.38 L17.04 743.68 L0 778.38 Z">
    </path>
   </g>
   <path class="st17" d="M0 778.38 L34.08 778.38 L17.04 743.68 L0 778.38 Z">
   </path>
  </g>
  <g transform="translate(1485.87,377.91) rotate(90.2971)">
   <path class="st6" d="M0 778.38 L218.04 778.38">
   </path>
  </g>
  <g transform="translate(826.853,1371.29) rotate(-179.531)">
   <path class="st6" d="M0 778.38 L125.85 778.38">
   </path>
  </g>
  <g transform="translate(824.002,1298.47) rotate(-179.457)">
   <path class="st6" d="M0 778.38 L124.8 778.38">
   </path>
  </g>
  <g transform="translate(856.774,1399.9) rotate(179.636)">
   <path class="st6" d="M0 778.38 L39.32 778.38">
   </path>
  </g>
  <g transform="translate(835.005,1269.83) rotate(-179.442)">
   <path class="st6" d="M0 778.38 L29.21 778.38">
   </path>
  </g>
  <g transform="translate(694.277,-226.118)">
   <desc>
    Channel
   </desc>
   <rect class="st10" height="32.514" width="126.213" x="0" y="745.861">
   </rect>
   <text class="st15" x="39.9" y="766.32">
    Channel
   </text>
  </g>
  <g transform="translate(695.597,-114.816)">
   <desc>
    VLo
   </desc>
   <rect class="st10" height="32.514" width="126.213" x="0" y="745.861">
   </rect>
   <text class="st15" x="52.5" y="766.32">
    VLo
   </text>
  </g>
  <g transform="translate(695.157,-299.475)">
   <desc>
    VHi
   </desc>
   <rect class="st10" height="32.514" width="126.213" x="0" y="745.861">
   </rect>
   <text class="st15" x="53.17" y="766.32">
    VHi
   </text>
  </g>
  <g transform="translate(756.299,-32.3443)">
   <desc>
    Comparison Mode
   </desc>
   <rect class="st10" height="32.514" width="139.621" x="0" y="745.861">
   </rect>
   <text class="st15" x="17.19" y="766.32">
    Comparison Mode
   </text>
  </g>
  <g transform="translate(875.982,-227.171)">
   <path class="st18" d="M0 732.97 L7.65 732.97 L7.65 778.06 L17.98 778.38">
   </path>
  </g>
  <g transform="translate(875.201,-169.455)">
   <path class="st18" d="M0 778.38 L8.24 778.38 L8.24 731.71 L18.95 731.71">
   </path>
  </g>
  <g transform="translate(1670.16,544.572) rotate(90)">
   <g class="st1" id="shadow61-180" transform="matrix(1,0,0,1,1.97279,-0.345598)">
    <path class="st16" d="M24.71 766.02 A12.3552 12.3552 -180 0 0 12.36 753.66 A12.3552 12.3552 -180 0 0 -0 766.02 L0 778.38 L24.71
							 778.38 L24.71 766.02 Z">
    </path>
   </g>
   <path class="st19" d="M24.71 766.02 A12.3552 12.3552 -180 0 0 12.36 753.66 A12.3552 12.3552 -180 0 0 -0 766.02 L0 778.38 L24.71 778.38
						 L24.71 766.02 Z">
   </path>
  </g>
  <g transform="translate(1607.6,583.671) rotate(90)">
   <g class="st1" id="shadow62-185" transform="matrix(1,0,0,1,1.97279,-0.345598)">
    <path class="st16" d="M0 778.38 L49.94 778.38 L24.97 727.52 L0 778.38 Z">
    </path>
   </g>
   <path class="st17" d="M0 778.38 L49.94 778.38 L24.97 727.52 L0 778.38 Z">
   </path>
  </g>
  <g transform="translate(1607.39,481.724) rotate(90)">
   <g class="st1" id="shadow63-190" transform="matrix(1,0,0,1,1.97279,-0.345598)">
    <path class="st16" d="M0 778.38 L48.16 778.38 L24.08 729.34 L0 778.38 Z">
    </path>
   </g>
   <path class="st17" d="M0 778.38 L48.16 778.38 L24.08 729.34 L0 778.38 Z">
   </path>
  </g>
  <g transform="translate(770.671,-440.47)">
   <desc>
    Automatic Window Comparison
   </desc>
   <rect class="st10" height="32.514" width="247.996" x="0" y="745.861">
   </rect>
   <text class="st15" x="33.13" y="766.32">
    Automatic Window Comparison
   </text>
  </g>
  <g transform="translate(1003.8,418.822) rotate(90)">
   <path class="st17" d="M0 778.38 L306.84 778.38 L280.96 745.87 L25.88 745.87 L0 778.38 Z">
   </path>
  </g>
  <g transform="translate(283.554,-176.664)">
   <path class="st17" d="M0 702.11 L67.01 740.62 L1.29 778.38 L0 702.11 Z">
   </path>
  </g>
  <g transform="translate(280.584,-199.557)">
   <desc>
    S/H
   </desc>
   <rect class="st10" height="30.7344" width="52.4818" x="0" y="747.641">
   </rect>
   <text class="st20" x="13.02" y="768.41">
    S/H
   </text>
  </g>
  <g transform="translate(413.274,-156.301)">
   <path class="st21" d="M0 720.32 L40.81 661.36 L165.18 661.13 L165.18 778.38 L40.81 777.92 L0 720.32 Z">
   </path>
  </g>
  <g transform="translate(465.337,-199.329)">
   <desc>
    ADC
   </desc>
   <rect class="st10" height="30.7344" width="82.1884" x="0" y="747.641">
   </rect>
   <text class="st22" x="19.91" y="770.21">
    ADC
   </text>
  </g>
  <g transform="translate(1786.18,340.072) rotate(90)">
   <path class="st17" d="M0 778.38 L119.61 778.38 L97.02 751.21 L22.59 751.21 L0 778.38 Z">
   </path>
  </g>
  <g transform="translate(1115.75,-262.08)">
   <g class="st1" id="shadow71-212" transform="matrix(1,0,0,1,0.345598,1.97279)">
    <path class="st23" d="M0 778.38 L109.06 778.38 L109.06 592.93 L0 592.93 L0 778.38 Z">
    </path>
   </g>
   <path class="st24" d="M0 778.38 L109.06 778.38 L109.06 592.93 L0 592.93 L0 778.38 Z">
   </path>
  </g>
  <g transform="translate(1115.75,-400.761)">
   <g class="st1" id="shadow72-217" transform="matrix(1,0,0,1,0.345598,1.97279)">
    <rect class="st16" height="23.4839" width="109.056" x="0" y="754.891">
    </rect>
   </g>
   <rect class="st25" height="23.4839" width="109.056" x="0" y="754.891">
   </rect>
  </g>
  <g transform="translate(1115.75,-377.343)">
   <g class="st1" id="shadow73-222" transform="matrix(1,0,0,1,0.345598,1.97279)">
    <rect class="st16" height="23.4839" width="109.056" x="0" y="754.891">
    </rect>
   </g>
   <rect class="st25" height="23.4839" width="109.056" x="0" y="754.891">
   </rect>
  </g>
  <g transform="translate(1115.75,-307.356)">
   <g class="st1" id="shadow74-227" transform="matrix(1,0,0,1,0.345598,1.97279)">
    <rect class="st16" height="23.4839" width="109.056" x="0" y="754.891">
    </rect>
   </g>
   <rect class="st25" height="23.4839" width="109.056" x="0" y="754.891">
   </rect>
  </g>
  <g transform="translate(1115.75,-283.938)">
   <g class="st1" id="shadow75-232" transform="matrix(1,0,0,1,0.345598,1.97279)">
    <rect class="st16" height="23.4839" width="109.056" x="0" y="754.891">
    </rect>
   </g>
   <rect class="st25" height="23.4839" width="109.056" x="0" y="754.891">
   </rect>
  </g>
  <g transform="translate(1115.75,-260.653)">
   <g class="st1" id="shadow76-237" transform="matrix(1,0,0,1,0.345598,1.97279)">
    <rect class="st16" height="23.4839" width="109.056" x="0" y="754.891">
    </rect>
   </g>
   <rect class="st25" height="23.4839" width="109.056" x="0" y="754.891">
   </rect>
  </g>
  <g transform="translate(1115.68,-424.174)">
   <g class="st1" id="shadow77-242" transform="matrix(1,0,0,1,0.345598,1.97279)">
    <rect class="st16" height="23.4839" width="109.056" x="0" y="754.891">
    </rect>
   </g>
   <rect class="st25" height="23.4839" width="109.056" x="0" y="754.891">
   </rect>
  </g>
  <g transform="translate(1948.65,403.121) rotate(90)">
   <path class="st26" d="M0 778.38 L44.53 778.38">
   </path>
  </g>
  <g transform="translate(961.497,-659.464)">
   <desc>
    รท
   </desc>
   <path class="st19" d="M9.6 778.38 L86.42 778.38 A9.60198 9.60198 -180 0 0 96.02 768.77 L96.02 714.3 A9.60198 9.60198 -180 0 0 86.42
						 704.7 L9.6 704.7 A9.60198 9.60198 -180 0 0 -0 714.3 L0 768.77 A9.60198 9.60198 -180 0 0 9.6 778.38 Z">
   </path>
   <text class="st27" x="10" y="752.34">
    รท
   </text>
  </g>
  <g transform="translate(1266.15,861.649) rotate(-179.912)">
   <path class="st12" d="M0 778.38 L203.27 778.38">
   </path>
  </g>
  <g transform="translate(1001.14,-614.265)">
   <path class="st6" d="M9 778.38 L9 733.5">
   </path>
  </g>
  <g transform="translate(623.201,-383.927)">
   <path class="st28" d="M337.16 468.22 L0 468.22 L0 772.22">
   </path>
  </g>
  <g transform="translate(1265.54,-663.745)">
   <desc>
    PMC
   </desc>
   <g class="st1" id="shadow83-266" transform="matrix(1,0,0,1,0.345598,1.97279)">
    <rect class="st16" height="73.9131" width="112.208" x="0" y="704.462">
    </rect>
   </g>
   <rect class="st29" height="73.9131" width="112.208" x="0" y="704.462">
   </rect>
   <text class="st20" x="38.96" y="746.82">
    PMC
   </text>
  </g>
  <g transform="translate(1004.86,-624.336)">
   <desc>
    Prescaler
   </desc>
   <rect class="st10" height="13.1726" width="78.281" x="0" y="765.202">
   </rect>
   <text class="st15" x="13.02" y="775.99">
    Prescaler
   </text>
  </g>
  <g transform="translate(642.675,-383.927)">
   <path class="st28" d="M61.39 489.9 L0 489.9 L0 772.22">
   </path>
  </g>
  <g transform="translate(1333.61,217.605) rotate(90)">
   <path class="st12" d="M0 778.38 L171.16 778.38">
   </path>
  </g>
  <g transform="translate(486.15,-538.41)">
   <desc>
    Channel Sequencer
   </desc>
   <g class="st1" id="shadow89-285" transform="matrix(1,0,0,1,0.345598,1.97279)">
    <rect class="st16" height="86.1723" width="129.129" x="0" y="692.203">
    </rect>
   </g>
   <rect class="st19" height="86.1723" width="129.129" x="0" y="692.203">
   </rect>
   <text class="st20" x="34.73" y="729.89">
    Channel
    <tspan class="st30" dy="1.2em" x="25.87">
     Sequencer
    </tspan>
   </text>
  </g>
  <g transform="translate(452.488,-591.648)">
   <path class="st12" d="M0 778.38 L26.71 778.38">
   </path>
  </g>
  <g transform="translate(545.29,-621.813)">
   <path class="st8" d="M8.86 772.58 L8.86 772.22 L9.18 728.04">
   </path>
  </g>
  <g transform="translate(216.3,-435.175)">
   <path class="st6" d="M9 778.38 L9 723.13">
   </path>
  </g>
  <g transform="translate(161.4,-391.375)">
   <desc>
    Trigger Selection
   </desc>
   <rect class="st10" height="15.8315" width="145.856" x="0" y="762.543">
   </rect>
   <text class="st15" x="25.31" y="774.66">
    Trigger Selection
   </text>
  </g>
  <g transform="translate(281.922,-621.704)">
   <path class="st6" d="M0 769.38 L146.55 769.38">
   </path>
  </g>
  <g transform="translate(230.25,-560.77)">
   <path class="st6" d="M0 787.08 L198.22 787.67">
   </path>
  </g>
  <g transform="translate(1204.42,46.2529) rotate(90)">
   <path class="st17" d="M0 778.38 L250.92 778.38 L223.99 748.05 L26.92 748.05 L0 778.38 Z">
   </path>
  </g>
  <g transform="translate(126.23,-582.239)">
   <path class="st6" d="M0 787.01 L88.83 787.74">
   </path>
  </g>
  <g transform="translate(131.39,-554.929)">
   <path class="st6" d="M0 787.32 L83.67 787.43">
   </path>
  </g>
  <g transform="translate(129.74,-533.617)">
   <path class="st6" d="M0 787.26 L83.07 787.49">
   </path>
  </g>
  <g transform="translate(129.08,-494.868)">
   <path class="st6" d="M0 769.76 L85.98 768.99">
   </path>
  </g>
  <g transform="translate(992.875,174.049) rotate(90)">
   <path class="st17" d="M0 778.38 L124.95 778.38 L105.7 760.48 L19.25 760.48 L0 778.38 Z">
   </path>
  </g>
  <g transform="translate(16.5245,-566.074)">
   <desc>
    ADC_ADTRG
   </desc>
   <rect class="st10" height="11.6206" width="95.5617" x="0" y="766.754">
   </rect>
   <text class="st14" x="4" y="776.76">
    ADC_ADTRG
   </text>
  </g>
  <g transform="translate(111.916,-563.058)">
   <g transform="translate(-5.55556E-13,-0.159664)">
    <rect class="st3" height="20.6642" width="18.5516" x="0" y="757.711">
    </rect>
   </g>
   <g transform="translate(-541.071,236.659) rotate(-45)">
    <path class="st13" d="M0 764.79 L13.52 764.79 L13.52 778.38 L13.52 764.79 L27.04 764.79 L13.52 764.79 L13.52 751.2 L13.52 764.79
							 L0 764.79 Z">
    </path>
   </g>
  </g>
  <g id="adc_44073-TCPWM" transform="translate(6.49034,-493.241)">
   <desc>
    TC, PWM, RTC
   </desc>
   <g class="st1" id="shadow116-338" transform="matrix(1,0,0,1,0.345598,1.97279)">
    <rect class="st16" height="62.8447" width="126.352" x="0" y="715.53">
    </rect>
   </g>
   <rect class="st31" height="62.8447" width="126.352" x="0" y="715.53">
   </rect>
   <text class="st32" x="28.4" y="750.55">
    TC, PWM, RTC
   </text>
  </g>
  <g transform="translate(0.75,-777.625)">
   <path class="st33" d="M0 778.38 L4.95 778.38 L2.24 778.38">
   </path>
  </g>
  <g id="adc_44073-input-pins-sama7g5" transform="translate(35.2463,-91.242)">
  </g>
  <g id="adc_44073-input-pins-pic32cx-mt" transform="translate(904.562,513.859) rotate(90.0908)">
   <path class="st26" d="M0 778.38 L177.47 778.38">
   </path>
  </g>
  <g transform="translate(677.003,-592.427)">
  </g>
  <g transform="translate(677.003,-661.064)">
   <desc>
    Sleep Mode
   </desc>
   <rect class="st34" height="21.9549" width="145.563" x="0" y="756.42">
   </rect>
   <text class="st11" x="38.9" y="771.6">
    Sleep Mode
   </text>
  </g>
  <g id="adc_44073-trigger-selection" transform="translate(261.008,-501.832)">
   <g transform="translate(20.3514,-80.6971)">
    <path class="st6" d="M0 769.44 L142.88 769.31">
    </path>
   </g>
  </g>
  <g id="adc_44073-result-sign" transform="translate(1113,-449.972)">
   <g transform="translate(834.879,734.757) rotate(90)">
    <path class="st12" d="M0 778.38 L37.46 778.38">
    </path>
   </g>
   <g transform="translate(7.19425E-14,-62.9032)">
    <desc>
     Result Sign
    </desc>
    <rect class="st10" height="15.8995" width="118.827" x="0" y="762.476">
    </rect>
    <text class="st11" x="28.39" y="774.63">
     Result Sign
    </text>
   </g>
  </g>
  <g id="adc_44073-trigger-lines" transform="translate(277.5,-501.832)">
   <g transform="translate(14.5594,-191.226)">
    <path class="st6" d="M0 769.54 L133.41 769.21">
    </path>
   </g>
   <g transform="translate(2.30364,-153.97)">
    <path class="st6" d="M0 769.38 L146.55 769.38">
    </path>
   </g>
   <g transform="translate(0,-0.110548)">
    <path class="st6" d="M0 770.28 L147.94 768.47">
    </path>
   </g>
  </g>
 </g>
</svg>
