<?xml version="1.0" encoding="UTF-8" standalone="no"?>
<!DOCTYPE svg PUBLIC "-//W3C//DTD SVG 1.1//EN" "http://www.w3.org/Graphics/SVG/1.1/DTD/svg11.dtd">
<!-- Generated by Microsoft Visio, SVG Export clk_04449.svg Page-1 -->
<svg class="st25" color-interpolation-filters="sRGB" height="16.8763in" viewBox="0 0 1359.21 1215.1" width="18.8779in" xml:space="preserve" xmlns="http://www.w3.org/2000/svg" xmlns:xlink="http://www.w3.org/1999/xlink">
 <style type="text/css">
  .st1 {marker-end:url(#mrkr10-6);stroke:#5b9bd5;stroke-dasharray:7,5;stroke-linecap:round;stroke-linejoin:round;stroke-width:1}
		.st2 {fill:#5b9bd5;fill-opacity:1;stroke:#5b9bd5;stroke-opacity:1;stroke-width:0.28409090909091}
		.st3 {marker-end:url(#mrkr4-17);stroke:#000000;stroke-linecap:round;stroke-linejoin:round;stroke-width:1}
		.st4 {fill:#000000;fill-opacity:1;stroke:#000000;stroke-opacity:1;stroke-width:0.28409090909091}
		.st5 {visibility:visible}
		.st6 {fill:none;filter:url(#filter_2.6666667461395);stroke:#000000;stroke-dasharray:15,9;stroke-opacity:0.4}
		.st7 {fill:none;stroke:#70ad47;stroke-dasharray:15,9;stroke-width:1}
		.st8 {fill:#dae8fc;stroke:#6c8ebf;stroke-width:1}
		.st9 {fill:#d5e8d4;stroke:#82b366;stroke-width:1}
		.st10 {fill:#000000;font-family:Times New Roman;font-size:1.5em}
		.st11 {marker-end:url(#mrkr5-45);stroke:#000000;stroke-linecap:round;stroke-linejoin:round;stroke-width:1}
		.st12 {fill:none;stroke:none;stroke-width:0.5}
		.st13 {fill:#000000;font-family:Calibri;font-size:1.16666em}
		.st14 {stroke:#000000;stroke-linecap:round;stroke-linejoin:round;stroke-width:1}
		.st15 {fill:#000000;font-family:Times New Roman;font-size:1.00001em}
		.st16 {fill:#000000;stroke:none;stroke-width:0.25}
		.st17 {fill:#000000;font-family:Calibri;font-size:1.5em;font-weight:bold}
		.st18 {fill:#e2efd9;stroke:#000000;stroke-width:0.25}
		.st19 {fill:#000000;font-family:Calibri;font-size:1.00001em}
		.st20 {font-size:1.16665em}
		.st21 {font-size:1.16665em;font-weight:bold}
		.st22 {fill:#000000;font-family:Times New Roman;font-size:1.16666em}
		.st23 {fill:#000000;font-family:Calibri;font-size:1.99999em}
		.st24 {fill:#000000;font-family:Calibri;font-size:1.16666em;font-weight:bold}
		.st25 {fill:none;fill-rule:evenodd;font-size:12px;overflow:visible;stroke-linecap:square;stroke-miterlimit:3}
 </style>
 <defs id="Markers">
  <g id="lend10">
   <path d="M 0 0.75 C -0.414214 0.75 -0.75 0.414214 -0.75 0 -0.75 -0.414214 -0.414214 -0.75 0 -0.75 0.414214 -0.75 0.75 -0.414214 0.75 0 0.75 0.414214 0.414214 0.75 0 0.75 Z " style="stroke:none">
   </path>
  </g>
  <marker class="st2" id="mrkr10-6" markerUnits="strokeWidth" orient="auto" overflow="visible" refX="-2.64">
   <use transform="scale(-3.52,-3.52) " xlink:href="#lend10">
   </use>
  </marker>
  <g id="lend4">
   <path d="M 2 1 L 0 0 L 2 -1 L 2 1 " style="stroke:none">
   </path>
  </g>
  <marker class="st4" id="mrkr4-17" markerUnits="strokeWidth" orient="auto" overflow="visible" refX="-7.04">
   <use transform="scale(-3.52,-3.52) " xlink:href="#lend4">
   </use>
  </marker>
  <g id="lend5">
   <path d="M 2 1 L 0 0 L 1.98117 -0.993387 C 1.67173 -0.364515 1.67301 0.372641 1.98465 1.00043 " style="stroke:none">
   </path>
  </g>
  <marker class="st4" id="mrkr5-45" markerUnits="strokeWidth" orient="auto" overflow="visible" refX="-6.16">
   <use transform="scale(-3.52,-3.52) " xlink:href="#lend5">
   </use>
  </marker>
 </defs>
 <defs id="Filters">
  <filter id="filter_2.6666667461395">
   <feGaussianBlur stdDeviation="2.6666667461395">
   </feGaussianBlur>
  </filter>
 </defs>
 <g>
  <g transform="translate(376.31,-679.221)">
   <path class="st1" d="M0 1215.1 L32.37 1215.1 L32.37 1236.41">
   </path>
  </g>
  <g transform="translate(374.819,-309.646)">
   <path class="st1" d="M0 1215.1 L32.37 1215.1 L32.37 1236.41">
   </path>
  </g>
  <g transform="translate(962.5,-267.964)">
   <path class="st3" d="M0 1224.06 L381.8 1224.13">
   </path>
  </g>
  <g transform="translate(16,-950)">
   <g class="st5" id="shadow2529-19" transform="matrix(1,0,0,1,0,3)">
    <path class="st6" d="M0 1215.1 L526.25 1215.1 L526.25 952.06 L0 952.06 L0 1215.1 Z">
    </path>
   </g>
   <path class="st7" d="M0 1215.1 L526.25 1215.1 L526.25 952.06 L0 952.06 L0 1215.1 Z">
   </path>
  </g>
  <g transform="translate(16.616,-472.22)">
   <g class="st5" id="shadow2544-24" transform="matrix(1,0,0,1,0,3)">
    <path class="st6" d="M0 1215.1 L525.63 1215.1 L525.63 871.97 L0 871.97 L0 1215.1 Z">
    </path>
   </g>
   <path class="st7" d="M0 1215.1 L525.63 1215.1 L525.63 871.97 L0 871.97 L0 1215.1 Z">
   </path>
  </g>
  <g transform="translate(1377.78,433.646) rotate(90)">
   <path class="st8" d="M0 1215.1 L264.07 1215.1 L240.67 1189.77 L23.4 1189.77 L0 1215.1 Z">
   </path>
  </g>
  <g transform="translate(31.216,-736.595)">
   <path class="st3" d="M0 1206.1 L124.04 1206.1">
   </path>
  </g>
  <g transform="translate(206.079,-654.382)">
   <desc>
    ÷
   </desc>
   <path class="st9" d="M4.02 1215.1 L36.14 1215.1 A4.01519 4.01519 -180 0 0 40.15 1211.08 L40.15 1179.67 A4.01519 4.01519 -180 0 0
						 36.14 1175.65 L4.02 1175.65 A4.01519 4.01519 -180 0 0 0 1179.67 L0 1211.08 A4.01519 4.01519 -180 0 0 4.02
						 1215.1 Z">
   </path>
   <text class="st10" x="14.5" y="1200.77">
    ÷
   </text>
  </g>
  <g transform="translate(308.459,-653.428)">
   <path class="st9" d="M4.13 1215.1 L37.16 1215.1 A4.12933 4.12933 -180 0 0 41.29 1210.97 L41.29 1179.78 A4.12933 4.12933 -180 0 0
						 37.16 1175.65 L4.13 1175.65 A4.12933 4.12933 -180 0 0 0 1179.78 L0 1210.97 A4.12933 4.12933 -180 0 0 4.13
						 1215.1 Z">
   </path>
  </g>
  <g transform="translate(246.13,-671.849)">
   <path class="st11" d="M0 1206.16 L55.68 1206.05">
   </path>
  </g>
  <g transform="translate(192,-581.5)">
   <desc>
    PLLPRE
   </desc>
   <rect class="st12" height="24.7832" width="67.0767" x="0" y="1190.31">
   </rect>
   <text class="st13" x="13.2" y="1206.9">
    PLLPRE
   </text>
  </g>
  <g transform="translate(1441.61,560.714) rotate(90)">
   <path class="st14" d="M0 1215.1 L11.15 1215.1">
   </path>
  </g>
  <g transform="translate(306.68,-664.938)">
   <desc>
    PFD
   </desc>
   <rect class="st12" height="24.7832" width="43.1301" x="0" y="1190.31">
   </rect>
   <text class="st13" x="10.43" y="1206.9">
    PFD
   </text>
  </g>
  <g transform="translate(311,-592.023)">
   <desc>
    X
   </desc>
   <path class="st9" d="M4.02 1215.1 L36.14 1215.1 A4.01519 4.01519 -180 0 0 40.15 1211.08 L40.15 1179.67 A4.01519 4.01519 -180 0 0
						 36.14 1175.65 L4.02 1175.65 A4.01519 4.01519 -180 0 0 0 1179.67 L0 1211.08 A4.01519 4.01519 -180 0 0 4.02
						 1215.1 Z">
   </path>
   <text class="st15" x="16" y="1198.97">
    X
   </text>
  </g>
  <g transform="translate(365.806,-678.11)">
   <path class="st3" d="M-3.56 1215.1 L-3.56 1281.49 L-7.4 1281.49">
   </path>
  </g>
  <g transform="translate(360.203,-675.86)">
   <path class="st16" d="M0 1212.31 A2.78811 2.78811 0 0 1 5.58 1212.31 A2.78811 2.78811 0 1 1 0 1212.31 Z">
   </path>
  </g>
  <g transform="translate(300,-513)">
   <desc>
    FBDIV
   </desc>
   <rect class="st12" height="24.7832" width="67.0767" x="0" y="1190.31">
   </rect>
   <text class="st13" x="16.47" y="1206.9">
    FBDIV
   </text>
  </g>
  <g transform="translate(1546.08,598.786) rotate(88.8065)">
   <path class="st14" d="M0 1215.1 L13.5 1215.1">
   </path>
  </g>
  <g transform="translate(187.591,-689.854)">
   <path class="st14" d="M0 1224.04 L18.85 1224.15">
   </path>
  </g>
  <g transform="translate(350.153,-688.502)">
   <path class="st14" d="M0 1223.81 L25.03 1224.38">
   </path>
  </g>
  <g transform="translate(385.003,-610.595)">
   <path class="st14" d="M-8.97 1215.1 L-9.03 1109.85">
   </path>
  </g>
  <g transform="translate(376.028,-707.908)">
   <path class="st11" d="M0 1206.66 L225.03 1205.56">
   </path>
  </g>
  <g transform="translate(377.154,-602.158)">
   <path class="st11" d="M0 1206.66 L239.09 1205.56">
   </path>
  </g>
  <g transform="translate(373.28,-779.54)">
   <desc>
    POSTDIV1
   </desc>
   <rect class="st12" height="24.7832" width="67.0767" x="0" y="1190.31">
   </rect>
   <text class="st13" x="5.07" y="1206.9">
    POSTDIV1
   </text>
  </g>
  <g transform="translate(455.36,-779.9)">
   <desc>
    POSTDIV2
   </desc>
   <rect class="st12" height="24.7832" width="67.0767" x="0" y="1190.31">
   </rect>
   <text class="st13" x="5.07" y="1206.9">
    POSTDIV2
   </text>
  </g>
  <g transform="translate(437.5,-514)">
   <desc>
    VCODIV(N)
   </desc>
   <rect class="st12" height="24.7832" width="75.7099" x="0" y="1190.31">
   </rect>
   <text class="st13" x="6.71" y="1206.9">
    VCODIV(N)
   </text>
  </g>
  <g transform="translate(318.318,-612.845)">
   <path class="st3" d="M-7.45 1215.1 L-21.04 1215.1 L-21.04 1168.35 L-17.59 1168.35">
   </path>
  </g>
  <g transform="translate(13.5,-1196.5)">
   <desc>
    External Clock Configuration
   </desc>
   <rect class="st12" height="10.2785" width="261.795" x="0" y="1204.82">
   </rect>
   <text class="st17" x="4" y="1215.36">
    External Clock Configuration
   </text>
  </g>
  <g transform="translate(17.5,-792)">
   <desc>
    Phase Lock Loop 1 Configuration
   </desc>
   <rect class="st12" height="10.2785" width="286.204" x="0" y="1204.82">
   </rect>
   <text class="st17" x="4" y="1215.36">
    Phase Lock Loop 1 Configuration
   </text>
  </g>
  <g transform="translate(31.6886,-710.312)">
   <path class="st3" d="M0 1223.69 L123.57 1224.46">
   </path>
  </g>
  <g transform="translate(32.5786,-645.687)">
   <path class="st3" d="M0 1206.31 L121.9 1205.9">
   </path>
  </g>
  <g transform="translate(34.0619,-597.095)">
   <path class="st3" d="M0 1206.1 L122.3 1206.1">
   </path>
  </g>
  <g transform="translate(32.8752,-547.999)">
   <path class="st3" d="M0 1206.5 L121.6 1205.74">
   </path>
  </g>
  <g transform="translate(1703,413.451) rotate(87.4329)">
   <path class="st14" d="M0 1215.1 L11.76 1215.1">
   </path>
  </g>
  <g transform="translate(426,-589)">
   <desc>
    ÷(2N)
   </desc>
   <path class="st9" d="M8.94 1215.1 L80.49 1215.1 A8.9436 8.9436 -180 0 0 89.44 1206.15 L89.44 1184.6 A8.9436 8.9436 -180 0 0 80.49
						 1175.65 L8.94 1175.65 A8.9436 8.9436 -180 0 0 0 1184.6 L0 1206.15 A8.9436 8.9436 -180 0 0 8.94 1215.1 Z">
   </path>
   <text class="st13" x="26.15" y="1199.57">
    ÷(2N)
   </text>
  </g>
  <g transform="translate(1685.06,627) rotate(90)">
   <path class="st14" d="M0 1215.1 L9.28 1215.1">
   </path>
  </g>
  <g transform="translate(302.829,-858.157)">
  </g>
  <g transform="translate(650.247,-772.595)">
   <g class="st5" id="shadow3158-141" transform="matrix(1,0,0,1,0,3)">
    <path class="st6" d="M0 1215.1 L483.19 1215.1 L483.19 774.1 L0 774.1 L0 1215.1 Z">
    </path>
   </g>
   <path class="st7" d="M0 1215.1 L483.19 1215.1 L483.19 774.1 L0 774.1 L0 1215.1 Z">
   </path>
  </g>
  <g transform="translate(948.654,-993.811)">
   <path class="st3" d="M0 1223.69 L327.59 1224.49">
   </path>
  </g>
  <g transform="translate(666.841,-1129.31)">
   <path class="st3" d="M0 1206.19 L244.73 1206.01">
   </path>
  </g>
  <g transform="translate(667.853,-1100.36)">
   <path class="st3" d="M0 1206.27 L243.94 1205.93">
   </path>
  </g>
  <g transform="translate(667.201,-1088.17)">
   <path class="st3" d="M0 1223.89 L243.94 1224.29">
   </path>
  </g>
  <g transform="translate(665.896,-1036.24)">
   <path class="st3" d="M0 1206.83 L247.03 1205.4">
   </path>
  </g>
  <g transform="translate(668.505,-1009.52)">
   <path class="st3" d="M0 1206.55 L242.73 1205.67">
   </path>
  </g>
  <g transform="translate(2134.6,30.4938) rotate(90)">
   <path class="st8" d="M0 1215.1 L365.88 1215.1 L333.46 1185.94 L32.42 1185.94 L0 1215.1 Z">
   </path>
  </g>
  <g transform="translate(667.201,-979.423)">
   <path class="st3" d="M0 1206.27 L245.16 1205.93">
   </path>
  </g>
  <g transform="translate(664.591,-947.36)">
   <path class="st3" d="M0 1206.83 L248.9 1205.4">
   </path>
  </g>
  <g transform="translate(667.201,-932.329)">
   <path class="st3" d="M0 1223.86 L244.92 1224.32">
   </path>
  </g>
  <g transform="translate(667.5,-901.048)">
   <path class="st3" d="M0 1223.14 L243.95 1224.99">
   </path>
  </g>
  <g transform="translate(666,-868.437)">
   <path class="st3" d="M0 1223.53 L245.76 1224.63">
   </path>
  </g>
  <g transform="translate(1128.97,-987.739)">
   <desc>
    System Clock Frequency
   </desc>
   <rect class="st12" height="14.8531" width="167.942" x="0" y="1200.24">
   </rect>
   <text class="st13" x="15.31" y="1211.87">
    System Clock Frequency
   </text>
  </g>
  <g transform="translate(1142.58,-984.459)">
   <path class="st3" d="M0 1215.1 L0 1302.9 L184.84 1302.9">
   </path>
  </g>
  <g transform="translate(1142.65,-894.965)">
   <path class="st3" d="M0 1215.1 L0 1283.16 L168.46 1283.16">
   </path>
  </g>
  <g transform="translate(1137.56,-892.42)">
   <desc>
    Standard Speed Peripheral Clock
   </desc>
   <rect class="st12" height="14.8531" width="203.697" x="0" y="1200.24">
   </rect>
   <text class="st13" x="9.27" y="1203.47">
    Standard Speed Peripheral Clock
   </text>
  </g>
  <g transform="translate(1124.88,-818.375)">
   <desc>
    Slow Speed Peripheral Clock
   </desc>
   <rect class="st12" height="14.8531" width="203.697" x="0" y="1200.24">
   </rect>
   <text class="st13" x="21.49" y="1203.47">
    Slow Speed Peripheral Clock
   </text>
  </g>
  <g transform="translate(653,-682.25)">
   <g class="st5" id="shadow3197-222" transform="matrix(1,0,0,1,0,3)">
    <path class="st6" d="M0 1215.1 L480.58 1215.1 L480.58 1142.59 L0 1142.59 L0 1215.1 Z">
    </path>
   </g>
   <path class="st7" d="M0 1215.1 L480.58 1215.1 L480.58 1142.59 L0 1142.59 L0 1215.1 Z">
   </path>
  </g>
  <g transform="translate(638.5,-734.5)">
   <desc>
    Clock Generator 2 (FRC)
   </desc>
   <rect class="st12" height="15.6336" width="216.261" x="0" y="1199.46">
   </rect>
   <text class="st17" x="19.57" y="1212.68">
    Clock Generator 2 (FRC)
   </text>
  </g>
  <g transform="translate(633.312,-1192.44)">
   <desc>
    System Clock (Clock Generator 1)
   </desc>
   <rect class="st12" height="14.8531" width="292.6" x="0" y="1200.24">
   </rect>
   <text class="st17" x="22.69" y="1213.07">
    System Clock (Clock Generator 1)
   </text>
  </g>
  <g transform="translate(920.284,-722.316)">
   <path class="st3" d="M0 1223.75 L381.33 1224.43">
   </path>
  </g>
  <g transform="translate(641.5,-644)">
   <desc>
    Clock Generator 3 (BFRC)
   </desc>
   <rect class="st12" height="15.6336" width="217.308" x="0" y="1199.46">
   </rect>
   <text class="st17" x="15.05" y="1212.68">
    Clock Generator 3 (BFRC)
   </text>
  </g>
  <g transform="translate(919.221,-618.02)">
   <path class="st3" d="M0 1206.55 L382.39 1205.66">
   </path>
  </g>
  <g transform="translate(541,-720.5)">
   <desc>
    PLL1 Fout
   </desc>
   <rect class="st12" height="14.8531" width="68.625" x="0" y="1200.24">
   </rect>
   <text class="st13" x="6.75" y="1211.87">
    PLL1 Fout
   </text>
  </g>
  <g transform="translate(542,-614.5)">
   <desc>
    PLL1 VCO Div
   </desc>
   <rect class="st12" height="14.8531" width="110.25" x="0" y="1200.24">
   </rect>
   <text class="st13" x="4" y="1211.87">
    PLL1 VCO Div
   </text>
  </g>
  <g transform="translate(1119.28,-720.161)">
   <desc>
    Clock Generator 2 Frequency
   </desc>
   <rect class="st12" height="14.8531" width="202.279" x="0" y="1200.24">
   </rect>
   <text class="st13" x="18.56" y="1211.87">
    Clock Generator 2 Frequency
   </text>
  </g>
  <g transform="translate(1119.87,-634.437)">
   <desc>
    Clock Generator 3 Frequency
   </desc>
   <rect class="st12" height="14.8531" width="202.279" x="0" y="1200.24">
   </rect>
   <text class="st13" x="18.56" y="1211.87">
    Clock Generator 3 Frequency
   </text>
  </g>
  <g transform="translate(1620.14,467.431) rotate(89.9997)">
   <path class="st14" d="M0 1215.1 L14.06 1215.1">
   </path>
  </g>
  <g transform="translate(652.437,-593.937)">
   <g class="st5" id="shadow3291-261" transform="matrix(1,0,0,1,0,3)">
    <path class="st6" d="M0 1215.1 L480.12 1215.1 L480.12 1143.74 L0 1143.74 L0 1215.1 Z">
    </path>
   </g>
   <path class="st7" d="M0 1215.1 L480.12 1215.1 L480.12 1143.74 L0 1143.74 L0 1215.1 Z">
   </path>
  </g>
  <g transform="translate(653.904,-99.8455)">
   <g class="st5" id="shadow3294-266" transform="matrix(1,0,0,1,0,3)">
    <path class="st6" d="M0 1215.1 L505.9 1215.1 L505.9 749.35 L0 749.35 L0 1215.1 Z">
    </path>
   </g>
   <path class="st7" d="M0 1215.1 L505.9 1215.1 L505.9 749.35 L0 749.35 L0 1215.1 Z">
   </path>
  </g>
  <g transform="translate(384.4,-693.8)">
   <desc>
    ÷
   </desc>
   <path class="st9" d="M4.02 1215.1 L36.14 1215.1 A4.01519 4.01519 -180 0 0 40.15 1211.08 L40.15 1179.67 A4.01519 4.01519 -180 0 0
						 36.14 1175.65 L4.02 1175.65 A4.01519 4.01519 -180 0 0 0 1179.67 L0 1211.08 A4.01519 4.01519 -180 0 0 4.02
						 1215.1 Z">
   </path>
   <text class="st10" x="14.5" y="1200.77">
    ÷
   </text>
  </g>
  <g id="data-clk-divider-block" transform="translate(938.957,-879.047)">
   <g transform="translate(66.5429,-190.953)">
    <desc>
     INTDIV(N)
    </desc>
    <rect class="st12" height="14.8531" width="97.3133" x="0" y="1200.24">
    </rect>
    <text class="st13" x="20.16" y="1211.87">
     INTDIV(N)
    </text>
   </g>
   <g transform="translate(67.0429,-4.95279)">
    <desc>
     FRACDIV(M)
    </desc>
    <rect class="st12" height="13.7538" width="101.889" x="0" y="1201.34">
    </rect>
    <text class="st13" x="15.87" y="1212.42">
     FRACDIV(M)
    </text>
   </g>
   <g transform="translate(75.0807,-80.1566)">
    <rect class="st18" height="50.6249" width="110.745" x="0" y="1164.47">
    </rect>
   </g>
   <g transform="translate(108.558,-131.287)">
    <path class="st14" d="M8.92 1214.48 L9.08 1197.71">
    </path>
   </g>
   <g transform="translate(70.9048,-98.349)">
    <desc>
     ÷ 2 x (N +
    </desc>
    <rect class="st12" height="14.1484" width="103.034" x="0" y="1200.95">
    </rect>
    <text class="st19" x="7.17" y="1212.22">
     ÷
     <tspan class="st20">
     </tspan>
     <tspan class="st20">
      2 x (
     </tspan>
     <tspan class="st21">
      N
     </tspan>
     <tspan class="st20">
     </tspan>
     <tspan class="st20">
      +
     </tspan>
    </text>
   </g>
   <g transform="translate(127.418,-105.261)">
    <rect class="st12" height="14.1484" width="30.6229" x="0" y="1200.95">
    </rect>
   </g>
   <g transform="translate(152.968,-114.513)">
    <path class="st14" d="M-0.52 1223.84 L-17.48 1224.35">
    </path>
   </g>
   <g transform="translate(127.696,-90.5111)">
    <desc>
     512
    </desc>
    <rect class="st12" height="14.1484" width="30.6229" x="0" y="1200.95">
    </rect>
    <text class="st22" x="4.81" y="1212.27">
     512
    </text>
   </g>
   <g transform="translate(78.403,-98.3861)">
    <desc>
     [
    </desc>
    <rect class="st12" height="16.0312" width="13.5752" x="0" y="1199.06">
    </rect>
    <text class="st23" x="4" y="1214.28">
     [
    </text>
   </g>
   <g transform="translate(153.535,-98.2611)">
    <desc>
     ]
    </desc>
    <rect class="st12" height="16.0312" width="11.6228" x="0" y="1199.06">
    </rect>
    <text class="st23" x="4" y="1214.28">
     ]
    </text>
   </g>
   <g transform="translate(126.644,-105.405)">
    <desc>
     M
    </desc>
    <rect class="st12" height="12.5751" width="30.062" x="0" y="1202.52">
    </rect>
    <text class="st24" x="8.91" y="1213.01">
     M
    </text>
   </g>
   <g transform="translate(150.494,-98.5047)">
    <desc>
     )
    </desc>
    <rect class="st12" height="14.1484" width="11.6764" x="0" y="1200.95">
    </rect>
    <text class="st19" x="4" y="1211.62">
     )
    </text>
   </g>
   <g transform="translate(125.65,-59.2301)">
    <path class="st14" d="M-8.86 1215.1 L-9.14 1194.85">
    </path>
   </g>
  </g>
  <g id="data-common-clk-divider-block" transform="translate(930,-148)">
   <g transform="translate(148.495,-108.761)">
    <rect class="st12" height="14.1484" width="30.6229" x="0" y="1200.95">
    </rect>
   </g>
   <g transform="translate(95.8999,-191.631)">
    <desc>
     INTDIV(N)
    </desc>
    <rect class="st12" height="14.8531" width="97.3133" x="0" y="1200.24">
    </rect>
    <text class="st13" x="20.16" y="1211.87">
     INTDIV(N)
    </text>
   </g>
   <g transform="translate(96,-12.5)">
    <desc>
     FRACDIV(M)
    </desc>
    <rect class="st12" height="13.7538" width="101.889" x="0" y="1201.34">
    </rect>
    <text class="st13" x="15.87" y="1212.42">
     FRACDIV(M)
    </text>
   </g>
   <g transform="translate(96.1473,-86.8455)">
    <rect class="st18" height="50.6249" width="110.745" x="0" y="1164.47">
    </rect>
   </g>
   <g transform="translate(139.573,-136.995)">
    <path class="st14" d="M8.96 1214.38 L9.04 1197.81">
    </path>
   </g>
   <g transform="translate(91.9714,-105.038)">
    <desc>
     ÷ 2 x (N +
    </desc>
    <rect class="st12" height="14.1484" width="103.034" x="0" y="1200.95">
    </rect>
    <text class="st19" x="7.17" y="1212.22">
     ÷
     <tspan class="st20">
     </tspan>
     <tspan class="st20">
      2 x (
     </tspan>
     <tspan class="st21">
      N
     </tspan>
     <tspan class="st20">
     </tspan>
     <tspan class="st20">
      +
     </tspan>
    </text>
   </g>
   <g transform="translate(156.031,-105.261)">
    <rect class="st12" height="14.1484" width="30.6229" x="0" y="1200.95">
    </rect>
   </g>
   <g transform="translate(176.835,-102.914)">
    <path class="st14" d="M0 1206.1 L-20.53 1206.1">
    </path>
   </g>
   <g transform="translate(148.763,-97.2)">
    <desc>
     512
    </desc>
    <rect class="st12" height="14.1484" width="30.6229" x="0" y="1200.95">
    </rect>
    <text class="st22" x="4.81" y="1212.27">
     512
    </text>
   </g>
   <g transform="translate(99.4696,-105.075)">
    <desc>
     [
    </desc>
    <rect class="st12" height="16.0312" width="13.5752" x="0" y="1199.06">
    </rect>
    <text class="st23" x="4" y="1214.28">
     [
    </text>
   </g>
   <g transform="translate(182.163,-104.315)">
    <desc>
     ]
    </desc>
    <rect class="st12" height="16.0312" width="11.6228" x="0" y="1199.06">
    </rect>
    <text class="st23" x="4" y="1214.28">
     ]
    </text>
   </g>
   <g transform="translate(147.711,-112.094)">
    <desc>
     M
    </desc>
    <rect class="st12" height="12.5751" width="30.062" x="0" y="1202.52">
    </rect>
    <text class="st24" x="8.91" y="1213.01">
     M
    </text>
   </g>
   <g transform="translate(176.716,-105.026)">
    <desc>
     )
    </desc>
    <rect class="st12" height="14.1484" width="11.6764" x="0" y="1200.95">
    </rect>
    <text class="st19" x="4" y="1211.62">
     )
    </text>
   </g>
   <g transform="translate(138.044,-68.5522)">
    <path class="st14" d="M8.83 1215.1 L9.17 1197.07">
    </path>
   </g>
  </g>
  <g transform="translate(16.5,-831.5)">
   <g class="st5" id="shadow3361-362" transform="matrix(1,0,0,1,0,3)">
    <path class="st6" d="M0 1215.1 L526.03 1215.1 L526.03 1116.14 L0 1116.14 L0 1215.1 Z">
    </path>
   </g>
   <path class="st7" d="M0 1215.1 L526.03 1215.1 L526.03 1116.14 L0 1116.14 L0 1215.1 Z">
   </path>
  </g>
  <g transform="translate(0.5,-907.4)">
   <desc>
    Clock Fail Interrupt Configuration
   </desc>
   <rect class="st12" height="14.8531" width="292.6" x="0" y="1200.24">
   </rect>
   <text class="st17" x="22.02" y="1213.07">
    Clock Fail Interrupt Configuration
   </text>
  </g>
  <g transform="translate(16.0285,-7.49999)">
   <g class="st5" id="shadow3365-370" transform="matrix(1,0,0,1,0,3)">
    <path class="st6" d="M0 1215.1 L1143.84 1215.1 L1143.84 1142 L0 1142 L0 1215.1 Z">
    </path>
   </g>
   <path class="st7" d="M0 1215.1 L1143.84 1215.1 L1143.84 1142 L0 1142 L0 1215.1 Z">
   </path>
  </g>
  <g transform="translate(24.7473,-32)">
   <desc>
    Note : Clock Monitor settings can be configured using the Tre...
   </desc>
   <rect class="st12" height="14.8531" width="1130.91" x="0" y="1200.24">
   </rect>
   <text class="st17" x="54.58" y="1202.27">
    Note : Clock Monitor settings can be configured using the Tree view.  Navigate to the section System/Clock/Clock Monitor Configuration.
   </text>
  </g>
  <g transform="translate(15.125,-103.22)">
   <g class="st5" id="shadow3453-378" transform="matrix(1,0,0,1,0,3)">
    <path class="st6" d="M0 1215.1 L528.25 1215.1 L528.25 868.6 L0 868.6 L0 1215.1 Z">
    </path>
   </g>
   <path class="st7" d="M0 1215.1 L528.25 1215.1 L528.25 868.6 L0 868.6 L0 1215.1 Z">
   </path>
  </g>
  <g transform="translate(1376.29,803.22) rotate(90)">
   <path class="st8" d="M0 1215.1 L264.07 1215.1 L240.67 1188.42 L23.4 1188.42 L0 1215.1 Z">
   </path>
  </g>
  <g transform="translate(33.9305,-385.027)">
   <path class="st3" d="M0 1224.09 L119.89 1224.1">
   </path>
  </g>
  <g transform="translate(204.588,-284.807)">
   <desc>
    ÷
   </desc>
   <path class="st9" d="M4.02 1215.1 L36.14 1215.1 A4.01519 4.01519 -180 0 0 40.15 1211.08 L40.15 1179.67 A4.01519 4.01519 -180 0 0
						 36.14 1175.65 L4.02 1175.65 A4.01519 4.01519 -180 0 0 0 1179.67 L0 1211.08 A4.01519 4.01519 -180 0 0 4.02
						 1215.1 Z">
   </path>
   <text class="st10" x="14.5" y="1200.77">
    ÷
   </text>
  </g>
  <g transform="translate(306.968,-283.853)">
   <path class="st9" d="M4.13 1215.1 L37.16 1215.1 A4.12933 4.12933 -180 0 0 41.29 1210.97 L41.29 1179.78 A4.12933 4.12933 -180 0 0
						 37.16 1175.65 L4.13 1175.65 A4.12933 4.12933 -180 0 0 0 1179.78 L0 1210.97 A4.12933 4.12933 -180 0 0 4.13
						 1215.1 Z">
   </path>
  </g>
  <g transform="translate(244.639,-302.561)">
   <path class="st11" d="M0 1206.44 L54.78 1205.82">
   </path>
  </g>
  <g transform="translate(189,-212)">
   <desc>
    PLLPRE
   </desc>
   <rect class="st12" height="24.7832" width="67.0767" x="0" y="1190.31">
   </rect>
   <text class="st13" x="13.2" y="1206.9">
    PLLPRE
   </text>
  </g>
  <g transform="translate(1440.12,930.289) rotate(90)">
   <path class="st14" d="M0 1215.1 L11.15 1215.1">
   </path>
  </g>
  <g transform="translate(305.189,-295.363)">
   <desc>
    PFD
   </desc>
   <rect class="st12" height="24.7832" width="43.1301" x="0" y="1190.31">
   </rect>
   <text class="st13" x="10.43" y="1206.9">
    PFD
   </text>
  </g>
  <g transform="translate(309.071,-221)">
   <desc>
    X
   </desc>
   <path class="st9" d="M4.02 1215.1 L36.14 1215.1 A4.01519 4.01519 -180 0 0 40.15 1211.08 L40.15 1179.67 A4.01519 4.01519 -180 0 0
						 36.14 1175.65 L4.02 1175.65 A4.01519 4.01519 -180 0 0 0 1179.67 L0 1211.08 A4.01519 4.01519 -180 0 0 4.02
						 1215.1 Z">
   </path>
   <text class="st15" x="16" y="1198.97">
    X
   </text>
  </g>
  <g transform="translate(364.826,-308.533)">
   <path class="st3" d="M-3.14 1215.1 L-3.14 1283.95 L-7.82 1283.95">
   </path>
  </g>
  <g transform="translate(358.712,-306.285)">
   <path class="st16" d="M0 1212.31 A2.78811 2.78811 0 0 1 5.58 1212.31 A2.78811 2.78811 0 1 1 0 1212.31 Z">
   </path>
  </g>
  <g transform="translate(299.5,-142.5)">
   <desc>
    FBDIV
   </desc>
   <rect class="st12" height="24.7832" width="67.0767" x="0" y="1190.31">
   </rect>
   <text class="st13" x="16.47" y="1206.9">
    FBDIV
   </text>
  </g>
  <g transform="translate(1543.83,969.108) rotate(88.8065)">
   <path class="st14" d="M0 1215.1 L13.5 1215.1">
   </path>
  </g>
  <g transform="translate(187.339,-320.285)">
   <path class="st14" d="M0.39 1224.04 L17.61 1224.16">
   </path>
  </g>
  <g transform="translate(348.662,-318.927)">
   <path class="st14" d="M0 1223.81 L25.03 1224.38">
   </path>
  </g>
  <g transform="translate(365.132,-241.033)">
   <path class="st14" d="M8.65 1215.1 L9.35 1109.86">
   </path>
  </g>
  <g transform="translate(374.537,-354.933)">
   <path class="st11" d="M0 1223.26 L224.27 1224.89">
   </path>
  </g>
  <g transform="translate(374.341,-231.47)">
   <path class="st11" d="M0 1206.1 L240.21 1206.1">
   </path>
  </g>
  <g transform="translate(371.789,-409.965)">
   <desc>
    POSTDIV1
   </desc>
   <rect class="st12" height="24.7832" width="67.0767" x="0" y="1190.31">
   </rect>
   <text class="st13" x="5.07" y="1206.9">
    POSTDIV1
   </text>
  </g>
  <g transform="translate(453.869,-410.325)">
   <desc>
    POSTDIV2
   </desc>
   <rect class="st12" height="24.7832" width="67.0767" x="0" y="1190.31">
   </rect>
   <text class="st13" x="5.07" y="1206.9">
    POSTDIV2
   </text>
  </g>
  <g transform="translate(436.5,-145.5)">
   <desc>
    VCODIV(N)
   </desc>
   <rect class="st12" height="24.7832" width="75.7099" x="0" y="1190.31">
   </rect>
   <text class="st13" x="6.71" y="1206.9">
    VCODIV(N)
   </text>
  </g>
  <g transform="translate(316.827,-241.033)">
   <path class="st3" d="M-7.45 1215.1 L-20.11 1215.1 L-20.11 1166.12 L-17.59 1166.12">
   </path>
  </g>
  <g transform="translate(16.009,-422.425)">
   <desc>
    Phase Lock Loop 2 Configuration
   </desc>
   <rect class="st12" height="10.2785" width="286.204" x="0" y="1204.82">
   </rect>
   <text class="st17" x="4" y="1215.36">
    Phase Lock Loop 2 Configuration
   </text>
  </g>
  <g transform="translate(33.9874,-322.101)">
   <path class="st3" d="M0 1206.32 L119.83 1205.89">
   </path>
  </g>
  <g transform="translate(33.2511,-276.101)">
   <path class="st3" d="M0 1206.32 L119.83 1205.89">
   </path>
  </g>
  <g transform="translate(31.7785,-227.448)">
   <path class="st3" d="M0 1206.17 L123.09 1206.03">
   </path>
  </g>
  <g transform="translate(33.2511,-178.601)">
   <path class="st3" d="M0 1206.32 L119.83 1205.89">
   </path>
  </g>
  <g transform="translate(1702.55,858.46) rotate(90.9907)">
   <path class="st14" d="M0 1215.1 L13.43 1215.1">
   </path>
  </g>
  <g transform="translate(425.429,-219.393)">
   <desc>
    ÷(2N)
   </desc>
   <path class="st9" d="M8.94 1215.1 L80.49 1215.1 A8.9436 8.9436 -180 0 0 89.44 1206.15 L89.44 1184.6 A8.9436 8.9436 -180 0 0 80.49
						 1175.65 L8.94 1175.65 A8.9436 8.9436 -180 0 0 0 1184.6 L0 1206.15 A8.9436 8.9436 -180 0 0 8.94 1215.1 Z">
   </path>
   <text class="st13" x="26.15" y="1199.57">
    ÷(2N)
   </text>
  </g>
  <g transform="translate(1684.89,1023.01) rotate(91.3027)">
   <path class="st14" d="M0 1215.1 L12.38 1215.1">
   </path>
  </g>
  <g transform="translate(539.509,-350.925)">
   <desc>
    PLL2 Fout
   </desc>
   <rect class="st12" height="14.8531" width="68.625" x="0" y="1200.24">
   </rect>
   <text class="st13" x="6.75" y="1211.87">
    PLL2 Fout
   </text>
  </g>
  <g transform="translate(529,-244)">
   <desc>
    PLL2 VCO Div
   </desc>
   <rect class="st12" height="14.8531" width="110.25" x="0" y="1200.24">
   </rect>
   <text class="st13" x="17.5" y="1211.87">
    PLL2 VCO Div
   </text>
  </g>
  <g transform="translate(1618.65,837.006) rotate(89.9997)">
   <path class="st14" d="M0 1215.1 L14.06 1215.1">
   </path>
  </g>
  <g transform="translate(382.909,-324.225)">
   <desc>
    ÷
   </desc>
   <path class="st9" d="M4.02 1215.1 L36.14 1215.1 A4.01519 4.01519 -180 0 0 40.15 1211.08 L40.15 1179.67 A4.01519 4.01519 -180 0 0
						 36.14 1175.65 L4.02 1175.65 A4.01519 4.01519 -180 0 0 0 1179.67 L0 1211.08 A4.01519 4.01519 -180 0 0 4.02
						 1215.1 Z">
   </path>
   <text class="st10" x="14.5" y="1200.77">
    ÷
   </text>
  </g>
  <g transform="translate(680.75,-457.594)">
   <path class="st3" d="M0 1206.19 L244.73 1206.01">
   </path>
  </g>
  <g transform="translate(681.762,-428.64)">
   <path class="st3" d="M0 1206.27 L243.94 1205.93">
   </path>
  </g>
  <g transform="translate(681.11,-416.452)">
   <path class="st3" d="M0 1223.89 L243.94 1224.29">
   </path>
  </g>
  <g transform="translate(679.805,-364.515)">
   <path class="st3" d="M0 1206.83 L247.03 1205.4">
   </path>
  </g>
  <g transform="translate(682.414,-337.796)">
   <path class="st3" d="M0 1206.55 L242.73 1205.67">
   </path>
  </g>
  <g transform="translate(2148.5,712.5) rotate(90)">
   <path class="st8" d="M0 1215.1 L355.6 1215.1 L324.09 1185.94 L31.51 1185.94 L0 1215.1 Z">
   </path>
  </g>
  <g transform="translate(681.11,-307.702)">
   <path class="st3" d="M0 1206.27 L245.16 1205.93">
   </path>
  </g>
  <g transform="translate(678.5,-275.64)">
   <path class="st3" d="M0 1206.83 L248.9 1205.4">
   </path>
  </g>
  <g transform="translate(681.11,-260.608)">
   <path class="st3" d="M0 1223.86 L244.92 1224.32">
   </path>
  </g>
  <g transform="translate(681.409,-229.327)">
   <path class="st3" d="M0 1223.14 L243.95 1224.99">
   </path>
  </g>
  <g transform="translate(679.909,-196.717)">
   <path class="st3" d="M0 1223.53 L245.76 1224.63">
   </path>
  </g>
  <g transform="translate(466.5,-325)">
   <desc>
    ÷
   </desc>
   <path class="st9" d="M4.02 1215.1 L36.14 1215.1 A4.01519 4.01519 -180 0 0 40.15 1211.08 L40.15 1179.67 A4.01519 4.01519 -180 0 0
						 36.14 1175.65 L4.02 1175.65 A4.01519 4.01519 -180 0 0 0 1179.67 L0 1211.08 A4.01519 4.01519 -180 0 0 4.02
						 1215.1 Z">
   </path>
   <text class="st10" x="14.5" y="1200.77">
    ÷
   </text>
  </g>
  <g transform="translate(470,-695.5)">
   <desc>
    ÷
   </desc>
   <path class="st9" d="M4.02 1215.1 L36.14 1215.1 A4.01519 4.01519 -180 0 0 40.15 1211.08 L40.15 1179.67 A4.01519 4.01519 -180 0 0
						 36.14 1175.65 L4.02 1175.65 A4.01519 4.01519 -180 0 0 0 1179.67 L0 1211.08 A4.01519 4.01519 -180 0 0 4.02
						 1215.1 Z">
   </path>
   <text class="st10" x="14.5" y="1200.77">
    ÷
   </text>
  </g>
 </g>
</svg>
